%TF.GenerationSoftware,KiCad,Pcbnew,6.0.4+dfsg-1+b1*%
%TF.CreationDate,2022-05-28T20:55:50+05:00*%
%TF.ProjectId,evlamp,65766c61-6d70-42e6-9b69-6361645f7063,rev?*%
%TF.SameCoordinates,Original*%
%TF.FileFunction,Legend,Top*%
%TF.FilePolarity,Positive*%
%FSLAX46Y46*%
G04 Gerber Fmt 4.6, Leading zero omitted, Abs format (unit mm)*
G04 Created by KiCad (PCBNEW 6.0.4+dfsg-1+b1) date 2022-05-28 20:55:50*
%MOMM*%
%LPD*%
G01*
G04 APERTURE LIST*
G04 Aperture macros list*
%AMRoundRect*
0 Rectangle with rounded corners*
0 $1 Rounding radius*
0 $2 $3 $4 $5 $6 $7 $8 $9 X,Y pos of 4 corners*
0 Add a 4 corners polygon primitive as box body*
4,1,4,$2,$3,$4,$5,$6,$7,$8,$9,$2,$3,0*
0 Add four circle primitives for the rounded corners*
1,1,$1+$1,$2,$3*
1,1,$1+$1,$4,$5*
1,1,$1+$1,$6,$7*
1,1,$1+$1,$8,$9*
0 Add four rect primitives between the rounded corners*
20,1,$1+$1,$2,$3,$4,$5,0*
20,1,$1+$1,$4,$5,$6,$7,0*
20,1,$1+$1,$6,$7,$8,$9,0*
20,1,$1+$1,$8,$9,$2,$3,0*%
G04 Aperture macros list end*
%ADD10C,0.150000*%
%ADD11C,0.120000*%
%ADD12C,0.800000*%
%ADD13C,5.000000*%
%ADD14R,2.400000X1.600000*%
%ADD15O,2.400000X1.600000*%
%ADD16RoundRect,0.250000X0.337500X0.475000X-0.337500X0.475000X-0.337500X-0.475000X0.337500X-0.475000X0*%
%ADD17R,3.000000X3.000000*%
%ADD18C,3.000000*%
%ADD19RoundRect,0.250000X-0.350000X-0.450000X0.350000X-0.450000X0.350000X0.450000X-0.350000X0.450000X0*%
%ADD20RoundRect,0.250000X-0.450000X0.350000X-0.450000X-0.350000X0.450000X-0.350000X0.450000X0.350000X0*%
%ADD21R,1.700000X1.700000*%
%ADD22O,1.700000X1.700000*%
G04 APERTURE END LIST*
D10*
%TO.C,DD1*%
X90250095Y-85018571D02*
X90583428Y-85018571D01*
X90726285Y-85542380D02*
X90250095Y-85542380D01*
X90250095Y-84542380D01*
X90726285Y-84542380D01*
X91107238Y-85494761D02*
X91250095Y-85542380D01*
X91488190Y-85542380D01*
X91583428Y-85494761D01*
X91631047Y-85447142D01*
X91678666Y-85351904D01*
X91678666Y-85256666D01*
X91631047Y-85161428D01*
X91583428Y-85113809D01*
X91488190Y-85066190D01*
X91297714Y-85018571D01*
X91202476Y-84970952D01*
X91154857Y-84923333D01*
X91107238Y-84828095D01*
X91107238Y-84732857D01*
X91154857Y-84637619D01*
X91202476Y-84590000D01*
X91297714Y-84542380D01*
X91535809Y-84542380D01*
X91678666Y-84590000D01*
X92107238Y-85542380D02*
X92107238Y-84542380D01*
X92488190Y-84542380D01*
X92583428Y-84590000D01*
X92631047Y-84637619D01*
X92678666Y-84732857D01*
X92678666Y-84875714D01*
X92631047Y-84970952D01*
X92583428Y-85018571D01*
X92488190Y-85066190D01*
X92107238Y-85066190D01*
X93012000Y-84542380D02*
X93631047Y-84542380D01*
X93297714Y-84923333D01*
X93440571Y-84923333D01*
X93535809Y-84970952D01*
X93583428Y-85018571D01*
X93631047Y-85113809D01*
X93631047Y-85351904D01*
X93583428Y-85447142D01*
X93535809Y-85494761D01*
X93440571Y-85542380D01*
X93154857Y-85542380D01*
X93059619Y-85494761D01*
X93012000Y-85447142D01*
X94012000Y-84637619D02*
X94059619Y-84590000D01*
X94154857Y-84542380D01*
X94392952Y-84542380D01*
X94488190Y-84590000D01*
X94535809Y-84637619D01*
X94583428Y-84732857D01*
X94583428Y-84828095D01*
X94535809Y-84970952D01*
X93964380Y-85542380D01*
X94583428Y-85542380D01*
X95012000Y-85161428D02*
X95773904Y-85161428D01*
X96250095Y-85542380D02*
X96250095Y-84542380D01*
X96488190Y-84542380D01*
X96631047Y-84590000D01*
X96726285Y-84685238D01*
X96773904Y-84780476D01*
X96821523Y-84970952D01*
X96821523Y-85113809D01*
X96773904Y-85304285D01*
X96726285Y-85399523D01*
X96631047Y-85494761D01*
X96488190Y-85542380D01*
X96250095Y-85542380D01*
X97250095Y-85018571D02*
X97583428Y-85018571D01*
X97726285Y-85542380D02*
X97250095Y-85542380D01*
X97250095Y-84542380D01*
X97726285Y-84542380D01*
X98012000Y-84542380D02*
X98345333Y-85542380D01*
X98678666Y-84542380D01*
X99012000Y-85542380D02*
X99012000Y-84542380D01*
X99583428Y-85542380D02*
X99154857Y-84970952D01*
X99583428Y-84542380D02*
X99012000Y-85113809D01*
X100012000Y-85542380D02*
X100012000Y-84542380D01*
X100345333Y-84542380D02*
X100916761Y-84542380D01*
X100631047Y-85542380D02*
X100631047Y-84542380D01*
X101821523Y-85447142D02*
X101773904Y-85494761D01*
X101631047Y-85542380D01*
X101535809Y-85542380D01*
X101392952Y-85494761D01*
X101297714Y-85399523D01*
X101250095Y-85304285D01*
X101202476Y-85113809D01*
X101202476Y-84970952D01*
X101250095Y-84780476D01*
X101297714Y-84685238D01*
X101392952Y-84590000D01*
X101535809Y-84542380D01*
X101631047Y-84542380D01*
X101773904Y-84590000D01*
X101821523Y-84637619D01*
%TO.C,C1*%
X90053333Y-74443000D02*
X90020000Y-74476333D01*
X89920000Y-74509666D01*
X89853333Y-74509666D01*
X89753333Y-74476333D01*
X89686666Y-74409666D01*
X89653333Y-74343000D01*
X89620000Y-74209666D01*
X89620000Y-74109666D01*
X89653333Y-73976333D01*
X89686666Y-73909666D01*
X89753333Y-73843000D01*
X89853333Y-73809666D01*
X89920000Y-73809666D01*
X90020000Y-73843000D01*
X90053333Y-73876333D01*
X90720000Y-74509666D02*
X90320000Y-74509666D01*
X90520000Y-74509666D02*
X90520000Y-73809666D01*
X90453333Y-73909666D01*
X90386666Y-73976333D01*
X90320000Y-74009666D01*
X89870000Y-75525666D02*
X89470000Y-75525666D01*
X89670000Y-75525666D02*
X89670000Y-74825666D01*
X89603333Y-74925666D01*
X89536666Y-74992333D01*
X89470000Y-75025666D01*
X90203333Y-75492333D02*
X90203333Y-75525666D01*
X90170000Y-75592333D01*
X90136666Y-75625666D01*
X90636666Y-74825666D02*
X90703333Y-74825666D01*
X90770000Y-74859000D01*
X90803333Y-74892333D01*
X90836666Y-74959000D01*
X90870000Y-75092333D01*
X90870000Y-75259000D01*
X90836666Y-75392333D01*
X90803333Y-75459000D01*
X90770000Y-75492333D01*
X90703333Y-75525666D01*
X90636666Y-75525666D01*
X90570000Y-75492333D01*
X90536666Y-75459000D01*
X90503333Y-75392333D01*
X90470000Y-75259000D01*
X90470000Y-75092333D01*
X90503333Y-74959000D01*
X90536666Y-74892333D01*
X90570000Y-74859000D01*
X90636666Y-74825666D01*
%TO.C,X2*%
X118578380Y-95830523D02*
X119578380Y-95163857D01*
X118578380Y-95163857D02*
X119578380Y-95830523D01*
X118673619Y-94830523D02*
X118626000Y-94782904D01*
X118578380Y-94687666D01*
X118578380Y-94449571D01*
X118626000Y-94354333D01*
X118673619Y-94306714D01*
X118768857Y-94259095D01*
X118864095Y-94259095D01*
X119006952Y-94306714D01*
X119578380Y-94878142D01*
X119578380Y-94259095D01*
X119578380Y-91441000D02*
X119578380Y-91917190D01*
X118578380Y-91917190D01*
X119054571Y-91107666D02*
X119054571Y-90774333D01*
X119578380Y-90631476D02*
X119578380Y-91107666D01*
X118578380Y-91107666D01*
X118578380Y-90631476D01*
X119578380Y-90202904D02*
X118578380Y-90202904D01*
X118578380Y-89964809D01*
X118626000Y-89821952D01*
X118721238Y-89726714D01*
X118816476Y-89679095D01*
X119006952Y-89631476D01*
X119149809Y-89631476D01*
X119340285Y-89679095D01*
X119435523Y-89726714D01*
X119530761Y-89821952D01*
X119578380Y-89964809D01*
X119578380Y-90202904D01*
X119578380Y-87917190D02*
X119578380Y-88488619D01*
X119578380Y-88202904D02*
X118578380Y-88202904D01*
X118721238Y-88298142D01*
X118816476Y-88393380D01*
X118864095Y-88488619D01*
%TO.C,X3*%
X118578380Y-105990523D02*
X119578380Y-105323857D01*
X118578380Y-105323857D02*
X119578380Y-105990523D01*
X118578380Y-105038142D02*
X118578380Y-104419095D01*
X118959333Y-104752428D01*
X118959333Y-104609571D01*
X119006952Y-104514333D01*
X119054571Y-104466714D01*
X119149809Y-104419095D01*
X119387904Y-104419095D01*
X119483142Y-104466714D01*
X119530761Y-104514333D01*
X119578380Y-104609571D01*
X119578380Y-104895285D01*
X119530761Y-104990523D01*
X119483142Y-105038142D01*
X119578380Y-101601000D02*
X119578380Y-102077190D01*
X118578380Y-102077190D01*
X119054571Y-101267666D02*
X119054571Y-100934333D01*
X119578380Y-100791476D02*
X119578380Y-101267666D01*
X118578380Y-101267666D01*
X118578380Y-100791476D01*
X119578380Y-100362904D02*
X118578380Y-100362904D01*
X118578380Y-100124809D01*
X118626000Y-99981952D01*
X118721238Y-99886714D01*
X118816476Y-99839095D01*
X119006952Y-99791476D01*
X119149809Y-99791476D01*
X119340285Y-99839095D01*
X119435523Y-99886714D01*
X119530761Y-99981952D01*
X119578380Y-100124809D01*
X119578380Y-100362904D01*
X118673619Y-98648619D02*
X118626000Y-98601000D01*
X118578380Y-98505761D01*
X118578380Y-98267666D01*
X118626000Y-98172428D01*
X118673619Y-98124809D01*
X118768857Y-98077190D01*
X118864095Y-98077190D01*
X119006952Y-98124809D01*
X119578380Y-98696238D01*
X119578380Y-98077190D01*
%TO.C,X8*%
X81740476Y-123175380D02*
X82407142Y-124175380D01*
X82407142Y-123175380D02*
X81740476Y-124175380D01*
X82930952Y-123603952D02*
X82835714Y-123556333D01*
X82788095Y-123508714D01*
X82740476Y-123413476D01*
X82740476Y-123365857D01*
X82788095Y-123270619D01*
X82835714Y-123223000D01*
X82930952Y-123175380D01*
X83121428Y-123175380D01*
X83216666Y-123223000D01*
X83264285Y-123270619D01*
X83311904Y-123365857D01*
X83311904Y-123413476D01*
X83264285Y-123508714D01*
X83216666Y-123556333D01*
X83121428Y-123603952D01*
X82930952Y-123603952D01*
X82835714Y-123651571D01*
X82788095Y-123699190D01*
X82740476Y-123794428D01*
X82740476Y-123984904D01*
X82788095Y-124080142D01*
X82835714Y-124127761D01*
X82930952Y-124175380D01*
X83121428Y-124175380D01*
X83216666Y-124127761D01*
X83264285Y-124080142D01*
X83311904Y-123984904D01*
X83311904Y-123794428D01*
X83264285Y-123699190D01*
X83216666Y-123651571D01*
X83121428Y-123603952D01*
X86130000Y-124175380D02*
X85653809Y-124175380D01*
X85653809Y-123175380D01*
X86463333Y-123651571D02*
X86796666Y-123651571D01*
X86939523Y-124175380D02*
X86463333Y-124175380D01*
X86463333Y-123175380D01*
X86939523Y-123175380D01*
X87368095Y-124175380D02*
X87368095Y-123175380D01*
X87606190Y-123175380D01*
X87749047Y-123223000D01*
X87844285Y-123318238D01*
X87891904Y-123413476D01*
X87939523Y-123603952D01*
X87939523Y-123746809D01*
X87891904Y-123937285D01*
X87844285Y-124032523D01*
X87749047Y-124127761D01*
X87606190Y-124175380D01*
X87368095Y-124175380D01*
X89034761Y-123175380D02*
X89701428Y-123175380D01*
X89272857Y-124175380D01*
%TO.C,R5*%
X115961333Y-107529666D02*
X115728000Y-107196333D01*
X115561333Y-107529666D02*
X115561333Y-106829666D01*
X115828000Y-106829666D01*
X115894666Y-106863000D01*
X115928000Y-106896333D01*
X115961333Y-106963000D01*
X115961333Y-107063000D01*
X115928000Y-107129666D01*
X115894666Y-107163000D01*
X115828000Y-107196333D01*
X115561333Y-107196333D01*
X116594666Y-106829666D02*
X116261333Y-106829666D01*
X116228000Y-107163000D01*
X116261333Y-107129666D01*
X116328000Y-107096333D01*
X116494666Y-107096333D01*
X116561333Y-107129666D01*
X116594666Y-107163000D01*
X116628000Y-107229666D01*
X116628000Y-107396333D01*
X116594666Y-107463000D01*
X116561333Y-107496333D01*
X116494666Y-107529666D01*
X116328000Y-107529666D01*
X116261333Y-107496333D01*
X116228000Y-107463000D01*
X115432000Y-107845666D02*
X115865333Y-107845666D01*
X115632000Y-108112333D01*
X115732000Y-108112333D01*
X115798666Y-108145666D01*
X115832000Y-108179000D01*
X115865333Y-108245666D01*
X115865333Y-108412333D01*
X115832000Y-108479000D01*
X115798666Y-108512333D01*
X115732000Y-108545666D01*
X115532000Y-108545666D01*
X115465333Y-108512333D01*
X115432000Y-108479000D01*
X116098666Y-107845666D02*
X116532000Y-107845666D01*
X116298666Y-108112333D01*
X116398666Y-108112333D01*
X116465333Y-108145666D01*
X116498666Y-108179000D01*
X116532000Y-108245666D01*
X116532000Y-108412333D01*
X116498666Y-108479000D01*
X116465333Y-108512333D01*
X116398666Y-108545666D01*
X116198666Y-108545666D01*
X116132000Y-108512333D01*
X116098666Y-108479000D01*
X116965333Y-107845666D02*
X117032000Y-107845666D01*
X117098666Y-107879000D01*
X117132000Y-107912333D01*
X117165333Y-107979000D01*
X117198666Y-108112333D01*
X117198666Y-108279000D01*
X117165333Y-108412333D01*
X117132000Y-108479000D01*
X117098666Y-108512333D01*
X117032000Y-108545666D01*
X116965333Y-108545666D01*
X116898666Y-108512333D01*
X116865333Y-108479000D01*
X116832000Y-108412333D01*
X116798666Y-108279000D01*
X116798666Y-108112333D01*
X116832000Y-107979000D01*
X116865333Y-107912333D01*
X116898666Y-107879000D01*
X116965333Y-107845666D01*
%TO.C,R6*%
X101737333Y-110577666D02*
X101504000Y-110244333D01*
X101337333Y-110577666D02*
X101337333Y-109877666D01*
X101604000Y-109877666D01*
X101670666Y-109911000D01*
X101704000Y-109944333D01*
X101737333Y-110011000D01*
X101737333Y-110111000D01*
X101704000Y-110177666D01*
X101670666Y-110211000D01*
X101604000Y-110244333D01*
X101337333Y-110244333D01*
X102337333Y-109877666D02*
X102204000Y-109877666D01*
X102137333Y-109911000D01*
X102104000Y-109944333D01*
X102037333Y-110044333D01*
X102004000Y-110177666D01*
X102004000Y-110444333D01*
X102037333Y-110511000D01*
X102070666Y-110544333D01*
X102137333Y-110577666D01*
X102270666Y-110577666D01*
X102337333Y-110544333D01*
X102370666Y-110511000D01*
X102404000Y-110444333D01*
X102404000Y-110277666D01*
X102370666Y-110211000D01*
X102337333Y-110177666D01*
X102270666Y-110144333D01*
X102137333Y-110144333D01*
X102070666Y-110177666D01*
X102037333Y-110211000D01*
X102004000Y-110277666D01*
X100700000Y-110893666D02*
X101133333Y-110893666D01*
X100900000Y-111160333D01*
X101000000Y-111160333D01*
X101066666Y-111193666D01*
X101100000Y-111227000D01*
X101133333Y-111293666D01*
X101133333Y-111460333D01*
X101100000Y-111527000D01*
X101066666Y-111560333D01*
X101000000Y-111593666D01*
X100800000Y-111593666D01*
X100733333Y-111560333D01*
X100700000Y-111527000D01*
X101366666Y-110893666D02*
X101800000Y-110893666D01*
X101566666Y-111160333D01*
X101666666Y-111160333D01*
X101733333Y-111193666D01*
X101766666Y-111227000D01*
X101800000Y-111293666D01*
X101800000Y-111460333D01*
X101766666Y-111527000D01*
X101733333Y-111560333D01*
X101666666Y-111593666D01*
X101466666Y-111593666D01*
X101400000Y-111560333D01*
X101366666Y-111527000D01*
X102233333Y-110893666D02*
X102300000Y-110893666D01*
X102366666Y-110927000D01*
X102400000Y-110960333D01*
X102433333Y-111027000D01*
X102466666Y-111160333D01*
X102466666Y-111327000D01*
X102433333Y-111460333D01*
X102400000Y-111527000D01*
X102366666Y-111560333D01*
X102300000Y-111593666D01*
X102233333Y-111593666D01*
X102166666Y-111560333D01*
X102133333Y-111527000D01*
X102100000Y-111460333D01*
X102066666Y-111327000D01*
X102066666Y-111160333D01*
X102100000Y-111027000D01*
X102133333Y-110960333D01*
X102166666Y-110927000D01*
X102233333Y-110893666D01*
%TO.C,X9*%
X74120476Y-89603380D02*
X74787142Y-90603380D01*
X74787142Y-89603380D02*
X74120476Y-90603380D01*
X75215714Y-90603380D02*
X75406190Y-90603380D01*
X75501428Y-90555761D01*
X75549047Y-90508142D01*
X75644285Y-90365285D01*
X75691904Y-90174809D01*
X75691904Y-89793857D01*
X75644285Y-89698619D01*
X75596666Y-89651000D01*
X75501428Y-89603380D01*
X75310952Y-89603380D01*
X75215714Y-89651000D01*
X75168095Y-89698619D01*
X75120476Y-89793857D01*
X75120476Y-90031952D01*
X75168095Y-90127190D01*
X75215714Y-90174809D01*
X75310952Y-90222428D01*
X75501428Y-90222428D01*
X75596666Y-90174809D01*
X75644285Y-90127190D01*
X75691904Y-90031952D01*
X80303619Y-94235285D02*
X79494095Y-94235285D01*
X79398857Y-94282904D01*
X79351238Y-94330523D01*
X79303619Y-94425761D01*
X79303619Y-94616238D01*
X79351238Y-94711476D01*
X79398857Y-94759095D01*
X79494095Y-94806714D01*
X80303619Y-94806714D01*
X79303619Y-95282904D02*
X80303619Y-95282904D01*
X80303619Y-95663857D01*
X80256000Y-95759095D01*
X80208380Y-95806714D01*
X80113142Y-95854333D01*
X79970285Y-95854333D01*
X79875047Y-95806714D01*
X79827428Y-95759095D01*
X79779809Y-95663857D01*
X79779809Y-95282904D01*
X76972166Y-95337666D02*
X76972166Y-94637666D01*
X77305500Y-95337666D02*
X77305500Y-94637666D01*
X77705500Y-95337666D01*
X77705500Y-94637666D01*
X77338833Y-97211000D02*
X77272166Y-97177666D01*
X77172166Y-97177666D01*
X77072166Y-97211000D01*
X77005500Y-97277666D01*
X76972166Y-97344333D01*
X76938833Y-97477666D01*
X76938833Y-97577666D01*
X76972166Y-97711000D01*
X77005500Y-97777666D01*
X77072166Y-97844333D01*
X77172166Y-97877666D01*
X77238833Y-97877666D01*
X77338833Y-97844333D01*
X77372166Y-97811000D01*
X77372166Y-97577666D01*
X77238833Y-97577666D01*
X77672166Y-97877666D02*
X77672166Y-97177666D01*
X78072166Y-97877666D01*
X78072166Y-97177666D01*
X78405500Y-97877666D02*
X78405500Y-97177666D01*
X78572166Y-97177666D01*
X78672166Y-97211000D01*
X78738833Y-97277666D01*
X78772166Y-97344333D01*
X78805500Y-97477666D01*
X78805500Y-97577666D01*
X78772166Y-97711000D01*
X78738833Y-97777666D01*
X78672166Y-97844333D01*
X78572166Y-97877666D01*
X78405500Y-97877666D01*
X76972166Y-92277000D02*
X77505500Y-92277000D01*
X77238833Y-92543666D02*
X77238833Y-92010333D01*
X77772166Y-91843666D02*
X78205500Y-91843666D01*
X77972166Y-92110333D01*
X78072166Y-92110333D01*
X78138833Y-92143666D01*
X78172166Y-92177000D01*
X78205500Y-92243666D01*
X78205500Y-92410333D01*
X78172166Y-92477000D01*
X78138833Y-92510333D01*
X78072166Y-92543666D01*
X77872166Y-92543666D01*
X77805500Y-92510333D01*
X77772166Y-92477000D01*
X78405500Y-91843666D02*
X78638833Y-92543666D01*
X78872166Y-91843666D01*
X79038833Y-91843666D02*
X79472166Y-91843666D01*
X79238833Y-92110333D01*
X79338833Y-92110333D01*
X79405500Y-92143666D01*
X79438833Y-92177000D01*
X79472166Y-92243666D01*
X79472166Y-92410333D01*
X79438833Y-92477000D01*
X79405500Y-92510333D01*
X79338833Y-92543666D01*
X79138833Y-92543666D01*
X79072166Y-92510333D01*
X79038833Y-92477000D01*
%TO.C,X5*%
X118578380Y-126310523D02*
X119578380Y-125643857D01*
X118578380Y-125643857D02*
X119578380Y-126310523D01*
X118578380Y-124786714D02*
X118578380Y-125262904D01*
X119054571Y-125310523D01*
X119006952Y-125262904D01*
X118959333Y-125167666D01*
X118959333Y-124929571D01*
X119006952Y-124834333D01*
X119054571Y-124786714D01*
X119149809Y-124739095D01*
X119387904Y-124739095D01*
X119483142Y-124786714D01*
X119530761Y-124834333D01*
X119578380Y-124929571D01*
X119578380Y-125167666D01*
X119530761Y-125262904D01*
X119483142Y-125310523D01*
X119578380Y-121921000D02*
X119578380Y-122397190D01*
X118578380Y-122397190D01*
X119054571Y-121587666D02*
X119054571Y-121254333D01*
X119578380Y-121111476D02*
X119578380Y-121587666D01*
X118578380Y-121587666D01*
X118578380Y-121111476D01*
X119578380Y-120682904D02*
X118578380Y-120682904D01*
X118578380Y-120444809D01*
X118626000Y-120301952D01*
X118721238Y-120206714D01*
X118816476Y-120159095D01*
X119006952Y-120111476D01*
X119149809Y-120111476D01*
X119340285Y-120159095D01*
X119435523Y-120206714D01*
X119530761Y-120301952D01*
X119578380Y-120444809D01*
X119578380Y-120682904D01*
X118911714Y-118492428D02*
X119578380Y-118492428D01*
X118530761Y-118730523D02*
X119245047Y-118968619D01*
X119245047Y-118349571D01*
%TO.C,X1*%
X118578380Y-85670523D02*
X119578380Y-85003857D01*
X118578380Y-85003857D02*
X119578380Y-85670523D01*
X119578380Y-84099095D02*
X119578380Y-84670523D01*
X119578380Y-84384809D02*
X118578380Y-84384809D01*
X118721238Y-84480047D01*
X118816476Y-84575285D01*
X118864095Y-84670523D01*
X119578380Y-81281000D02*
X119578380Y-81757190D01*
X118578380Y-81757190D01*
X119054571Y-80947666D02*
X119054571Y-80614333D01*
X119578380Y-80471476D02*
X119578380Y-80947666D01*
X118578380Y-80947666D01*
X118578380Y-80471476D01*
X119578380Y-80042904D02*
X118578380Y-80042904D01*
X118578380Y-79804809D01*
X118626000Y-79661952D01*
X118721238Y-79566714D01*
X118816476Y-79519095D01*
X119006952Y-79471476D01*
X119149809Y-79471476D01*
X119340285Y-79519095D01*
X119435523Y-79566714D01*
X119530761Y-79661952D01*
X119578380Y-79804809D01*
X119578380Y-80042904D01*
X118578380Y-78090523D02*
X118578380Y-77995285D01*
X118626000Y-77900047D01*
X118673619Y-77852428D01*
X118768857Y-77804809D01*
X118959333Y-77757190D01*
X119197428Y-77757190D01*
X119387904Y-77804809D01*
X119483142Y-77852428D01*
X119530761Y-77900047D01*
X119578380Y-77995285D01*
X119578380Y-78090523D01*
X119530761Y-78185761D01*
X119483142Y-78233380D01*
X119387904Y-78281000D01*
X119197428Y-78328619D01*
X118959333Y-78328619D01*
X118768857Y-78281000D01*
X118673619Y-78233380D01*
X118626000Y-78185761D01*
X118578380Y-78090523D01*
%TO.C,R7*%
X104023333Y-77557666D02*
X103790000Y-77224333D01*
X103623333Y-77557666D02*
X103623333Y-76857666D01*
X103890000Y-76857666D01*
X103956666Y-76891000D01*
X103990000Y-76924333D01*
X104023333Y-76991000D01*
X104023333Y-77091000D01*
X103990000Y-77157666D01*
X103956666Y-77191000D01*
X103890000Y-77224333D01*
X103623333Y-77224333D01*
X104256666Y-76857666D02*
X104723333Y-76857666D01*
X104423333Y-77557666D01*
X103575500Y-77873666D02*
X104008833Y-77873666D01*
X103775500Y-78140333D01*
X103875500Y-78140333D01*
X103942166Y-78173666D01*
X103975500Y-78207000D01*
X104008833Y-78273666D01*
X104008833Y-78440333D01*
X103975500Y-78507000D01*
X103942166Y-78540333D01*
X103875500Y-78573666D01*
X103675500Y-78573666D01*
X103608833Y-78540333D01*
X103575500Y-78507000D01*
X104242166Y-77873666D02*
X104675500Y-77873666D01*
X104442166Y-78140333D01*
X104542166Y-78140333D01*
X104608833Y-78173666D01*
X104642166Y-78207000D01*
X104675500Y-78273666D01*
X104675500Y-78440333D01*
X104642166Y-78507000D01*
X104608833Y-78540333D01*
X104542166Y-78573666D01*
X104342166Y-78573666D01*
X104275500Y-78540333D01*
X104242166Y-78507000D01*
X105108833Y-77873666D02*
X105175500Y-77873666D01*
X105242166Y-77907000D01*
X105275500Y-77940333D01*
X105308833Y-78007000D01*
X105342166Y-78140333D01*
X105342166Y-78307000D01*
X105308833Y-78440333D01*
X105275500Y-78507000D01*
X105242166Y-78540333D01*
X105175500Y-78573666D01*
X105108833Y-78573666D01*
X105042166Y-78540333D01*
X105008833Y-78507000D01*
X104975500Y-78440333D01*
X104942166Y-78307000D01*
X104942166Y-78140333D01*
X104975500Y-78007000D01*
X105008833Y-77940333D01*
X105042166Y-77907000D01*
X105108833Y-77873666D01*
%TO.C,R4*%
X115961333Y-102449666D02*
X115728000Y-102116333D01*
X115561333Y-102449666D02*
X115561333Y-101749666D01*
X115828000Y-101749666D01*
X115894666Y-101783000D01*
X115928000Y-101816333D01*
X115961333Y-101883000D01*
X115961333Y-101983000D01*
X115928000Y-102049666D01*
X115894666Y-102083000D01*
X115828000Y-102116333D01*
X115561333Y-102116333D01*
X116561333Y-101983000D02*
X116561333Y-102449666D01*
X116394666Y-101716333D02*
X116228000Y-102216333D01*
X116661333Y-102216333D01*
X115432000Y-102765666D02*
X115865333Y-102765666D01*
X115632000Y-103032333D01*
X115732000Y-103032333D01*
X115798666Y-103065666D01*
X115832000Y-103099000D01*
X115865333Y-103165666D01*
X115865333Y-103332333D01*
X115832000Y-103399000D01*
X115798666Y-103432333D01*
X115732000Y-103465666D01*
X115532000Y-103465666D01*
X115465333Y-103432333D01*
X115432000Y-103399000D01*
X116098666Y-102765666D02*
X116532000Y-102765666D01*
X116298666Y-103032333D01*
X116398666Y-103032333D01*
X116465333Y-103065666D01*
X116498666Y-103099000D01*
X116532000Y-103165666D01*
X116532000Y-103332333D01*
X116498666Y-103399000D01*
X116465333Y-103432333D01*
X116398666Y-103465666D01*
X116198666Y-103465666D01*
X116132000Y-103432333D01*
X116098666Y-103399000D01*
X116965333Y-102765666D02*
X117032000Y-102765666D01*
X117098666Y-102799000D01*
X117132000Y-102832333D01*
X117165333Y-102899000D01*
X117198666Y-103032333D01*
X117198666Y-103199000D01*
X117165333Y-103332333D01*
X117132000Y-103399000D01*
X117098666Y-103432333D01*
X117032000Y-103465666D01*
X116965333Y-103465666D01*
X116898666Y-103432333D01*
X116865333Y-103399000D01*
X116832000Y-103332333D01*
X116798666Y-103199000D01*
X116798666Y-103032333D01*
X116832000Y-102899000D01*
X116865333Y-102832333D01*
X116898666Y-102799000D01*
X116965333Y-102765666D01*
%TO.C,R3*%
X115961333Y-99909666D02*
X115728000Y-99576333D01*
X115561333Y-99909666D02*
X115561333Y-99209666D01*
X115828000Y-99209666D01*
X115894666Y-99243000D01*
X115928000Y-99276333D01*
X115961333Y-99343000D01*
X115961333Y-99443000D01*
X115928000Y-99509666D01*
X115894666Y-99543000D01*
X115828000Y-99576333D01*
X115561333Y-99576333D01*
X116194666Y-99209666D02*
X116628000Y-99209666D01*
X116394666Y-99476333D01*
X116494666Y-99476333D01*
X116561333Y-99509666D01*
X116594666Y-99543000D01*
X116628000Y-99609666D01*
X116628000Y-99776333D01*
X116594666Y-99843000D01*
X116561333Y-99876333D01*
X116494666Y-99909666D01*
X116294666Y-99909666D01*
X116228000Y-99876333D01*
X116194666Y-99843000D01*
X115432000Y-100225666D02*
X115865333Y-100225666D01*
X115632000Y-100492333D01*
X115732000Y-100492333D01*
X115798666Y-100525666D01*
X115832000Y-100559000D01*
X115865333Y-100625666D01*
X115865333Y-100792333D01*
X115832000Y-100859000D01*
X115798666Y-100892333D01*
X115732000Y-100925666D01*
X115532000Y-100925666D01*
X115465333Y-100892333D01*
X115432000Y-100859000D01*
X116098666Y-100225666D02*
X116532000Y-100225666D01*
X116298666Y-100492333D01*
X116398666Y-100492333D01*
X116465333Y-100525666D01*
X116498666Y-100559000D01*
X116532000Y-100625666D01*
X116532000Y-100792333D01*
X116498666Y-100859000D01*
X116465333Y-100892333D01*
X116398666Y-100925666D01*
X116198666Y-100925666D01*
X116132000Y-100892333D01*
X116098666Y-100859000D01*
X116965333Y-100225666D02*
X117032000Y-100225666D01*
X117098666Y-100259000D01*
X117132000Y-100292333D01*
X117165333Y-100359000D01*
X117198666Y-100492333D01*
X117198666Y-100659000D01*
X117165333Y-100792333D01*
X117132000Y-100859000D01*
X117098666Y-100892333D01*
X117032000Y-100925666D01*
X116965333Y-100925666D01*
X116898666Y-100892333D01*
X116865333Y-100859000D01*
X116832000Y-100792333D01*
X116798666Y-100659000D01*
X116798666Y-100492333D01*
X116832000Y-100359000D01*
X116865333Y-100292333D01*
X116898666Y-100259000D01*
X116965333Y-100225666D01*
%TO.C,R1*%
X115961333Y-94829666D02*
X115728000Y-94496333D01*
X115561333Y-94829666D02*
X115561333Y-94129666D01*
X115828000Y-94129666D01*
X115894666Y-94163000D01*
X115928000Y-94196333D01*
X115961333Y-94263000D01*
X115961333Y-94363000D01*
X115928000Y-94429666D01*
X115894666Y-94463000D01*
X115828000Y-94496333D01*
X115561333Y-94496333D01*
X116628000Y-94829666D02*
X116228000Y-94829666D01*
X116428000Y-94829666D02*
X116428000Y-94129666D01*
X116361333Y-94229666D01*
X116294666Y-94296333D01*
X116228000Y-94329666D01*
X115432000Y-95145666D02*
X115865333Y-95145666D01*
X115632000Y-95412333D01*
X115732000Y-95412333D01*
X115798666Y-95445666D01*
X115832000Y-95479000D01*
X115865333Y-95545666D01*
X115865333Y-95712333D01*
X115832000Y-95779000D01*
X115798666Y-95812333D01*
X115732000Y-95845666D01*
X115532000Y-95845666D01*
X115465333Y-95812333D01*
X115432000Y-95779000D01*
X116098666Y-95145666D02*
X116532000Y-95145666D01*
X116298666Y-95412333D01*
X116398666Y-95412333D01*
X116465333Y-95445666D01*
X116498666Y-95479000D01*
X116532000Y-95545666D01*
X116532000Y-95712333D01*
X116498666Y-95779000D01*
X116465333Y-95812333D01*
X116398666Y-95845666D01*
X116198666Y-95845666D01*
X116132000Y-95812333D01*
X116098666Y-95779000D01*
X116965333Y-95145666D02*
X117032000Y-95145666D01*
X117098666Y-95179000D01*
X117132000Y-95212333D01*
X117165333Y-95279000D01*
X117198666Y-95412333D01*
X117198666Y-95579000D01*
X117165333Y-95712333D01*
X117132000Y-95779000D01*
X117098666Y-95812333D01*
X117032000Y-95845666D01*
X116965333Y-95845666D01*
X116898666Y-95812333D01*
X116865333Y-95779000D01*
X116832000Y-95712333D01*
X116798666Y-95579000D01*
X116798666Y-95412333D01*
X116832000Y-95279000D01*
X116865333Y-95212333D01*
X116898666Y-95179000D01*
X116965333Y-95145666D01*
%TO.C,X11*%
X73644285Y-79443380D02*
X74310952Y-80443380D01*
X74310952Y-79443380D02*
X73644285Y-80443380D01*
X75215714Y-80443380D02*
X74644285Y-80443380D01*
X74930000Y-80443380D02*
X74930000Y-79443380D01*
X74834761Y-79586238D01*
X74739523Y-79681476D01*
X74644285Y-79729095D01*
X76168095Y-80443380D02*
X75596666Y-80443380D01*
X75882380Y-80443380D02*
X75882380Y-79443380D01*
X75787142Y-79586238D01*
X75691904Y-79681476D01*
X75596666Y-79729095D01*
X79303619Y-83337190D02*
X80303619Y-83337190D01*
X79589333Y-83670523D01*
X80303619Y-84003857D01*
X79303619Y-84003857D01*
X79589333Y-84432428D02*
X79589333Y-84908619D01*
X79303619Y-84337190D02*
X80303619Y-84670523D01*
X79303619Y-85003857D01*
X79303619Y-85337190D02*
X80303619Y-85337190D01*
X79303619Y-85813380D02*
X80303619Y-85813380D01*
X79303619Y-86384809D01*
X80303619Y-86384809D01*
X76972166Y-82371000D02*
X77505500Y-82371000D01*
X77238833Y-82637666D02*
X77238833Y-82104333D01*
X77772166Y-81937666D02*
X78205500Y-81937666D01*
X77972166Y-82204333D01*
X78072166Y-82204333D01*
X78138833Y-82237666D01*
X78172166Y-82271000D01*
X78205500Y-82337666D01*
X78205500Y-82504333D01*
X78172166Y-82571000D01*
X78138833Y-82604333D01*
X78072166Y-82637666D01*
X77872166Y-82637666D01*
X77805500Y-82604333D01*
X77772166Y-82571000D01*
X78405500Y-81937666D02*
X78638833Y-82637666D01*
X78872166Y-81937666D01*
X79038833Y-81937666D02*
X79472166Y-81937666D01*
X79238833Y-82204333D01*
X79338833Y-82204333D01*
X79405500Y-82237666D01*
X79438833Y-82271000D01*
X79472166Y-82337666D01*
X79472166Y-82504333D01*
X79438833Y-82571000D01*
X79405500Y-82604333D01*
X79338833Y-82637666D01*
X79138833Y-82637666D01*
X79072166Y-82604333D01*
X79038833Y-82571000D01*
X76972166Y-85177666D02*
X76972166Y-84477666D01*
X77305500Y-85177666D02*
X77305500Y-84477666D01*
X77705500Y-85177666D01*
X77705500Y-84477666D01*
X77338833Y-87051000D02*
X77272166Y-87017666D01*
X77172166Y-87017666D01*
X77072166Y-87051000D01*
X77005500Y-87117666D01*
X76972166Y-87184333D01*
X76938833Y-87317666D01*
X76938833Y-87417666D01*
X76972166Y-87551000D01*
X77005500Y-87617666D01*
X77072166Y-87684333D01*
X77172166Y-87717666D01*
X77238833Y-87717666D01*
X77338833Y-87684333D01*
X77372166Y-87651000D01*
X77372166Y-87417666D01*
X77238833Y-87417666D01*
X77672166Y-87717666D02*
X77672166Y-87017666D01*
X78072166Y-87717666D01*
X78072166Y-87017666D01*
X78405500Y-87717666D02*
X78405500Y-87017666D01*
X78572166Y-87017666D01*
X78672166Y-87051000D01*
X78738833Y-87117666D01*
X78772166Y-87184333D01*
X78805500Y-87317666D01*
X78805500Y-87417666D01*
X78772166Y-87551000D01*
X78738833Y-87617666D01*
X78672166Y-87684333D01*
X78572166Y-87717666D01*
X78405500Y-87717666D01*
%TO.C,R2*%
X115961333Y-97369666D02*
X115728000Y-97036333D01*
X115561333Y-97369666D02*
X115561333Y-96669666D01*
X115828000Y-96669666D01*
X115894666Y-96703000D01*
X115928000Y-96736333D01*
X115961333Y-96803000D01*
X115961333Y-96903000D01*
X115928000Y-96969666D01*
X115894666Y-97003000D01*
X115828000Y-97036333D01*
X115561333Y-97036333D01*
X116228000Y-96736333D02*
X116261333Y-96703000D01*
X116328000Y-96669666D01*
X116494666Y-96669666D01*
X116561333Y-96703000D01*
X116594666Y-96736333D01*
X116628000Y-96803000D01*
X116628000Y-96869666D01*
X116594666Y-96969666D01*
X116194666Y-97369666D01*
X116628000Y-97369666D01*
X115432000Y-97685666D02*
X115865333Y-97685666D01*
X115632000Y-97952333D01*
X115732000Y-97952333D01*
X115798666Y-97985666D01*
X115832000Y-98019000D01*
X115865333Y-98085666D01*
X115865333Y-98252333D01*
X115832000Y-98319000D01*
X115798666Y-98352333D01*
X115732000Y-98385666D01*
X115532000Y-98385666D01*
X115465333Y-98352333D01*
X115432000Y-98319000D01*
X116098666Y-97685666D02*
X116532000Y-97685666D01*
X116298666Y-97952333D01*
X116398666Y-97952333D01*
X116465333Y-97985666D01*
X116498666Y-98019000D01*
X116532000Y-98085666D01*
X116532000Y-98252333D01*
X116498666Y-98319000D01*
X116465333Y-98352333D01*
X116398666Y-98385666D01*
X116198666Y-98385666D01*
X116132000Y-98352333D01*
X116098666Y-98319000D01*
X116965333Y-97685666D02*
X117032000Y-97685666D01*
X117098666Y-97719000D01*
X117132000Y-97752333D01*
X117165333Y-97819000D01*
X117198666Y-97952333D01*
X117198666Y-98119000D01*
X117165333Y-98252333D01*
X117132000Y-98319000D01*
X117098666Y-98352333D01*
X117032000Y-98385666D01*
X116965333Y-98385666D01*
X116898666Y-98352333D01*
X116865333Y-98319000D01*
X116832000Y-98252333D01*
X116798666Y-98119000D01*
X116798666Y-97952333D01*
X116832000Y-97819000D01*
X116865333Y-97752333D01*
X116898666Y-97719000D01*
X116965333Y-97685666D01*
%TO.C,X10*%
X73644285Y-99763380D02*
X74310952Y-100763380D01*
X74310952Y-99763380D02*
X73644285Y-100763380D01*
X75215714Y-100763380D02*
X74644285Y-100763380D01*
X74930000Y-100763380D02*
X74930000Y-99763380D01*
X74834761Y-99906238D01*
X74739523Y-100001476D01*
X74644285Y-100049095D01*
X75834761Y-99763380D02*
X75930000Y-99763380D01*
X76025238Y-99811000D01*
X76072857Y-99858619D01*
X76120476Y-99953857D01*
X76168095Y-100144333D01*
X76168095Y-100382428D01*
X76120476Y-100572904D01*
X76072857Y-100668142D01*
X76025238Y-100715761D01*
X75930000Y-100763380D01*
X75834761Y-100763380D01*
X75739523Y-100715761D01*
X75691904Y-100668142D01*
X75644285Y-100572904D01*
X75596666Y-100382428D01*
X75596666Y-100144333D01*
X75644285Y-99953857D01*
X75691904Y-99858619D01*
X75739523Y-99811000D01*
X75834761Y-99763380D01*
X79303619Y-103300047D02*
X80303619Y-103300047D01*
X80303619Y-103538142D01*
X80256000Y-103681000D01*
X80160761Y-103776238D01*
X80065523Y-103823857D01*
X79875047Y-103871476D01*
X79732190Y-103871476D01*
X79541714Y-103823857D01*
X79446476Y-103776238D01*
X79351238Y-103681000D01*
X79303619Y-103538142D01*
X79303619Y-103300047D01*
X80303619Y-104490523D02*
X80303619Y-104681000D01*
X80256000Y-104776238D01*
X80160761Y-104871476D01*
X79970285Y-104919095D01*
X79636952Y-104919095D01*
X79446476Y-104871476D01*
X79351238Y-104776238D01*
X79303619Y-104681000D01*
X79303619Y-104490523D01*
X79351238Y-104395285D01*
X79446476Y-104300047D01*
X79636952Y-104252428D01*
X79970285Y-104252428D01*
X80160761Y-104300047D01*
X80256000Y-104395285D01*
X80303619Y-104490523D01*
X80303619Y-105252428D02*
X79303619Y-105490523D01*
X80017904Y-105681000D01*
X79303619Y-105871476D01*
X80303619Y-106109571D01*
X79303619Y-106490523D02*
X80303619Y-106490523D01*
X79303619Y-107061952D01*
X80303619Y-107061952D01*
X77338833Y-107371000D02*
X77272166Y-107337666D01*
X77172166Y-107337666D01*
X77072166Y-107371000D01*
X77005500Y-107437666D01*
X76972166Y-107504333D01*
X76938833Y-107637666D01*
X76938833Y-107737666D01*
X76972166Y-107871000D01*
X77005500Y-107937666D01*
X77072166Y-108004333D01*
X77172166Y-108037666D01*
X77238833Y-108037666D01*
X77338833Y-108004333D01*
X77372166Y-107971000D01*
X77372166Y-107737666D01*
X77238833Y-107737666D01*
X77672166Y-108037666D02*
X77672166Y-107337666D01*
X78072166Y-108037666D01*
X78072166Y-107337666D01*
X78405500Y-108037666D02*
X78405500Y-107337666D01*
X78572166Y-107337666D01*
X78672166Y-107371000D01*
X78738833Y-107437666D01*
X78772166Y-107504333D01*
X78805500Y-107637666D01*
X78805500Y-107737666D01*
X78772166Y-107871000D01*
X78738833Y-107937666D01*
X78672166Y-108004333D01*
X78572166Y-108037666D01*
X78405500Y-108037666D01*
X76972166Y-105497666D02*
X76972166Y-104797666D01*
X77305500Y-105497666D02*
X77305500Y-104797666D01*
X77705500Y-105497666D01*
X77705500Y-104797666D01*
X76972166Y-102691000D02*
X77505500Y-102691000D01*
X77238833Y-102957666D02*
X77238833Y-102424333D01*
X77772166Y-102257666D02*
X78205500Y-102257666D01*
X77972166Y-102524333D01*
X78072166Y-102524333D01*
X78138833Y-102557666D01*
X78172166Y-102591000D01*
X78205500Y-102657666D01*
X78205500Y-102824333D01*
X78172166Y-102891000D01*
X78138833Y-102924333D01*
X78072166Y-102957666D01*
X77872166Y-102957666D01*
X77805500Y-102924333D01*
X77772166Y-102891000D01*
X78405500Y-102257666D02*
X78638833Y-102957666D01*
X78872166Y-102257666D01*
X79038833Y-102257666D02*
X79472166Y-102257666D01*
X79238833Y-102524333D01*
X79338833Y-102524333D01*
X79405500Y-102557666D01*
X79438833Y-102591000D01*
X79472166Y-102657666D01*
X79472166Y-102824333D01*
X79438833Y-102891000D01*
X79405500Y-102924333D01*
X79338833Y-102957666D01*
X79138833Y-102957666D01*
X79072166Y-102924333D01*
X79038833Y-102891000D01*
%TO.C,X7*%
X91900476Y-123175380D02*
X92567142Y-124175380D01*
X92567142Y-123175380D02*
X91900476Y-124175380D01*
X92852857Y-123175380D02*
X93519523Y-123175380D01*
X93090952Y-124175380D01*
X96290000Y-124175380D02*
X95813809Y-124175380D01*
X95813809Y-123175380D01*
X96623333Y-123651571D02*
X96956666Y-123651571D01*
X97099523Y-124175380D02*
X96623333Y-124175380D01*
X96623333Y-123175380D01*
X97099523Y-123175380D01*
X97528095Y-124175380D02*
X97528095Y-123175380D01*
X97766190Y-123175380D01*
X97909047Y-123223000D01*
X98004285Y-123318238D01*
X98051904Y-123413476D01*
X98099523Y-123603952D01*
X98099523Y-123746809D01*
X98051904Y-123937285D01*
X98004285Y-124032523D01*
X97909047Y-124127761D01*
X97766190Y-124175380D01*
X97528095Y-124175380D01*
X99718571Y-123175380D02*
X99528095Y-123175380D01*
X99432857Y-123223000D01*
X99385238Y-123270619D01*
X99290000Y-123413476D01*
X99242380Y-123603952D01*
X99242380Y-123984904D01*
X99290000Y-124080142D01*
X99337619Y-124127761D01*
X99432857Y-124175380D01*
X99623333Y-124175380D01*
X99718571Y-124127761D01*
X99766190Y-124080142D01*
X99813809Y-123984904D01*
X99813809Y-123746809D01*
X99766190Y-123651571D01*
X99718571Y-123603952D01*
X99623333Y-123556333D01*
X99432857Y-123556333D01*
X99337619Y-123603952D01*
X99290000Y-123651571D01*
X99242380Y-123746809D01*
%TO.C,X4*%
X118578380Y-116150523D02*
X119578380Y-115483857D01*
X118578380Y-115483857D02*
X119578380Y-116150523D01*
X118911714Y-114674333D02*
X119578380Y-114674333D01*
X118530761Y-114912428D02*
X119245047Y-115150523D01*
X119245047Y-114531476D01*
X119578380Y-111761000D02*
X119578380Y-112237190D01*
X118578380Y-112237190D01*
X119054571Y-111427666D02*
X119054571Y-111094333D01*
X119578380Y-110951476D02*
X119578380Y-111427666D01*
X118578380Y-111427666D01*
X118578380Y-110951476D01*
X119578380Y-110522904D02*
X118578380Y-110522904D01*
X118578380Y-110284809D01*
X118626000Y-110141952D01*
X118721238Y-110046714D01*
X118816476Y-109999095D01*
X119006952Y-109951476D01*
X119149809Y-109951476D01*
X119340285Y-109999095D01*
X119435523Y-110046714D01*
X119530761Y-110141952D01*
X119578380Y-110284809D01*
X119578380Y-110522904D01*
X118578380Y-108856238D02*
X118578380Y-108237190D01*
X118959333Y-108570523D01*
X118959333Y-108427666D01*
X119006952Y-108332428D01*
X119054571Y-108284809D01*
X119149809Y-108237190D01*
X119387904Y-108237190D01*
X119483142Y-108284809D01*
X119530761Y-108332428D01*
X119578380Y-108427666D01*
X119578380Y-108713380D01*
X119530761Y-108808619D01*
X119483142Y-108856238D01*
%TO.C,X6*%
X102060476Y-123175380D02*
X102727142Y-124175380D01*
X102727142Y-123175380D02*
X102060476Y-124175380D01*
X103536666Y-123175380D02*
X103346190Y-123175380D01*
X103250952Y-123223000D01*
X103203333Y-123270619D01*
X103108095Y-123413476D01*
X103060476Y-123603952D01*
X103060476Y-123984904D01*
X103108095Y-124080142D01*
X103155714Y-124127761D01*
X103250952Y-124175380D01*
X103441428Y-124175380D01*
X103536666Y-124127761D01*
X103584285Y-124080142D01*
X103631904Y-123984904D01*
X103631904Y-123746809D01*
X103584285Y-123651571D01*
X103536666Y-123603952D01*
X103441428Y-123556333D01*
X103250952Y-123556333D01*
X103155714Y-123603952D01*
X103108095Y-123651571D01*
X103060476Y-123746809D01*
X106450000Y-124175380D02*
X105973809Y-124175380D01*
X105973809Y-123175380D01*
X106783333Y-123651571D02*
X107116666Y-123651571D01*
X107259523Y-124175380D02*
X106783333Y-124175380D01*
X106783333Y-123175380D01*
X107259523Y-123175380D01*
X107688095Y-124175380D02*
X107688095Y-123175380D01*
X107926190Y-123175380D01*
X108069047Y-123223000D01*
X108164285Y-123318238D01*
X108211904Y-123413476D01*
X108259523Y-123603952D01*
X108259523Y-123746809D01*
X108211904Y-123937285D01*
X108164285Y-124032523D01*
X108069047Y-124127761D01*
X107926190Y-124175380D01*
X107688095Y-124175380D01*
X109926190Y-123175380D02*
X109450000Y-123175380D01*
X109402380Y-123651571D01*
X109450000Y-123603952D01*
X109545238Y-123556333D01*
X109783333Y-123556333D01*
X109878571Y-123603952D01*
X109926190Y-123651571D01*
X109973809Y-123746809D01*
X109973809Y-123984904D01*
X109926190Y-124080142D01*
X109878571Y-124127761D01*
X109783333Y-124175380D01*
X109545238Y-124175380D01*
X109450000Y-124127761D01*
X109402380Y-124080142D01*
%TO.C,R8*%
X97165333Y-77557666D02*
X96932000Y-77224333D01*
X96765333Y-77557666D02*
X96765333Y-76857666D01*
X97032000Y-76857666D01*
X97098666Y-76891000D01*
X97132000Y-76924333D01*
X97165333Y-76991000D01*
X97165333Y-77091000D01*
X97132000Y-77157666D01*
X97098666Y-77191000D01*
X97032000Y-77224333D01*
X96765333Y-77224333D01*
X97565333Y-77157666D02*
X97498666Y-77124333D01*
X97465333Y-77091000D01*
X97432000Y-77024333D01*
X97432000Y-76991000D01*
X97465333Y-76924333D01*
X97498666Y-76891000D01*
X97565333Y-76857666D01*
X97698666Y-76857666D01*
X97765333Y-76891000D01*
X97798666Y-76924333D01*
X97832000Y-76991000D01*
X97832000Y-77024333D01*
X97798666Y-77091000D01*
X97765333Y-77124333D01*
X97698666Y-77157666D01*
X97565333Y-77157666D01*
X97498666Y-77191000D01*
X97465333Y-77224333D01*
X97432000Y-77291000D01*
X97432000Y-77424333D01*
X97465333Y-77491000D01*
X97498666Y-77524333D01*
X97565333Y-77557666D01*
X97698666Y-77557666D01*
X97765333Y-77524333D01*
X97798666Y-77491000D01*
X97832000Y-77424333D01*
X97832000Y-77291000D01*
X97798666Y-77224333D01*
X97765333Y-77191000D01*
X97698666Y-77157666D01*
X96128000Y-77873666D02*
X96561333Y-77873666D01*
X96328000Y-78140333D01*
X96428000Y-78140333D01*
X96494666Y-78173666D01*
X96528000Y-78207000D01*
X96561333Y-78273666D01*
X96561333Y-78440333D01*
X96528000Y-78507000D01*
X96494666Y-78540333D01*
X96428000Y-78573666D01*
X96228000Y-78573666D01*
X96161333Y-78540333D01*
X96128000Y-78507000D01*
X96794666Y-77873666D02*
X97228000Y-77873666D01*
X96994666Y-78140333D01*
X97094666Y-78140333D01*
X97161333Y-78173666D01*
X97194666Y-78207000D01*
X97228000Y-78273666D01*
X97228000Y-78440333D01*
X97194666Y-78507000D01*
X97161333Y-78540333D01*
X97094666Y-78573666D01*
X96894666Y-78573666D01*
X96828000Y-78540333D01*
X96794666Y-78507000D01*
X97661333Y-77873666D02*
X97728000Y-77873666D01*
X97794666Y-77907000D01*
X97828000Y-77940333D01*
X97861333Y-78007000D01*
X97894666Y-78140333D01*
X97894666Y-78307000D01*
X97861333Y-78440333D01*
X97828000Y-78507000D01*
X97794666Y-78540333D01*
X97728000Y-78573666D01*
X97661333Y-78573666D01*
X97594666Y-78540333D01*
X97561333Y-78507000D01*
X97528000Y-78440333D01*
X97494666Y-78307000D01*
X97494666Y-78140333D01*
X97528000Y-78007000D01*
X97561333Y-77940333D01*
X97594666Y-77907000D01*
X97661333Y-77873666D01*
%TO.C,DD1*%
X104267000Y-65811000D02*
X104267000Y-70891000D01*
X86233000Y-65811000D02*
X104267000Y-65811000D01*
X81026000Y-119151000D02*
X109474000Y-119151000D01*
X86233000Y-65811000D02*
X86233000Y-70891000D01*
X109474000Y-70891000D02*
X81026000Y-70891000D01*
X109474000Y-119151000D02*
X109474000Y-70891000D01*
X81026000Y-70891000D02*
X81026000Y-119151000D01*
D11*
%TO.C,C1*%
X87531752Y-73966000D02*
X87009248Y-73966000D01*
X87531752Y-75436000D02*
X87009248Y-75436000D01*
%TO.C,X2*%
X127900000Y-97561000D02*
X127900000Y-87401000D01*
X121550000Y-97561000D02*
X121550000Y-87401000D01*
X120280000Y-87401000D02*
X120280000Y-97561000D01*
X127900000Y-87401000D02*
X120280000Y-87401000D01*
X120280000Y-97561000D02*
X127900000Y-97561000D01*
%TO.C,X3*%
X127900000Y-97561000D02*
X120280000Y-97561000D01*
X121550000Y-107721000D02*
X121550000Y-97561000D01*
X120280000Y-97561000D02*
X120280000Y-107721000D01*
X127900000Y-107721000D02*
X127900000Y-97561000D01*
X120280000Y-107721000D02*
X127900000Y-107721000D01*
%TO.C,X8*%
X90170000Y-132334000D02*
X90170000Y-124714000D01*
X90170000Y-124714000D02*
X80010000Y-124714000D01*
X80010000Y-132334000D02*
X90170000Y-132334000D01*
X80010000Y-125984000D02*
X90170000Y-125984000D01*
X80010000Y-124714000D02*
X80010000Y-132334000D01*
%TO.C,R5*%
X113040936Y-108456000D02*
X113495064Y-108456000D01*
X113040936Y-106986000D02*
X113495064Y-106986000D01*
%TO.C,R6*%
X104621000Y-111033936D02*
X104621000Y-111488064D01*
X103151000Y-111033936D02*
X103151000Y-111488064D01*
%TO.C,X9*%
X73600000Y-91151000D02*
X74930000Y-91151000D01*
X73600000Y-98891000D02*
X76260000Y-98891000D01*
X73600000Y-93751000D02*
X73600000Y-98891000D01*
X76260000Y-93751000D02*
X76260000Y-98891000D01*
X73600000Y-92481000D02*
X73600000Y-91151000D01*
X73600000Y-93751000D02*
X76260000Y-93751000D01*
%TO.C,X5*%
X120280000Y-128041000D02*
X127900000Y-128041000D01*
X127900000Y-128041000D02*
X127900000Y-117881000D01*
X127900000Y-117881000D02*
X120280000Y-117881000D01*
X120280000Y-117881000D02*
X120280000Y-128041000D01*
X121550000Y-128041000D02*
X121550000Y-117881000D01*
%TO.C,X1*%
X120280000Y-72161000D02*
X127900000Y-72161000D01*
X121550000Y-72161000D02*
X121550000Y-87401000D01*
X120280000Y-87401000D02*
X127900000Y-87401000D01*
X127900000Y-72161000D02*
X127900000Y-87401000D01*
X120280000Y-72161000D02*
X120280000Y-87401000D01*
%TO.C,R7*%
X103097000Y-78013936D02*
X103097000Y-78468064D01*
X101627000Y-78013936D02*
X101627000Y-78468064D01*
%TO.C,R4*%
X113040936Y-103376000D02*
X113495064Y-103376000D01*
X113040936Y-101906000D02*
X113495064Y-101906000D01*
%TO.C,R3*%
X113040936Y-100836000D02*
X113495064Y-100836000D01*
X113040936Y-99366000D02*
X113495064Y-99366000D01*
%TO.C,R1*%
X113040936Y-94286000D02*
X113495064Y-94286000D01*
X113040936Y-95756000D02*
X113495064Y-95756000D01*
%TO.C,X11*%
X73600000Y-88731000D02*
X76260000Y-88731000D01*
X73600000Y-83591000D02*
X73600000Y-88731000D01*
X73600000Y-82321000D02*
X73600000Y-80991000D01*
X73600000Y-83591000D02*
X76260000Y-83591000D01*
X73600000Y-80991000D02*
X74930000Y-80991000D01*
X76260000Y-83591000D02*
X76260000Y-88731000D01*
%TO.C,R2*%
X113040936Y-96826000D02*
X113495064Y-96826000D01*
X113040936Y-98296000D02*
X113495064Y-98296000D01*
%TO.C,X10*%
X73600000Y-102641000D02*
X73600000Y-101311000D01*
X73600000Y-109051000D02*
X76260000Y-109051000D01*
X73600000Y-103911000D02*
X76260000Y-103911000D01*
X73600000Y-103911000D02*
X73600000Y-109051000D01*
X73600000Y-101311000D02*
X74930000Y-101311000D01*
X76260000Y-103911000D02*
X76260000Y-109051000D01*
%TO.C,X7*%
X90170000Y-124714000D02*
X90170000Y-132334000D01*
X100330000Y-124714000D02*
X90170000Y-124714000D01*
X100330000Y-132334000D02*
X100330000Y-124714000D01*
X90170000Y-125984000D02*
X100330000Y-125984000D01*
X90170000Y-132334000D02*
X100330000Y-132334000D01*
%TO.C,X4*%
X127900000Y-117881000D02*
X127900000Y-107721000D01*
X120280000Y-117881000D02*
X127900000Y-117881000D01*
X120280000Y-107721000D02*
X120280000Y-117881000D01*
X127900000Y-107721000D02*
X120280000Y-107721000D01*
X121550000Y-117881000D02*
X121550000Y-107721000D01*
%TO.C,X6*%
X100330000Y-125984000D02*
X110490000Y-125984000D01*
X110490000Y-132334000D02*
X110490000Y-124714000D01*
X110490000Y-124714000D02*
X100330000Y-124714000D01*
X100330000Y-132334000D02*
X110490000Y-132334000D01*
X100330000Y-124714000D02*
X100330000Y-132334000D01*
%TO.C,R8*%
X99795000Y-78013936D02*
X99795000Y-78468064D01*
X98325000Y-78013936D02*
X98325000Y-78468064D01*
%TD*%
%LPC*%
D12*
%TO.C,REF\u002A\u002A*%
X77875825Y-127835175D03*
X75224175Y-130486825D03*
X78425000Y-129161000D03*
X77875825Y-130486825D03*
X76550000Y-127286000D03*
X74675000Y-129161000D03*
X76550000Y-131036000D03*
X75224175Y-127835175D03*
D13*
X76550000Y-129161000D03*
%TD*%
D14*
%TO.C,DD1*%
X82550000Y-72161000D03*
D15*
X82550000Y-74701000D03*
X82550000Y-77241000D03*
X82550000Y-79781000D03*
X82550000Y-82321000D03*
X82550000Y-84861000D03*
X82550000Y-87401000D03*
X82550000Y-89941000D03*
X82550000Y-92481000D03*
X82550000Y-95021000D03*
X82550000Y-97561000D03*
X82550000Y-100101000D03*
X82550000Y-102641000D03*
X82550000Y-105181000D03*
X82550000Y-107721000D03*
X82550000Y-110261000D03*
X82550000Y-112801000D03*
X82550000Y-115341000D03*
X82550000Y-117881000D03*
X107950000Y-117881000D03*
X107950000Y-115341000D03*
X107950000Y-112801000D03*
X107950000Y-110261000D03*
X107950000Y-107721000D03*
X107950000Y-105181000D03*
X107950000Y-102641000D03*
X107950000Y-100101000D03*
X107950000Y-97561000D03*
X107950000Y-95021000D03*
X107950000Y-92481000D03*
X107950000Y-89941000D03*
X107950000Y-87401000D03*
X107950000Y-84861000D03*
X107950000Y-82321000D03*
X107950000Y-79781000D03*
X107950000Y-77241000D03*
X107950000Y-74701000D03*
X107950000Y-72161000D03*
%TD*%
D16*
%TO.C,C1*%
X88308000Y-74701000D03*
X86233000Y-74701000D03*
%TD*%
D17*
%TO.C,X2*%
X124090000Y-89941000D03*
D18*
X124090000Y-95021000D03*
%TD*%
D17*
%TO.C,X3*%
X124090000Y-100101000D03*
D18*
X124090000Y-105181000D03*
%TD*%
D17*
%TO.C,X8*%
X87630000Y-128524000D03*
D18*
X82550000Y-128524000D03*
%TD*%
D19*
%TO.C,R5*%
X112268000Y-107721000D03*
X114268000Y-107721000D03*
%TD*%
D12*
%TO.C,REF\u002A\u002A*%
X112675000Y-129161000D03*
X115875825Y-130486825D03*
X115875825Y-127835175D03*
X114550000Y-127286000D03*
X116425000Y-129161000D03*
X113224175Y-127835175D03*
D13*
X114550000Y-129161000D03*
D12*
X113224175Y-130486825D03*
X114550000Y-131036000D03*
%TD*%
D20*
%TO.C,R6*%
X103886000Y-110261000D03*
X103886000Y-112261000D03*
%TD*%
D21*
%TO.C,X9*%
X74930000Y-92481000D03*
D22*
X74930000Y-95021000D03*
X74930000Y-97561000D03*
%TD*%
D12*
%TO.C,REF\u002A\u002A*%
X77875825Y-75486825D03*
X76550000Y-76036000D03*
X75224175Y-75486825D03*
X75224175Y-72835175D03*
D13*
X76550000Y-74161000D03*
D12*
X77875825Y-72835175D03*
X74675000Y-74161000D03*
X78425000Y-74161000D03*
X76550000Y-72286000D03*
%TD*%
D17*
%TO.C,X5*%
X124090000Y-120421000D03*
D18*
X124090000Y-125501000D03*
%TD*%
D17*
%TO.C,X1*%
X124090000Y-74701000D03*
D18*
X124090000Y-79781000D03*
X124090000Y-84861000D03*
%TD*%
D20*
%TO.C,R7*%
X102362000Y-77241000D03*
X102362000Y-79241000D03*
%TD*%
D19*
%TO.C,R4*%
X112268000Y-102641000D03*
X114268000Y-102641000D03*
%TD*%
%TO.C,R3*%
X112268000Y-100101000D03*
X114268000Y-100101000D03*
%TD*%
%TO.C,R1*%
X112268000Y-95021000D03*
X114268000Y-95021000D03*
%TD*%
D21*
%TO.C,X11*%
X74930000Y-82321000D03*
D22*
X74930000Y-84861000D03*
X74930000Y-87401000D03*
%TD*%
D19*
%TO.C,R2*%
X112268000Y-97561000D03*
X114268000Y-97561000D03*
%TD*%
D12*
%TO.C,REF\u002A\u002A*%
X113224175Y-72835175D03*
X112675000Y-74161000D03*
X114550000Y-76036000D03*
X115875825Y-72835175D03*
X114550000Y-72286000D03*
X113224175Y-75486825D03*
X116425000Y-74161000D03*
X115875825Y-75486825D03*
D13*
X114550000Y-74161000D03*
%TD*%
D21*
%TO.C,X10*%
X74930000Y-102641000D03*
D22*
X74930000Y-105181000D03*
X74930000Y-107721000D03*
%TD*%
D17*
%TO.C,X7*%
X97790000Y-128524000D03*
D18*
X92710000Y-128524000D03*
%TD*%
D17*
%TO.C,X4*%
X124090000Y-110261000D03*
D18*
X124090000Y-115341000D03*
%TD*%
D17*
%TO.C,X6*%
X107950000Y-128524000D03*
D18*
X102870000Y-128524000D03*
%TD*%
D20*
%TO.C,R8*%
X99060000Y-77241000D03*
X99060000Y-79241000D03*
%TD*%
M02*
