%FSLAX45Y45*%
G04 Gerber Fmt 4.5, Leading zero omitted, Abs format (unit mm)*
G04 Created by KiCad (PCBNEW 6.0.4+dfsg-1+b1) date 2022-05-28 20:56:05*
%MOMM*%
%LPD*%
G01*
G04 APERTURE LIST*
%TA.AperFunction,Profile*%
%ADD10C,0.100000*%
%TD*%
%ADD11C,0.200000*%
%ADD12C,0.050000*%
%ADD13C,0.080000*%
%ADD14C,0.100000*%
%ADD15C,0.152000*%
%ADD16C,0.250000*%
G04 APERTURE END LIST*
D10*
X7255000Y-7016100D02*
X12855000Y-7016100D01*
X12855000Y-7016100D02*
X12855000Y-13316100D01*
X12855000Y-13316100D02*
X7255000Y-13316100D01*
X7255000Y-13316100D02*
X7255000Y-7016100D01*
D11*
D12*
X7442500Y-7391100D02*
X7492500Y-7441100D01*
X7492500Y-7391100D02*
X7442500Y-7441100D01*
X7442500Y-12891100D02*
X7492500Y-12941100D01*
X7492500Y-12891100D02*
X7442500Y-12941100D01*
X7497417Y-7258517D02*
X7547417Y-7308517D01*
X7547417Y-7258517D02*
X7497417Y-7308517D01*
X7497417Y-7523682D02*
X7547417Y-7573682D01*
X7547417Y-7523682D02*
X7497417Y-7573682D01*
X7497417Y-12758517D02*
X7547417Y-12808517D01*
X7547417Y-12758517D02*
X7497417Y-12808517D01*
X7497417Y-13023682D02*
X7547417Y-13073682D01*
X7547417Y-13023682D02*
X7497417Y-13073682D01*
X7630000Y-7203600D02*
X7680000Y-7253600D01*
X7680000Y-7203600D02*
X7630000Y-7253600D01*
X7630000Y-7578600D02*
X7680000Y-7628600D01*
X7680000Y-7578600D02*
X7630000Y-7628600D01*
X7630000Y-12703600D02*
X7680000Y-12753600D01*
X7680000Y-12703600D02*
X7630000Y-12753600D01*
X7630000Y-13078600D02*
X7680000Y-13128600D01*
X7680000Y-13078600D02*
X7630000Y-13128600D01*
X7762582Y-7258517D02*
X7812582Y-7308517D01*
X7812582Y-7258517D02*
X7762582Y-7308517D01*
X7762582Y-7523682D02*
X7812582Y-7573682D01*
X7812582Y-7523682D02*
X7762582Y-7573682D01*
X7762582Y-12758517D02*
X7812582Y-12808517D01*
X7812582Y-12758517D02*
X7762582Y-12808517D01*
X7762582Y-13023682D02*
X7812582Y-13073682D01*
X7812582Y-13023682D02*
X7762582Y-13073682D01*
X7817500Y-7391100D02*
X7867500Y-7441100D01*
X7867500Y-7391100D02*
X7817500Y-7441100D01*
X7817500Y-12891100D02*
X7867500Y-12941100D01*
X7867500Y-12891100D02*
X7817500Y-12941100D01*
X11242500Y-7391100D02*
X11292500Y-7441100D01*
X11292500Y-7391100D02*
X11242500Y-7441100D01*
X11242500Y-12891100D02*
X11292500Y-12941100D01*
X11292500Y-12891100D02*
X11242500Y-12941100D01*
X11297417Y-7258517D02*
X11347417Y-7308517D01*
X11347417Y-7258517D02*
X11297417Y-7308517D01*
X11297417Y-7523682D02*
X11347417Y-7573682D01*
X11347417Y-7523682D02*
X11297417Y-7573682D01*
X11297417Y-12758517D02*
X11347417Y-12808517D01*
X11347417Y-12758517D02*
X11297417Y-12808517D01*
X11297417Y-13023682D02*
X11347417Y-13073682D01*
X11347417Y-13023682D02*
X11297417Y-13073682D01*
X11430000Y-7203600D02*
X11480000Y-7253600D01*
X11480000Y-7203600D02*
X11430000Y-7253600D01*
X11430000Y-7578600D02*
X11480000Y-7628600D01*
X11480000Y-7578600D02*
X11430000Y-7628600D01*
X11430000Y-12703600D02*
X11480000Y-12753600D01*
X11480000Y-12703600D02*
X11430000Y-12753600D01*
X11430000Y-13078600D02*
X11480000Y-13128600D01*
X11480000Y-13078600D02*
X11430000Y-13128600D01*
X11562582Y-7258517D02*
X11612582Y-7308517D01*
X11612582Y-7258517D02*
X11562582Y-7308517D01*
X11562582Y-7523682D02*
X11612582Y-7573682D01*
X11612582Y-7523682D02*
X11562582Y-7573682D01*
X11562582Y-12758517D02*
X11612582Y-12808517D01*
X11612582Y-12758517D02*
X11562582Y-12808517D01*
X11562582Y-13023682D02*
X11612582Y-13073682D01*
X11612582Y-13023682D02*
X11562582Y-13073682D01*
X11617500Y-7391100D02*
X11667500Y-7441100D01*
X11667500Y-7391100D02*
X11617500Y-7441100D01*
X11617500Y-12891100D02*
X11667500Y-12941100D01*
X11667500Y-12891100D02*
X11617500Y-12941100D01*
D13*
X8295000Y-7216100D02*
G75*
G03*
X8295000Y-7216100I-40000J0D01*
G01*
X8295000Y-7470100D02*
G75*
G03*
X8295000Y-7470100I-40000J0D01*
G01*
X8295000Y-7724100D02*
G75*
G03*
X8295000Y-7724100I-40000J0D01*
G01*
X8295000Y-7978100D02*
G75*
G03*
X8295000Y-7978100I-40000J0D01*
G01*
X8295000Y-8232100D02*
G75*
G03*
X8295000Y-8232100I-40000J0D01*
G01*
X8295000Y-8486100D02*
G75*
G03*
X8295000Y-8486100I-40000J0D01*
G01*
X8295000Y-8740100D02*
G75*
G03*
X8295000Y-8740100I-40000J0D01*
G01*
X8295000Y-8994100D02*
G75*
G03*
X8295000Y-8994100I-40000J0D01*
G01*
X8295000Y-9248100D02*
G75*
G03*
X8295000Y-9248100I-40000J0D01*
G01*
X8295000Y-9502100D02*
G75*
G03*
X8295000Y-9502100I-40000J0D01*
G01*
X8295000Y-9756100D02*
G75*
G03*
X8295000Y-9756100I-40000J0D01*
G01*
X8295000Y-10010100D02*
G75*
G03*
X8295000Y-10010100I-40000J0D01*
G01*
X8295000Y-10264100D02*
G75*
G03*
X8295000Y-10264100I-40000J0D01*
G01*
X8295000Y-10518100D02*
G75*
G03*
X8295000Y-10518100I-40000J0D01*
G01*
X8295000Y-10772100D02*
G75*
G03*
X8295000Y-10772100I-40000J0D01*
G01*
X8295000Y-11026100D02*
G75*
G03*
X8295000Y-11026100I-40000J0D01*
G01*
X8295000Y-11280100D02*
G75*
G03*
X8295000Y-11280100I-40000J0D01*
G01*
X8295000Y-11534100D02*
G75*
G03*
X8295000Y-11534100I-40000J0D01*
G01*
X8295000Y-11788100D02*
G75*
G03*
X8295000Y-11788100I-40000J0D01*
G01*
X10835000Y-7216100D02*
G75*
G03*
X10835000Y-7216100I-40000J0D01*
G01*
X10835000Y-7470100D02*
G75*
G03*
X10835000Y-7470100I-40000J0D01*
G01*
X10835000Y-7724100D02*
G75*
G03*
X10835000Y-7724100I-40000J0D01*
G01*
X10835000Y-7978100D02*
G75*
G03*
X10835000Y-7978100I-40000J0D01*
G01*
X10835000Y-8232100D02*
G75*
G03*
X10835000Y-8232100I-40000J0D01*
G01*
X10835000Y-8486100D02*
G75*
G03*
X10835000Y-8486100I-40000J0D01*
G01*
X10835000Y-8740100D02*
G75*
G03*
X10835000Y-8740100I-40000J0D01*
G01*
X10835000Y-8994100D02*
G75*
G03*
X10835000Y-8994100I-40000J0D01*
G01*
X10835000Y-9248100D02*
G75*
G03*
X10835000Y-9248100I-40000J0D01*
G01*
X10835000Y-9502100D02*
G75*
G03*
X10835000Y-9502100I-40000J0D01*
G01*
X10835000Y-9756100D02*
G75*
G03*
X10835000Y-9756100I-40000J0D01*
G01*
X10835000Y-10010100D02*
G75*
G03*
X10835000Y-10010100I-40000J0D01*
G01*
X10835000Y-10264100D02*
G75*
G03*
X10835000Y-10264100I-40000J0D01*
G01*
X10835000Y-10518100D02*
G75*
G03*
X10835000Y-10518100I-40000J0D01*
G01*
X10835000Y-10772100D02*
G75*
G03*
X10835000Y-10772100I-40000J0D01*
G01*
X10835000Y-11026100D02*
G75*
G03*
X10835000Y-11026100I-40000J0D01*
G01*
X10835000Y-11280100D02*
G75*
G03*
X10835000Y-11280100I-40000J0D01*
G01*
X10835000Y-11534100D02*
G75*
G03*
X10835000Y-11534100I-40000J0D01*
G01*
X10835000Y-11788100D02*
G75*
G03*
X10835000Y-11788100I-40000J0D01*
G01*
D14*
X7493000Y-8182100D02*
X7493000Y-8282100D01*
X7443000Y-8232100D02*
X7543000Y-8232100D01*
X7493000Y-8436100D02*
X7493000Y-8536100D01*
X7443000Y-8486100D02*
X7543000Y-8486100D01*
X7493000Y-8690100D02*
X7493000Y-8790100D01*
X7443000Y-8740100D02*
X7543000Y-8740100D01*
X7493000Y-9198100D02*
X7493000Y-9298100D01*
X7443000Y-9248100D02*
X7543000Y-9248100D01*
X7493000Y-9452100D02*
X7493000Y-9552100D01*
X7443000Y-9502100D02*
X7543000Y-9502100D01*
X7493000Y-9706100D02*
X7493000Y-9806100D01*
X7443000Y-9756100D02*
X7543000Y-9756100D01*
X7493000Y-10214100D02*
X7493000Y-10314100D01*
X7443000Y-10264100D02*
X7543000Y-10264100D01*
X7493000Y-10468100D02*
X7493000Y-10568100D01*
X7443000Y-10518100D02*
X7543000Y-10518100D01*
X7493000Y-10722100D02*
X7493000Y-10822100D01*
X7443000Y-10772100D02*
X7543000Y-10772100D01*
D15*
X8308741Y-12906141D02*
X8308741Y-12798659D01*
X8201259Y-12798659D01*
X8201259Y-12906141D01*
X8308741Y-12906141D01*
X8816741Y-12906141D02*
X8816741Y-12798659D01*
X8709259Y-12798659D01*
X8709259Y-12906141D01*
X8816741Y-12906141D01*
X9324741Y-12906141D02*
X9324741Y-12798659D01*
X9217259Y-12798659D01*
X9217259Y-12906141D01*
X9324741Y-12906141D01*
X9832741Y-12906141D02*
X9832741Y-12798659D01*
X9725259Y-12798659D01*
X9725259Y-12906141D01*
X9832741Y-12906141D01*
X10340741Y-12906141D02*
X10340741Y-12798659D01*
X10233259Y-12798659D01*
X10233259Y-12906141D01*
X10340741Y-12906141D01*
X10848741Y-12906141D02*
X10848741Y-12798659D01*
X10741259Y-12798659D01*
X10741259Y-12906141D01*
X10848741Y-12906141D01*
X12462741Y-7523841D02*
X12462741Y-7416359D01*
X12355259Y-7416359D01*
X12355259Y-7523841D01*
X12462741Y-7523841D01*
X12462741Y-8031841D02*
X12462741Y-7924359D01*
X12355259Y-7924359D01*
X12355259Y-8031841D01*
X12462741Y-8031841D01*
X12462741Y-8539841D02*
X12462741Y-8432359D01*
X12355259Y-8432359D01*
X12355259Y-8539841D01*
X12462741Y-8539841D01*
X12462741Y-9047841D02*
X12462741Y-8940359D01*
X12355259Y-8940359D01*
X12355259Y-9047841D01*
X12462741Y-9047841D01*
X12462741Y-9555841D02*
X12462741Y-9448359D01*
X12355259Y-9448359D01*
X12355259Y-9555841D01*
X12462741Y-9555841D01*
X12462741Y-10063841D02*
X12462741Y-9956359D01*
X12355259Y-9956359D01*
X12355259Y-10063841D01*
X12462741Y-10063841D01*
X12462741Y-10571841D02*
X12462741Y-10464359D01*
X12355259Y-10464359D01*
X12355259Y-10571841D01*
X12462741Y-10571841D01*
X12462741Y-11079841D02*
X12462741Y-10972359D01*
X12355259Y-10972359D01*
X12355259Y-11079841D01*
X12462741Y-11079841D01*
X12462741Y-11587841D02*
X12462741Y-11480359D01*
X12355259Y-11480359D01*
X12355259Y-11587841D01*
X12462741Y-11587841D01*
X12462741Y-12095841D02*
X12462741Y-11988359D01*
X12355259Y-11988359D01*
X12355259Y-12095841D01*
X12462741Y-12095841D01*
X12462741Y-12603841D02*
X12462741Y-12496359D01*
X12355259Y-12496359D01*
X12355259Y-12603841D01*
X12462741Y-12603841D01*
D16*
X7655000Y-7541100D02*
X7780000Y-7416100D01*
X7655000Y-7291100D01*
X7530000Y-7416100D01*
X7655000Y-7541100D01*
X7655000Y-13041100D02*
X7780000Y-12916100D01*
X7655000Y-12791100D01*
X7530000Y-12916100D01*
X7655000Y-13041100D01*
X11455000Y-7541100D02*
X11580000Y-7416100D01*
X11455000Y-7291100D01*
X11330000Y-7416100D01*
X11455000Y-7541100D01*
X11455000Y-13041100D02*
X11580000Y-12916100D01*
X11455000Y-12791100D01*
X11330000Y-12916100D01*
X11455000Y-13041100D01*
D11*
X7507619Y-13631576D02*
X7507619Y-13431576D01*
X7555238Y-13431576D01*
X7583809Y-13441100D01*
X7602857Y-13460148D01*
X7612381Y-13479195D01*
X7621905Y-13517290D01*
X7621905Y-13545862D01*
X7612381Y-13583957D01*
X7602857Y-13603005D01*
X7583809Y-13622052D01*
X7555238Y-13631576D01*
X7507619Y-13631576D01*
X7707619Y-13631576D02*
X7707619Y-13498243D01*
X7707619Y-13536338D02*
X7717143Y-13517290D01*
X7726667Y-13507767D01*
X7745714Y-13498243D01*
X7764762Y-13498243D01*
X7831428Y-13631576D02*
X7831428Y-13498243D01*
X7831428Y-13431576D02*
X7821905Y-13441100D01*
X7831428Y-13450624D01*
X7840952Y-13441100D01*
X7831428Y-13431576D01*
X7831428Y-13450624D01*
X7955238Y-13631576D02*
X7936190Y-13622052D01*
X7926667Y-13603005D01*
X7926667Y-13431576D01*
X8060000Y-13631576D02*
X8040952Y-13622052D01*
X8031428Y-13603005D01*
X8031428Y-13431576D01*
X8288571Y-13631576D02*
X8288571Y-13431576D01*
X8355238Y-13574433D01*
X8421905Y-13431576D01*
X8421905Y-13631576D01*
X8602857Y-13631576D02*
X8602857Y-13526814D01*
X8593333Y-13507767D01*
X8574286Y-13498243D01*
X8536190Y-13498243D01*
X8517143Y-13507767D01*
X8602857Y-13622052D02*
X8583810Y-13631576D01*
X8536190Y-13631576D01*
X8517143Y-13622052D01*
X8507619Y-13603005D01*
X8507619Y-13583957D01*
X8517143Y-13564909D01*
X8536190Y-13555386D01*
X8583810Y-13555386D01*
X8602857Y-13545862D01*
X8698095Y-13498243D02*
X8698095Y-13698243D01*
X8698095Y-13507767D02*
X8717143Y-13498243D01*
X8755238Y-13498243D01*
X8774286Y-13507767D01*
X8783810Y-13517290D01*
X8793333Y-13536338D01*
X8793333Y-13593481D01*
X8783810Y-13612528D01*
X8774286Y-13622052D01*
X8755238Y-13631576D01*
X8717143Y-13631576D01*
X8698095Y-13622052D01*
X8879048Y-13612528D02*
X8888571Y-13622052D01*
X8879048Y-13631576D01*
X8869524Y-13622052D01*
X8879048Y-13612528D01*
X8879048Y-13631576D01*
X8879048Y-13507767D02*
X8888571Y-13517290D01*
X8879048Y-13526814D01*
X8869524Y-13517290D01*
X8879048Y-13507767D01*
X8879048Y-13526814D01*
D12*
X7200000Y-13936100D02*
X7250000Y-13986100D01*
X7250000Y-13936100D02*
X7200000Y-13986100D01*
D11*
X7545714Y-13851576D02*
X7564762Y-13851576D01*
X7583809Y-13861100D01*
X7593333Y-13870624D01*
X7602857Y-13889671D01*
X7612381Y-13927767D01*
X7612381Y-13975386D01*
X7602857Y-14013481D01*
X7593333Y-14032528D01*
X7583809Y-14042052D01*
X7564762Y-14051576D01*
X7545714Y-14051576D01*
X7526667Y-14042052D01*
X7517143Y-14032528D01*
X7507619Y-14013481D01*
X7498095Y-13975386D01*
X7498095Y-13927767D01*
X7507619Y-13889671D01*
X7517143Y-13870624D01*
X7526667Y-13861100D01*
X7545714Y-13851576D01*
X7698095Y-14032528D02*
X7707619Y-14042052D01*
X7698095Y-14051576D01*
X7688571Y-14042052D01*
X7698095Y-14032528D01*
X7698095Y-14051576D01*
X7888571Y-13851576D02*
X7793333Y-13851576D01*
X7783809Y-13946814D01*
X7793333Y-13937290D01*
X7812381Y-13927767D01*
X7860000Y-13927767D01*
X7879048Y-13937290D01*
X7888571Y-13946814D01*
X7898095Y-13965862D01*
X7898095Y-14013481D01*
X7888571Y-14032528D01*
X7879048Y-14042052D01*
X7860000Y-14051576D01*
X7812381Y-14051576D01*
X7793333Y-14042052D01*
X7783809Y-14032528D01*
X8021905Y-13851576D02*
X8040952Y-13851576D01*
X8060000Y-13861100D01*
X8069524Y-13870624D01*
X8079048Y-13889671D01*
X8088571Y-13927767D01*
X8088571Y-13975386D01*
X8079048Y-14013481D01*
X8069524Y-14032528D01*
X8060000Y-14042052D01*
X8040952Y-14051576D01*
X8021905Y-14051576D01*
X8002857Y-14042052D01*
X7993333Y-14032528D01*
X7983809Y-14013481D01*
X7974286Y-13975386D01*
X7974286Y-13927767D01*
X7983809Y-13889671D01*
X7993333Y-13870624D01*
X8002857Y-13861100D01*
X8021905Y-13851576D01*
X8212381Y-13851576D02*
X8231428Y-13851576D01*
X8250476Y-13861100D01*
X8260000Y-13870624D01*
X8269524Y-13889671D01*
X8279048Y-13927767D01*
X8279048Y-13975386D01*
X8269524Y-14013481D01*
X8260000Y-14032528D01*
X8250476Y-14042052D01*
X8231428Y-14051576D01*
X8212381Y-14051576D01*
X8193333Y-14042052D01*
X8183809Y-14032528D01*
X8174286Y-14013481D01*
X8164762Y-13975386D01*
X8164762Y-13927767D01*
X8174286Y-13889671D01*
X8183809Y-13870624D01*
X8193333Y-13861100D01*
X8212381Y-13851576D01*
X8364762Y-14051576D02*
X8364762Y-13918243D01*
X8364762Y-13937290D02*
X8374286Y-13927767D01*
X8393333Y-13918243D01*
X8421905Y-13918243D01*
X8440952Y-13927767D01*
X8450476Y-13946814D01*
X8450476Y-14051576D01*
X8450476Y-13946814D02*
X8460000Y-13927767D01*
X8479048Y-13918243D01*
X8507619Y-13918243D01*
X8526667Y-13927767D01*
X8536190Y-13946814D01*
X8536190Y-14051576D01*
X8631429Y-14051576D02*
X8631429Y-13918243D01*
X8631429Y-13937290D02*
X8640952Y-13927767D01*
X8660000Y-13918243D01*
X8688571Y-13918243D01*
X8707619Y-13927767D01*
X8717143Y-13946814D01*
X8717143Y-14051576D01*
X8717143Y-13946814D02*
X8726667Y-13927767D01*
X8745714Y-13918243D01*
X8774286Y-13918243D01*
X8793333Y-13927767D01*
X8802857Y-13946814D01*
X8802857Y-14051576D01*
X9193333Y-13842052D02*
X9021905Y-14099195D01*
X9450476Y-13851576D02*
X9469524Y-13851576D01*
X9488571Y-13861100D01*
X9498095Y-13870624D01*
X9507619Y-13889671D01*
X9517143Y-13927767D01*
X9517143Y-13975386D01*
X9507619Y-14013481D01*
X9498095Y-14032528D01*
X9488571Y-14042052D01*
X9469524Y-14051576D01*
X9450476Y-14051576D01*
X9431429Y-14042052D01*
X9421905Y-14032528D01*
X9412381Y-14013481D01*
X9402857Y-13975386D01*
X9402857Y-13927767D01*
X9412381Y-13889671D01*
X9421905Y-13870624D01*
X9431429Y-13861100D01*
X9450476Y-13851576D01*
X9602857Y-14032528D02*
X9612381Y-14042052D01*
X9602857Y-14051576D01*
X9593333Y-14042052D01*
X9602857Y-14032528D01*
X9602857Y-14051576D01*
X9736190Y-13851576D02*
X9755238Y-13851576D01*
X9774286Y-13861100D01*
X9783810Y-13870624D01*
X9793333Y-13889671D01*
X9802857Y-13927767D01*
X9802857Y-13975386D01*
X9793333Y-14013481D01*
X9783810Y-14032528D01*
X9774286Y-14042052D01*
X9755238Y-14051576D01*
X9736190Y-14051576D01*
X9717143Y-14042052D01*
X9707619Y-14032528D01*
X9698095Y-14013481D01*
X9688571Y-13975386D01*
X9688571Y-13927767D01*
X9698095Y-13889671D01*
X9707619Y-13870624D01*
X9717143Y-13861100D01*
X9736190Y-13851576D01*
X9993333Y-14051576D02*
X9879048Y-14051576D01*
X9936190Y-14051576D02*
X9936190Y-13851576D01*
X9917143Y-13880148D01*
X9898095Y-13899195D01*
X9879048Y-13908719D01*
X10088571Y-14051576D02*
X10126667Y-14051576D01*
X10145714Y-14042052D01*
X10155238Y-14032528D01*
X10174286Y-14003957D01*
X10183810Y-13965862D01*
X10183810Y-13889671D01*
X10174286Y-13870624D01*
X10164762Y-13861100D01*
X10145714Y-13851576D01*
X10107619Y-13851576D01*
X10088571Y-13861100D01*
X10079048Y-13870624D01*
X10069524Y-13889671D01*
X10069524Y-13937290D01*
X10079048Y-13956338D01*
X10088571Y-13965862D01*
X10107619Y-13975386D01*
X10145714Y-13975386D01*
X10164762Y-13965862D01*
X10174286Y-13956338D01*
X10183810Y-13937290D01*
X10250476Y-13851576D02*
X10383810Y-13851576D01*
X10298095Y-14051576D01*
X10450476Y-13851576D02*
X10450476Y-13889671D01*
X10526667Y-13851576D02*
X10526667Y-13889671D01*
X10821905Y-14127767D02*
X10812381Y-14118243D01*
X10793333Y-14089671D01*
X10783810Y-14070624D01*
X10774286Y-14042052D01*
X10764762Y-13994433D01*
X10764762Y-13956338D01*
X10774286Y-13908719D01*
X10783810Y-13880148D01*
X10793333Y-13861100D01*
X10812381Y-13832528D01*
X10821905Y-13823005D01*
X10879048Y-13851576D02*
X11002857Y-13851576D01*
X10936190Y-13927767D01*
X10964762Y-13927767D01*
X10983810Y-13937290D01*
X10993333Y-13946814D01*
X11002857Y-13965862D01*
X11002857Y-14013481D01*
X10993333Y-14032528D01*
X10983810Y-14042052D01*
X10964762Y-14051576D01*
X10907619Y-14051576D01*
X10888571Y-14042052D01*
X10879048Y-14032528D01*
X11079048Y-13870624D02*
X11088571Y-13861100D01*
X11107619Y-13851576D01*
X11155238Y-13851576D01*
X11174286Y-13861100D01*
X11183810Y-13870624D01*
X11193333Y-13889671D01*
X11193333Y-13908719D01*
X11183810Y-13937290D01*
X11069524Y-14051576D01*
X11193333Y-14051576D01*
X11431428Y-14051576D02*
X11431428Y-13851576D01*
X11517143Y-14051576D02*
X11517143Y-13946814D01*
X11507619Y-13927767D01*
X11488571Y-13918243D01*
X11460000Y-13918243D01*
X11440952Y-13927767D01*
X11431428Y-13937290D01*
X11640952Y-14051576D02*
X11621905Y-14042052D01*
X11612381Y-14032528D01*
X11602857Y-14013481D01*
X11602857Y-13956338D01*
X11612381Y-13937290D01*
X11621905Y-13927767D01*
X11640952Y-13918243D01*
X11669524Y-13918243D01*
X11688571Y-13927767D01*
X11698095Y-13937290D01*
X11707619Y-13956338D01*
X11707619Y-14013481D01*
X11698095Y-14032528D01*
X11688571Y-14042052D01*
X11669524Y-14051576D01*
X11640952Y-14051576D01*
X11821905Y-14051576D02*
X11802857Y-14042052D01*
X11793333Y-14023005D01*
X11793333Y-13851576D01*
X11974286Y-14042052D02*
X11955238Y-14051576D01*
X11917143Y-14051576D01*
X11898095Y-14042052D01*
X11888571Y-14023005D01*
X11888571Y-13946814D01*
X11898095Y-13927767D01*
X11917143Y-13918243D01*
X11955238Y-13918243D01*
X11974286Y-13927767D01*
X11983809Y-13946814D01*
X11983809Y-13965862D01*
X11888571Y-13984909D01*
X12060000Y-14042052D02*
X12079048Y-14051576D01*
X12117143Y-14051576D01*
X12136190Y-14042052D01*
X12145714Y-14023005D01*
X12145714Y-14013481D01*
X12136190Y-13994433D01*
X12117143Y-13984909D01*
X12088571Y-13984909D01*
X12069524Y-13975386D01*
X12060000Y-13956338D01*
X12060000Y-13946814D01*
X12069524Y-13927767D01*
X12088571Y-13918243D01*
X12117143Y-13918243D01*
X12136190Y-13927767D01*
X12212381Y-14127767D02*
X12221905Y-14118243D01*
X12240952Y-14089671D01*
X12250476Y-14070624D01*
X12260000Y-14042052D01*
X12269524Y-13994433D01*
X12269524Y-13956338D01*
X12260000Y-13908719D01*
X12250476Y-13880148D01*
X12240952Y-13861100D01*
X12221905Y-13832528D01*
X12212381Y-13823005D01*
D13*
X7250000Y-14225100D02*
G75*
G03*
X7250000Y-14225100I-40000J0D01*
G01*
D11*
X7545714Y-14115576D02*
X7564762Y-14115576D01*
X7583809Y-14125100D01*
X7593333Y-14134624D01*
X7602857Y-14153671D01*
X7612381Y-14191767D01*
X7612381Y-14239386D01*
X7602857Y-14277481D01*
X7593333Y-14296528D01*
X7583809Y-14306052D01*
X7564762Y-14315576D01*
X7545714Y-14315576D01*
X7526667Y-14306052D01*
X7517143Y-14296528D01*
X7507619Y-14277481D01*
X7498095Y-14239386D01*
X7498095Y-14191767D01*
X7507619Y-14153671D01*
X7517143Y-14134624D01*
X7526667Y-14125100D01*
X7545714Y-14115576D01*
X7698095Y-14296528D02*
X7707619Y-14306052D01*
X7698095Y-14315576D01*
X7688571Y-14306052D01*
X7698095Y-14296528D01*
X7698095Y-14315576D01*
X7821905Y-14201290D02*
X7802857Y-14191767D01*
X7793333Y-14182243D01*
X7783809Y-14163195D01*
X7783809Y-14153671D01*
X7793333Y-14134624D01*
X7802857Y-14125100D01*
X7821905Y-14115576D01*
X7860000Y-14115576D01*
X7879048Y-14125100D01*
X7888571Y-14134624D01*
X7898095Y-14153671D01*
X7898095Y-14163195D01*
X7888571Y-14182243D01*
X7879048Y-14191767D01*
X7860000Y-14201290D01*
X7821905Y-14201290D01*
X7802857Y-14210814D01*
X7793333Y-14220338D01*
X7783809Y-14239386D01*
X7783809Y-14277481D01*
X7793333Y-14296528D01*
X7802857Y-14306052D01*
X7821905Y-14315576D01*
X7860000Y-14315576D01*
X7879048Y-14306052D01*
X7888571Y-14296528D01*
X7898095Y-14277481D01*
X7898095Y-14239386D01*
X7888571Y-14220338D01*
X7879048Y-14210814D01*
X7860000Y-14201290D01*
X8021905Y-14115576D02*
X8040952Y-14115576D01*
X8060000Y-14125100D01*
X8069524Y-14134624D01*
X8079048Y-14153671D01*
X8088571Y-14191767D01*
X8088571Y-14239386D01*
X8079048Y-14277481D01*
X8069524Y-14296528D01*
X8060000Y-14306052D01*
X8040952Y-14315576D01*
X8021905Y-14315576D01*
X8002857Y-14306052D01*
X7993333Y-14296528D01*
X7983809Y-14277481D01*
X7974286Y-14239386D01*
X7974286Y-14191767D01*
X7983809Y-14153671D01*
X7993333Y-14134624D01*
X8002857Y-14125100D01*
X8021905Y-14115576D01*
X8212381Y-14115576D02*
X8231428Y-14115576D01*
X8250476Y-14125100D01*
X8260000Y-14134624D01*
X8269524Y-14153671D01*
X8279048Y-14191767D01*
X8279048Y-14239386D01*
X8269524Y-14277481D01*
X8260000Y-14296528D01*
X8250476Y-14306052D01*
X8231428Y-14315576D01*
X8212381Y-14315576D01*
X8193333Y-14306052D01*
X8183809Y-14296528D01*
X8174286Y-14277481D01*
X8164762Y-14239386D01*
X8164762Y-14191767D01*
X8174286Y-14153671D01*
X8183809Y-14134624D01*
X8193333Y-14125100D01*
X8212381Y-14115576D01*
X8364762Y-14315576D02*
X8364762Y-14182243D01*
X8364762Y-14201290D02*
X8374286Y-14191767D01*
X8393333Y-14182243D01*
X8421905Y-14182243D01*
X8440952Y-14191767D01*
X8450476Y-14210814D01*
X8450476Y-14315576D01*
X8450476Y-14210814D02*
X8460000Y-14191767D01*
X8479048Y-14182243D01*
X8507619Y-14182243D01*
X8526667Y-14191767D01*
X8536190Y-14210814D01*
X8536190Y-14315576D01*
X8631429Y-14315576D02*
X8631429Y-14182243D01*
X8631429Y-14201290D02*
X8640952Y-14191767D01*
X8660000Y-14182243D01*
X8688571Y-14182243D01*
X8707619Y-14191767D01*
X8717143Y-14210814D01*
X8717143Y-14315576D01*
X8717143Y-14210814D02*
X8726667Y-14191767D01*
X8745714Y-14182243D01*
X8774286Y-14182243D01*
X8793333Y-14191767D01*
X8802857Y-14210814D01*
X8802857Y-14315576D01*
X9193333Y-14106052D02*
X9021905Y-14363195D01*
X9450476Y-14115576D02*
X9469524Y-14115576D01*
X9488571Y-14125100D01*
X9498095Y-14134624D01*
X9507619Y-14153671D01*
X9517143Y-14191767D01*
X9517143Y-14239386D01*
X9507619Y-14277481D01*
X9498095Y-14296528D01*
X9488571Y-14306052D01*
X9469524Y-14315576D01*
X9450476Y-14315576D01*
X9431429Y-14306052D01*
X9421905Y-14296528D01*
X9412381Y-14277481D01*
X9402857Y-14239386D01*
X9402857Y-14191767D01*
X9412381Y-14153671D01*
X9421905Y-14134624D01*
X9431429Y-14125100D01*
X9450476Y-14115576D01*
X9602857Y-14296528D02*
X9612381Y-14306052D01*
X9602857Y-14315576D01*
X9593333Y-14306052D01*
X9602857Y-14296528D01*
X9602857Y-14315576D01*
X9736190Y-14115576D02*
X9755238Y-14115576D01*
X9774286Y-14125100D01*
X9783810Y-14134624D01*
X9793333Y-14153671D01*
X9802857Y-14191767D01*
X9802857Y-14239386D01*
X9793333Y-14277481D01*
X9783810Y-14296528D01*
X9774286Y-14306052D01*
X9755238Y-14315576D01*
X9736190Y-14315576D01*
X9717143Y-14306052D01*
X9707619Y-14296528D01*
X9698095Y-14277481D01*
X9688571Y-14239386D01*
X9688571Y-14191767D01*
X9698095Y-14153671D01*
X9707619Y-14134624D01*
X9717143Y-14125100D01*
X9736190Y-14115576D01*
X9869524Y-14115576D02*
X9993333Y-14115576D01*
X9926667Y-14191767D01*
X9955238Y-14191767D01*
X9974286Y-14201290D01*
X9983810Y-14210814D01*
X9993333Y-14229862D01*
X9993333Y-14277481D01*
X9983810Y-14296528D01*
X9974286Y-14306052D01*
X9955238Y-14315576D01*
X9898095Y-14315576D01*
X9879048Y-14306052D01*
X9869524Y-14296528D01*
X10183810Y-14315576D02*
X10069524Y-14315576D01*
X10126667Y-14315576D02*
X10126667Y-14115576D01*
X10107619Y-14144148D01*
X10088571Y-14163195D01*
X10069524Y-14172719D01*
X10364762Y-14115576D02*
X10269524Y-14115576D01*
X10260000Y-14210814D01*
X10269524Y-14201290D01*
X10288571Y-14191767D01*
X10336190Y-14191767D01*
X10355238Y-14201290D01*
X10364762Y-14210814D01*
X10374286Y-14229862D01*
X10374286Y-14277481D01*
X10364762Y-14296528D01*
X10355238Y-14306052D01*
X10336190Y-14315576D01*
X10288571Y-14315576D01*
X10269524Y-14306052D01*
X10260000Y-14296528D01*
X10450476Y-14115576D02*
X10450476Y-14153671D01*
X10526667Y-14115576D02*
X10526667Y-14153671D01*
X10821905Y-14391767D02*
X10812381Y-14382243D01*
X10793333Y-14353671D01*
X10783810Y-14334624D01*
X10774286Y-14306052D01*
X10764762Y-14258433D01*
X10764762Y-14220338D01*
X10774286Y-14172719D01*
X10783810Y-14144148D01*
X10793333Y-14125100D01*
X10812381Y-14096528D01*
X10821905Y-14087005D01*
X10879048Y-14115576D02*
X11002857Y-14115576D01*
X10936190Y-14191767D01*
X10964762Y-14191767D01*
X10983810Y-14201290D01*
X10993333Y-14210814D01*
X11002857Y-14229862D01*
X11002857Y-14277481D01*
X10993333Y-14296528D01*
X10983810Y-14306052D01*
X10964762Y-14315576D01*
X10907619Y-14315576D01*
X10888571Y-14306052D01*
X10879048Y-14296528D01*
X11117143Y-14201290D02*
X11098095Y-14191767D01*
X11088571Y-14182243D01*
X11079048Y-14163195D01*
X11079048Y-14153671D01*
X11088571Y-14134624D01*
X11098095Y-14125100D01*
X11117143Y-14115576D01*
X11155238Y-14115576D01*
X11174286Y-14125100D01*
X11183810Y-14134624D01*
X11193333Y-14153671D01*
X11193333Y-14163195D01*
X11183810Y-14182243D01*
X11174286Y-14191767D01*
X11155238Y-14201290D01*
X11117143Y-14201290D01*
X11098095Y-14210814D01*
X11088571Y-14220338D01*
X11079048Y-14239386D01*
X11079048Y-14277481D01*
X11088571Y-14296528D01*
X11098095Y-14306052D01*
X11117143Y-14315576D01*
X11155238Y-14315576D01*
X11174286Y-14306052D01*
X11183810Y-14296528D01*
X11193333Y-14277481D01*
X11193333Y-14239386D01*
X11183810Y-14220338D01*
X11174286Y-14210814D01*
X11155238Y-14201290D01*
X11431428Y-14315576D02*
X11431428Y-14115576D01*
X11517143Y-14315576D02*
X11517143Y-14210814D01*
X11507619Y-14191767D01*
X11488571Y-14182243D01*
X11460000Y-14182243D01*
X11440952Y-14191767D01*
X11431428Y-14201290D01*
X11640952Y-14315576D02*
X11621905Y-14306052D01*
X11612381Y-14296528D01*
X11602857Y-14277481D01*
X11602857Y-14220338D01*
X11612381Y-14201290D01*
X11621905Y-14191767D01*
X11640952Y-14182243D01*
X11669524Y-14182243D01*
X11688571Y-14191767D01*
X11698095Y-14201290D01*
X11707619Y-14220338D01*
X11707619Y-14277481D01*
X11698095Y-14296528D01*
X11688571Y-14306052D01*
X11669524Y-14315576D01*
X11640952Y-14315576D01*
X11821905Y-14315576D02*
X11802857Y-14306052D01*
X11793333Y-14287005D01*
X11793333Y-14115576D01*
X11974286Y-14306052D02*
X11955238Y-14315576D01*
X11917143Y-14315576D01*
X11898095Y-14306052D01*
X11888571Y-14287005D01*
X11888571Y-14210814D01*
X11898095Y-14191767D01*
X11917143Y-14182243D01*
X11955238Y-14182243D01*
X11974286Y-14191767D01*
X11983809Y-14210814D01*
X11983809Y-14229862D01*
X11888571Y-14248909D01*
X12060000Y-14306052D02*
X12079048Y-14315576D01*
X12117143Y-14315576D01*
X12136190Y-14306052D01*
X12145714Y-14287005D01*
X12145714Y-14277481D01*
X12136190Y-14258433D01*
X12117143Y-14248909D01*
X12088571Y-14248909D01*
X12069524Y-14239386D01*
X12060000Y-14220338D01*
X12060000Y-14210814D01*
X12069524Y-14191767D01*
X12088571Y-14182243D01*
X12117143Y-14182243D01*
X12136190Y-14191767D01*
X12212381Y-14391767D02*
X12221905Y-14382243D01*
X12240952Y-14353671D01*
X12250476Y-14334624D01*
X12260000Y-14306052D01*
X12269524Y-14258433D01*
X12269524Y-14220338D01*
X12260000Y-14172719D01*
X12250476Y-14144148D01*
X12240952Y-14125100D01*
X12221905Y-14096528D01*
X12212381Y-14087005D01*
D14*
X7200000Y-14439100D02*
X7200000Y-14539100D01*
X7150000Y-14489100D02*
X7250000Y-14489100D01*
D11*
X7612381Y-14579576D02*
X7498095Y-14579576D01*
X7555238Y-14579576D02*
X7555238Y-14379576D01*
X7536190Y-14408148D01*
X7517143Y-14427195D01*
X7498095Y-14436719D01*
X7698095Y-14560528D02*
X7707619Y-14570052D01*
X7698095Y-14579576D01*
X7688571Y-14570052D01*
X7698095Y-14560528D01*
X7698095Y-14579576D01*
X7831428Y-14379576D02*
X7850476Y-14379576D01*
X7869524Y-14389100D01*
X7879048Y-14398624D01*
X7888571Y-14417671D01*
X7898095Y-14455767D01*
X7898095Y-14503386D01*
X7888571Y-14541481D01*
X7879048Y-14560528D01*
X7869524Y-14570052D01*
X7850476Y-14579576D01*
X7831428Y-14579576D01*
X7812381Y-14570052D01*
X7802857Y-14560528D01*
X7793333Y-14541481D01*
X7783809Y-14503386D01*
X7783809Y-14455767D01*
X7793333Y-14417671D01*
X7802857Y-14398624D01*
X7812381Y-14389100D01*
X7831428Y-14379576D01*
X8021905Y-14379576D02*
X8040952Y-14379576D01*
X8060000Y-14389100D01*
X8069524Y-14398624D01*
X8079048Y-14417671D01*
X8088571Y-14455767D01*
X8088571Y-14503386D01*
X8079048Y-14541481D01*
X8069524Y-14560528D01*
X8060000Y-14570052D01*
X8040952Y-14579576D01*
X8021905Y-14579576D01*
X8002857Y-14570052D01*
X7993333Y-14560528D01*
X7983809Y-14541481D01*
X7974286Y-14503386D01*
X7974286Y-14455767D01*
X7983809Y-14417671D01*
X7993333Y-14398624D01*
X8002857Y-14389100D01*
X8021905Y-14379576D01*
X8212381Y-14379576D02*
X8231428Y-14379576D01*
X8250476Y-14389100D01*
X8260000Y-14398624D01*
X8269524Y-14417671D01*
X8279048Y-14455767D01*
X8279048Y-14503386D01*
X8269524Y-14541481D01*
X8260000Y-14560528D01*
X8250476Y-14570052D01*
X8231428Y-14579576D01*
X8212381Y-14579576D01*
X8193333Y-14570052D01*
X8183809Y-14560528D01*
X8174286Y-14541481D01*
X8164762Y-14503386D01*
X8164762Y-14455767D01*
X8174286Y-14417671D01*
X8183809Y-14398624D01*
X8193333Y-14389100D01*
X8212381Y-14379576D01*
X8364762Y-14579576D02*
X8364762Y-14446243D01*
X8364762Y-14465290D02*
X8374286Y-14455767D01*
X8393333Y-14446243D01*
X8421905Y-14446243D01*
X8440952Y-14455767D01*
X8450476Y-14474814D01*
X8450476Y-14579576D01*
X8450476Y-14474814D02*
X8460000Y-14455767D01*
X8479048Y-14446243D01*
X8507619Y-14446243D01*
X8526667Y-14455767D01*
X8536190Y-14474814D01*
X8536190Y-14579576D01*
X8631429Y-14579576D02*
X8631429Y-14446243D01*
X8631429Y-14465290D02*
X8640952Y-14455767D01*
X8660000Y-14446243D01*
X8688571Y-14446243D01*
X8707619Y-14455767D01*
X8717143Y-14474814D01*
X8717143Y-14579576D01*
X8717143Y-14474814D02*
X8726667Y-14455767D01*
X8745714Y-14446243D01*
X8774286Y-14446243D01*
X8793333Y-14455767D01*
X8802857Y-14474814D01*
X8802857Y-14579576D01*
X9193333Y-14370052D02*
X9021905Y-14627195D01*
X9450476Y-14379576D02*
X9469524Y-14379576D01*
X9488571Y-14389100D01*
X9498095Y-14398624D01*
X9507619Y-14417671D01*
X9517143Y-14455767D01*
X9517143Y-14503386D01*
X9507619Y-14541481D01*
X9498095Y-14560528D01*
X9488571Y-14570052D01*
X9469524Y-14579576D01*
X9450476Y-14579576D01*
X9431429Y-14570052D01*
X9421905Y-14560528D01*
X9412381Y-14541481D01*
X9402857Y-14503386D01*
X9402857Y-14455767D01*
X9412381Y-14417671D01*
X9421905Y-14398624D01*
X9431429Y-14389100D01*
X9450476Y-14379576D01*
X9602857Y-14560528D02*
X9612381Y-14570052D01*
X9602857Y-14579576D01*
X9593333Y-14570052D01*
X9602857Y-14560528D01*
X9602857Y-14579576D01*
X9736190Y-14379576D02*
X9755238Y-14379576D01*
X9774286Y-14389100D01*
X9783810Y-14398624D01*
X9793333Y-14417671D01*
X9802857Y-14455767D01*
X9802857Y-14503386D01*
X9793333Y-14541481D01*
X9783810Y-14560528D01*
X9774286Y-14570052D01*
X9755238Y-14579576D01*
X9736190Y-14579576D01*
X9717143Y-14570052D01*
X9707619Y-14560528D01*
X9698095Y-14541481D01*
X9688571Y-14503386D01*
X9688571Y-14455767D01*
X9698095Y-14417671D01*
X9707619Y-14398624D01*
X9717143Y-14389100D01*
X9736190Y-14379576D01*
X9869524Y-14379576D02*
X9993333Y-14379576D01*
X9926667Y-14455767D01*
X9955238Y-14455767D01*
X9974286Y-14465290D01*
X9983810Y-14474814D01*
X9993333Y-14493862D01*
X9993333Y-14541481D01*
X9983810Y-14560528D01*
X9974286Y-14570052D01*
X9955238Y-14579576D01*
X9898095Y-14579576D01*
X9879048Y-14570052D01*
X9869524Y-14560528D01*
X10088571Y-14579576D02*
X10126667Y-14579576D01*
X10145714Y-14570052D01*
X10155238Y-14560528D01*
X10174286Y-14531957D01*
X10183810Y-14493862D01*
X10183810Y-14417671D01*
X10174286Y-14398624D01*
X10164762Y-14389100D01*
X10145714Y-14379576D01*
X10107619Y-14379576D01*
X10088571Y-14389100D01*
X10079048Y-14398624D01*
X10069524Y-14417671D01*
X10069524Y-14465290D01*
X10079048Y-14484338D01*
X10088571Y-14493862D01*
X10107619Y-14503386D01*
X10145714Y-14503386D01*
X10164762Y-14493862D01*
X10174286Y-14484338D01*
X10183810Y-14465290D01*
X10355238Y-14446243D02*
X10355238Y-14579576D01*
X10307619Y-14370052D02*
X10260000Y-14512909D01*
X10383810Y-14512909D01*
X10450476Y-14379576D02*
X10450476Y-14417671D01*
X10526667Y-14379576D02*
X10526667Y-14417671D01*
X10821905Y-14655767D02*
X10812381Y-14646243D01*
X10793333Y-14617671D01*
X10783810Y-14598624D01*
X10774286Y-14570052D01*
X10764762Y-14522433D01*
X10764762Y-14484338D01*
X10774286Y-14436719D01*
X10783810Y-14408148D01*
X10793333Y-14389100D01*
X10812381Y-14360528D01*
X10821905Y-14351005D01*
X10907619Y-14579576D02*
X10945714Y-14579576D01*
X10964762Y-14570052D01*
X10974286Y-14560528D01*
X10993333Y-14531957D01*
X11002857Y-14493862D01*
X11002857Y-14417671D01*
X10993333Y-14398624D01*
X10983810Y-14389100D01*
X10964762Y-14379576D01*
X10926667Y-14379576D01*
X10907619Y-14389100D01*
X10898095Y-14398624D01*
X10888571Y-14417671D01*
X10888571Y-14465290D01*
X10898095Y-14484338D01*
X10907619Y-14493862D01*
X10926667Y-14503386D01*
X10964762Y-14503386D01*
X10983810Y-14493862D01*
X10993333Y-14484338D01*
X11002857Y-14465290D01*
X11240952Y-14579576D02*
X11240952Y-14379576D01*
X11326667Y-14579576D02*
X11326667Y-14474814D01*
X11317143Y-14455767D01*
X11298095Y-14446243D01*
X11269524Y-14446243D01*
X11250476Y-14455767D01*
X11240952Y-14465290D01*
X11450476Y-14579576D02*
X11431428Y-14570052D01*
X11421905Y-14560528D01*
X11412381Y-14541481D01*
X11412381Y-14484338D01*
X11421905Y-14465290D01*
X11431428Y-14455767D01*
X11450476Y-14446243D01*
X11479048Y-14446243D01*
X11498095Y-14455767D01*
X11507619Y-14465290D01*
X11517143Y-14484338D01*
X11517143Y-14541481D01*
X11507619Y-14560528D01*
X11498095Y-14570052D01*
X11479048Y-14579576D01*
X11450476Y-14579576D01*
X11631428Y-14579576D02*
X11612381Y-14570052D01*
X11602857Y-14551005D01*
X11602857Y-14379576D01*
X11783809Y-14570052D02*
X11764762Y-14579576D01*
X11726667Y-14579576D01*
X11707619Y-14570052D01*
X11698095Y-14551005D01*
X11698095Y-14474814D01*
X11707619Y-14455767D01*
X11726667Y-14446243D01*
X11764762Y-14446243D01*
X11783809Y-14455767D01*
X11793333Y-14474814D01*
X11793333Y-14493862D01*
X11698095Y-14512909D01*
X11869524Y-14570052D02*
X11888571Y-14579576D01*
X11926667Y-14579576D01*
X11945714Y-14570052D01*
X11955238Y-14551005D01*
X11955238Y-14541481D01*
X11945714Y-14522433D01*
X11926667Y-14512909D01*
X11898095Y-14512909D01*
X11879048Y-14503386D01*
X11869524Y-14484338D01*
X11869524Y-14474814D01*
X11879048Y-14455767D01*
X11898095Y-14446243D01*
X11926667Y-14446243D01*
X11945714Y-14455767D01*
X12021905Y-14655767D02*
X12031428Y-14646243D01*
X12050476Y-14617671D01*
X12060000Y-14598624D01*
X12069524Y-14570052D01*
X12079048Y-14522433D01*
X12079048Y-14484338D01*
X12069524Y-14436719D01*
X12060000Y-14408148D01*
X12050476Y-14389100D01*
X12031428Y-14360528D01*
X12021905Y-14351005D01*
D15*
X7227741Y-14806841D02*
X7227741Y-14699359D01*
X7120259Y-14699359D01*
X7120259Y-14806841D01*
X7227741Y-14806841D01*
D11*
X7612381Y-14843576D02*
X7498095Y-14843576D01*
X7555238Y-14843576D02*
X7555238Y-14643576D01*
X7536190Y-14672148D01*
X7517143Y-14691195D01*
X7498095Y-14700719D01*
X7698095Y-14824528D02*
X7707619Y-14834052D01*
X7698095Y-14843576D01*
X7688571Y-14834052D01*
X7698095Y-14824528D01*
X7698095Y-14843576D01*
X7888571Y-14643576D02*
X7793333Y-14643576D01*
X7783809Y-14738814D01*
X7793333Y-14729290D01*
X7812381Y-14719767D01*
X7860000Y-14719767D01*
X7879048Y-14729290D01*
X7888571Y-14738814D01*
X7898095Y-14757862D01*
X7898095Y-14805481D01*
X7888571Y-14824528D01*
X7879048Y-14834052D01*
X7860000Y-14843576D01*
X7812381Y-14843576D01*
X7793333Y-14834052D01*
X7783809Y-14824528D01*
X7974286Y-14662624D02*
X7983809Y-14653100D01*
X8002857Y-14643576D01*
X8050476Y-14643576D01*
X8069524Y-14653100D01*
X8079048Y-14662624D01*
X8088571Y-14681671D01*
X8088571Y-14700719D01*
X8079048Y-14729290D01*
X7964762Y-14843576D01*
X8088571Y-14843576D01*
X8212381Y-14643576D02*
X8231428Y-14643576D01*
X8250476Y-14653100D01*
X8260000Y-14662624D01*
X8269524Y-14681671D01*
X8279048Y-14719767D01*
X8279048Y-14767386D01*
X8269524Y-14805481D01*
X8260000Y-14824528D01*
X8250476Y-14834052D01*
X8231428Y-14843576D01*
X8212381Y-14843576D01*
X8193333Y-14834052D01*
X8183809Y-14824528D01*
X8174286Y-14805481D01*
X8164762Y-14767386D01*
X8164762Y-14719767D01*
X8174286Y-14681671D01*
X8183809Y-14662624D01*
X8193333Y-14653100D01*
X8212381Y-14643576D01*
X8364762Y-14843576D02*
X8364762Y-14710243D01*
X8364762Y-14729290D02*
X8374286Y-14719767D01*
X8393333Y-14710243D01*
X8421905Y-14710243D01*
X8440952Y-14719767D01*
X8450476Y-14738814D01*
X8450476Y-14843576D01*
X8450476Y-14738814D02*
X8460000Y-14719767D01*
X8479048Y-14710243D01*
X8507619Y-14710243D01*
X8526667Y-14719767D01*
X8536190Y-14738814D01*
X8536190Y-14843576D01*
X8631429Y-14843576D02*
X8631429Y-14710243D01*
X8631429Y-14729290D02*
X8640952Y-14719767D01*
X8660000Y-14710243D01*
X8688571Y-14710243D01*
X8707619Y-14719767D01*
X8717143Y-14738814D01*
X8717143Y-14843576D01*
X8717143Y-14738814D02*
X8726667Y-14719767D01*
X8745714Y-14710243D01*
X8774286Y-14710243D01*
X8793333Y-14719767D01*
X8802857Y-14738814D01*
X8802857Y-14843576D01*
X9193333Y-14634052D02*
X9021905Y-14891195D01*
X9450476Y-14643576D02*
X9469524Y-14643576D01*
X9488571Y-14653100D01*
X9498095Y-14662624D01*
X9507619Y-14681671D01*
X9517143Y-14719767D01*
X9517143Y-14767386D01*
X9507619Y-14805481D01*
X9498095Y-14824528D01*
X9488571Y-14834052D01*
X9469524Y-14843576D01*
X9450476Y-14843576D01*
X9431429Y-14834052D01*
X9421905Y-14824528D01*
X9412381Y-14805481D01*
X9402857Y-14767386D01*
X9402857Y-14719767D01*
X9412381Y-14681671D01*
X9421905Y-14662624D01*
X9431429Y-14653100D01*
X9450476Y-14643576D01*
X9602857Y-14824528D02*
X9612381Y-14834052D01*
X9602857Y-14843576D01*
X9593333Y-14834052D01*
X9602857Y-14824528D01*
X9602857Y-14843576D01*
X9736190Y-14643576D02*
X9755238Y-14643576D01*
X9774286Y-14653100D01*
X9783810Y-14662624D01*
X9793333Y-14681671D01*
X9802857Y-14719767D01*
X9802857Y-14767386D01*
X9793333Y-14805481D01*
X9783810Y-14824528D01*
X9774286Y-14834052D01*
X9755238Y-14843576D01*
X9736190Y-14843576D01*
X9717143Y-14834052D01*
X9707619Y-14824528D01*
X9698095Y-14805481D01*
X9688571Y-14767386D01*
X9688571Y-14719767D01*
X9698095Y-14681671D01*
X9707619Y-14662624D01*
X9717143Y-14653100D01*
X9736190Y-14643576D01*
X9983810Y-14643576D02*
X9888571Y-14643576D01*
X9879048Y-14738814D01*
X9888571Y-14729290D01*
X9907619Y-14719767D01*
X9955238Y-14719767D01*
X9974286Y-14729290D01*
X9983810Y-14738814D01*
X9993333Y-14757862D01*
X9993333Y-14805481D01*
X9983810Y-14824528D01*
X9974286Y-14834052D01*
X9955238Y-14843576D01*
X9907619Y-14843576D01*
X9888571Y-14834052D01*
X9879048Y-14824528D01*
X10088571Y-14843576D02*
X10126667Y-14843576D01*
X10145714Y-14834052D01*
X10155238Y-14824528D01*
X10174286Y-14795957D01*
X10183810Y-14757862D01*
X10183810Y-14681671D01*
X10174286Y-14662624D01*
X10164762Y-14653100D01*
X10145714Y-14643576D01*
X10107619Y-14643576D01*
X10088571Y-14653100D01*
X10079048Y-14662624D01*
X10069524Y-14681671D01*
X10069524Y-14729290D01*
X10079048Y-14748338D01*
X10088571Y-14757862D01*
X10107619Y-14767386D01*
X10145714Y-14767386D01*
X10164762Y-14757862D01*
X10174286Y-14748338D01*
X10183810Y-14729290D01*
X10298095Y-14729290D02*
X10279048Y-14719767D01*
X10269524Y-14710243D01*
X10260000Y-14691195D01*
X10260000Y-14681671D01*
X10269524Y-14662624D01*
X10279048Y-14653100D01*
X10298095Y-14643576D01*
X10336190Y-14643576D01*
X10355238Y-14653100D01*
X10364762Y-14662624D01*
X10374286Y-14681671D01*
X10374286Y-14691195D01*
X10364762Y-14710243D01*
X10355238Y-14719767D01*
X10336190Y-14729290D01*
X10298095Y-14729290D01*
X10279048Y-14738814D01*
X10269524Y-14748338D01*
X10260000Y-14767386D01*
X10260000Y-14805481D01*
X10269524Y-14824528D01*
X10279048Y-14834052D01*
X10298095Y-14843576D01*
X10336190Y-14843576D01*
X10355238Y-14834052D01*
X10364762Y-14824528D01*
X10374286Y-14805481D01*
X10374286Y-14767386D01*
X10364762Y-14748338D01*
X10355238Y-14738814D01*
X10336190Y-14729290D01*
X10450476Y-14643576D02*
X10450476Y-14681671D01*
X10526667Y-14643576D02*
X10526667Y-14681671D01*
X10821905Y-14919767D02*
X10812381Y-14910243D01*
X10793333Y-14881671D01*
X10783810Y-14862624D01*
X10774286Y-14834052D01*
X10764762Y-14786433D01*
X10764762Y-14748338D01*
X10774286Y-14700719D01*
X10783810Y-14672148D01*
X10793333Y-14653100D01*
X10812381Y-14624528D01*
X10821905Y-14615005D01*
X11002857Y-14843576D02*
X10888571Y-14843576D01*
X10945714Y-14843576D02*
X10945714Y-14643576D01*
X10926667Y-14672148D01*
X10907619Y-14691195D01*
X10888571Y-14700719D01*
X11069524Y-14643576D02*
X11202857Y-14643576D01*
X11117143Y-14843576D01*
X11431428Y-14843576D02*
X11431428Y-14643576D01*
X11517143Y-14843576D02*
X11517143Y-14738814D01*
X11507619Y-14719767D01*
X11488571Y-14710243D01*
X11460000Y-14710243D01*
X11440952Y-14719767D01*
X11431428Y-14729290D01*
X11640952Y-14843576D02*
X11621905Y-14834052D01*
X11612381Y-14824528D01*
X11602857Y-14805481D01*
X11602857Y-14748338D01*
X11612381Y-14729290D01*
X11621905Y-14719767D01*
X11640952Y-14710243D01*
X11669524Y-14710243D01*
X11688571Y-14719767D01*
X11698095Y-14729290D01*
X11707619Y-14748338D01*
X11707619Y-14805481D01*
X11698095Y-14824528D01*
X11688571Y-14834052D01*
X11669524Y-14843576D01*
X11640952Y-14843576D01*
X11821905Y-14843576D02*
X11802857Y-14834052D01*
X11793333Y-14815005D01*
X11793333Y-14643576D01*
X11974286Y-14834052D02*
X11955238Y-14843576D01*
X11917143Y-14843576D01*
X11898095Y-14834052D01*
X11888571Y-14815005D01*
X11888571Y-14738814D01*
X11898095Y-14719767D01*
X11917143Y-14710243D01*
X11955238Y-14710243D01*
X11974286Y-14719767D01*
X11983809Y-14738814D01*
X11983809Y-14757862D01*
X11888571Y-14776909D01*
X12060000Y-14834052D02*
X12079048Y-14843576D01*
X12117143Y-14843576D01*
X12136190Y-14834052D01*
X12145714Y-14815005D01*
X12145714Y-14805481D01*
X12136190Y-14786433D01*
X12117143Y-14776909D01*
X12088571Y-14776909D01*
X12069524Y-14767386D01*
X12060000Y-14748338D01*
X12060000Y-14738814D01*
X12069524Y-14719767D01*
X12088571Y-14710243D01*
X12117143Y-14710243D01*
X12136190Y-14719767D01*
X12212381Y-14919767D02*
X12221905Y-14910243D01*
X12240952Y-14881671D01*
X12250476Y-14862624D01*
X12260000Y-14834052D01*
X12269524Y-14786433D01*
X12269524Y-14748338D01*
X12260000Y-14700719D01*
X12250476Y-14672148D01*
X12240952Y-14653100D01*
X12221905Y-14624528D01*
X12212381Y-14615005D01*
X7150000Y-15125100D02*
X7250000Y-15025100D01*
X7150000Y-14925100D01*
X7050000Y-15025100D01*
X7150000Y-15125100D01*
X7498095Y-14934624D02*
X7507619Y-14925100D01*
X7526667Y-14915576D01*
X7574286Y-14915576D01*
X7593333Y-14925100D01*
X7602857Y-14934624D01*
X7612381Y-14953671D01*
X7612381Y-14972719D01*
X7602857Y-15001290D01*
X7488571Y-15115576D01*
X7612381Y-15115576D01*
X7698095Y-15096528D02*
X7707619Y-15106052D01*
X7698095Y-15115576D01*
X7688571Y-15106052D01*
X7698095Y-15096528D01*
X7698095Y-15115576D01*
X7888571Y-14915576D02*
X7793333Y-14915576D01*
X7783809Y-15010814D01*
X7793333Y-15001290D01*
X7812381Y-14991767D01*
X7860000Y-14991767D01*
X7879048Y-15001290D01*
X7888571Y-15010814D01*
X7898095Y-15029862D01*
X7898095Y-15077481D01*
X7888571Y-15096528D01*
X7879048Y-15106052D01*
X7860000Y-15115576D01*
X7812381Y-15115576D01*
X7793333Y-15106052D01*
X7783809Y-15096528D01*
X8021905Y-14915576D02*
X8040952Y-14915576D01*
X8060000Y-14925100D01*
X8069524Y-14934624D01*
X8079048Y-14953671D01*
X8088571Y-14991767D01*
X8088571Y-15039386D01*
X8079048Y-15077481D01*
X8069524Y-15096528D01*
X8060000Y-15106052D01*
X8040952Y-15115576D01*
X8021905Y-15115576D01*
X8002857Y-15106052D01*
X7993333Y-15096528D01*
X7983809Y-15077481D01*
X7974286Y-15039386D01*
X7974286Y-14991767D01*
X7983809Y-14953671D01*
X7993333Y-14934624D01*
X8002857Y-14925100D01*
X8021905Y-14915576D01*
X8212381Y-14915576D02*
X8231428Y-14915576D01*
X8250476Y-14925100D01*
X8260000Y-14934624D01*
X8269524Y-14953671D01*
X8279048Y-14991767D01*
X8279048Y-15039386D01*
X8269524Y-15077481D01*
X8260000Y-15096528D01*
X8250476Y-15106052D01*
X8231428Y-15115576D01*
X8212381Y-15115576D01*
X8193333Y-15106052D01*
X8183809Y-15096528D01*
X8174286Y-15077481D01*
X8164762Y-15039386D01*
X8164762Y-14991767D01*
X8174286Y-14953671D01*
X8183809Y-14934624D01*
X8193333Y-14925100D01*
X8212381Y-14915576D01*
X8364762Y-15115576D02*
X8364762Y-14982243D01*
X8364762Y-15001290D02*
X8374286Y-14991767D01*
X8393333Y-14982243D01*
X8421905Y-14982243D01*
X8440952Y-14991767D01*
X8450476Y-15010814D01*
X8450476Y-15115576D01*
X8450476Y-15010814D02*
X8460000Y-14991767D01*
X8479048Y-14982243D01*
X8507619Y-14982243D01*
X8526667Y-14991767D01*
X8536190Y-15010814D01*
X8536190Y-15115576D01*
X8631429Y-15115576D02*
X8631429Y-14982243D01*
X8631429Y-15001290D02*
X8640952Y-14991767D01*
X8660000Y-14982243D01*
X8688571Y-14982243D01*
X8707619Y-14991767D01*
X8717143Y-15010814D01*
X8717143Y-15115576D01*
X8717143Y-15010814D02*
X8726667Y-14991767D01*
X8745714Y-14982243D01*
X8774286Y-14982243D01*
X8793333Y-14991767D01*
X8802857Y-15010814D01*
X8802857Y-15115576D01*
X9193333Y-14906052D02*
X9021905Y-15163195D01*
X9450476Y-14915576D02*
X9469524Y-14915576D01*
X9488571Y-14925100D01*
X9498095Y-14934624D01*
X9507619Y-14953671D01*
X9517143Y-14991767D01*
X9517143Y-15039386D01*
X9507619Y-15077481D01*
X9498095Y-15096528D01*
X9488571Y-15106052D01*
X9469524Y-15115576D01*
X9450476Y-15115576D01*
X9431429Y-15106052D01*
X9421905Y-15096528D01*
X9412381Y-15077481D01*
X9402857Y-15039386D01*
X9402857Y-14991767D01*
X9412381Y-14953671D01*
X9421905Y-14934624D01*
X9431429Y-14925100D01*
X9450476Y-14915576D01*
X9602857Y-15096528D02*
X9612381Y-15106052D01*
X9602857Y-15115576D01*
X9593333Y-15106052D01*
X9602857Y-15096528D01*
X9602857Y-15115576D01*
X9736190Y-14915576D02*
X9755238Y-14915576D01*
X9774286Y-14925100D01*
X9783810Y-14934624D01*
X9793333Y-14953671D01*
X9802857Y-14991767D01*
X9802857Y-15039386D01*
X9793333Y-15077481D01*
X9783810Y-15096528D01*
X9774286Y-15106052D01*
X9755238Y-15115576D01*
X9736190Y-15115576D01*
X9717143Y-15106052D01*
X9707619Y-15096528D01*
X9698095Y-15077481D01*
X9688571Y-15039386D01*
X9688571Y-14991767D01*
X9698095Y-14953671D01*
X9707619Y-14934624D01*
X9717143Y-14925100D01*
X9736190Y-14915576D01*
X9898095Y-15115576D02*
X9936190Y-15115576D01*
X9955238Y-15106052D01*
X9964762Y-15096528D01*
X9983810Y-15067957D01*
X9993333Y-15029862D01*
X9993333Y-14953671D01*
X9983810Y-14934624D01*
X9974286Y-14925100D01*
X9955238Y-14915576D01*
X9917143Y-14915576D01*
X9898095Y-14925100D01*
X9888571Y-14934624D01*
X9879048Y-14953671D01*
X9879048Y-15001290D01*
X9888571Y-15020338D01*
X9898095Y-15029862D01*
X9917143Y-15039386D01*
X9955238Y-15039386D01*
X9974286Y-15029862D01*
X9983810Y-15020338D01*
X9993333Y-15001290D01*
X10107619Y-15001290D02*
X10088571Y-14991767D01*
X10079048Y-14982243D01*
X10069524Y-14963195D01*
X10069524Y-14953671D01*
X10079048Y-14934624D01*
X10088571Y-14925100D01*
X10107619Y-14915576D01*
X10145714Y-14915576D01*
X10164762Y-14925100D01*
X10174286Y-14934624D01*
X10183810Y-14953671D01*
X10183810Y-14963195D01*
X10174286Y-14982243D01*
X10164762Y-14991767D01*
X10145714Y-15001290D01*
X10107619Y-15001290D01*
X10088571Y-15010814D01*
X10079048Y-15020338D01*
X10069524Y-15039386D01*
X10069524Y-15077481D01*
X10079048Y-15096528D01*
X10088571Y-15106052D01*
X10107619Y-15115576D01*
X10145714Y-15115576D01*
X10164762Y-15106052D01*
X10174286Y-15096528D01*
X10183810Y-15077481D01*
X10183810Y-15039386D01*
X10174286Y-15020338D01*
X10164762Y-15010814D01*
X10145714Y-15001290D01*
X10355238Y-14982243D02*
X10355238Y-15115576D01*
X10307619Y-14906052D02*
X10260000Y-15048909D01*
X10383810Y-15048909D01*
X10450476Y-14915576D02*
X10450476Y-14953671D01*
X10526667Y-14915576D02*
X10526667Y-14953671D01*
X10821905Y-15191767D02*
X10812381Y-15182243D01*
X10793333Y-15153671D01*
X10783810Y-15134624D01*
X10774286Y-15106052D01*
X10764762Y-15058433D01*
X10764762Y-15020338D01*
X10774286Y-14972719D01*
X10783810Y-14944148D01*
X10793333Y-14925100D01*
X10812381Y-14896528D01*
X10821905Y-14887005D01*
X10983810Y-14982243D02*
X10983810Y-15115576D01*
X10936190Y-14906052D02*
X10888571Y-15048909D01*
X11012381Y-15048909D01*
X11240952Y-15115576D02*
X11240952Y-14915576D01*
X11326667Y-15115576D02*
X11326667Y-15010814D01*
X11317143Y-14991767D01*
X11298095Y-14982243D01*
X11269524Y-14982243D01*
X11250476Y-14991767D01*
X11240952Y-15001290D01*
X11450476Y-15115576D02*
X11431428Y-15106052D01*
X11421905Y-15096528D01*
X11412381Y-15077481D01*
X11412381Y-15020338D01*
X11421905Y-15001290D01*
X11431428Y-14991767D01*
X11450476Y-14982243D01*
X11479048Y-14982243D01*
X11498095Y-14991767D01*
X11507619Y-15001290D01*
X11517143Y-15020338D01*
X11517143Y-15077481D01*
X11507619Y-15096528D01*
X11498095Y-15106052D01*
X11479048Y-15115576D01*
X11450476Y-15115576D01*
X11631428Y-15115576D02*
X11612381Y-15106052D01*
X11602857Y-15087005D01*
X11602857Y-14915576D01*
X11783809Y-15106052D02*
X11764762Y-15115576D01*
X11726667Y-15115576D01*
X11707619Y-15106052D01*
X11698095Y-15087005D01*
X11698095Y-15010814D01*
X11707619Y-14991767D01*
X11726667Y-14982243D01*
X11764762Y-14982243D01*
X11783809Y-14991767D01*
X11793333Y-15010814D01*
X11793333Y-15029862D01*
X11698095Y-15048909D01*
X11869524Y-15106052D02*
X11888571Y-15115576D01*
X11926667Y-15115576D01*
X11945714Y-15106052D01*
X11955238Y-15087005D01*
X11955238Y-15077481D01*
X11945714Y-15058433D01*
X11926667Y-15048909D01*
X11898095Y-15048909D01*
X11879048Y-15039386D01*
X11869524Y-15020338D01*
X11869524Y-15010814D01*
X11879048Y-14991767D01*
X11898095Y-14982243D01*
X11926667Y-14982243D01*
X11945714Y-14991767D01*
X12021905Y-15191767D02*
X12031428Y-15182243D01*
X12050476Y-15153671D01*
X12060000Y-15134624D01*
X12069524Y-15106052D01*
X12079048Y-15058433D01*
X12079048Y-15020338D01*
X12069524Y-14972719D01*
X12060000Y-14944148D01*
X12050476Y-14925100D01*
X12031428Y-14896528D01*
X12021905Y-14887005D01*
M02*
