%FSLAX45Y45*%
G04 Gerber Fmt 4.5, Leading zero omitted, Abs format (unit mm)*
G04 Created by KiCad (PCBNEW 6.0.4+dfsg-1+b1) date 2022-05-29 14:40:29*
%MOMM*%
%LPD*%
G01*
G04 APERTURE LIST*
%TA.AperFunction,Profile*%
%ADD10C,0.100000*%
%TD*%
%ADD11C,0.200000*%
%ADD12C,0.050000*%
%ADD13C,0.080000*%
%ADD14C,0.100000*%
%ADD15C,0.152000*%
%ADD16C,0.250000*%
G04 APERTURE END LIST*
D10*
X7255000Y-7016100D02*
X12755000Y-7016100D01*
X12755000Y-7016100D02*
X12755000Y-13016100D01*
X12755000Y-13016100D02*
X7255000Y-13016100D01*
X7255000Y-13016100D02*
X7255000Y-7016100D01*
D11*
D12*
X7442500Y-7391100D02*
X7492500Y-7441100D01*
X7492500Y-7391100D02*
X7442500Y-7441100D01*
X7442500Y-12591100D02*
X7492500Y-12641100D01*
X7492500Y-12591100D02*
X7442500Y-12641100D01*
X7497417Y-7258517D02*
X7547417Y-7308517D01*
X7547417Y-7258517D02*
X7497417Y-7308517D01*
X7497417Y-7523682D02*
X7547417Y-7573682D01*
X7547417Y-7523682D02*
X7497417Y-7573682D01*
X7497417Y-12458517D02*
X7547417Y-12508517D01*
X7547417Y-12458517D02*
X7497417Y-12508517D01*
X7497417Y-12723682D02*
X7547417Y-12773682D01*
X7547417Y-12723682D02*
X7497417Y-12773682D01*
X7630000Y-7203600D02*
X7680000Y-7253600D01*
X7680000Y-7203600D02*
X7630000Y-7253600D01*
X7630000Y-7578600D02*
X7680000Y-7628600D01*
X7680000Y-7578600D02*
X7630000Y-7628600D01*
X7630000Y-12403600D02*
X7680000Y-12453600D01*
X7680000Y-12403600D02*
X7630000Y-12453600D01*
X7630000Y-12778600D02*
X7680000Y-12828600D01*
X7680000Y-12778600D02*
X7630000Y-12828600D01*
X7762582Y-7258517D02*
X7812582Y-7308517D01*
X7812582Y-7258517D02*
X7762582Y-7308517D01*
X7762582Y-7523682D02*
X7812582Y-7573682D01*
X7812582Y-7523682D02*
X7762582Y-7573682D01*
X7762582Y-12458517D02*
X7812582Y-12508517D01*
X7812582Y-12458517D02*
X7762582Y-12508517D01*
X7762582Y-12723682D02*
X7812582Y-12773682D01*
X7812582Y-12723682D02*
X7762582Y-12773682D01*
X7817500Y-7391100D02*
X7867500Y-7441100D01*
X7867500Y-7391100D02*
X7817500Y-7441100D01*
X7817500Y-12591100D02*
X7867500Y-12641100D01*
X7867500Y-12591100D02*
X7817500Y-12641100D01*
X11242500Y-7391100D02*
X11292500Y-7441100D01*
X11292500Y-7391100D02*
X11242500Y-7441100D01*
X11242500Y-12591100D02*
X11292500Y-12641100D01*
X11292500Y-12591100D02*
X11242500Y-12641100D01*
X11297417Y-7258517D02*
X11347417Y-7308517D01*
X11347417Y-7258517D02*
X11297417Y-7308517D01*
X11297417Y-7523682D02*
X11347417Y-7573682D01*
X11347417Y-7523682D02*
X11297417Y-7573682D01*
X11297417Y-12458517D02*
X11347417Y-12508517D01*
X11347417Y-12458517D02*
X11297417Y-12508517D01*
X11297417Y-12723682D02*
X11347417Y-12773682D01*
X11347417Y-12723682D02*
X11297417Y-12773682D01*
X11430000Y-7203600D02*
X11480000Y-7253600D01*
X11480000Y-7203600D02*
X11430000Y-7253600D01*
X11430000Y-7578600D02*
X11480000Y-7628600D01*
X11480000Y-7578600D02*
X11430000Y-7628600D01*
X11430000Y-12403600D02*
X11480000Y-12453600D01*
X11480000Y-12403600D02*
X11430000Y-12453600D01*
X11430000Y-12778600D02*
X11480000Y-12828600D01*
X11480000Y-12778600D02*
X11430000Y-12828600D01*
X11562582Y-7258517D02*
X11612582Y-7308517D01*
X11612582Y-7258517D02*
X11562582Y-7308517D01*
X11562582Y-7523682D02*
X11612582Y-7573682D01*
X11612582Y-7523682D02*
X11562582Y-7573682D01*
X11562582Y-12458517D02*
X11612582Y-12508517D01*
X11612582Y-12458517D02*
X11562582Y-12508517D01*
X11562582Y-12723682D02*
X11612582Y-12773682D01*
X11612582Y-12723682D02*
X11562582Y-12773682D01*
X11617500Y-7391100D02*
X11667500Y-7441100D01*
X11667500Y-7391100D02*
X11617500Y-7441100D01*
X11617500Y-12591100D02*
X11667500Y-12641100D01*
X11667500Y-12591100D02*
X11617500Y-12641100D01*
D13*
X8295000Y-7216100D02*
G75*
G03*
X8295000Y-7216100I-40000J0D01*
G01*
X8295000Y-7470100D02*
G75*
G03*
X8295000Y-7470100I-40000J0D01*
G01*
X8295000Y-7724100D02*
G75*
G03*
X8295000Y-7724100I-40000J0D01*
G01*
X8295000Y-7978100D02*
G75*
G03*
X8295000Y-7978100I-40000J0D01*
G01*
X8295000Y-8232100D02*
G75*
G03*
X8295000Y-8232100I-40000J0D01*
G01*
X8295000Y-8486100D02*
G75*
G03*
X8295000Y-8486100I-40000J0D01*
G01*
X8295000Y-8740100D02*
G75*
G03*
X8295000Y-8740100I-40000J0D01*
G01*
X8295000Y-8994100D02*
G75*
G03*
X8295000Y-8994100I-40000J0D01*
G01*
X8295000Y-9248100D02*
G75*
G03*
X8295000Y-9248100I-40000J0D01*
G01*
X8295000Y-9502100D02*
G75*
G03*
X8295000Y-9502100I-40000J0D01*
G01*
X8295000Y-9756100D02*
G75*
G03*
X8295000Y-9756100I-40000J0D01*
G01*
X8295000Y-10010100D02*
G75*
G03*
X8295000Y-10010100I-40000J0D01*
G01*
X8295000Y-10264100D02*
G75*
G03*
X8295000Y-10264100I-40000J0D01*
G01*
X8295000Y-10518100D02*
G75*
G03*
X8295000Y-10518100I-40000J0D01*
G01*
X8295000Y-10772100D02*
G75*
G03*
X8295000Y-10772100I-40000J0D01*
G01*
X8295000Y-11026100D02*
G75*
G03*
X8295000Y-11026100I-40000J0D01*
G01*
X8295000Y-11280100D02*
G75*
G03*
X8295000Y-11280100I-40000J0D01*
G01*
X8295000Y-11534100D02*
G75*
G03*
X8295000Y-11534100I-40000J0D01*
G01*
X8295000Y-11788100D02*
G75*
G03*
X8295000Y-11788100I-40000J0D01*
G01*
X10835000Y-7216100D02*
G75*
G03*
X10835000Y-7216100I-40000J0D01*
G01*
X10835000Y-7470100D02*
G75*
G03*
X10835000Y-7470100I-40000J0D01*
G01*
X10835000Y-7724100D02*
G75*
G03*
X10835000Y-7724100I-40000J0D01*
G01*
X10835000Y-7978100D02*
G75*
G03*
X10835000Y-7978100I-40000J0D01*
G01*
X10835000Y-8232100D02*
G75*
G03*
X10835000Y-8232100I-40000J0D01*
G01*
X10835000Y-8486100D02*
G75*
G03*
X10835000Y-8486100I-40000J0D01*
G01*
X10835000Y-8740100D02*
G75*
G03*
X10835000Y-8740100I-40000J0D01*
G01*
X10835000Y-8994100D02*
G75*
G03*
X10835000Y-8994100I-40000J0D01*
G01*
X10835000Y-9248100D02*
G75*
G03*
X10835000Y-9248100I-40000J0D01*
G01*
X10835000Y-9502100D02*
G75*
G03*
X10835000Y-9502100I-40000J0D01*
G01*
X10835000Y-9756100D02*
G75*
G03*
X10835000Y-9756100I-40000J0D01*
G01*
X10835000Y-10010100D02*
G75*
G03*
X10835000Y-10010100I-40000J0D01*
G01*
X10835000Y-10264100D02*
G75*
G03*
X10835000Y-10264100I-40000J0D01*
G01*
X10835000Y-10518100D02*
G75*
G03*
X10835000Y-10518100I-40000J0D01*
G01*
X10835000Y-10772100D02*
G75*
G03*
X10835000Y-10772100I-40000J0D01*
G01*
X10835000Y-11026100D02*
G75*
G03*
X10835000Y-11026100I-40000J0D01*
G01*
X10835000Y-11280100D02*
G75*
G03*
X10835000Y-11280100I-40000J0D01*
G01*
X10835000Y-11534100D02*
G75*
G03*
X10835000Y-11534100I-40000J0D01*
G01*
X10835000Y-11788100D02*
G75*
G03*
X10835000Y-11788100I-40000J0D01*
G01*
D14*
X7493000Y-8182100D02*
X7493000Y-8282100D01*
X7443000Y-8232100D02*
X7543000Y-8232100D01*
X7493000Y-8436100D02*
X7493000Y-8536100D01*
X7443000Y-8486100D02*
X7543000Y-8486100D01*
X7493000Y-8690100D02*
X7493000Y-8790100D01*
X7443000Y-8740100D02*
X7543000Y-8740100D01*
X7493000Y-9198100D02*
X7493000Y-9298100D01*
X7443000Y-9248100D02*
X7543000Y-9248100D01*
X7493000Y-9452100D02*
X7493000Y-9552100D01*
X7443000Y-9502100D02*
X7543000Y-9502100D01*
X7493000Y-9706100D02*
X7493000Y-9806100D01*
X7443000Y-9756100D02*
X7543000Y-9756100D01*
X7493000Y-10214100D02*
X7493000Y-10314100D01*
X7443000Y-10264100D02*
X7543000Y-10264100D01*
X7493000Y-10468100D02*
X7493000Y-10568100D01*
X7443000Y-10518100D02*
X7543000Y-10518100D01*
X7493000Y-10722100D02*
X7493000Y-10822100D01*
X7443000Y-10772100D02*
X7543000Y-10772100D01*
D15*
X8308741Y-12669841D02*
X8308741Y-12562359D01*
X8201259Y-12562359D01*
X8201259Y-12669841D01*
X8308741Y-12669841D01*
X8816741Y-12669841D02*
X8816741Y-12562359D01*
X8709259Y-12562359D01*
X8709259Y-12669841D01*
X8816741Y-12669841D01*
X9324741Y-12669841D02*
X9324741Y-12562359D01*
X9217259Y-12562359D01*
X9217259Y-12669841D01*
X9324741Y-12669841D01*
X9832741Y-12669841D02*
X9832741Y-12562359D01*
X9725259Y-12562359D01*
X9725259Y-12669841D01*
X9832741Y-12669841D01*
X10340741Y-12669841D02*
X10340741Y-12562359D01*
X10233259Y-12562359D01*
X10233259Y-12669841D01*
X10340741Y-12669841D01*
X10848741Y-12669841D02*
X10848741Y-12562359D01*
X10741259Y-12562359D01*
X10741259Y-12669841D01*
X10848741Y-12669841D01*
X12408741Y-7523841D02*
X12408741Y-7416359D01*
X12301259Y-7416359D01*
X12301259Y-7523841D01*
X12408741Y-7523841D01*
X12408741Y-8031841D02*
X12408741Y-7924359D01*
X12301259Y-7924359D01*
X12301259Y-8031841D01*
X12408741Y-8031841D01*
X12408741Y-8539841D02*
X12408741Y-8432359D01*
X12301259Y-8432359D01*
X12301259Y-8539841D01*
X12408741Y-8539841D01*
X12408741Y-9047841D02*
X12408741Y-8940359D01*
X12301259Y-8940359D01*
X12301259Y-9047841D01*
X12408741Y-9047841D01*
X12408741Y-9555841D02*
X12408741Y-9448359D01*
X12301259Y-9448359D01*
X12301259Y-9555841D01*
X12408741Y-9555841D01*
X12408741Y-10063841D02*
X12408741Y-9956359D01*
X12301259Y-9956359D01*
X12301259Y-10063841D01*
X12408741Y-10063841D01*
X12408741Y-10571841D02*
X12408741Y-10464359D01*
X12301259Y-10464359D01*
X12301259Y-10571841D01*
X12408741Y-10571841D01*
X12408741Y-11079841D02*
X12408741Y-10972359D01*
X12301259Y-10972359D01*
X12301259Y-11079841D01*
X12408741Y-11079841D01*
X12408741Y-11587841D02*
X12408741Y-11480359D01*
X12301259Y-11480359D01*
X12301259Y-11587841D01*
X12408741Y-11587841D01*
X12408741Y-12095841D02*
X12408741Y-11988359D01*
X12301259Y-11988359D01*
X12301259Y-12095841D01*
X12408741Y-12095841D01*
X12408741Y-12603841D02*
X12408741Y-12496359D01*
X12301259Y-12496359D01*
X12301259Y-12603841D01*
X12408741Y-12603841D01*
D16*
X7655000Y-7541100D02*
X7780000Y-7416100D01*
X7655000Y-7291100D01*
X7530000Y-7416100D01*
X7655000Y-7541100D01*
X7655000Y-12741100D02*
X7780000Y-12616100D01*
X7655000Y-12491100D01*
X7530000Y-12616100D01*
X7655000Y-12741100D01*
X11455000Y-7541100D02*
X11580000Y-7416100D01*
X11455000Y-7291100D01*
X11330000Y-7416100D01*
X11455000Y-7541100D01*
X11455000Y-12741100D02*
X11580000Y-12616100D01*
X11455000Y-12491100D01*
X11330000Y-12616100D01*
X11455000Y-12741100D01*
D11*
X7507619Y-13331576D02*
X7507619Y-13131576D01*
X7555238Y-13131576D01*
X7583809Y-13141100D01*
X7602857Y-13160148D01*
X7612381Y-13179195D01*
X7621905Y-13217290D01*
X7621905Y-13245862D01*
X7612381Y-13283957D01*
X7602857Y-13303005D01*
X7583809Y-13322052D01*
X7555238Y-13331576D01*
X7507619Y-13331576D01*
X7707619Y-13331576D02*
X7707619Y-13198243D01*
X7707619Y-13236338D02*
X7717143Y-13217290D01*
X7726667Y-13207767D01*
X7745714Y-13198243D01*
X7764762Y-13198243D01*
X7831428Y-13331576D02*
X7831428Y-13198243D01*
X7831428Y-13131576D02*
X7821905Y-13141100D01*
X7831428Y-13150624D01*
X7840952Y-13141100D01*
X7831428Y-13131576D01*
X7831428Y-13150624D01*
X7955238Y-13331576D02*
X7936190Y-13322052D01*
X7926667Y-13303005D01*
X7926667Y-13131576D01*
X8060000Y-13331576D02*
X8040952Y-13322052D01*
X8031428Y-13303005D01*
X8031428Y-13131576D01*
X8288571Y-13331576D02*
X8288571Y-13131576D01*
X8355238Y-13274433D01*
X8421905Y-13131576D01*
X8421905Y-13331576D01*
X8602857Y-13331576D02*
X8602857Y-13226814D01*
X8593333Y-13207767D01*
X8574286Y-13198243D01*
X8536190Y-13198243D01*
X8517143Y-13207767D01*
X8602857Y-13322052D02*
X8583810Y-13331576D01*
X8536190Y-13331576D01*
X8517143Y-13322052D01*
X8507619Y-13303005D01*
X8507619Y-13283957D01*
X8517143Y-13264909D01*
X8536190Y-13255386D01*
X8583810Y-13255386D01*
X8602857Y-13245862D01*
X8698095Y-13198243D02*
X8698095Y-13398243D01*
X8698095Y-13207767D02*
X8717143Y-13198243D01*
X8755238Y-13198243D01*
X8774286Y-13207767D01*
X8783810Y-13217290D01*
X8793333Y-13236338D01*
X8793333Y-13293481D01*
X8783810Y-13312528D01*
X8774286Y-13322052D01*
X8755238Y-13331576D01*
X8717143Y-13331576D01*
X8698095Y-13322052D01*
X8879048Y-13312528D02*
X8888571Y-13322052D01*
X8879048Y-13331576D01*
X8869524Y-13322052D01*
X8879048Y-13312528D01*
X8879048Y-13331576D01*
X8879048Y-13207767D02*
X8888571Y-13217290D01*
X8879048Y-13226814D01*
X8869524Y-13217290D01*
X8879048Y-13207767D01*
X8879048Y-13226814D01*
D12*
X7200000Y-13636100D02*
X7250000Y-13686100D01*
X7250000Y-13636100D02*
X7200000Y-13686100D01*
D11*
X7545714Y-13551576D02*
X7564762Y-13551576D01*
X7583809Y-13561100D01*
X7593333Y-13570624D01*
X7602857Y-13589671D01*
X7612381Y-13627767D01*
X7612381Y-13675386D01*
X7602857Y-13713481D01*
X7593333Y-13732528D01*
X7583809Y-13742052D01*
X7564762Y-13751576D01*
X7545714Y-13751576D01*
X7526667Y-13742052D01*
X7517143Y-13732528D01*
X7507619Y-13713481D01*
X7498095Y-13675386D01*
X7498095Y-13627767D01*
X7507619Y-13589671D01*
X7517143Y-13570624D01*
X7526667Y-13561100D01*
X7545714Y-13551576D01*
X7698095Y-13732528D02*
X7707619Y-13742052D01*
X7698095Y-13751576D01*
X7688571Y-13742052D01*
X7698095Y-13732528D01*
X7698095Y-13751576D01*
X7888571Y-13551576D02*
X7793333Y-13551576D01*
X7783809Y-13646814D01*
X7793333Y-13637290D01*
X7812381Y-13627767D01*
X7860000Y-13627767D01*
X7879048Y-13637290D01*
X7888571Y-13646814D01*
X7898095Y-13665862D01*
X7898095Y-13713481D01*
X7888571Y-13732528D01*
X7879048Y-13742052D01*
X7860000Y-13751576D01*
X7812381Y-13751576D01*
X7793333Y-13742052D01*
X7783809Y-13732528D01*
X8021905Y-13551576D02*
X8040952Y-13551576D01*
X8060000Y-13561100D01*
X8069524Y-13570624D01*
X8079048Y-13589671D01*
X8088571Y-13627767D01*
X8088571Y-13675386D01*
X8079048Y-13713481D01*
X8069524Y-13732528D01*
X8060000Y-13742052D01*
X8040952Y-13751576D01*
X8021905Y-13751576D01*
X8002857Y-13742052D01*
X7993333Y-13732528D01*
X7983809Y-13713481D01*
X7974286Y-13675386D01*
X7974286Y-13627767D01*
X7983809Y-13589671D01*
X7993333Y-13570624D01*
X8002857Y-13561100D01*
X8021905Y-13551576D01*
X8212381Y-13551576D02*
X8231428Y-13551576D01*
X8250476Y-13561100D01*
X8260000Y-13570624D01*
X8269524Y-13589671D01*
X8279048Y-13627767D01*
X8279048Y-13675386D01*
X8269524Y-13713481D01*
X8260000Y-13732528D01*
X8250476Y-13742052D01*
X8231428Y-13751576D01*
X8212381Y-13751576D01*
X8193333Y-13742052D01*
X8183809Y-13732528D01*
X8174286Y-13713481D01*
X8164762Y-13675386D01*
X8164762Y-13627767D01*
X8174286Y-13589671D01*
X8183809Y-13570624D01*
X8193333Y-13561100D01*
X8212381Y-13551576D01*
X8364762Y-13751576D02*
X8364762Y-13618243D01*
X8364762Y-13637290D02*
X8374286Y-13627767D01*
X8393333Y-13618243D01*
X8421905Y-13618243D01*
X8440952Y-13627767D01*
X8450476Y-13646814D01*
X8450476Y-13751576D01*
X8450476Y-13646814D02*
X8460000Y-13627767D01*
X8479048Y-13618243D01*
X8507619Y-13618243D01*
X8526667Y-13627767D01*
X8536190Y-13646814D01*
X8536190Y-13751576D01*
X8631429Y-13751576D02*
X8631429Y-13618243D01*
X8631429Y-13637290D02*
X8640952Y-13627767D01*
X8660000Y-13618243D01*
X8688571Y-13618243D01*
X8707619Y-13627767D01*
X8717143Y-13646814D01*
X8717143Y-13751576D01*
X8717143Y-13646814D02*
X8726667Y-13627767D01*
X8745714Y-13618243D01*
X8774286Y-13618243D01*
X8793333Y-13627767D01*
X8802857Y-13646814D01*
X8802857Y-13751576D01*
X9193333Y-13542052D02*
X9021905Y-13799195D01*
X9450476Y-13551576D02*
X9469524Y-13551576D01*
X9488571Y-13561100D01*
X9498095Y-13570624D01*
X9507619Y-13589671D01*
X9517143Y-13627767D01*
X9517143Y-13675386D01*
X9507619Y-13713481D01*
X9498095Y-13732528D01*
X9488571Y-13742052D01*
X9469524Y-13751576D01*
X9450476Y-13751576D01*
X9431429Y-13742052D01*
X9421905Y-13732528D01*
X9412381Y-13713481D01*
X9402857Y-13675386D01*
X9402857Y-13627767D01*
X9412381Y-13589671D01*
X9421905Y-13570624D01*
X9431429Y-13561100D01*
X9450476Y-13551576D01*
X9602857Y-13732528D02*
X9612381Y-13742052D01*
X9602857Y-13751576D01*
X9593333Y-13742052D01*
X9602857Y-13732528D01*
X9602857Y-13751576D01*
X9736190Y-13551576D02*
X9755238Y-13551576D01*
X9774286Y-13561100D01*
X9783810Y-13570624D01*
X9793333Y-13589671D01*
X9802857Y-13627767D01*
X9802857Y-13675386D01*
X9793333Y-13713481D01*
X9783810Y-13732528D01*
X9774286Y-13742052D01*
X9755238Y-13751576D01*
X9736190Y-13751576D01*
X9717143Y-13742052D01*
X9707619Y-13732528D01*
X9698095Y-13713481D01*
X9688571Y-13675386D01*
X9688571Y-13627767D01*
X9698095Y-13589671D01*
X9707619Y-13570624D01*
X9717143Y-13561100D01*
X9736190Y-13551576D01*
X9993333Y-13751576D02*
X9879048Y-13751576D01*
X9936190Y-13751576D02*
X9936190Y-13551576D01*
X9917143Y-13580148D01*
X9898095Y-13599195D01*
X9879048Y-13608719D01*
X10088571Y-13751576D02*
X10126667Y-13751576D01*
X10145714Y-13742052D01*
X10155238Y-13732528D01*
X10174286Y-13703957D01*
X10183810Y-13665862D01*
X10183810Y-13589671D01*
X10174286Y-13570624D01*
X10164762Y-13561100D01*
X10145714Y-13551576D01*
X10107619Y-13551576D01*
X10088571Y-13561100D01*
X10079048Y-13570624D01*
X10069524Y-13589671D01*
X10069524Y-13637290D01*
X10079048Y-13656338D01*
X10088571Y-13665862D01*
X10107619Y-13675386D01*
X10145714Y-13675386D01*
X10164762Y-13665862D01*
X10174286Y-13656338D01*
X10183810Y-13637290D01*
X10250476Y-13551576D02*
X10383810Y-13551576D01*
X10298095Y-13751576D01*
X10450476Y-13551576D02*
X10450476Y-13589671D01*
X10526667Y-13551576D02*
X10526667Y-13589671D01*
X10821905Y-13827767D02*
X10812381Y-13818243D01*
X10793333Y-13789671D01*
X10783810Y-13770624D01*
X10774286Y-13742052D01*
X10764762Y-13694433D01*
X10764762Y-13656338D01*
X10774286Y-13608719D01*
X10783810Y-13580148D01*
X10793333Y-13561100D01*
X10812381Y-13532528D01*
X10821905Y-13523005D01*
X10879048Y-13551576D02*
X11002857Y-13551576D01*
X10936190Y-13627767D01*
X10964762Y-13627767D01*
X10983810Y-13637290D01*
X10993333Y-13646814D01*
X11002857Y-13665862D01*
X11002857Y-13713481D01*
X10993333Y-13732528D01*
X10983810Y-13742052D01*
X10964762Y-13751576D01*
X10907619Y-13751576D01*
X10888571Y-13742052D01*
X10879048Y-13732528D01*
X11079048Y-13570624D02*
X11088571Y-13561100D01*
X11107619Y-13551576D01*
X11155238Y-13551576D01*
X11174286Y-13561100D01*
X11183810Y-13570624D01*
X11193333Y-13589671D01*
X11193333Y-13608719D01*
X11183810Y-13637290D01*
X11069524Y-13751576D01*
X11193333Y-13751576D01*
X11431428Y-13751576D02*
X11431428Y-13551576D01*
X11517143Y-13751576D02*
X11517143Y-13646814D01*
X11507619Y-13627767D01*
X11488571Y-13618243D01*
X11460000Y-13618243D01*
X11440952Y-13627767D01*
X11431428Y-13637290D01*
X11640952Y-13751576D02*
X11621905Y-13742052D01*
X11612381Y-13732528D01*
X11602857Y-13713481D01*
X11602857Y-13656338D01*
X11612381Y-13637290D01*
X11621905Y-13627767D01*
X11640952Y-13618243D01*
X11669524Y-13618243D01*
X11688571Y-13627767D01*
X11698095Y-13637290D01*
X11707619Y-13656338D01*
X11707619Y-13713481D01*
X11698095Y-13732528D01*
X11688571Y-13742052D01*
X11669524Y-13751576D01*
X11640952Y-13751576D01*
X11821905Y-13751576D02*
X11802857Y-13742052D01*
X11793333Y-13723005D01*
X11793333Y-13551576D01*
X11974286Y-13742052D02*
X11955238Y-13751576D01*
X11917143Y-13751576D01*
X11898095Y-13742052D01*
X11888571Y-13723005D01*
X11888571Y-13646814D01*
X11898095Y-13627767D01*
X11917143Y-13618243D01*
X11955238Y-13618243D01*
X11974286Y-13627767D01*
X11983809Y-13646814D01*
X11983809Y-13665862D01*
X11888571Y-13684909D01*
X12060000Y-13742052D02*
X12079048Y-13751576D01*
X12117143Y-13751576D01*
X12136190Y-13742052D01*
X12145714Y-13723005D01*
X12145714Y-13713481D01*
X12136190Y-13694433D01*
X12117143Y-13684909D01*
X12088571Y-13684909D01*
X12069524Y-13675386D01*
X12060000Y-13656338D01*
X12060000Y-13646814D01*
X12069524Y-13627767D01*
X12088571Y-13618243D01*
X12117143Y-13618243D01*
X12136190Y-13627767D01*
X12212381Y-13827767D02*
X12221905Y-13818243D01*
X12240952Y-13789671D01*
X12250476Y-13770624D01*
X12260000Y-13742052D01*
X12269524Y-13694433D01*
X12269524Y-13656338D01*
X12260000Y-13608719D01*
X12250476Y-13580148D01*
X12240952Y-13561100D01*
X12221905Y-13532528D01*
X12212381Y-13523005D01*
D13*
X7250000Y-13925100D02*
G75*
G03*
X7250000Y-13925100I-40000J0D01*
G01*
D11*
X7545714Y-13815576D02*
X7564762Y-13815576D01*
X7583809Y-13825100D01*
X7593333Y-13834624D01*
X7602857Y-13853671D01*
X7612381Y-13891767D01*
X7612381Y-13939386D01*
X7602857Y-13977481D01*
X7593333Y-13996528D01*
X7583809Y-14006052D01*
X7564762Y-14015576D01*
X7545714Y-14015576D01*
X7526667Y-14006052D01*
X7517143Y-13996528D01*
X7507619Y-13977481D01*
X7498095Y-13939386D01*
X7498095Y-13891767D01*
X7507619Y-13853671D01*
X7517143Y-13834624D01*
X7526667Y-13825100D01*
X7545714Y-13815576D01*
X7698095Y-13996528D02*
X7707619Y-14006052D01*
X7698095Y-14015576D01*
X7688571Y-14006052D01*
X7698095Y-13996528D01*
X7698095Y-14015576D01*
X7821905Y-13901290D02*
X7802857Y-13891767D01*
X7793333Y-13882243D01*
X7783809Y-13863195D01*
X7783809Y-13853671D01*
X7793333Y-13834624D01*
X7802857Y-13825100D01*
X7821905Y-13815576D01*
X7860000Y-13815576D01*
X7879048Y-13825100D01*
X7888571Y-13834624D01*
X7898095Y-13853671D01*
X7898095Y-13863195D01*
X7888571Y-13882243D01*
X7879048Y-13891767D01*
X7860000Y-13901290D01*
X7821905Y-13901290D01*
X7802857Y-13910814D01*
X7793333Y-13920338D01*
X7783809Y-13939386D01*
X7783809Y-13977481D01*
X7793333Y-13996528D01*
X7802857Y-14006052D01*
X7821905Y-14015576D01*
X7860000Y-14015576D01*
X7879048Y-14006052D01*
X7888571Y-13996528D01*
X7898095Y-13977481D01*
X7898095Y-13939386D01*
X7888571Y-13920338D01*
X7879048Y-13910814D01*
X7860000Y-13901290D01*
X8021905Y-13815576D02*
X8040952Y-13815576D01*
X8060000Y-13825100D01*
X8069524Y-13834624D01*
X8079048Y-13853671D01*
X8088571Y-13891767D01*
X8088571Y-13939386D01*
X8079048Y-13977481D01*
X8069524Y-13996528D01*
X8060000Y-14006052D01*
X8040952Y-14015576D01*
X8021905Y-14015576D01*
X8002857Y-14006052D01*
X7993333Y-13996528D01*
X7983809Y-13977481D01*
X7974286Y-13939386D01*
X7974286Y-13891767D01*
X7983809Y-13853671D01*
X7993333Y-13834624D01*
X8002857Y-13825100D01*
X8021905Y-13815576D01*
X8212381Y-13815576D02*
X8231428Y-13815576D01*
X8250476Y-13825100D01*
X8260000Y-13834624D01*
X8269524Y-13853671D01*
X8279048Y-13891767D01*
X8279048Y-13939386D01*
X8269524Y-13977481D01*
X8260000Y-13996528D01*
X8250476Y-14006052D01*
X8231428Y-14015576D01*
X8212381Y-14015576D01*
X8193333Y-14006052D01*
X8183809Y-13996528D01*
X8174286Y-13977481D01*
X8164762Y-13939386D01*
X8164762Y-13891767D01*
X8174286Y-13853671D01*
X8183809Y-13834624D01*
X8193333Y-13825100D01*
X8212381Y-13815576D01*
X8364762Y-14015576D02*
X8364762Y-13882243D01*
X8364762Y-13901290D02*
X8374286Y-13891767D01*
X8393333Y-13882243D01*
X8421905Y-13882243D01*
X8440952Y-13891767D01*
X8450476Y-13910814D01*
X8450476Y-14015576D01*
X8450476Y-13910814D02*
X8460000Y-13891767D01*
X8479048Y-13882243D01*
X8507619Y-13882243D01*
X8526667Y-13891767D01*
X8536190Y-13910814D01*
X8536190Y-14015576D01*
X8631429Y-14015576D02*
X8631429Y-13882243D01*
X8631429Y-13901290D02*
X8640952Y-13891767D01*
X8660000Y-13882243D01*
X8688571Y-13882243D01*
X8707619Y-13891767D01*
X8717143Y-13910814D01*
X8717143Y-14015576D01*
X8717143Y-13910814D02*
X8726667Y-13891767D01*
X8745714Y-13882243D01*
X8774286Y-13882243D01*
X8793333Y-13891767D01*
X8802857Y-13910814D01*
X8802857Y-14015576D01*
X9193333Y-13806052D02*
X9021905Y-14063195D01*
X9450476Y-13815576D02*
X9469524Y-13815576D01*
X9488571Y-13825100D01*
X9498095Y-13834624D01*
X9507619Y-13853671D01*
X9517143Y-13891767D01*
X9517143Y-13939386D01*
X9507619Y-13977481D01*
X9498095Y-13996528D01*
X9488571Y-14006052D01*
X9469524Y-14015576D01*
X9450476Y-14015576D01*
X9431429Y-14006052D01*
X9421905Y-13996528D01*
X9412381Y-13977481D01*
X9402857Y-13939386D01*
X9402857Y-13891767D01*
X9412381Y-13853671D01*
X9421905Y-13834624D01*
X9431429Y-13825100D01*
X9450476Y-13815576D01*
X9602857Y-13996528D02*
X9612381Y-14006052D01*
X9602857Y-14015576D01*
X9593333Y-14006052D01*
X9602857Y-13996528D01*
X9602857Y-14015576D01*
X9736190Y-13815576D02*
X9755238Y-13815576D01*
X9774286Y-13825100D01*
X9783810Y-13834624D01*
X9793333Y-13853671D01*
X9802857Y-13891767D01*
X9802857Y-13939386D01*
X9793333Y-13977481D01*
X9783810Y-13996528D01*
X9774286Y-14006052D01*
X9755238Y-14015576D01*
X9736190Y-14015576D01*
X9717143Y-14006052D01*
X9707619Y-13996528D01*
X9698095Y-13977481D01*
X9688571Y-13939386D01*
X9688571Y-13891767D01*
X9698095Y-13853671D01*
X9707619Y-13834624D01*
X9717143Y-13825100D01*
X9736190Y-13815576D01*
X9869524Y-13815576D02*
X9993333Y-13815576D01*
X9926667Y-13891767D01*
X9955238Y-13891767D01*
X9974286Y-13901290D01*
X9983810Y-13910814D01*
X9993333Y-13929862D01*
X9993333Y-13977481D01*
X9983810Y-13996528D01*
X9974286Y-14006052D01*
X9955238Y-14015576D01*
X9898095Y-14015576D01*
X9879048Y-14006052D01*
X9869524Y-13996528D01*
X10183810Y-14015576D02*
X10069524Y-14015576D01*
X10126667Y-14015576D02*
X10126667Y-13815576D01*
X10107619Y-13844148D01*
X10088571Y-13863195D01*
X10069524Y-13872719D01*
X10364762Y-13815576D02*
X10269524Y-13815576D01*
X10260000Y-13910814D01*
X10269524Y-13901290D01*
X10288571Y-13891767D01*
X10336190Y-13891767D01*
X10355238Y-13901290D01*
X10364762Y-13910814D01*
X10374286Y-13929862D01*
X10374286Y-13977481D01*
X10364762Y-13996528D01*
X10355238Y-14006052D01*
X10336190Y-14015576D01*
X10288571Y-14015576D01*
X10269524Y-14006052D01*
X10260000Y-13996528D01*
X10450476Y-13815576D02*
X10450476Y-13853671D01*
X10526667Y-13815576D02*
X10526667Y-13853671D01*
X10821905Y-14091767D02*
X10812381Y-14082243D01*
X10793333Y-14053671D01*
X10783810Y-14034624D01*
X10774286Y-14006052D01*
X10764762Y-13958433D01*
X10764762Y-13920338D01*
X10774286Y-13872719D01*
X10783810Y-13844148D01*
X10793333Y-13825100D01*
X10812381Y-13796528D01*
X10821905Y-13787005D01*
X10879048Y-13815576D02*
X11002857Y-13815576D01*
X10936190Y-13891767D01*
X10964762Y-13891767D01*
X10983810Y-13901290D01*
X10993333Y-13910814D01*
X11002857Y-13929862D01*
X11002857Y-13977481D01*
X10993333Y-13996528D01*
X10983810Y-14006052D01*
X10964762Y-14015576D01*
X10907619Y-14015576D01*
X10888571Y-14006052D01*
X10879048Y-13996528D01*
X11117143Y-13901290D02*
X11098095Y-13891767D01*
X11088571Y-13882243D01*
X11079048Y-13863195D01*
X11079048Y-13853671D01*
X11088571Y-13834624D01*
X11098095Y-13825100D01*
X11117143Y-13815576D01*
X11155238Y-13815576D01*
X11174286Y-13825100D01*
X11183810Y-13834624D01*
X11193333Y-13853671D01*
X11193333Y-13863195D01*
X11183810Y-13882243D01*
X11174286Y-13891767D01*
X11155238Y-13901290D01*
X11117143Y-13901290D01*
X11098095Y-13910814D01*
X11088571Y-13920338D01*
X11079048Y-13939386D01*
X11079048Y-13977481D01*
X11088571Y-13996528D01*
X11098095Y-14006052D01*
X11117143Y-14015576D01*
X11155238Y-14015576D01*
X11174286Y-14006052D01*
X11183810Y-13996528D01*
X11193333Y-13977481D01*
X11193333Y-13939386D01*
X11183810Y-13920338D01*
X11174286Y-13910814D01*
X11155238Y-13901290D01*
X11431428Y-14015576D02*
X11431428Y-13815576D01*
X11517143Y-14015576D02*
X11517143Y-13910814D01*
X11507619Y-13891767D01*
X11488571Y-13882243D01*
X11460000Y-13882243D01*
X11440952Y-13891767D01*
X11431428Y-13901290D01*
X11640952Y-14015576D02*
X11621905Y-14006052D01*
X11612381Y-13996528D01*
X11602857Y-13977481D01*
X11602857Y-13920338D01*
X11612381Y-13901290D01*
X11621905Y-13891767D01*
X11640952Y-13882243D01*
X11669524Y-13882243D01*
X11688571Y-13891767D01*
X11698095Y-13901290D01*
X11707619Y-13920338D01*
X11707619Y-13977481D01*
X11698095Y-13996528D01*
X11688571Y-14006052D01*
X11669524Y-14015576D01*
X11640952Y-14015576D01*
X11821905Y-14015576D02*
X11802857Y-14006052D01*
X11793333Y-13987005D01*
X11793333Y-13815576D01*
X11974286Y-14006052D02*
X11955238Y-14015576D01*
X11917143Y-14015576D01*
X11898095Y-14006052D01*
X11888571Y-13987005D01*
X11888571Y-13910814D01*
X11898095Y-13891767D01*
X11917143Y-13882243D01*
X11955238Y-13882243D01*
X11974286Y-13891767D01*
X11983809Y-13910814D01*
X11983809Y-13929862D01*
X11888571Y-13948909D01*
X12060000Y-14006052D02*
X12079048Y-14015576D01*
X12117143Y-14015576D01*
X12136190Y-14006052D01*
X12145714Y-13987005D01*
X12145714Y-13977481D01*
X12136190Y-13958433D01*
X12117143Y-13948909D01*
X12088571Y-13948909D01*
X12069524Y-13939386D01*
X12060000Y-13920338D01*
X12060000Y-13910814D01*
X12069524Y-13891767D01*
X12088571Y-13882243D01*
X12117143Y-13882243D01*
X12136190Y-13891767D01*
X12212381Y-14091767D02*
X12221905Y-14082243D01*
X12240952Y-14053671D01*
X12250476Y-14034624D01*
X12260000Y-14006052D01*
X12269524Y-13958433D01*
X12269524Y-13920338D01*
X12260000Y-13872719D01*
X12250476Y-13844148D01*
X12240952Y-13825100D01*
X12221905Y-13796528D01*
X12212381Y-13787005D01*
D14*
X7200000Y-14139100D02*
X7200000Y-14239100D01*
X7150000Y-14189100D02*
X7250000Y-14189100D01*
D11*
X7612381Y-14279576D02*
X7498095Y-14279576D01*
X7555238Y-14279576D02*
X7555238Y-14079576D01*
X7536190Y-14108148D01*
X7517143Y-14127195D01*
X7498095Y-14136719D01*
X7698095Y-14260528D02*
X7707619Y-14270052D01*
X7698095Y-14279576D01*
X7688571Y-14270052D01*
X7698095Y-14260528D01*
X7698095Y-14279576D01*
X7831428Y-14079576D02*
X7850476Y-14079576D01*
X7869524Y-14089100D01*
X7879048Y-14098624D01*
X7888571Y-14117671D01*
X7898095Y-14155767D01*
X7898095Y-14203386D01*
X7888571Y-14241481D01*
X7879048Y-14260528D01*
X7869524Y-14270052D01*
X7850476Y-14279576D01*
X7831428Y-14279576D01*
X7812381Y-14270052D01*
X7802857Y-14260528D01*
X7793333Y-14241481D01*
X7783809Y-14203386D01*
X7783809Y-14155767D01*
X7793333Y-14117671D01*
X7802857Y-14098624D01*
X7812381Y-14089100D01*
X7831428Y-14079576D01*
X8021905Y-14079576D02*
X8040952Y-14079576D01*
X8060000Y-14089100D01*
X8069524Y-14098624D01*
X8079048Y-14117671D01*
X8088571Y-14155767D01*
X8088571Y-14203386D01*
X8079048Y-14241481D01*
X8069524Y-14260528D01*
X8060000Y-14270052D01*
X8040952Y-14279576D01*
X8021905Y-14279576D01*
X8002857Y-14270052D01*
X7993333Y-14260528D01*
X7983809Y-14241481D01*
X7974286Y-14203386D01*
X7974286Y-14155767D01*
X7983809Y-14117671D01*
X7993333Y-14098624D01*
X8002857Y-14089100D01*
X8021905Y-14079576D01*
X8212381Y-14079576D02*
X8231428Y-14079576D01*
X8250476Y-14089100D01*
X8260000Y-14098624D01*
X8269524Y-14117671D01*
X8279048Y-14155767D01*
X8279048Y-14203386D01*
X8269524Y-14241481D01*
X8260000Y-14260528D01*
X8250476Y-14270052D01*
X8231428Y-14279576D01*
X8212381Y-14279576D01*
X8193333Y-14270052D01*
X8183809Y-14260528D01*
X8174286Y-14241481D01*
X8164762Y-14203386D01*
X8164762Y-14155767D01*
X8174286Y-14117671D01*
X8183809Y-14098624D01*
X8193333Y-14089100D01*
X8212381Y-14079576D01*
X8364762Y-14279576D02*
X8364762Y-14146243D01*
X8364762Y-14165290D02*
X8374286Y-14155767D01*
X8393333Y-14146243D01*
X8421905Y-14146243D01*
X8440952Y-14155767D01*
X8450476Y-14174814D01*
X8450476Y-14279576D01*
X8450476Y-14174814D02*
X8460000Y-14155767D01*
X8479048Y-14146243D01*
X8507619Y-14146243D01*
X8526667Y-14155767D01*
X8536190Y-14174814D01*
X8536190Y-14279576D01*
X8631429Y-14279576D02*
X8631429Y-14146243D01*
X8631429Y-14165290D02*
X8640952Y-14155767D01*
X8660000Y-14146243D01*
X8688571Y-14146243D01*
X8707619Y-14155767D01*
X8717143Y-14174814D01*
X8717143Y-14279576D01*
X8717143Y-14174814D02*
X8726667Y-14155767D01*
X8745714Y-14146243D01*
X8774286Y-14146243D01*
X8793333Y-14155767D01*
X8802857Y-14174814D01*
X8802857Y-14279576D01*
X9193333Y-14070052D02*
X9021905Y-14327195D01*
X9450476Y-14079576D02*
X9469524Y-14079576D01*
X9488571Y-14089100D01*
X9498095Y-14098624D01*
X9507619Y-14117671D01*
X9517143Y-14155767D01*
X9517143Y-14203386D01*
X9507619Y-14241481D01*
X9498095Y-14260528D01*
X9488571Y-14270052D01*
X9469524Y-14279576D01*
X9450476Y-14279576D01*
X9431429Y-14270052D01*
X9421905Y-14260528D01*
X9412381Y-14241481D01*
X9402857Y-14203386D01*
X9402857Y-14155767D01*
X9412381Y-14117671D01*
X9421905Y-14098624D01*
X9431429Y-14089100D01*
X9450476Y-14079576D01*
X9602857Y-14260528D02*
X9612381Y-14270052D01*
X9602857Y-14279576D01*
X9593333Y-14270052D01*
X9602857Y-14260528D01*
X9602857Y-14279576D01*
X9736190Y-14079576D02*
X9755238Y-14079576D01*
X9774286Y-14089100D01*
X9783810Y-14098624D01*
X9793333Y-14117671D01*
X9802857Y-14155767D01*
X9802857Y-14203386D01*
X9793333Y-14241481D01*
X9783810Y-14260528D01*
X9774286Y-14270052D01*
X9755238Y-14279576D01*
X9736190Y-14279576D01*
X9717143Y-14270052D01*
X9707619Y-14260528D01*
X9698095Y-14241481D01*
X9688571Y-14203386D01*
X9688571Y-14155767D01*
X9698095Y-14117671D01*
X9707619Y-14098624D01*
X9717143Y-14089100D01*
X9736190Y-14079576D01*
X9869524Y-14079576D02*
X9993333Y-14079576D01*
X9926667Y-14155767D01*
X9955238Y-14155767D01*
X9974286Y-14165290D01*
X9983810Y-14174814D01*
X9993333Y-14193862D01*
X9993333Y-14241481D01*
X9983810Y-14260528D01*
X9974286Y-14270052D01*
X9955238Y-14279576D01*
X9898095Y-14279576D01*
X9879048Y-14270052D01*
X9869524Y-14260528D01*
X10088571Y-14279576D02*
X10126667Y-14279576D01*
X10145714Y-14270052D01*
X10155238Y-14260528D01*
X10174286Y-14231957D01*
X10183810Y-14193862D01*
X10183810Y-14117671D01*
X10174286Y-14098624D01*
X10164762Y-14089100D01*
X10145714Y-14079576D01*
X10107619Y-14079576D01*
X10088571Y-14089100D01*
X10079048Y-14098624D01*
X10069524Y-14117671D01*
X10069524Y-14165290D01*
X10079048Y-14184338D01*
X10088571Y-14193862D01*
X10107619Y-14203386D01*
X10145714Y-14203386D01*
X10164762Y-14193862D01*
X10174286Y-14184338D01*
X10183810Y-14165290D01*
X10355238Y-14146243D02*
X10355238Y-14279576D01*
X10307619Y-14070052D02*
X10260000Y-14212909D01*
X10383810Y-14212909D01*
X10450476Y-14079576D02*
X10450476Y-14117671D01*
X10526667Y-14079576D02*
X10526667Y-14117671D01*
X10821905Y-14355767D02*
X10812381Y-14346243D01*
X10793333Y-14317671D01*
X10783810Y-14298624D01*
X10774286Y-14270052D01*
X10764762Y-14222433D01*
X10764762Y-14184338D01*
X10774286Y-14136719D01*
X10783810Y-14108148D01*
X10793333Y-14089100D01*
X10812381Y-14060528D01*
X10821905Y-14051005D01*
X10907619Y-14279576D02*
X10945714Y-14279576D01*
X10964762Y-14270052D01*
X10974286Y-14260528D01*
X10993333Y-14231957D01*
X11002857Y-14193862D01*
X11002857Y-14117671D01*
X10993333Y-14098624D01*
X10983810Y-14089100D01*
X10964762Y-14079576D01*
X10926667Y-14079576D01*
X10907619Y-14089100D01*
X10898095Y-14098624D01*
X10888571Y-14117671D01*
X10888571Y-14165290D01*
X10898095Y-14184338D01*
X10907619Y-14193862D01*
X10926667Y-14203386D01*
X10964762Y-14203386D01*
X10983810Y-14193862D01*
X10993333Y-14184338D01*
X11002857Y-14165290D01*
X11240952Y-14279576D02*
X11240952Y-14079576D01*
X11326667Y-14279576D02*
X11326667Y-14174814D01*
X11317143Y-14155767D01*
X11298095Y-14146243D01*
X11269524Y-14146243D01*
X11250476Y-14155767D01*
X11240952Y-14165290D01*
X11450476Y-14279576D02*
X11431428Y-14270052D01*
X11421905Y-14260528D01*
X11412381Y-14241481D01*
X11412381Y-14184338D01*
X11421905Y-14165290D01*
X11431428Y-14155767D01*
X11450476Y-14146243D01*
X11479048Y-14146243D01*
X11498095Y-14155767D01*
X11507619Y-14165290D01*
X11517143Y-14184338D01*
X11517143Y-14241481D01*
X11507619Y-14260528D01*
X11498095Y-14270052D01*
X11479048Y-14279576D01*
X11450476Y-14279576D01*
X11631428Y-14279576D02*
X11612381Y-14270052D01*
X11602857Y-14251005D01*
X11602857Y-14079576D01*
X11783809Y-14270052D02*
X11764762Y-14279576D01*
X11726667Y-14279576D01*
X11707619Y-14270052D01*
X11698095Y-14251005D01*
X11698095Y-14174814D01*
X11707619Y-14155767D01*
X11726667Y-14146243D01*
X11764762Y-14146243D01*
X11783809Y-14155767D01*
X11793333Y-14174814D01*
X11793333Y-14193862D01*
X11698095Y-14212909D01*
X11869524Y-14270052D02*
X11888571Y-14279576D01*
X11926667Y-14279576D01*
X11945714Y-14270052D01*
X11955238Y-14251005D01*
X11955238Y-14241481D01*
X11945714Y-14222433D01*
X11926667Y-14212909D01*
X11898095Y-14212909D01*
X11879048Y-14203386D01*
X11869524Y-14184338D01*
X11869524Y-14174814D01*
X11879048Y-14155767D01*
X11898095Y-14146243D01*
X11926667Y-14146243D01*
X11945714Y-14155767D01*
X12021905Y-14355767D02*
X12031428Y-14346243D01*
X12050476Y-14317671D01*
X12060000Y-14298624D01*
X12069524Y-14270052D01*
X12079048Y-14222433D01*
X12079048Y-14184338D01*
X12069524Y-14136719D01*
X12060000Y-14108148D01*
X12050476Y-14089100D01*
X12031428Y-14060528D01*
X12021905Y-14051005D01*
D15*
X7227741Y-14506841D02*
X7227741Y-14399359D01*
X7120259Y-14399359D01*
X7120259Y-14506841D01*
X7227741Y-14506841D01*
D11*
X7612381Y-14543576D02*
X7498095Y-14543576D01*
X7555238Y-14543576D02*
X7555238Y-14343576D01*
X7536190Y-14372148D01*
X7517143Y-14391195D01*
X7498095Y-14400719D01*
X7698095Y-14524528D02*
X7707619Y-14534052D01*
X7698095Y-14543576D01*
X7688571Y-14534052D01*
X7698095Y-14524528D01*
X7698095Y-14543576D01*
X7888571Y-14343576D02*
X7793333Y-14343576D01*
X7783809Y-14438814D01*
X7793333Y-14429290D01*
X7812381Y-14419767D01*
X7860000Y-14419767D01*
X7879048Y-14429290D01*
X7888571Y-14438814D01*
X7898095Y-14457862D01*
X7898095Y-14505481D01*
X7888571Y-14524528D01*
X7879048Y-14534052D01*
X7860000Y-14543576D01*
X7812381Y-14543576D01*
X7793333Y-14534052D01*
X7783809Y-14524528D01*
X7974286Y-14362624D02*
X7983809Y-14353100D01*
X8002857Y-14343576D01*
X8050476Y-14343576D01*
X8069524Y-14353100D01*
X8079048Y-14362624D01*
X8088571Y-14381671D01*
X8088571Y-14400719D01*
X8079048Y-14429290D01*
X7964762Y-14543576D01*
X8088571Y-14543576D01*
X8212381Y-14343576D02*
X8231428Y-14343576D01*
X8250476Y-14353100D01*
X8260000Y-14362624D01*
X8269524Y-14381671D01*
X8279048Y-14419767D01*
X8279048Y-14467386D01*
X8269524Y-14505481D01*
X8260000Y-14524528D01*
X8250476Y-14534052D01*
X8231428Y-14543576D01*
X8212381Y-14543576D01*
X8193333Y-14534052D01*
X8183809Y-14524528D01*
X8174286Y-14505481D01*
X8164762Y-14467386D01*
X8164762Y-14419767D01*
X8174286Y-14381671D01*
X8183809Y-14362624D01*
X8193333Y-14353100D01*
X8212381Y-14343576D01*
X8364762Y-14543576D02*
X8364762Y-14410243D01*
X8364762Y-14429290D02*
X8374286Y-14419767D01*
X8393333Y-14410243D01*
X8421905Y-14410243D01*
X8440952Y-14419767D01*
X8450476Y-14438814D01*
X8450476Y-14543576D01*
X8450476Y-14438814D02*
X8460000Y-14419767D01*
X8479048Y-14410243D01*
X8507619Y-14410243D01*
X8526667Y-14419767D01*
X8536190Y-14438814D01*
X8536190Y-14543576D01*
X8631429Y-14543576D02*
X8631429Y-14410243D01*
X8631429Y-14429290D02*
X8640952Y-14419767D01*
X8660000Y-14410243D01*
X8688571Y-14410243D01*
X8707619Y-14419767D01*
X8717143Y-14438814D01*
X8717143Y-14543576D01*
X8717143Y-14438814D02*
X8726667Y-14419767D01*
X8745714Y-14410243D01*
X8774286Y-14410243D01*
X8793333Y-14419767D01*
X8802857Y-14438814D01*
X8802857Y-14543576D01*
X9193333Y-14334052D02*
X9021905Y-14591195D01*
X9450476Y-14343576D02*
X9469524Y-14343576D01*
X9488571Y-14353100D01*
X9498095Y-14362624D01*
X9507619Y-14381671D01*
X9517143Y-14419767D01*
X9517143Y-14467386D01*
X9507619Y-14505481D01*
X9498095Y-14524528D01*
X9488571Y-14534052D01*
X9469524Y-14543576D01*
X9450476Y-14543576D01*
X9431429Y-14534052D01*
X9421905Y-14524528D01*
X9412381Y-14505481D01*
X9402857Y-14467386D01*
X9402857Y-14419767D01*
X9412381Y-14381671D01*
X9421905Y-14362624D01*
X9431429Y-14353100D01*
X9450476Y-14343576D01*
X9602857Y-14524528D02*
X9612381Y-14534052D01*
X9602857Y-14543576D01*
X9593333Y-14534052D01*
X9602857Y-14524528D01*
X9602857Y-14543576D01*
X9736190Y-14343576D02*
X9755238Y-14343576D01*
X9774286Y-14353100D01*
X9783810Y-14362624D01*
X9793333Y-14381671D01*
X9802857Y-14419767D01*
X9802857Y-14467386D01*
X9793333Y-14505481D01*
X9783810Y-14524528D01*
X9774286Y-14534052D01*
X9755238Y-14543576D01*
X9736190Y-14543576D01*
X9717143Y-14534052D01*
X9707619Y-14524528D01*
X9698095Y-14505481D01*
X9688571Y-14467386D01*
X9688571Y-14419767D01*
X9698095Y-14381671D01*
X9707619Y-14362624D01*
X9717143Y-14353100D01*
X9736190Y-14343576D01*
X9983810Y-14343576D02*
X9888571Y-14343576D01*
X9879048Y-14438814D01*
X9888571Y-14429290D01*
X9907619Y-14419767D01*
X9955238Y-14419767D01*
X9974286Y-14429290D01*
X9983810Y-14438814D01*
X9993333Y-14457862D01*
X9993333Y-14505481D01*
X9983810Y-14524528D01*
X9974286Y-14534052D01*
X9955238Y-14543576D01*
X9907619Y-14543576D01*
X9888571Y-14534052D01*
X9879048Y-14524528D01*
X10088571Y-14543576D02*
X10126667Y-14543576D01*
X10145714Y-14534052D01*
X10155238Y-14524528D01*
X10174286Y-14495957D01*
X10183810Y-14457862D01*
X10183810Y-14381671D01*
X10174286Y-14362624D01*
X10164762Y-14353100D01*
X10145714Y-14343576D01*
X10107619Y-14343576D01*
X10088571Y-14353100D01*
X10079048Y-14362624D01*
X10069524Y-14381671D01*
X10069524Y-14429290D01*
X10079048Y-14448338D01*
X10088571Y-14457862D01*
X10107619Y-14467386D01*
X10145714Y-14467386D01*
X10164762Y-14457862D01*
X10174286Y-14448338D01*
X10183810Y-14429290D01*
X10298095Y-14429290D02*
X10279048Y-14419767D01*
X10269524Y-14410243D01*
X10260000Y-14391195D01*
X10260000Y-14381671D01*
X10269524Y-14362624D01*
X10279048Y-14353100D01*
X10298095Y-14343576D01*
X10336190Y-14343576D01*
X10355238Y-14353100D01*
X10364762Y-14362624D01*
X10374286Y-14381671D01*
X10374286Y-14391195D01*
X10364762Y-14410243D01*
X10355238Y-14419767D01*
X10336190Y-14429290D01*
X10298095Y-14429290D01*
X10279048Y-14438814D01*
X10269524Y-14448338D01*
X10260000Y-14467386D01*
X10260000Y-14505481D01*
X10269524Y-14524528D01*
X10279048Y-14534052D01*
X10298095Y-14543576D01*
X10336190Y-14543576D01*
X10355238Y-14534052D01*
X10364762Y-14524528D01*
X10374286Y-14505481D01*
X10374286Y-14467386D01*
X10364762Y-14448338D01*
X10355238Y-14438814D01*
X10336190Y-14429290D01*
X10450476Y-14343576D02*
X10450476Y-14381671D01*
X10526667Y-14343576D02*
X10526667Y-14381671D01*
X10821905Y-14619767D02*
X10812381Y-14610243D01*
X10793333Y-14581671D01*
X10783810Y-14562624D01*
X10774286Y-14534052D01*
X10764762Y-14486433D01*
X10764762Y-14448338D01*
X10774286Y-14400719D01*
X10783810Y-14372148D01*
X10793333Y-14353100D01*
X10812381Y-14324528D01*
X10821905Y-14315005D01*
X11002857Y-14543576D02*
X10888571Y-14543576D01*
X10945714Y-14543576D02*
X10945714Y-14343576D01*
X10926667Y-14372148D01*
X10907619Y-14391195D01*
X10888571Y-14400719D01*
X11069524Y-14343576D02*
X11202857Y-14343576D01*
X11117143Y-14543576D01*
X11431428Y-14543576D02*
X11431428Y-14343576D01*
X11517143Y-14543576D02*
X11517143Y-14438814D01*
X11507619Y-14419767D01*
X11488571Y-14410243D01*
X11460000Y-14410243D01*
X11440952Y-14419767D01*
X11431428Y-14429290D01*
X11640952Y-14543576D02*
X11621905Y-14534052D01*
X11612381Y-14524528D01*
X11602857Y-14505481D01*
X11602857Y-14448338D01*
X11612381Y-14429290D01*
X11621905Y-14419767D01*
X11640952Y-14410243D01*
X11669524Y-14410243D01*
X11688571Y-14419767D01*
X11698095Y-14429290D01*
X11707619Y-14448338D01*
X11707619Y-14505481D01*
X11698095Y-14524528D01*
X11688571Y-14534052D01*
X11669524Y-14543576D01*
X11640952Y-14543576D01*
X11821905Y-14543576D02*
X11802857Y-14534052D01*
X11793333Y-14515005D01*
X11793333Y-14343576D01*
X11974286Y-14534052D02*
X11955238Y-14543576D01*
X11917143Y-14543576D01*
X11898095Y-14534052D01*
X11888571Y-14515005D01*
X11888571Y-14438814D01*
X11898095Y-14419767D01*
X11917143Y-14410243D01*
X11955238Y-14410243D01*
X11974286Y-14419767D01*
X11983809Y-14438814D01*
X11983809Y-14457862D01*
X11888571Y-14476909D01*
X12060000Y-14534052D02*
X12079048Y-14543576D01*
X12117143Y-14543576D01*
X12136190Y-14534052D01*
X12145714Y-14515005D01*
X12145714Y-14505481D01*
X12136190Y-14486433D01*
X12117143Y-14476909D01*
X12088571Y-14476909D01*
X12069524Y-14467386D01*
X12060000Y-14448338D01*
X12060000Y-14438814D01*
X12069524Y-14419767D01*
X12088571Y-14410243D01*
X12117143Y-14410243D01*
X12136190Y-14419767D01*
X12212381Y-14619767D02*
X12221905Y-14610243D01*
X12240952Y-14581671D01*
X12250476Y-14562624D01*
X12260000Y-14534052D01*
X12269524Y-14486433D01*
X12269524Y-14448338D01*
X12260000Y-14400719D01*
X12250476Y-14372148D01*
X12240952Y-14353100D01*
X12221905Y-14324528D01*
X12212381Y-14315005D01*
X7150000Y-14825100D02*
X7250000Y-14725100D01*
X7150000Y-14625100D01*
X7050000Y-14725100D01*
X7150000Y-14825100D01*
X7498095Y-14634624D02*
X7507619Y-14625100D01*
X7526667Y-14615576D01*
X7574286Y-14615576D01*
X7593333Y-14625100D01*
X7602857Y-14634624D01*
X7612381Y-14653671D01*
X7612381Y-14672719D01*
X7602857Y-14701290D01*
X7488571Y-14815576D01*
X7612381Y-14815576D01*
X7698095Y-14796528D02*
X7707619Y-14806052D01*
X7698095Y-14815576D01*
X7688571Y-14806052D01*
X7698095Y-14796528D01*
X7698095Y-14815576D01*
X7888571Y-14615576D02*
X7793333Y-14615576D01*
X7783809Y-14710814D01*
X7793333Y-14701290D01*
X7812381Y-14691767D01*
X7860000Y-14691767D01*
X7879048Y-14701290D01*
X7888571Y-14710814D01*
X7898095Y-14729862D01*
X7898095Y-14777481D01*
X7888571Y-14796528D01*
X7879048Y-14806052D01*
X7860000Y-14815576D01*
X7812381Y-14815576D01*
X7793333Y-14806052D01*
X7783809Y-14796528D01*
X8021905Y-14615576D02*
X8040952Y-14615576D01*
X8060000Y-14625100D01*
X8069524Y-14634624D01*
X8079048Y-14653671D01*
X8088571Y-14691767D01*
X8088571Y-14739386D01*
X8079048Y-14777481D01*
X8069524Y-14796528D01*
X8060000Y-14806052D01*
X8040952Y-14815576D01*
X8021905Y-14815576D01*
X8002857Y-14806052D01*
X7993333Y-14796528D01*
X7983809Y-14777481D01*
X7974286Y-14739386D01*
X7974286Y-14691767D01*
X7983809Y-14653671D01*
X7993333Y-14634624D01*
X8002857Y-14625100D01*
X8021905Y-14615576D01*
X8212381Y-14615576D02*
X8231428Y-14615576D01*
X8250476Y-14625100D01*
X8260000Y-14634624D01*
X8269524Y-14653671D01*
X8279048Y-14691767D01*
X8279048Y-14739386D01*
X8269524Y-14777481D01*
X8260000Y-14796528D01*
X8250476Y-14806052D01*
X8231428Y-14815576D01*
X8212381Y-14815576D01*
X8193333Y-14806052D01*
X8183809Y-14796528D01*
X8174286Y-14777481D01*
X8164762Y-14739386D01*
X8164762Y-14691767D01*
X8174286Y-14653671D01*
X8183809Y-14634624D01*
X8193333Y-14625100D01*
X8212381Y-14615576D01*
X8364762Y-14815576D02*
X8364762Y-14682243D01*
X8364762Y-14701290D02*
X8374286Y-14691767D01*
X8393333Y-14682243D01*
X8421905Y-14682243D01*
X8440952Y-14691767D01*
X8450476Y-14710814D01*
X8450476Y-14815576D01*
X8450476Y-14710814D02*
X8460000Y-14691767D01*
X8479048Y-14682243D01*
X8507619Y-14682243D01*
X8526667Y-14691767D01*
X8536190Y-14710814D01*
X8536190Y-14815576D01*
X8631429Y-14815576D02*
X8631429Y-14682243D01*
X8631429Y-14701290D02*
X8640952Y-14691767D01*
X8660000Y-14682243D01*
X8688571Y-14682243D01*
X8707619Y-14691767D01*
X8717143Y-14710814D01*
X8717143Y-14815576D01*
X8717143Y-14710814D02*
X8726667Y-14691767D01*
X8745714Y-14682243D01*
X8774286Y-14682243D01*
X8793333Y-14691767D01*
X8802857Y-14710814D01*
X8802857Y-14815576D01*
X9193333Y-14606052D02*
X9021905Y-14863195D01*
X9450476Y-14615576D02*
X9469524Y-14615576D01*
X9488571Y-14625100D01*
X9498095Y-14634624D01*
X9507619Y-14653671D01*
X9517143Y-14691767D01*
X9517143Y-14739386D01*
X9507619Y-14777481D01*
X9498095Y-14796528D01*
X9488571Y-14806052D01*
X9469524Y-14815576D01*
X9450476Y-14815576D01*
X9431429Y-14806052D01*
X9421905Y-14796528D01*
X9412381Y-14777481D01*
X9402857Y-14739386D01*
X9402857Y-14691767D01*
X9412381Y-14653671D01*
X9421905Y-14634624D01*
X9431429Y-14625100D01*
X9450476Y-14615576D01*
X9602857Y-14796528D02*
X9612381Y-14806052D01*
X9602857Y-14815576D01*
X9593333Y-14806052D01*
X9602857Y-14796528D01*
X9602857Y-14815576D01*
X9736190Y-14615576D02*
X9755238Y-14615576D01*
X9774286Y-14625100D01*
X9783810Y-14634624D01*
X9793333Y-14653671D01*
X9802857Y-14691767D01*
X9802857Y-14739386D01*
X9793333Y-14777481D01*
X9783810Y-14796528D01*
X9774286Y-14806052D01*
X9755238Y-14815576D01*
X9736190Y-14815576D01*
X9717143Y-14806052D01*
X9707619Y-14796528D01*
X9698095Y-14777481D01*
X9688571Y-14739386D01*
X9688571Y-14691767D01*
X9698095Y-14653671D01*
X9707619Y-14634624D01*
X9717143Y-14625100D01*
X9736190Y-14615576D01*
X9898095Y-14815576D02*
X9936190Y-14815576D01*
X9955238Y-14806052D01*
X9964762Y-14796528D01*
X9983810Y-14767957D01*
X9993333Y-14729862D01*
X9993333Y-14653671D01*
X9983810Y-14634624D01*
X9974286Y-14625100D01*
X9955238Y-14615576D01*
X9917143Y-14615576D01*
X9898095Y-14625100D01*
X9888571Y-14634624D01*
X9879048Y-14653671D01*
X9879048Y-14701290D01*
X9888571Y-14720338D01*
X9898095Y-14729862D01*
X9917143Y-14739386D01*
X9955238Y-14739386D01*
X9974286Y-14729862D01*
X9983810Y-14720338D01*
X9993333Y-14701290D01*
X10107619Y-14701290D02*
X10088571Y-14691767D01*
X10079048Y-14682243D01*
X10069524Y-14663195D01*
X10069524Y-14653671D01*
X10079048Y-14634624D01*
X10088571Y-14625100D01*
X10107619Y-14615576D01*
X10145714Y-14615576D01*
X10164762Y-14625100D01*
X10174286Y-14634624D01*
X10183810Y-14653671D01*
X10183810Y-14663195D01*
X10174286Y-14682243D01*
X10164762Y-14691767D01*
X10145714Y-14701290D01*
X10107619Y-14701290D01*
X10088571Y-14710814D01*
X10079048Y-14720338D01*
X10069524Y-14739386D01*
X10069524Y-14777481D01*
X10079048Y-14796528D01*
X10088571Y-14806052D01*
X10107619Y-14815576D01*
X10145714Y-14815576D01*
X10164762Y-14806052D01*
X10174286Y-14796528D01*
X10183810Y-14777481D01*
X10183810Y-14739386D01*
X10174286Y-14720338D01*
X10164762Y-14710814D01*
X10145714Y-14701290D01*
X10355238Y-14682243D02*
X10355238Y-14815576D01*
X10307619Y-14606052D02*
X10260000Y-14748909D01*
X10383810Y-14748909D01*
X10450476Y-14615576D02*
X10450476Y-14653671D01*
X10526667Y-14615576D02*
X10526667Y-14653671D01*
X10821905Y-14891767D02*
X10812381Y-14882243D01*
X10793333Y-14853671D01*
X10783810Y-14834624D01*
X10774286Y-14806052D01*
X10764762Y-14758433D01*
X10764762Y-14720338D01*
X10774286Y-14672719D01*
X10783810Y-14644148D01*
X10793333Y-14625100D01*
X10812381Y-14596528D01*
X10821905Y-14587005D01*
X10983810Y-14682243D02*
X10983810Y-14815576D01*
X10936190Y-14606052D02*
X10888571Y-14748909D01*
X11012381Y-14748909D01*
X11240952Y-14815576D02*
X11240952Y-14615576D01*
X11326667Y-14815576D02*
X11326667Y-14710814D01*
X11317143Y-14691767D01*
X11298095Y-14682243D01*
X11269524Y-14682243D01*
X11250476Y-14691767D01*
X11240952Y-14701290D01*
X11450476Y-14815576D02*
X11431428Y-14806052D01*
X11421905Y-14796528D01*
X11412381Y-14777481D01*
X11412381Y-14720338D01*
X11421905Y-14701290D01*
X11431428Y-14691767D01*
X11450476Y-14682243D01*
X11479048Y-14682243D01*
X11498095Y-14691767D01*
X11507619Y-14701290D01*
X11517143Y-14720338D01*
X11517143Y-14777481D01*
X11507619Y-14796528D01*
X11498095Y-14806052D01*
X11479048Y-14815576D01*
X11450476Y-14815576D01*
X11631428Y-14815576D02*
X11612381Y-14806052D01*
X11602857Y-14787005D01*
X11602857Y-14615576D01*
X11783809Y-14806052D02*
X11764762Y-14815576D01*
X11726667Y-14815576D01*
X11707619Y-14806052D01*
X11698095Y-14787005D01*
X11698095Y-14710814D01*
X11707619Y-14691767D01*
X11726667Y-14682243D01*
X11764762Y-14682243D01*
X11783809Y-14691767D01*
X11793333Y-14710814D01*
X11793333Y-14729862D01*
X11698095Y-14748909D01*
X11869524Y-14806052D02*
X11888571Y-14815576D01*
X11926667Y-14815576D01*
X11945714Y-14806052D01*
X11955238Y-14787005D01*
X11955238Y-14777481D01*
X11945714Y-14758433D01*
X11926667Y-14748909D01*
X11898095Y-14748909D01*
X11879048Y-14739386D01*
X11869524Y-14720338D01*
X11869524Y-14710814D01*
X11879048Y-14691767D01*
X11898095Y-14682243D01*
X11926667Y-14682243D01*
X11945714Y-14691767D01*
X12021905Y-14891767D02*
X12031428Y-14882243D01*
X12050476Y-14853671D01*
X12060000Y-14834624D01*
X12069524Y-14806052D01*
X12079048Y-14758433D01*
X12079048Y-14720338D01*
X12069524Y-14672719D01*
X12060000Y-14644148D01*
X12050476Y-14625100D01*
X12031428Y-14596528D01*
X12021905Y-14587005D01*
M02*
