%TF.GenerationSoftware,KiCad,Pcbnew,6.0.4+dfsg-1+b1*%
%TF.CreationDate,2022-05-28T20:55:50+05:00*%
%TF.ProjectId,evlamp,65766c61-6d70-42e6-9b69-6361645f7063,rev?*%
%TF.SameCoordinates,Original*%
%TF.FileFunction,Copper,L1,Top*%
%TF.FilePolarity,Positive*%
%FSLAX46Y46*%
G04 Gerber Fmt 4.6, Leading zero omitted, Abs format (unit mm)*
G04 Created by KiCad (PCBNEW 6.0.4+dfsg-1+b1) date 2022-05-28 20:55:50*
%MOMM*%
%LPD*%
G01*
G04 APERTURE LIST*
G04 Aperture macros list*
%AMRoundRect*
0 Rectangle with rounded corners*
0 $1 Rounding radius*
0 $2 $3 $4 $5 $6 $7 $8 $9 X,Y pos of 4 corners*
0 Add a 4 corners polygon primitive as box body*
4,1,4,$2,$3,$4,$5,$6,$7,$8,$9,$2,$3,0*
0 Add four circle primitives for the rounded corners*
1,1,$1+$1,$2,$3*
1,1,$1+$1,$4,$5*
1,1,$1+$1,$6,$7*
1,1,$1+$1,$8,$9*
0 Add four rect primitives between the rounded corners*
20,1,$1+$1,$2,$3,$4,$5,0*
20,1,$1+$1,$4,$5,$6,$7,0*
20,1,$1+$1,$6,$7,$8,$9,0*
20,1,$1+$1,$8,$9,$2,$3,0*%
G04 Aperture macros list end*
%TA.AperFunction,ComponentPad*%
%ADD10C,0.800000*%
%TD*%
%TA.AperFunction,ComponentPad*%
%ADD11C,5.000000*%
%TD*%
%TA.AperFunction,ComponentPad*%
%ADD12R,2.400000X1.600000*%
%TD*%
%TA.AperFunction,ComponentPad*%
%ADD13O,2.400000X1.600000*%
%TD*%
%TA.AperFunction,SMDPad,CuDef*%
%ADD14RoundRect,0.250000X0.337500X0.475000X-0.337500X0.475000X-0.337500X-0.475000X0.337500X-0.475000X0*%
%TD*%
%TA.AperFunction,ComponentPad*%
%ADD15R,3.000000X3.000000*%
%TD*%
%TA.AperFunction,ComponentPad*%
%ADD16C,3.000000*%
%TD*%
%TA.AperFunction,SMDPad,CuDef*%
%ADD17RoundRect,0.250000X-0.350000X-0.450000X0.350000X-0.450000X0.350000X0.450000X-0.350000X0.450000X0*%
%TD*%
%TA.AperFunction,SMDPad,CuDef*%
%ADD18RoundRect,0.250000X-0.450000X0.350000X-0.450000X-0.350000X0.450000X-0.350000X0.450000X0.350000X0*%
%TD*%
%TA.AperFunction,ComponentPad*%
%ADD19R,1.700000X1.700000*%
%TD*%
%TA.AperFunction,ComponentPad*%
%ADD20O,1.700000X1.700000*%
%TD*%
%TA.AperFunction,Conductor*%
%ADD21C,0.250000*%
%TD*%
G04 APERTURE END LIST*
D10*
%TO.P,REF\u002A\u002A,1*%
%TO.N,N/C*%
X77875825Y-127835175D03*
X75224175Y-130486825D03*
X78425000Y-129161000D03*
X77875825Y-130486825D03*
X76550000Y-127286000D03*
X74675000Y-129161000D03*
X76550000Y-131036000D03*
X75224175Y-127835175D03*
D11*
X76550000Y-129161000D03*
%TD*%
D12*
%TO.P,DD1,1,+3V3_OUT*%
%TO.N,+3V3*%
X82550000Y-72161000D03*
D13*
%TO.P,DD1,2,EN*%
%TO.N,Net-(C1-Pad2)*%
X82550000Y-74701000D03*
%TO.P,DD1,3,IO36/S_VP*%
%TO.N,unconnected-(DD1-Pad3)*%
X82550000Y-77241000D03*
%TO.P,DD1,4,IO39/S_VN*%
%TO.N,unconnected-(DD1-Pad4)*%
X82550000Y-79781000D03*
%TO.P,DD1,5,IO34*%
%TO.N,unconnected-(DD1-Pad5)*%
X82550000Y-82321000D03*
%TO.P,DD1,6,IO35*%
%TO.N,unconnected-(DD1-Pad6)*%
X82550000Y-84861000D03*
%TO.P,DD1,7,IO32*%
%TO.N,unconnected-(DD1-Pad7)*%
X82550000Y-87401000D03*
%TO.P,DD1,8,IO33*%
%TO.N,unconnected-(DD1-Pad8)*%
X82550000Y-89941000D03*
%TO.P,DD1,9,IO25*%
%TO.N,BTN_MAIN*%
X82550000Y-92481000D03*
%TO.P,DD1,10,IO26*%
%TO.N,BTN_UP*%
X82550000Y-95021000D03*
%TO.P,DD1,11,IO27*%
%TO.N,BTN_DOWN*%
X82550000Y-97561000D03*
%TO.P,DD1,12,IO14*%
%TO.N,unconnected-(DD1-Pad12)*%
X82550000Y-100101000D03*
%TO.P,DD1,13,IO12/MTDI*%
%TO.N,unconnected-(DD1-Pad13)*%
X82550000Y-102641000D03*
%TO.P,DD1,14,GND*%
%TO.N,GND*%
X82550000Y-105181000D03*
%TO.P,DD1,15,IO13*%
%TO.N,unconnected-(DD1-Pad15)*%
X82550000Y-107721000D03*
%TO.P,DD1,16,IO9/SHD/SD2*%
%TO.N,unconnected-(DD1-Pad16)*%
X82550000Y-110261000D03*
%TO.P,DD1,17,IO10/SWP/SD3*%
%TO.N,unconnected-(DD1-Pad17)*%
X82550000Y-112801000D03*
%TO.P,DD1,18,IO11/SCS/CMD*%
%TO.N,unconnected-(DD1-Pad18)*%
X82550000Y-115341000D03*
%TO.P,DD1,19,+5V*%
%TO.N,+5V*%
X82550000Y-117881000D03*
%TO.P,DD1,20,IO6/SCK/CLK*%
%TO.N,unconnected-(DD1-Pad20)*%
X107950000Y-117881000D03*
%TO.P,DD1,21,IO7/SDO/SD0*%
%TO.N,unconnected-(DD1-Pad21)*%
X107950000Y-115341000D03*
%TO.P,DD1,22,IO8/SDI/SD1*%
%TO.N,unconnected-(DD1-Pad22)*%
X107950000Y-112801000D03*
%TO.P,DD1,23,IO15/MTDO*%
%TO.N,DOUT5*%
X107950000Y-110261000D03*
%TO.P,DD1,24,IO2*%
%TO.N,DOUT4*%
X107950000Y-107721000D03*
%TO.P,DD1,25,IO0*%
%TO.N,BTN_RESET*%
X107950000Y-105181000D03*
%TO.P,DD1,26,IO4*%
%TO.N,DOUT3*%
X107950000Y-102641000D03*
%TO.P,DD1,27,IO16*%
%TO.N,DOUT2*%
X107950000Y-100101000D03*
%TO.P,DD1,28,IO17*%
%TO.N,DOUT1*%
X107950000Y-97561000D03*
%TO.P,DD1,29,IO5*%
%TO.N,DOUT0*%
X107950000Y-95021000D03*
%TO.P,DD1,30,IO18*%
%TO.N,unconnected-(DD1-Pad30)*%
X107950000Y-92481000D03*
%TO.P,DD1,31,IO19*%
%TO.N,unconnected-(DD1-Pad31)*%
X107950000Y-89941000D03*
%TO.P,DD1,32,GND*%
%TO.N,GND*%
X107950000Y-87401000D03*
%TO.P,DD1,33,IO21*%
%TO.N,unconnected-(DD1-Pad33)*%
X107950000Y-84861000D03*
%TO.P,DD1,34,IO3/RXD0*%
%TO.N,unconnected-(DD1-Pad34)*%
X107950000Y-82321000D03*
%TO.P,DD1,35,IO1/TXD0*%
%TO.N,unconnected-(DD1-Pad35)*%
X107950000Y-79781000D03*
%TO.P,DD1,36,IO22*%
%TO.N,DOUT6*%
X107950000Y-77241000D03*
%TO.P,DD1,37,IO23*%
%TO.N,DOUT7*%
X107950000Y-74701000D03*
%TO.P,DD1,38,GND*%
%TO.N,GND*%
X107950000Y-72161000D03*
%TD*%
D14*
%TO.P,C1,1,1*%
%TO.N,GND*%
X88308000Y-74701000D03*
%TO.P,C1,2,2*%
%TO.N,Net-(C1-Pad2)*%
X86233000Y-74701000D03*
%TD*%
D15*
%TO.P,X2,1*%
%TO.N,Net-(R2-Pad2)*%
X124090000Y-89941000D03*
D16*
%TO.P,X2,2*%
%TO.N,GND*%
X124090000Y-95021000D03*
%TD*%
D15*
%TO.P,X3,1*%
%TO.N,Net-(R3-Pad2)*%
X124090000Y-100101000D03*
D16*
%TO.P,X3,2*%
%TO.N,GND*%
X124090000Y-105181000D03*
%TD*%
D15*
%TO.P,X8,1*%
%TO.N,Net-(R8-Pad2)*%
X87630000Y-128524000D03*
D16*
%TO.P,X8,2*%
%TO.N,GND*%
X82550000Y-128524000D03*
%TD*%
D17*
%TO.P,R5,1,L*%
%TO.N,DOUT4*%
X112268000Y-107721000D03*
%TO.P,R5,2,R*%
%TO.N,Net-(R5-Pad2)*%
X114268000Y-107721000D03*
%TD*%
D10*
%TO.P,REF\u002A\u002A,1*%
%TO.N,N/C*%
X112675000Y-129161000D03*
X115875825Y-130486825D03*
X115875825Y-127835175D03*
X114550000Y-127286000D03*
X116425000Y-129161000D03*
X113224175Y-127835175D03*
D11*
X114550000Y-129161000D03*
D10*
X113224175Y-130486825D03*
X114550000Y-131036000D03*
%TD*%
D18*
%TO.P,R6,1,L*%
%TO.N,DOUT5*%
X103886000Y-110261000D03*
%TO.P,R6,2,R*%
%TO.N,Net-(R6-Pad2)*%
X103886000Y-112261000D03*
%TD*%
D19*
%TO.P,X9,1*%
%TO.N,+3V3*%
X74930000Y-92481000D03*
D20*
%TO.P,X9,2*%
%TO.N,BTN_UP*%
X74930000Y-95021000D03*
%TO.P,X9,3*%
%TO.N,GND*%
X74930000Y-97561000D03*
%TD*%
D10*
%TO.P,REF\u002A\u002A,1*%
%TO.N,N/C*%
X77875825Y-75486825D03*
X76550000Y-76036000D03*
X75224175Y-75486825D03*
X75224175Y-72835175D03*
D11*
X76550000Y-74161000D03*
D10*
X77875825Y-72835175D03*
X74675000Y-74161000D03*
X78425000Y-74161000D03*
X76550000Y-72286000D03*
%TD*%
D15*
%TO.P,X5,1*%
%TO.N,Net-(R5-Pad2)*%
X124090000Y-120421000D03*
D16*
%TO.P,X5,2*%
%TO.N,GND*%
X124090000Y-125501000D03*
%TD*%
D15*
%TO.P,X1,1*%
%TO.N,+5V*%
X124090000Y-74701000D03*
D16*
%TO.P,X1,2*%
%TO.N,Net-(R1-Pad2)*%
X124090000Y-79781000D03*
%TO.P,X1,3*%
%TO.N,GND*%
X124090000Y-84861000D03*
%TD*%
D18*
%TO.P,R7,1,L*%
%TO.N,DOUT6*%
X102362000Y-77241000D03*
%TO.P,R7,2,R*%
%TO.N,Net-(R7-Pad2)*%
X102362000Y-79241000D03*
%TD*%
D17*
%TO.P,R4,1,L*%
%TO.N,DOUT3*%
X112268000Y-102641000D03*
%TO.P,R4,2,R*%
%TO.N,Net-(R4-Pad2)*%
X114268000Y-102641000D03*
%TD*%
%TO.P,R3,1,L*%
%TO.N,DOUT2*%
X112268000Y-100101000D03*
%TO.P,R3,2,R*%
%TO.N,Net-(R3-Pad2)*%
X114268000Y-100101000D03*
%TD*%
%TO.P,R1,1,L*%
%TO.N,DOUT0*%
X112268000Y-95021000D03*
%TO.P,R1,2,R*%
%TO.N,Net-(R1-Pad2)*%
X114268000Y-95021000D03*
%TD*%
D19*
%TO.P,X11,1*%
%TO.N,+3V3*%
X74930000Y-82321000D03*
D20*
%TO.P,X11,2*%
%TO.N,BTN_MAIN*%
X74930000Y-84861000D03*
%TO.P,X11,3*%
%TO.N,GND*%
X74930000Y-87401000D03*
%TD*%
D17*
%TO.P,R2,1,L*%
%TO.N,DOUT1*%
X112268000Y-97561000D03*
%TO.P,R2,2,R*%
%TO.N,Net-(R2-Pad2)*%
X114268000Y-97561000D03*
%TD*%
D10*
%TO.P,REF\u002A\u002A,1*%
%TO.N,N/C*%
X113224175Y-72835175D03*
X112675000Y-74161000D03*
X114550000Y-76036000D03*
X115875825Y-72835175D03*
X114550000Y-72286000D03*
X113224175Y-75486825D03*
X116425000Y-74161000D03*
X115875825Y-75486825D03*
D11*
X114550000Y-74161000D03*
%TD*%
D19*
%TO.P,X10,1*%
%TO.N,+3V3*%
X74930000Y-102641000D03*
D20*
%TO.P,X10,2*%
%TO.N,BTN_DOWN*%
X74930000Y-105181000D03*
%TO.P,X10,3*%
%TO.N,GND*%
X74930000Y-107721000D03*
%TD*%
D15*
%TO.P,X7,1*%
%TO.N,Net-(R7-Pad2)*%
X97790000Y-128524000D03*
D16*
%TO.P,X7,2*%
%TO.N,GND*%
X92710000Y-128524000D03*
%TD*%
D15*
%TO.P,X4,1*%
%TO.N,Net-(R4-Pad2)*%
X124090000Y-110261000D03*
D16*
%TO.P,X4,2*%
%TO.N,GND*%
X124090000Y-115341000D03*
%TD*%
D15*
%TO.P,X6,1*%
%TO.N,Net-(R6-Pad2)*%
X107950000Y-128524000D03*
D16*
%TO.P,X6,2*%
%TO.N,GND*%
X102870000Y-128524000D03*
%TD*%
D18*
%TO.P,R8,1,L*%
%TO.N,DOUT7*%
X99060000Y-77241000D03*
%TO.P,R8,2,R*%
%TO.N,Net-(R8-Pad2)*%
X99060000Y-79241000D03*
%TD*%
D21*
%TO.N,Net-(C1-Pad2)*%
X86233000Y-74701000D02*
X82550000Y-74701000D01*
%TO.N,DOUT7*%
X101600000Y-74701000D02*
X107950000Y-74701000D01*
X99060000Y-77241000D02*
X101600000Y-74701000D01*
%TO.N,DOUT6*%
X102362000Y-77241000D02*
X107950000Y-77241000D01*
%TO.N,BTN_DOWN*%
X80493000Y-97561000D02*
X79248000Y-98806000D01*
X82550000Y-97561000D02*
X80493000Y-97561000D01*
X79248000Y-98806000D02*
X79248000Y-100863000D01*
X79248000Y-100863000D02*
X74930000Y-105181000D01*
%TO.N,BTN_UP*%
X74930000Y-95021000D02*
X82550000Y-95021000D01*
%TO.N,DOUT0*%
X107950000Y-95021000D02*
X112268000Y-95021000D01*
%TO.N,BTN_MAIN*%
X79248000Y-91186000D02*
X80543000Y-92481000D01*
X79248000Y-89179000D02*
X79248000Y-91186000D01*
X82550000Y-92481000D02*
X80543000Y-92481000D01*
X74930000Y-84861000D02*
X79248000Y-89179000D01*
%TO.N,DOUT1*%
X107950000Y-97561000D02*
X112268000Y-97561000D01*
%TO.N,DOUT2*%
X107950000Y-100101000D02*
X112268000Y-100101000D01*
%TO.N,DOUT3*%
X107950000Y-102641000D02*
X112268000Y-102641000D01*
%TO.N,DOUT4*%
X107950000Y-107721000D02*
X112268000Y-107721000D01*
%TO.N,DOUT5*%
X103886000Y-110261000D02*
X107950000Y-110261000D01*
%TO.N,Net-(R1-Pad2)*%
X114268000Y-95021000D02*
X114268000Y-89603000D01*
X114268000Y-89603000D02*
X124090000Y-79781000D01*
%TO.N,Net-(R2-Pad2)*%
X121888000Y-89941000D02*
X124090000Y-89941000D01*
X114268000Y-97561000D02*
X121888000Y-89941000D01*
%TO.N,Net-(R3-Pad2)*%
X114268000Y-100101000D02*
X124090000Y-100101000D01*
%TO.N,Net-(R4-Pad2)*%
X114268000Y-102641000D02*
X121888000Y-110261000D01*
X121888000Y-110261000D02*
X124090000Y-110261000D01*
%TO.N,Net-(R5-Pad2)*%
X114268000Y-110599000D02*
X114268000Y-107721000D01*
X124090000Y-120421000D02*
X114268000Y-110599000D01*
%TO.N,Net-(R6-Pad2)*%
X103886000Y-112261000D02*
X103886000Y-124460000D01*
X103886000Y-124460000D02*
X107950000Y-128524000D01*
%TO.N,Net-(R7-Pad2)*%
X102362000Y-79241000D02*
X97790000Y-83813000D01*
X97790000Y-83813000D02*
X97790000Y-128524000D01*
%TO.N,Net-(R8-Pad2)*%
X87630000Y-90671000D02*
X87630000Y-128524000D01*
X99060000Y-79241000D02*
X87630000Y-90671000D01*
%TD*%
%TA.AperFunction,Conductor*%
%TO.N,GND*%
G36*
X81121529Y-70689502D02*
G01*
X81168022Y-70743158D01*
X81178126Y-70813432D01*
X81148632Y-70878012D01*
X81113918Y-70906019D01*
X81111696Y-70907236D01*
X81103295Y-70910385D01*
X80986739Y-70997739D01*
X80899385Y-71114295D01*
X80848255Y-71250684D01*
X80841500Y-71312866D01*
X80841500Y-73009134D01*
X80848255Y-73071316D01*
X80899385Y-73207705D01*
X80986739Y-73324261D01*
X81103295Y-73411615D01*
X81239684Y-73462745D01*
X81250474Y-73463917D01*
X81252606Y-73464803D01*
X81255222Y-73465425D01*
X81255121Y-73465848D01*
X81316035Y-73491155D01*
X81356463Y-73549517D01*
X81358922Y-73620471D01*
X81322629Y-73681490D01*
X81313969Y-73688489D01*
X81310207Y-73691646D01*
X81305700Y-73694802D01*
X81143802Y-73856700D01*
X81012477Y-74044251D01*
X81010154Y-74049233D01*
X81010151Y-74049238D01*
X80925456Y-74230870D01*
X80915716Y-74251757D01*
X80914294Y-74257065D01*
X80914293Y-74257067D01*
X80864972Y-74441135D01*
X80856457Y-74472913D01*
X80836502Y-74701000D01*
X80856457Y-74929087D01*
X80857881Y-74934400D01*
X80857881Y-74934402D01*
X80900178Y-75092253D01*
X80915716Y-75150243D01*
X80918039Y-75155224D01*
X80918039Y-75155225D01*
X81010151Y-75352762D01*
X81010154Y-75352767D01*
X81012477Y-75357749D01*
X81143802Y-75545300D01*
X81305700Y-75707198D01*
X81310208Y-75710355D01*
X81310211Y-75710357D01*
X81388389Y-75765098D01*
X81493251Y-75838523D01*
X81498233Y-75840846D01*
X81498238Y-75840849D01*
X81532457Y-75856805D01*
X81585742Y-75903722D01*
X81605203Y-75971999D01*
X81584661Y-76039959D01*
X81532457Y-76085195D01*
X81498238Y-76101151D01*
X81498233Y-76101154D01*
X81493251Y-76103477D01*
X81436517Y-76143203D01*
X81310211Y-76231643D01*
X81310208Y-76231645D01*
X81305700Y-76234802D01*
X81143802Y-76396700D01*
X81140645Y-76401208D01*
X81140643Y-76401211D01*
X81113975Y-76439297D01*
X81012477Y-76584251D01*
X81010154Y-76589233D01*
X81010151Y-76589238D01*
X80954245Y-76709131D01*
X80915716Y-76791757D01*
X80914294Y-76797065D01*
X80914293Y-76797067D01*
X80888990Y-76891499D01*
X80856457Y-77012913D01*
X80836502Y-77241000D01*
X80856457Y-77469087D01*
X80915716Y-77690243D01*
X80918039Y-77695224D01*
X80918039Y-77695225D01*
X81010151Y-77892762D01*
X81010154Y-77892767D01*
X81012477Y-77897749D01*
X81038129Y-77934384D01*
X81133454Y-78070521D01*
X81143802Y-78085300D01*
X81305700Y-78247198D01*
X81310208Y-78250355D01*
X81310211Y-78250357D01*
X81335314Y-78267934D01*
X81493251Y-78378523D01*
X81498233Y-78380846D01*
X81498238Y-78380849D01*
X81532457Y-78396805D01*
X81585742Y-78443722D01*
X81605203Y-78511999D01*
X81584661Y-78579959D01*
X81532457Y-78625195D01*
X81498238Y-78641151D01*
X81498233Y-78641154D01*
X81493251Y-78643477D01*
X81388739Y-78716657D01*
X81310211Y-78771643D01*
X81310208Y-78771645D01*
X81305700Y-78774802D01*
X81143802Y-78936700D01*
X81140645Y-78941208D01*
X81140643Y-78941211D01*
X81085902Y-79019389D01*
X81012477Y-79124251D01*
X81010154Y-79129233D01*
X81010151Y-79129238D01*
X80918039Y-79326775D01*
X80915716Y-79331757D01*
X80914294Y-79337065D01*
X80914293Y-79337067D01*
X80868551Y-79507778D01*
X80856457Y-79552913D01*
X80836502Y-79781000D01*
X80856457Y-80009087D01*
X80857881Y-80014400D01*
X80857881Y-80014402D01*
X80905826Y-80193332D01*
X80915716Y-80230243D01*
X80918039Y-80235224D01*
X80918039Y-80235225D01*
X81010151Y-80432762D01*
X81010154Y-80432767D01*
X81012477Y-80437749D01*
X81143802Y-80625300D01*
X81305700Y-80787198D01*
X81310208Y-80790355D01*
X81310211Y-80790357D01*
X81388389Y-80845098D01*
X81493251Y-80918523D01*
X81498233Y-80920846D01*
X81498238Y-80920849D01*
X81532457Y-80936805D01*
X81585742Y-80983722D01*
X81605203Y-81051999D01*
X81584661Y-81119959D01*
X81532457Y-81165195D01*
X81498238Y-81181151D01*
X81498233Y-81181154D01*
X81493251Y-81183477D01*
X81445220Y-81217109D01*
X81310211Y-81311643D01*
X81310208Y-81311645D01*
X81305700Y-81314802D01*
X81143802Y-81476700D01*
X81012477Y-81664251D01*
X81010154Y-81669233D01*
X81010151Y-81669238D01*
X80953202Y-81791367D01*
X80915716Y-81871757D01*
X80856457Y-82092913D01*
X80836502Y-82321000D01*
X80856457Y-82549087D01*
X80915716Y-82770243D01*
X80918039Y-82775224D01*
X80918039Y-82775225D01*
X81010151Y-82972762D01*
X81010154Y-82972767D01*
X81012477Y-82977749D01*
X81143802Y-83165300D01*
X81305700Y-83327198D01*
X81310208Y-83330355D01*
X81310211Y-83330357D01*
X81371816Y-83373493D01*
X81493251Y-83458523D01*
X81498233Y-83460846D01*
X81498238Y-83460849D01*
X81532457Y-83476805D01*
X81585742Y-83523722D01*
X81605203Y-83591999D01*
X81584661Y-83659959D01*
X81532457Y-83705195D01*
X81498238Y-83721151D01*
X81498233Y-83721154D01*
X81493251Y-83723477D01*
X81394044Y-83792943D01*
X81310211Y-83851643D01*
X81310208Y-83851645D01*
X81305700Y-83854802D01*
X81143802Y-84016700D01*
X81140645Y-84021208D01*
X81140643Y-84021211D01*
X81113852Y-84059473D01*
X81012477Y-84204251D01*
X81010154Y-84209233D01*
X81010151Y-84209238D01*
X80927908Y-84385610D01*
X80915716Y-84411757D01*
X80914294Y-84417065D01*
X80914293Y-84417067D01*
X80862407Y-84610707D01*
X80856457Y-84632913D01*
X80836502Y-84861000D01*
X80856457Y-85089087D01*
X80857881Y-85094400D01*
X80857881Y-85094402D01*
X80905851Y-85273425D01*
X80915716Y-85310243D01*
X80918039Y-85315224D01*
X80918039Y-85315225D01*
X81010151Y-85512762D01*
X81010154Y-85512767D01*
X81012477Y-85517749D01*
X81015634Y-85522257D01*
X81136469Y-85694827D01*
X81143802Y-85705300D01*
X81305700Y-85867198D01*
X81310208Y-85870355D01*
X81310211Y-85870357D01*
X81336949Y-85889079D01*
X81493251Y-85998523D01*
X81498233Y-86000846D01*
X81498238Y-86000849D01*
X81532457Y-86016805D01*
X81585742Y-86063722D01*
X81605203Y-86131999D01*
X81584661Y-86199959D01*
X81532457Y-86245195D01*
X81498238Y-86261151D01*
X81498233Y-86261154D01*
X81493251Y-86263477D01*
X81388389Y-86336902D01*
X81310211Y-86391643D01*
X81310208Y-86391645D01*
X81305700Y-86394802D01*
X81143802Y-86556700D01*
X81012477Y-86744251D01*
X81010154Y-86749233D01*
X81010151Y-86749238D01*
X80953435Y-86870867D01*
X80915716Y-86951757D01*
X80914294Y-86957065D01*
X80914293Y-86957067D01*
X80863400Y-87147000D01*
X80856457Y-87172913D01*
X80836502Y-87401000D01*
X80856457Y-87629087D01*
X80857881Y-87634400D01*
X80857881Y-87634402D01*
X80867143Y-87668966D01*
X80915716Y-87850243D01*
X80918039Y-87855224D01*
X80918039Y-87855225D01*
X81010151Y-88052762D01*
X81010154Y-88052767D01*
X81012477Y-88057749D01*
X81143802Y-88245300D01*
X81305700Y-88407198D01*
X81310208Y-88410355D01*
X81310211Y-88410357D01*
X81388389Y-88465098D01*
X81493251Y-88538523D01*
X81498233Y-88540846D01*
X81498238Y-88540849D01*
X81532457Y-88556805D01*
X81585742Y-88603722D01*
X81605203Y-88671999D01*
X81584661Y-88739959D01*
X81532457Y-88785195D01*
X81498238Y-88801151D01*
X81498233Y-88801154D01*
X81493251Y-88803477D01*
X81388389Y-88876902D01*
X81310211Y-88931643D01*
X81310208Y-88931645D01*
X81305700Y-88934802D01*
X81143802Y-89096700D01*
X81140645Y-89101208D01*
X81140643Y-89101211D01*
X81114082Y-89139144D01*
X81012477Y-89284251D01*
X81010154Y-89289233D01*
X81010151Y-89289238D01*
X80925456Y-89470870D01*
X80915716Y-89491757D01*
X80914294Y-89497065D01*
X80914293Y-89497067D01*
X80857881Y-89707598D01*
X80856457Y-89712913D01*
X80836502Y-89941000D01*
X80856457Y-90169087D01*
X80857881Y-90174400D01*
X80857881Y-90174402D01*
X80897462Y-90322117D01*
X80915716Y-90390243D01*
X80918039Y-90395224D01*
X80918039Y-90395225D01*
X81010151Y-90592762D01*
X81010154Y-90592767D01*
X81012477Y-90597749D01*
X81143802Y-90785300D01*
X81305700Y-90947198D01*
X81310208Y-90950355D01*
X81310211Y-90950357D01*
X81360535Y-90985594D01*
X81493251Y-91078523D01*
X81498233Y-91080846D01*
X81498238Y-91080849D01*
X81532457Y-91096805D01*
X81585742Y-91143722D01*
X81605203Y-91211999D01*
X81584661Y-91279959D01*
X81532457Y-91325195D01*
X81498238Y-91341151D01*
X81498233Y-91341154D01*
X81493251Y-91343477D01*
X81445220Y-91377109D01*
X81310211Y-91471643D01*
X81310208Y-91471645D01*
X81305700Y-91474802D01*
X81143802Y-91636700D01*
X81140645Y-91641208D01*
X81140643Y-91641211D01*
X81033819Y-91793771D01*
X80978362Y-91838099D01*
X80930606Y-91847500D01*
X80857595Y-91847500D01*
X80789474Y-91827498D01*
X80768499Y-91810595D01*
X79918404Y-90960499D01*
X79884379Y-90898187D01*
X79881500Y-90871404D01*
X79881500Y-89257767D01*
X79882027Y-89246584D01*
X79883702Y-89239091D01*
X79881562Y-89171014D01*
X79881500Y-89167055D01*
X79881500Y-89139144D01*
X79880995Y-89135144D01*
X79880062Y-89123301D01*
X79879676Y-89111000D01*
X79878673Y-89079110D01*
X79873022Y-89059658D01*
X79869014Y-89040306D01*
X79867467Y-89028063D01*
X79866474Y-89020203D01*
X79863556Y-89012832D01*
X79850200Y-88979097D01*
X79846355Y-88967870D01*
X79845721Y-88965687D01*
X79834018Y-88925407D01*
X79829984Y-88918585D01*
X79829981Y-88918579D01*
X79823706Y-88907968D01*
X79815010Y-88890218D01*
X79810472Y-88878756D01*
X79810469Y-88878751D01*
X79807552Y-88871383D01*
X79781573Y-88835625D01*
X79775057Y-88825707D01*
X79756575Y-88794457D01*
X79752542Y-88787637D01*
X79738218Y-88773313D01*
X79725376Y-88758278D01*
X79713472Y-88741893D01*
X79679406Y-88713711D01*
X79670627Y-88705722D01*
X76281218Y-85316313D01*
X76247192Y-85254001D01*
X76249755Y-85190589D01*
X76255532Y-85171577D01*
X76262370Y-85149069D01*
X76291529Y-84927590D01*
X76293156Y-84861000D01*
X76274852Y-84638361D01*
X76220431Y-84421702D01*
X76131354Y-84216840D01*
X76039855Y-84075404D01*
X76012822Y-84033617D01*
X76012820Y-84033614D01*
X76010014Y-84029277D01*
X75995024Y-84012803D01*
X75862798Y-83867488D01*
X75831746Y-83803642D01*
X75840141Y-83733143D01*
X75885317Y-83678375D01*
X75911761Y-83664706D01*
X76018297Y-83624767D01*
X76026705Y-83621615D01*
X76143261Y-83534261D01*
X76230615Y-83417705D01*
X76281745Y-83281316D01*
X76288500Y-83219134D01*
X76288500Y-81422866D01*
X76281745Y-81360684D01*
X76230615Y-81224295D01*
X76143261Y-81107739D01*
X76026705Y-81020385D01*
X75890316Y-80969255D01*
X75828134Y-80962500D01*
X74031866Y-80962500D01*
X73969684Y-80969255D01*
X73833295Y-81020385D01*
X73716739Y-81107739D01*
X73629385Y-81224295D01*
X73578255Y-81360684D01*
X73571500Y-81422866D01*
X73571500Y-83219134D01*
X73578255Y-83281316D01*
X73629385Y-83417705D01*
X73716739Y-83534261D01*
X73833295Y-83621615D01*
X73841704Y-83624767D01*
X73841705Y-83624768D01*
X73950451Y-83665535D01*
X74007216Y-83708176D01*
X74031916Y-83774738D01*
X74016709Y-83844087D01*
X73997316Y-83870568D01*
X73870629Y-84003138D01*
X73867715Y-84007410D01*
X73867714Y-84007411D01*
X73858300Y-84021211D01*
X73744743Y-84187680D01*
X73729003Y-84221590D01*
X73681492Y-84323944D01*
X73650688Y-84390305D01*
X73590989Y-84605570D01*
X73567251Y-84827695D01*
X73567548Y-84832848D01*
X73567548Y-84832851D01*
X73573011Y-84927590D01*
X73580110Y-85050715D01*
X73581247Y-85055761D01*
X73581248Y-85055767D01*
X73589955Y-85094402D01*
X73629222Y-85268639D01*
X73713266Y-85475616D01*
X73829987Y-85666088D01*
X73976250Y-85834938D01*
X74148126Y-85977632D01*
X74215163Y-86016805D01*
X74221955Y-86020774D01*
X74270679Y-86072412D01*
X74283750Y-86142195D01*
X74257019Y-86207967D01*
X74216562Y-86241327D01*
X74208457Y-86245546D01*
X74199738Y-86251036D01*
X74029433Y-86378905D01*
X74021726Y-86385748D01*
X73874590Y-86539717D01*
X73868104Y-86547727D01*
X73748098Y-86723649D01*
X73743000Y-86732623D01*
X73653338Y-86925783D01*
X73649775Y-86935470D01*
X73594389Y-87135183D01*
X73595912Y-87143607D01*
X73608292Y-87147000D01*
X76266459Y-87147000D01*
X76266459Y-87151775D01*
X76303133Y-87151792D01*
X76356673Y-87183577D01*
X78577595Y-89404499D01*
X78611621Y-89466811D01*
X78614500Y-89493594D01*
X78614500Y-91107233D01*
X78613973Y-91118416D01*
X78612298Y-91125909D01*
X78612547Y-91133835D01*
X78612547Y-91133836D01*
X78614438Y-91193986D01*
X78614500Y-91197945D01*
X78614500Y-91225856D01*
X78614997Y-91229790D01*
X78614997Y-91229791D01*
X78615005Y-91229856D01*
X78615938Y-91241693D01*
X78617327Y-91285889D01*
X78622978Y-91305339D01*
X78626987Y-91324700D01*
X78629526Y-91344797D01*
X78632445Y-91352168D01*
X78632445Y-91352170D01*
X78645804Y-91385912D01*
X78649649Y-91397142D01*
X78661982Y-91439593D01*
X78666015Y-91446412D01*
X78666017Y-91446417D01*
X78672293Y-91457028D01*
X78680988Y-91474776D01*
X78688448Y-91493617D01*
X78693110Y-91500033D01*
X78693110Y-91500034D01*
X78714436Y-91529387D01*
X78720952Y-91539307D01*
X78743458Y-91577362D01*
X78757779Y-91591683D01*
X78770619Y-91606716D01*
X78782528Y-91623107D01*
X78798959Y-91636700D01*
X78816605Y-91651298D01*
X78825384Y-91659288D01*
X80039343Y-92873247D01*
X80046887Y-92881537D01*
X80051000Y-92888018D01*
X80056777Y-92893443D01*
X80100667Y-92934658D01*
X80103509Y-92937413D01*
X80123231Y-92957135D01*
X80126355Y-92959558D01*
X80126359Y-92959562D01*
X80126424Y-92959612D01*
X80135445Y-92967317D01*
X80167679Y-92997586D01*
X80174627Y-93001405D01*
X80174629Y-93001407D01*
X80185432Y-93007346D01*
X80201959Y-93018202D01*
X80211698Y-93025757D01*
X80211700Y-93025758D01*
X80217960Y-93030614D01*
X80258540Y-93048174D01*
X80269188Y-93053391D01*
X80269327Y-93053467D01*
X80307940Y-93074695D01*
X80315616Y-93076666D01*
X80315619Y-93076667D01*
X80327562Y-93079733D01*
X80346267Y-93086137D01*
X80364855Y-93094181D01*
X80372678Y-93095420D01*
X80372688Y-93095423D01*
X80408524Y-93101099D01*
X80420144Y-93103505D01*
X80455289Y-93112528D01*
X80462970Y-93114500D01*
X80483224Y-93114500D01*
X80502934Y-93116051D01*
X80522943Y-93119220D01*
X80530835Y-93118474D01*
X80566961Y-93115059D01*
X80578819Y-93114500D01*
X80930606Y-93114500D01*
X80998727Y-93134502D01*
X81033819Y-93168229D01*
X81081010Y-93235624D01*
X81143802Y-93325300D01*
X81305700Y-93487198D01*
X81310208Y-93490355D01*
X81310211Y-93490357D01*
X81388389Y-93545098D01*
X81493251Y-93618523D01*
X81498233Y-93620846D01*
X81498238Y-93620849D01*
X81532457Y-93636805D01*
X81585742Y-93683722D01*
X81605203Y-93751999D01*
X81584661Y-93819959D01*
X81532457Y-93865195D01*
X81498238Y-93881151D01*
X81498233Y-93881154D01*
X81493251Y-93883477D01*
X81479447Y-93893143D01*
X81310211Y-94011643D01*
X81310208Y-94011645D01*
X81305700Y-94014802D01*
X81143802Y-94176700D01*
X81140645Y-94181208D01*
X81140643Y-94181211D01*
X81033819Y-94333771D01*
X80978362Y-94378099D01*
X80930606Y-94387500D01*
X76206805Y-94387500D01*
X76138684Y-94367498D01*
X76101013Y-94329940D01*
X76012822Y-94193617D01*
X76012820Y-94193614D01*
X76010014Y-94189277D01*
X76002675Y-94181211D01*
X75862798Y-94027488D01*
X75831746Y-93963642D01*
X75840141Y-93893143D01*
X75885317Y-93838375D01*
X75911761Y-93824706D01*
X76018297Y-93784767D01*
X76026705Y-93781615D01*
X76143261Y-93694261D01*
X76230615Y-93577705D01*
X76281745Y-93441316D01*
X76288500Y-93379134D01*
X76288500Y-91582866D01*
X76281745Y-91520684D01*
X76230615Y-91384295D01*
X76143261Y-91267739D01*
X76026705Y-91180385D01*
X75890316Y-91129255D01*
X75828134Y-91122500D01*
X74031866Y-91122500D01*
X73969684Y-91129255D01*
X73833295Y-91180385D01*
X73716739Y-91267739D01*
X73629385Y-91384295D01*
X73578255Y-91520684D01*
X73571500Y-91582866D01*
X73571500Y-93379134D01*
X73578255Y-93441316D01*
X73629385Y-93577705D01*
X73716739Y-93694261D01*
X73833295Y-93781615D01*
X73841704Y-93784767D01*
X73841705Y-93784768D01*
X73950451Y-93825535D01*
X74007216Y-93868176D01*
X74031916Y-93934738D01*
X74016709Y-94004087D01*
X73997316Y-94030568D01*
X73934165Y-94096652D01*
X73870629Y-94163138D01*
X73867715Y-94167410D01*
X73867714Y-94167411D01*
X73859178Y-94179925D01*
X73744743Y-94347680D01*
X73730623Y-94378099D01*
X73662961Y-94523866D01*
X73650688Y-94550305D01*
X73590989Y-94765570D01*
X73567251Y-94987695D01*
X73567548Y-94992848D01*
X73567548Y-94992851D01*
X73569910Y-95033812D01*
X73580110Y-95210715D01*
X73581247Y-95215761D01*
X73581248Y-95215767D01*
X73589505Y-95252405D01*
X73629222Y-95428639D01*
X73713266Y-95635616D01*
X73829987Y-95826088D01*
X73976250Y-95994938D01*
X74148126Y-96137632D01*
X74190768Y-96162550D01*
X74221955Y-96180774D01*
X74270679Y-96232412D01*
X74283750Y-96302195D01*
X74257019Y-96367967D01*
X74216562Y-96401327D01*
X74208457Y-96405546D01*
X74199738Y-96411036D01*
X74029433Y-96538905D01*
X74021726Y-96545748D01*
X73874590Y-96699717D01*
X73868104Y-96707727D01*
X73748098Y-96883649D01*
X73743000Y-96892623D01*
X73653338Y-97085783D01*
X73649775Y-97095470D01*
X73594389Y-97295183D01*
X73595912Y-97303607D01*
X73608292Y-97307000D01*
X76248344Y-97307000D01*
X76261875Y-97303027D01*
X76263180Y-97293947D01*
X76221214Y-97126875D01*
X76217894Y-97117124D01*
X76132972Y-96921814D01*
X76128105Y-96912739D01*
X76012426Y-96733926D01*
X76006136Y-96725757D01*
X75862806Y-96568240D01*
X75855273Y-96561215D01*
X75688139Y-96429222D01*
X75679556Y-96423520D01*
X75642602Y-96403120D01*
X75592631Y-96352687D01*
X75577859Y-96283245D01*
X75602975Y-96216839D01*
X75630327Y-96190232D01*
X75669136Y-96162550D01*
X75809860Y-96062173D01*
X75841788Y-96030357D01*
X75964435Y-95908137D01*
X75968096Y-95904489D01*
X75998574Y-95862075D01*
X76095435Y-95727277D01*
X76098453Y-95723077D01*
X76100746Y-95718437D01*
X76102446Y-95715608D01*
X76154674Y-95667518D01*
X76210451Y-95654500D01*
X80930606Y-95654500D01*
X80998727Y-95674502D01*
X81033819Y-95708229D01*
X81140643Y-95860789D01*
X81143802Y-95865300D01*
X81305700Y-96027198D01*
X81310208Y-96030355D01*
X81310211Y-96030357D01*
X81388389Y-96085098D01*
X81493251Y-96158523D01*
X81498233Y-96160846D01*
X81498238Y-96160849D01*
X81532457Y-96176805D01*
X81585742Y-96223722D01*
X81605203Y-96291999D01*
X81584661Y-96359959D01*
X81532457Y-96405195D01*
X81498238Y-96421151D01*
X81498233Y-96421154D01*
X81493251Y-96423477D01*
X81388389Y-96496902D01*
X81310211Y-96551643D01*
X81310208Y-96551645D01*
X81305700Y-96554802D01*
X81143802Y-96716700D01*
X81140645Y-96721208D01*
X81140643Y-96721211D01*
X81033819Y-96873771D01*
X80978362Y-96918099D01*
X80930606Y-96927500D01*
X80571767Y-96927500D01*
X80560584Y-96926973D01*
X80553091Y-96925298D01*
X80545165Y-96925547D01*
X80545164Y-96925547D01*
X80485001Y-96927438D01*
X80481043Y-96927500D01*
X80453144Y-96927500D01*
X80449154Y-96928004D01*
X80437320Y-96928936D01*
X80393111Y-96930326D01*
X80385497Y-96932538D01*
X80385492Y-96932539D01*
X80373659Y-96935977D01*
X80354296Y-96939988D01*
X80334203Y-96942526D01*
X80326836Y-96945443D01*
X80326831Y-96945444D01*
X80293092Y-96958802D01*
X80281865Y-96962646D01*
X80239407Y-96974982D01*
X80232581Y-96979019D01*
X80221972Y-96985293D01*
X80204224Y-96993988D01*
X80185383Y-97001448D01*
X80178967Y-97006110D01*
X80178966Y-97006110D01*
X80149613Y-97027436D01*
X80139693Y-97033952D01*
X80108465Y-97052420D01*
X80108462Y-97052422D01*
X80101638Y-97056458D01*
X80087317Y-97070779D01*
X80072284Y-97083619D01*
X80055893Y-97095528D01*
X80038027Y-97117124D01*
X80027702Y-97129605D01*
X80019712Y-97138384D01*
X78855747Y-98302348D01*
X78847461Y-98309888D01*
X78840982Y-98314000D01*
X78835557Y-98319777D01*
X78794357Y-98363651D01*
X78791602Y-98366493D01*
X78771865Y-98386230D01*
X78769385Y-98389427D01*
X78761682Y-98398447D01*
X78731414Y-98430679D01*
X78727595Y-98437625D01*
X78727593Y-98437628D01*
X78721652Y-98448434D01*
X78710801Y-98464953D01*
X78698386Y-98480959D01*
X78695241Y-98488228D01*
X78695238Y-98488232D01*
X78680826Y-98521537D01*
X78675609Y-98532187D01*
X78654305Y-98570940D01*
X78652334Y-98578615D01*
X78652334Y-98578616D01*
X78649267Y-98590562D01*
X78642863Y-98609266D01*
X78641104Y-98613332D01*
X78634819Y-98627855D01*
X78633580Y-98635678D01*
X78633577Y-98635688D01*
X78627901Y-98671524D01*
X78625495Y-98683144D01*
X78616853Y-98716805D01*
X78614500Y-98725970D01*
X78614500Y-98746224D01*
X78612949Y-98765934D01*
X78609780Y-98785943D01*
X78610526Y-98793835D01*
X78613941Y-98829961D01*
X78614500Y-98841819D01*
X78614500Y-100548405D01*
X78594498Y-100616526D01*
X78577595Y-100637500D01*
X76503595Y-102711500D01*
X76441283Y-102745526D01*
X76370468Y-102740461D01*
X76313632Y-102697914D01*
X76288821Y-102631394D01*
X76288500Y-102622405D01*
X76288500Y-101742866D01*
X76281745Y-101680684D01*
X76230615Y-101544295D01*
X76143261Y-101427739D01*
X76026705Y-101340385D01*
X75890316Y-101289255D01*
X75828134Y-101282500D01*
X74031866Y-101282500D01*
X73969684Y-101289255D01*
X73833295Y-101340385D01*
X73716739Y-101427739D01*
X73629385Y-101544295D01*
X73578255Y-101680684D01*
X73571500Y-101742866D01*
X73571500Y-103539134D01*
X73578255Y-103601316D01*
X73629385Y-103737705D01*
X73716739Y-103854261D01*
X73833295Y-103941615D01*
X73841704Y-103944767D01*
X73841705Y-103944768D01*
X73950451Y-103985535D01*
X74007216Y-104028176D01*
X74031916Y-104094738D01*
X74016709Y-104164087D01*
X73997316Y-104190568D01*
X73870629Y-104323138D01*
X73867715Y-104327410D01*
X73867714Y-104327411D01*
X73858300Y-104341211D01*
X73744743Y-104507680D01*
X73742564Y-104512375D01*
X73681492Y-104643944D01*
X73650688Y-104710305D01*
X73590989Y-104925570D01*
X73567251Y-105147695D01*
X73567548Y-105152848D01*
X73567548Y-105152851D01*
X73573011Y-105247590D01*
X73580110Y-105370715D01*
X73581247Y-105375761D01*
X73581248Y-105375767D01*
X73601119Y-105463939D01*
X73629222Y-105588639D01*
X73713266Y-105795616D01*
X73829987Y-105986088D01*
X73976250Y-106154938D01*
X74148126Y-106297632D01*
X74214691Y-106336529D01*
X74221955Y-106340774D01*
X74270679Y-106392412D01*
X74283750Y-106462195D01*
X74257019Y-106527967D01*
X74216562Y-106561327D01*
X74208457Y-106565546D01*
X74199738Y-106571036D01*
X74029433Y-106698905D01*
X74021726Y-106705748D01*
X73874590Y-106859717D01*
X73868104Y-106867727D01*
X73748098Y-107043649D01*
X73743000Y-107052623D01*
X73653338Y-107245783D01*
X73649775Y-107255470D01*
X73594389Y-107455183D01*
X73595912Y-107463607D01*
X73608292Y-107467000D01*
X76248344Y-107467000D01*
X76261875Y-107463027D01*
X76263180Y-107453947D01*
X76221214Y-107286875D01*
X76217894Y-107277124D01*
X76132972Y-107081814D01*
X76128105Y-107072739D01*
X76012426Y-106893926D01*
X76006136Y-106885757D01*
X75862806Y-106728240D01*
X75855273Y-106721215D01*
X75688139Y-106589222D01*
X75679556Y-106583520D01*
X75642602Y-106563120D01*
X75592631Y-106512687D01*
X75577859Y-106443245D01*
X75602975Y-106376839D01*
X75630327Y-106350232D01*
X75653797Y-106333491D01*
X75809860Y-106222173D01*
X75841788Y-106190357D01*
X75964435Y-106068137D01*
X75968096Y-106064489D01*
X75999498Y-106020789D01*
X76095435Y-105887277D01*
X76098453Y-105883077D01*
X76118628Y-105842257D01*
X76195136Y-105687453D01*
X76195137Y-105687451D01*
X76197430Y-105682811D01*
X76262370Y-105469069D01*
X76291529Y-105247590D01*
X76293156Y-105181000D01*
X76274852Y-104958361D01*
X76246821Y-104846765D01*
X76249625Y-104775823D01*
X76279930Y-104726974D01*
X79640247Y-101366657D01*
X79648537Y-101359113D01*
X79655018Y-101355000D01*
X79701659Y-101305332D01*
X79704413Y-101302491D01*
X79724134Y-101282770D01*
X79726612Y-101279575D01*
X79734318Y-101270553D01*
X79752284Y-101251421D01*
X79764586Y-101238321D01*
X79774346Y-101220568D01*
X79785199Y-101204045D01*
X79792753Y-101194306D01*
X79797613Y-101188041D01*
X79815176Y-101147457D01*
X79820383Y-101136827D01*
X79841695Y-101098060D01*
X79843666Y-101090383D01*
X79843668Y-101090378D01*
X79846732Y-101078442D01*
X79853138Y-101059730D01*
X79858033Y-101048419D01*
X79861181Y-101041145D01*
X79862421Y-101033317D01*
X79862423Y-101033310D01*
X79868099Y-100997476D01*
X79870505Y-100985856D01*
X79879528Y-100950711D01*
X79879528Y-100950710D01*
X79881500Y-100943030D01*
X79881500Y-100922776D01*
X79883051Y-100903065D01*
X79884980Y-100890886D01*
X79886220Y-100883057D01*
X79882059Y-100839038D01*
X79881500Y-100827181D01*
X79881500Y-99120595D01*
X79901502Y-99052474D01*
X79918405Y-99031499D01*
X80718501Y-98231404D01*
X80780813Y-98197379D01*
X80807596Y-98194500D01*
X80930606Y-98194500D01*
X80998727Y-98214502D01*
X81033819Y-98248229D01*
X81139005Y-98398449D01*
X81143802Y-98405300D01*
X81305700Y-98567198D01*
X81310208Y-98570355D01*
X81310211Y-98570357D01*
X81381937Y-98620580D01*
X81493251Y-98698523D01*
X81498233Y-98700846D01*
X81498238Y-98700849D01*
X81532457Y-98716805D01*
X81585742Y-98763722D01*
X81605203Y-98831999D01*
X81584661Y-98899959D01*
X81532457Y-98945195D01*
X81498238Y-98961151D01*
X81498233Y-98961154D01*
X81493251Y-98963477D01*
X81396106Y-99031499D01*
X81310211Y-99091643D01*
X81310208Y-99091645D01*
X81305700Y-99094802D01*
X81143802Y-99256700D01*
X81012477Y-99444251D01*
X81010154Y-99449233D01*
X81010151Y-99449238D01*
X80918039Y-99646775D01*
X80915716Y-99651757D01*
X80856457Y-99872913D01*
X80836502Y-100101000D01*
X80856457Y-100329087D01*
X80915716Y-100550243D01*
X80918039Y-100555224D01*
X80918039Y-100555225D01*
X81010151Y-100752762D01*
X81010154Y-100752767D01*
X81012477Y-100757749D01*
X81061094Y-100827181D01*
X81136661Y-100935101D01*
X81143802Y-100945300D01*
X81305700Y-101107198D01*
X81310208Y-101110355D01*
X81310211Y-101110357D01*
X81388389Y-101165098D01*
X81493251Y-101238523D01*
X81498233Y-101240846D01*
X81498238Y-101240849D01*
X81532457Y-101256805D01*
X81585742Y-101303722D01*
X81605203Y-101371999D01*
X81584661Y-101439959D01*
X81532457Y-101485195D01*
X81498238Y-101501151D01*
X81498233Y-101501154D01*
X81493251Y-101503477D01*
X81445220Y-101537109D01*
X81310211Y-101631643D01*
X81310208Y-101631645D01*
X81305700Y-101634802D01*
X81143802Y-101796700D01*
X81012477Y-101984251D01*
X81010154Y-101989233D01*
X81010151Y-101989238D01*
X80956825Y-102103598D01*
X80915716Y-102191757D01*
X80856457Y-102412913D01*
X80836502Y-102641000D01*
X80856457Y-102869087D01*
X80857881Y-102874400D01*
X80857881Y-102874402D01*
X80862195Y-102890500D01*
X80915716Y-103090243D01*
X80918039Y-103095224D01*
X80918039Y-103095225D01*
X81010151Y-103292762D01*
X81010154Y-103292767D01*
X81012477Y-103297749D01*
X81143802Y-103485300D01*
X81305700Y-103647198D01*
X81310208Y-103650355D01*
X81310211Y-103650357D01*
X81388389Y-103705098D01*
X81493251Y-103778523D01*
X81498233Y-103780846D01*
X81498238Y-103780849D01*
X81533049Y-103797081D01*
X81586334Y-103843998D01*
X81605795Y-103912275D01*
X81585253Y-103980235D01*
X81533049Y-104025471D01*
X81498489Y-104041586D01*
X81488993Y-104047069D01*
X81310533Y-104172028D01*
X81302125Y-104179084D01*
X81148084Y-104333125D01*
X81141028Y-104341533D01*
X81016069Y-104519993D01*
X81010586Y-104529489D01*
X80918510Y-104726947D01*
X80914764Y-104737239D01*
X80868606Y-104909503D01*
X80868942Y-104923599D01*
X80876884Y-104927000D01*
X84217967Y-104927000D01*
X84231498Y-104923027D01*
X84232727Y-104914478D01*
X84185236Y-104737239D01*
X84181490Y-104726947D01*
X84089414Y-104529489D01*
X84083931Y-104519993D01*
X83958972Y-104341533D01*
X83951916Y-104333125D01*
X83797875Y-104179084D01*
X83789467Y-104172028D01*
X83611007Y-104047069D01*
X83601511Y-104041586D01*
X83566951Y-104025471D01*
X83513666Y-103978554D01*
X83494205Y-103910277D01*
X83514747Y-103842317D01*
X83566951Y-103797081D01*
X83601762Y-103780849D01*
X83601767Y-103780846D01*
X83606749Y-103778523D01*
X83711611Y-103705098D01*
X83789789Y-103650357D01*
X83789792Y-103650355D01*
X83794300Y-103647198D01*
X83956198Y-103485300D01*
X84087523Y-103297749D01*
X84089846Y-103292767D01*
X84089849Y-103292762D01*
X84181961Y-103095225D01*
X84181961Y-103095224D01*
X84184284Y-103090243D01*
X84237806Y-102890500D01*
X84242119Y-102874402D01*
X84242119Y-102874400D01*
X84243543Y-102869087D01*
X84263498Y-102641000D01*
X84243543Y-102412913D01*
X84184284Y-102191757D01*
X84143175Y-102103598D01*
X84089849Y-101989238D01*
X84089846Y-101989233D01*
X84087523Y-101984251D01*
X83956198Y-101796700D01*
X83794300Y-101634802D01*
X83789792Y-101631645D01*
X83789789Y-101631643D01*
X83654780Y-101537109D01*
X83606749Y-101503477D01*
X83601767Y-101501154D01*
X83601762Y-101501151D01*
X83567543Y-101485195D01*
X83514258Y-101438278D01*
X83494797Y-101370001D01*
X83515339Y-101302041D01*
X83567543Y-101256805D01*
X83601762Y-101240849D01*
X83601767Y-101240846D01*
X83606749Y-101238523D01*
X83711611Y-101165098D01*
X83789789Y-101110357D01*
X83789792Y-101110355D01*
X83794300Y-101107198D01*
X83956198Y-100945300D01*
X83963340Y-100935101D01*
X84038906Y-100827181D01*
X84087523Y-100757749D01*
X84089846Y-100752767D01*
X84089849Y-100752762D01*
X84181961Y-100555225D01*
X84181961Y-100555224D01*
X84184284Y-100550243D01*
X84243543Y-100329087D01*
X84263498Y-100101000D01*
X84243543Y-99872913D01*
X84184284Y-99651757D01*
X84181961Y-99646775D01*
X84089849Y-99449238D01*
X84089846Y-99449233D01*
X84087523Y-99444251D01*
X83956198Y-99256700D01*
X83794300Y-99094802D01*
X83789792Y-99091645D01*
X83789789Y-99091643D01*
X83703894Y-99031499D01*
X83606749Y-98963477D01*
X83601767Y-98961154D01*
X83601762Y-98961151D01*
X83567543Y-98945195D01*
X83514258Y-98898278D01*
X83494797Y-98830001D01*
X83515339Y-98762041D01*
X83567543Y-98716805D01*
X83601762Y-98700849D01*
X83601767Y-98700846D01*
X83606749Y-98698523D01*
X83718063Y-98620580D01*
X83789789Y-98570357D01*
X83789792Y-98570355D01*
X83794300Y-98567198D01*
X83956198Y-98405300D01*
X83964027Y-98394120D01*
X84053023Y-98267020D01*
X84087523Y-98217749D01*
X84089846Y-98212767D01*
X84089849Y-98212762D01*
X84181961Y-98015225D01*
X84181961Y-98015224D01*
X84184284Y-98010243D01*
X84232858Y-97828966D01*
X84242119Y-97794402D01*
X84242119Y-97794400D01*
X84243543Y-97789087D01*
X84263498Y-97561000D01*
X84243543Y-97332913D01*
X84236600Y-97307000D01*
X84185707Y-97117067D01*
X84185706Y-97117065D01*
X84184284Y-97111757D01*
X84171164Y-97083620D01*
X84089849Y-96909238D01*
X84089846Y-96909233D01*
X84087523Y-96904251D01*
X83956198Y-96716700D01*
X83794300Y-96554802D01*
X83789792Y-96551645D01*
X83789789Y-96551643D01*
X83711611Y-96496902D01*
X83606749Y-96423477D01*
X83601767Y-96421154D01*
X83601762Y-96421151D01*
X83567543Y-96405195D01*
X83514258Y-96358278D01*
X83494797Y-96290001D01*
X83515339Y-96222041D01*
X83567543Y-96176805D01*
X83601762Y-96160849D01*
X83601767Y-96160846D01*
X83606749Y-96158523D01*
X83711611Y-96085098D01*
X83789789Y-96030357D01*
X83789792Y-96030355D01*
X83794300Y-96027198D01*
X83956198Y-95865300D01*
X83963532Y-95854827D01*
X84055784Y-95723077D01*
X84087523Y-95677749D01*
X84089846Y-95672767D01*
X84089849Y-95672762D01*
X84181961Y-95475225D01*
X84181961Y-95475224D01*
X84184284Y-95470243D01*
X84194150Y-95433425D01*
X84242119Y-95254402D01*
X84242119Y-95254400D01*
X84243543Y-95249087D01*
X84263498Y-95021000D01*
X84243543Y-94792913D01*
X84237593Y-94770707D01*
X84185707Y-94577067D01*
X84185706Y-94577065D01*
X84184284Y-94571757D01*
X84158914Y-94517350D01*
X84089849Y-94369238D01*
X84089846Y-94369233D01*
X84087523Y-94364251D01*
X83990512Y-94225705D01*
X83959357Y-94181211D01*
X83959355Y-94181208D01*
X83956198Y-94176700D01*
X83794300Y-94014802D01*
X83789792Y-94011645D01*
X83789789Y-94011643D01*
X83620553Y-93893143D01*
X83606749Y-93883477D01*
X83601767Y-93881154D01*
X83601762Y-93881151D01*
X83567543Y-93865195D01*
X83514258Y-93818278D01*
X83494797Y-93750001D01*
X83515339Y-93682041D01*
X83567543Y-93636805D01*
X83601762Y-93620849D01*
X83601767Y-93620846D01*
X83606749Y-93618523D01*
X83711611Y-93545098D01*
X83789789Y-93490357D01*
X83789792Y-93490355D01*
X83794300Y-93487198D01*
X83956198Y-93325300D01*
X84087523Y-93137749D01*
X84089846Y-93132767D01*
X84089849Y-93132762D01*
X84181961Y-92935225D01*
X84181961Y-92935224D01*
X84184284Y-92930243D01*
X84243543Y-92709087D01*
X84263498Y-92481000D01*
X84243543Y-92252913D01*
X84184284Y-92031757D01*
X84143175Y-91943598D01*
X84089849Y-91829238D01*
X84089846Y-91829233D01*
X84087523Y-91824251D01*
X83986025Y-91679297D01*
X83959357Y-91641211D01*
X83959355Y-91641208D01*
X83956198Y-91636700D01*
X83794300Y-91474802D01*
X83789792Y-91471645D01*
X83789789Y-91471643D01*
X83654780Y-91377109D01*
X83606749Y-91343477D01*
X83601767Y-91341154D01*
X83601762Y-91341151D01*
X83567543Y-91325195D01*
X83514258Y-91278278D01*
X83494797Y-91210001D01*
X83515339Y-91142041D01*
X83567543Y-91096805D01*
X83601762Y-91080849D01*
X83601767Y-91080846D01*
X83606749Y-91078523D01*
X83739465Y-90985594D01*
X83789789Y-90950357D01*
X83789792Y-90950355D01*
X83794300Y-90947198D01*
X83956198Y-90785300D01*
X84087523Y-90597749D01*
X84089846Y-90592767D01*
X84089849Y-90592762D01*
X84181961Y-90395225D01*
X84181961Y-90395224D01*
X84184284Y-90390243D01*
X84202539Y-90322117D01*
X84242119Y-90174402D01*
X84242119Y-90174400D01*
X84243543Y-90169087D01*
X84263498Y-89941000D01*
X84243543Y-89712913D01*
X84242119Y-89707598D01*
X84185707Y-89497067D01*
X84185706Y-89497065D01*
X84184284Y-89491757D01*
X84174544Y-89470870D01*
X84089849Y-89289238D01*
X84089846Y-89289233D01*
X84087523Y-89284251D01*
X83985918Y-89139144D01*
X83959357Y-89101211D01*
X83959355Y-89101208D01*
X83956198Y-89096700D01*
X83794300Y-88934802D01*
X83789792Y-88931645D01*
X83789789Y-88931643D01*
X83711611Y-88876902D01*
X83606749Y-88803477D01*
X83601767Y-88801154D01*
X83601762Y-88801151D01*
X83567543Y-88785195D01*
X83514258Y-88738278D01*
X83494797Y-88670001D01*
X83515339Y-88602041D01*
X83567543Y-88556805D01*
X83601762Y-88540849D01*
X83601767Y-88540846D01*
X83606749Y-88538523D01*
X83711611Y-88465098D01*
X83789789Y-88410357D01*
X83789792Y-88410355D01*
X83794300Y-88407198D01*
X83956198Y-88245300D01*
X84087523Y-88057749D01*
X84089846Y-88052767D01*
X84089849Y-88052762D01*
X84181961Y-87855225D01*
X84181961Y-87855224D01*
X84184284Y-87850243D01*
X84232858Y-87668966D01*
X84242119Y-87634402D01*
X84242119Y-87634400D01*
X84243543Y-87629087D01*
X84263498Y-87401000D01*
X84243543Y-87172913D01*
X84236600Y-87147000D01*
X84185707Y-86957067D01*
X84185706Y-86957065D01*
X84184284Y-86951757D01*
X84146565Y-86870867D01*
X84089849Y-86749238D01*
X84089846Y-86749233D01*
X84087523Y-86744251D01*
X83956198Y-86556700D01*
X83794300Y-86394802D01*
X83789792Y-86391645D01*
X83789789Y-86391643D01*
X83711611Y-86336902D01*
X83606749Y-86263477D01*
X83601767Y-86261154D01*
X83601762Y-86261151D01*
X83567543Y-86245195D01*
X83514258Y-86198278D01*
X83494797Y-86130001D01*
X83515339Y-86062041D01*
X83567543Y-86016805D01*
X83601762Y-86000849D01*
X83601767Y-86000846D01*
X83606749Y-85998523D01*
X83763051Y-85889079D01*
X83789789Y-85870357D01*
X83789792Y-85870355D01*
X83794300Y-85867198D01*
X83956198Y-85705300D01*
X83963532Y-85694827D01*
X84084366Y-85522257D01*
X84087523Y-85517749D01*
X84089846Y-85512767D01*
X84089849Y-85512762D01*
X84181961Y-85315225D01*
X84181961Y-85315224D01*
X84184284Y-85310243D01*
X84194150Y-85273425D01*
X84242119Y-85094402D01*
X84242119Y-85094400D01*
X84243543Y-85089087D01*
X84263498Y-84861000D01*
X84243543Y-84632913D01*
X84237593Y-84610707D01*
X84185707Y-84417067D01*
X84185706Y-84417065D01*
X84184284Y-84411757D01*
X84172092Y-84385610D01*
X84089849Y-84209238D01*
X84089846Y-84209233D01*
X84087523Y-84204251D01*
X83986148Y-84059473D01*
X83959357Y-84021211D01*
X83959355Y-84021208D01*
X83956198Y-84016700D01*
X83794300Y-83854802D01*
X83789792Y-83851645D01*
X83789789Y-83851643D01*
X83705956Y-83792943D01*
X83606749Y-83723477D01*
X83601767Y-83721154D01*
X83601762Y-83721151D01*
X83567543Y-83705195D01*
X83514258Y-83658278D01*
X83494797Y-83590001D01*
X83515339Y-83522041D01*
X83567543Y-83476805D01*
X83601762Y-83460849D01*
X83601767Y-83460846D01*
X83606749Y-83458523D01*
X83728184Y-83373493D01*
X83789789Y-83330357D01*
X83789792Y-83330355D01*
X83794300Y-83327198D01*
X83956198Y-83165300D01*
X84087523Y-82977749D01*
X84089846Y-82972767D01*
X84089849Y-82972762D01*
X84181961Y-82775225D01*
X84181961Y-82775224D01*
X84184284Y-82770243D01*
X84243543Y-82549087D01*
X84263498Y-82321000D01*
X84243543Y-82092913D01*
X84184284Y-81871757D01*
X84146798Y-81791367D01*
X84089849Y-81669238D01*
X84089846Y-81669233D01*
X84087523Y-81664251D01*
X83956198Y-81476700D01*
X83794300Y-81314802D01*
X83789792Y-81311645D01*
X83789789Y-81311643D01*
X83654780Y-81217109D01*
X83606749Y-81183477D01*
X83601767Y-81181154D01*
X83601762Y-81181151D01*
X83567543Y-81165195D01*
X83514258Y-81118278D01*
X83494797Y-81050001D01*
X83515339Y-80982041D01*
X83567543Y-80936805D01*
X83601762Y-80920849D01*
X83601767Y-80920846D01*
X83606749Y-80918523D01*
X83711611Y-80845098D01*
X83789789Y-80790357D01*
X83789792Y-80790355D01*
X83794300Y-80787198D01*
X83956198Y-80625300D01*
X84087523Y-80437749D01*
X84089846Y-80432767D01*
X84089849Y-80432762D01*
X84181961Y-80235225D01*
X84181961Y-80235224D01*
X84184284Y-80230243D01*
X84194175Y-80193332D01*
X84242119Y-80014402D01*
X84242119Y-80014400D01*
X84243543Y-80009087D01*
X84263498Y-79781000D01*
X84243543Y-79552913D01*
X84231449Y-79507778D01*
X84185707Y-79337067D01*
X84185706Y-79337065D01*
X84184284Y-79331757D01*
X84181961Y-79326775D01*
X84089849Y-79129238D01*
X84089846Y-79129233D01*
X84087523Y-79124251D01*
X84014098Y-79019389D01*
X83959357Y-78941211D01*
X83959355Y-78941208D01*
X83956198Y-78936700D01*
X83794300Y-78774802D01*
X83789792Y-78771645D01*
X83789789Y-78771643D01*
X83711261Y-78716657D01*
X83606749Y-78643477D01*
X83601767Y-78641154D01*
X83601762Y-78641151D01*
X83567543Y-78625195D01*
X83514258Y-78578278D01*
X83494797Y-78510001D01*
X83515339Y-78442041D01*
X83567543Y-78396805D01*
X83601762Y-78380849D01*
X83601767Y-78380846D01*
X83606749Y-78378523D01*
X83764686Y-78267934D01*
X83789789Y-78250357D01*
X83789792Y-78250355D01*
X83794300Y-78247198D01*
X83956198Y-78085300D01*
X83966547Y-78070521D01*
X84061871Y-77934384D01*
X84087523Y-77897749D01*
X84089846Y-77892767D01*
X84089849Y-77892762D01*
X84181961Y-77695225D01*
X84181961Y-77695224D01*
X84184284Y-77690243D01*
X84243543Y-77469087D01*
X84263498Y-77241000D01*
X84243543Y-77012913D01*
X84211010Y-76891499D01*
X84185707Y-76797067D01*
X84185706Y-76797065D01*
X84184284Y-76791757D01*
X84145755Y-76709131D01*
X84089849Y-76589238D01*
X84089846Y-76589233D01*
X84087523Y-76584251D01*
X83986025Y-76439297D01*
X83959357Y-76401211D01*
X83959355Y-76401208D01*
X83956198Y-76396700D01*
X83794300Y-76234802D01*
X83789792Y-76231645D01*
X83789789Y-76231643D01*
X83663483Y-76143203D01*
X83606749Y-76103477D01*
X83601767Y-76101154D01*
X83601762Y-76101151D01*
X83567543Y-76085195D01*
X83514258Y-76038278D01*
X83494797Y-75970001D01*
X83515339Y-75902041D01*
X83567543Y-75856805D01*
X83601762Y-75840849D01*
X83601767Y-75840846D01*
X83606749Y-75838523D01*
X83711611Y-75765098D01*
X83789789Y-75710357D01*
X83789792Y-75710355D01*
X83794300Y-75707198D01*
X83956198Y-75545300D01*
X83984587Y-75504757D01*
X84066181Y-75388229D01*
X84121638Y-75343901D01*
X84169394Y-75334500D01*
X85057962Y-75334500D01*
X85126083Y-75354502D01*
X85172576Y-75408158D01*
X85177486Y-75420624D01*
X85203950Y-75499946D01*
X85297022Y-75650348D01*
X85422197Y-75775305D01*
X85428427Y-75779145D01*
X85428428Y-75779146D01*
X85565788Y-75863816D01*
X85572762Y-75868115D01*
X85652505Y-75894564D01*
X85734111Y-75921632D01*
X85734113Y-75921632D01*
X85740639Y-75923797D01*
X85747475Y-75924497D01*
X85747478Y-75924498D01*
X85790531Y-75928909D01*
X85845100Y-75934500D01*
X86620900Y-75934500D01*
X86624146Y-75934163D01*
X86624150Y-75934163D01*
X86719808Y-75924238D01*
X86719812Y-75924237D01*
X86726666Y-75923526D01*
X86733202Y-75921345D01*
X86733204Y-75921345D01*
X86865306Y-75877272D01*
X86894446Y-75867550D01*
X87044848Y-75774478D01*
X87169805Y-75649303D01*
X87172602Y-75644765D01*
X87229853Y-75604176D01*
X87300776Y-75600946D01*
X87362187Y-75636572D01*
X87369562Y-75645068D01*
X87377598Y-75655207D01*
X87492329Y-75769739D01*
X87503740Y-75778751D01*
X87641743Y-75863816D01*
X87654924Y-75869963D01*
X87809210Y-75921138D01*
X87822586Y-75924005D01*
X87916938Y-75933672D01*
X87923354Y-75934000D01*
X88035885Y-75934000D01*
X88051124Y-75929525D01*
X88052329Y-75928135D01*
X88054000Y-75920452D01*
X88054000Y-75915884D01*
X88562000Y-75915884D01*
X88566475Y-75931123D01*
X88567865Y-75932328D01*
X88575548Y-75933999D01*
X88692595Y-75933999D01*
X88699114Y-75933662D01*
X88794706Y-75923743D01*
X88808100Y-75920851D01*
X88962284Y-75869412D01*
X88975462Y-75863239D01*
X89113307Y-75777937D01*
X89124708Y-75768901D01*
X89239239Y-75654171D01*
X89248251Y-75642760D01*
X89333316Y-75504757D01*
X89339463Y-75491576D01*
X89390638Y-75337290D01*
X89393505Y-75323914D01*
X89403172Y-75229562D01*
X89403500Y-75223146D01*
X89403500Y-74973115D01*
X89399025Y-74957876D01*
X89397635Y-74956671D01*
X89389952Y-74955000D01*
X88580115Y-74955000D01*
X88564876Y-74959475D01*
X88563671Y-74960865D01*
X88562000Y-74968548D01*
X88562000Y-75915884D01*
X88054000Y-75915884D01*
X88054000Y-74428885D01*
X88562000Y-74428885D01*
X88566475Y-74444124D01*
X88567865Y-74445329D01*
X88575548Y-74447000D01*
X89385384Y-74447000D01*
X89400623Y-74442525D01*
X89401828Y-74441135D01*
X89403499Y-74433452D01*
X89403499Y-74178905D01*
X89403162Y-74172386D01*
X89393243Y-74076794D01*
X89390351Y-74063400D01*
X89338912Y-73909216D01*
X89332739Y-73896038D01*
X89247437Y-73758193D01*
X89238401Y-73746792D01*
X89123671Y-73632261D01*
X89112260Y-73623249D01*
X88974257Y-73538184D01*
X88961076Y-73532037D01*
X88806790Y-73480862D01*
X88793414Y-73477995D01*
X88699062Y-73468328D01*
X88692645Y-73468000D01*
X88580115Y-73468000D01*
X88564876Y-73472475D01*
X88563671Y-73473865D01*
X88562000Y-73481548D01*
X88562000Y-74428885D01*
X88054000Y-74428885D01*
X88054000Y-73486116D01*
X88049525Y-73470877D01*
X88048135Y-73469672D01*
X88040452Y-73468001D01*
X87923405Y-73468001D01*
X87916886Y-73468338D01*
X87821294Y-73478257D01*
X87807900Y-73481149D01*
X87653716Y-73532588D01*
X87640538Y-73538761D01*
X87502693Y-73624063D01*
X87491292Y-73633099D01*
X87376762Y-73747828D01*
X87369706Y-73756762D01*
X87311788Y-73797823D01*
X87240865Y-73801053D01*
X87179454Y-73765426D01*
X87172654Y-73757593D01*
X87168978Y-73751652D01*
X87043803Y-73626695D01*
X87033706Y-73620471D01*
X86899468Y-73537725D01*
X86899466Y-73537724D01*
X86893238Y-73533885D01*
X86790122Y-73499683D01*
X86731889Y-73480368D01*
X86731887Y-73480368D01*
X86725361Y-73478203D01*
X86718525Y-73477503D01*
X86718522Y-73477502D01*
X86673038Y-73472842D01*
X86620900Y-73467500D01*
X85845100Y-73467500D01*
X85841854Y-73467837D01*
X85841850Y-73467837D01*
X85746192Y-73477762D01*
X85746188Y-73477763D01*
X85739334Y-73478474D01*
X85732798Y-73480655D01*
X85732796Y-73480655D01*
X85600694Y-73524728D01*
X85571554Y-73534450D01*
X85421152Y-73627522D01*
X85296195Y-73752697D01*
X85292355Y-73758927D01*
X85292354Y-73758928D01*
X85234489Y-73852803D01*
X85203385Y-73903262D01*
X85184251Y-73960949D01*
X85177545Y-73981167D01*
X85137114Y-74039527D01*
X85071550Y-74066764D01*
X85057952Y-74067500D01*
X84169394Y-74067500D01*
X84101273Y-74047498D01*
X84066181Y-74013771D01*
X83959357Y-73861211D01*
X83959355Y-73861208D01*
X83956198Y-73856700D01*
X83794300Y-73694802D01*
X83789789Y-73691643D01*
X83785576Y-73688108D01*
X83786527Y-73686974D01*
X83746529Y-73636929D01*
X83739224Y-73566310D01*
X83771258Y-73502951D01*
X83832462Y-73466970D01*
X83849517Y-73463918D01*
X83860316Y-73462745D01*
X83996705Y-73411615D01*
X84113261Y-73324261D01*
X84200615Y-73207705D01*
X84251745Y-73071316D01*
X84258500Y-73009134D01*
X84258500Y-71312866D01*
X84251745Y-71250684D01*
X84200615Y-71114295D01*
X84113261Y-70997739D01*
X83996705Y-70910385D01*
X83988304Y-70907236D01*
X83986082Y-70906019D01*
X83935936Y-70855760D01*
X83920923Y-70786369D01*
X83945809Y-70719877D01*
X84002693Y-70677395D01*
X84046592Y-70669500D01*
X107105564Y-70669500D01*
X107173685Y-70689502D01*
X107220178Y-70743158D01*
X107230282Y-70813432D01*
X107200788Y-70878012D01*
X107138175Y-70917207D01*
X107106239Y-70925764D01*
X107095947Y-70929510D01*
X106898489Y-71021586D01*
X106888993Y-71027069D01*
X106710533Y-71152028D01*
X106702125Y-71159084D01*
X106548084Y-71313125D01*
X106541028Y-71321533D01*
X106416069Y-71499993D01*
X106410586Y-71509489D01*
X106318510Y-71706947D01*
X106314764Y-71717239D01*
X106268606Y-71889503D01*
X106268942Y-71903599D01*
X106276884Y-71907000D01*
X109617967Y-71907000D01*
X109631498Y-71903027D01*
X109632727Y-71894478D01*
X109585236Y-71717239D01*
X109581490Y-71706947D01*
X109489414Y-71509489D01*
X109483931Y-71499993D01*
X109358972Y-71321533D01*
X109351916Y-71313125D01*
X109197875Y-71159084D01*
X109189467Y-71152028D01*
X109011007Y-71027069D01*
X109001511Y-71021586D01*
X108804053Y-70929510D01*
X108793761Y-70925764D01*
X108761825Y-70917207D01*
X108701202Y-70880255D01*
X108670181Y-70816395D01*
X108678609Y-70745900D01*
X108723812Y-70691153D01*
X108794436Y-70669500D01*
X127915500Y-70669500D01*
X127983621Y-70689502D01*
X128030114Y-70743158D01*
X128041500Y-70795500D01*
X128041500Y-132526500D01*
X128021498Y-132594621D01*
X127967842Y-132641114D01*
X127915500Y-132652500D01*
X73184500Y-132652500D01*
X73116379Y-132632498D01*
X73069886Y-132578842D01*
X73058500Y-132526500D01*
X73058500Y-129066341D01*
X73537888Y-129066341D01*
X73537983Y-129069971D01*
X73537983Y-129069972D01*
X73540367Y-129161000D01*
X73546970Y-129413171D01*
X73595856Y-129756660D01*
X73683897Y-130092253D01*
X73809927Y-130415503D01*
X73811624Y-130418708D01*
X73945113Y-130670825D01*
X73972275Y-130722126D01*
X73974325Y-130725109D01*
X73974327Y-130725112D01*
X74166733Y-131005064D01*
X74166739Y-131005071D01*
X74168790Y-131008056D01*
X74396866Y-131269505D01*
X74399551Y-131271948D01*
X74609268Y-131462775D01*
X74653481Y-131503006D01*
X74935233Y-131705466D01*
X75238388Y-131874200D01*
X75558928Y-132006972D01*
X75562422Y-132007967D01*
X75562424Y-132007968D01*
X75889103Y-132101025D01*
X75889108Y-132101026D01*
X75892604Y-132102022D01*
X76089304Y-132134233D01*
X76231412Y-132157504D01*
X76231419Y-132157505D01*
X76234993Y-132158090D01*
X76408275Y-132166262D01*
X76577931Y-132174263D01*
X76577932Y-132174263D01*
X76581558Y-132174434D01*
X76590415Y-132173830D01*
X76924073Y-132151084D01*
X76924081Y-132151083D01*
X76927704Y-132150836D01*
X76931279Y-132150173D01*
X76931282Y-132150173D01*
X77265279Y-132088270D01*
X77265283Y-132088269D01*
X77268844Y-132087609D01*
X77600456Y-131985592D01*
X77918145Y-131846136D01*
X78162511Y-131703341D01*
X78214560Y-131672926D01*
X78214562Y-131672925D01*
X78217700Y-131671091D01*
X78220609Y-131668907D01*
X78492244Y-131464958D01*
X78492248Y-131464955D01*
X78495151Y-131462775D01*
X78746819Y-131223950D01*
X78969370Y-130957783D01*
X79159853Y-130667799D01*
X79288446Y-130412121D01*
X79314117Y-130361080D01*
X79314120Y-130361072D01*
X79315744Y-130357844D01*
X79327899Y-130324628D01*
X79405105Y-130113654D01*
X81325618Y-130113654D01*
X81332673Y-130123627D01*
X81363679Y-130149551D01*
X81370598Y-130154579D01*
X81595272Y-130295515D01*
X81602807Y-130299556D01*
X81844520Y-130408694D01*
X81852551Y-130411680D01*
X82106832Y-130487002D01*
X82115184Y-130488869D01*
X82377340Y-130528984D01*
X82385874Y-130529700D01*
X82651045Y-130533867D01*
X82659596Y-130533418D01*
X82922883Y-130501557D01*
X82931284Y-130499955D01*
X83187824Y-130432653D01*
X83195926Y-130429926D01*
X83440949Y-130328434D01*
X83448617Y-130324628D01*
X83677598Y-130190822D01*
X83684679Y-130186009D01*
X83764655Y-130123301D01*
X83773125Y-130111442D01*
X83766608Y-130099818D01*
X83738924Y-130072134D01*
X85621500Y-130072134D01*
X85628255Y-130134316D01*
X85679385Y-130270705D01*
X85766739Y-130387261D01*
X85883295Y-130474615D01*
X86019684Y-130525745D01*
X86081866Y-130532500D01*
X89178134Y-130532500D01*
X89240316Y-130525745D01*
X89376705Y-130474615D01*
X89493261Y-130387261D01*
X89580615Y-130270705D01*
X89631745Y-130134316D01*
X89633990Y-130113654D01*
X91485618Y-130113654D01*
X91492673Y-130123627D01*
X91523679Y-130149551D01*
X91530598Y-130154579D01*
X91755272Y-130295515D01*
X91762807Y-130299556D01*
X92004520Y-130408694D01*
X92012551Y-130411680D01*
X92266832Y-130487002D01*
X92275184Y-130488869D01*
X92537340Y-130528984D01*
X92545874Y-130529700D01*
X92811045Y-130533867D01*
X92819596Y-130533418D01*
X93082883Y-130501557D01*
X93091284Y-130499955D01*
X93347824Y-130432653D01*
X93355926Y-130429926D01*
X93600949Y-130328434D01*
X93608617Y-130324628D01*
X93837598Y-130190822D01*
X93844679Y-130186009D01*
X93924655Y-130123301D01*
X93933125Y-130111442D01*
X93926608Y-130099818D01*
X92722812Y-128896022D01*
X92708868Y-128888408D01*
X92707035Y-128888539D01*
X92700420Y-128892790D01*
X91492910Y-130100300D01*
X91485618Y-130113654D01*
X89633990Y-130113654D01*
X89638500Y-130072134D01*
X89638500Y-128507204D01*
X90697665Y-128507204D01*
X90712932Y-128771969D01*
X90714005Y-128780470D01*
X90765065Y-129040722D01*
X90767276Y-129048974D01*
X90853184Y-129299894D01*
X90856499Y-129307779D01*
X90975664Y-129544713D01*
X90980020Y-129552079D01*
X91109347Y-129740250D01*
X91119601Y-129748594D01*
X91133342Y-129741448D01*
X92337978Y-128536812D01*
X92344356Y-128525132D01*
X93074408Y-128525132D01*
X93074539Y-128526965D01*
X93078790Y-128533580D01*
X94285730Y-129740520D01*
X94297939Y-129747187D01*
X94309439Y-129738497D01*
X94406831Y-129605913D01*
X94411418Y-129598685D01*
X94537962Y-129365621D01*
X94541530Y-129357827D01*
X94635271Y-129109750D01*
X94637748Y-129101544D01*
X94696954Y-128843038D01*
X94698294Y-128834577D01*
X94722031Y-128568616D01*
X94722277Y-128563677D01*
X94722666Y-128526485D01*
X94722523Y-128521519D01*
X94704362Y-128255123D01*
X94703201Y-128246649D01*
X94649419Y-127986944D01*
X94647120Y-127978709D01*
X94558588Y-127728705D01*
X94555191Y-127720854D01*
X94433550Y-127485178D01*
X94429122Y-127477866D01*
X94310031Y-127308417D01*
X94299509Y-127300037D01*
X94286121Y-127307089D01*
X93082022Y-128511188D01*
X93074408Y-128525132D01*
X92344356Y-128525132D01*
X92345592Y-128522868D01*
X92345461Y-128521035D01*
X92341210Y-128514420D01*
X91133814Y-127307024D01*
X91121804Y-127300466D01*
X91110064Y-127309434D01*
X91001935Y-127459911D01*
X90997418Y-127467196D01*
X90873325Y-127701567D01*
X90869839Y-127709395D01*
X90778700Y-127958446D01*
X90776311Y-127966670D01*
X90719812Y-128225795D01*
X90718563Y-128234250D01*
X90697754Y-128498653D01*
X90697665Y-128507204D01*
X89638500Y-128507204D01*
X89638500Y-126975866D01*
X89634224Y-126936500D01*
X91486584Y-126936500D01*
X91492980Y-126947770D01*
X92697188Y-128151978D01*
X92711132Y-128159592D01*
X92712965Y-128159461D01*
X92719580Y-128155210D01*
X93926604Y-126948186D01*
X93933795Y-126935017D01*
X93926473Y-126924780D01*
X93879233Y-126886115D01*
X93872261Y-126881160D01*
X93646122Y-126742582D01*
X93638552Y-126738624D01*
X93395704Y-126632022D01*
X93387644Y-126629120D01*
X93132592Y-126556467D01*
X93124214Y-126554685D01*
X92861656Y-126517318D01*
X92853111Y-126516691D01*
X92587908Y-126515302D01*
X92579374Y-126515839D01*
X92316433Y-126550456D01*
X92308035Y-126552149D01*
X92052238Y-126622127D01*
X92044143Y-126624946D01*
X91800199Y-126728997D01*
X91792577Y-126732881D01*
X91565013Y-126869075D01*
X91557981Y-126873962D01*
X91495053Y-126924377D01*
X91486584Y-126936500D01*
X89634224Y-126936500D01*
X89631745Y-126913684D01*
X89580615Y-126777295D01*
X89493261Y-126660739D01*
X89376705Y-126573385D01*
X89240316Y-126522255D01*
X89178134Y-126515500D01*
X88389500Y-126515500D01*
X88321379Y-126495498D01*
X88274886Y-126441842D01*
X88263500Y-126389500D01*
X88263500Y-90985594D01*
X88283502Y-90917473D01*
X88300405Y-90896499D01*
X98810500Y-80386405D01*
X98872812Y-80352379D01*
X98899595Y-80349500D01*
X99560400Y-80349500D01*
X99563646Y-80349163D01*
X99563650Y-80349163D01*
X99659308Y-80339238D01*
X99659312Y-80339237D01*
X99666166Y-80338526D01*
X99672702Y-80336345D01*
X99672704Y-80336345D01*
X99826998Y-80284868D01*
X99833946Y-80282550D01*
X99984348Y-80189478D01*
X100109305Y-80064303D01*
X100128403Y-80033320D01*
X100198275Y-79919968D01*
X100198276Y-79919966D01*
X100202115Y-79913738D01*
X100257797Y-79745861D01*
X100268500Y-79641400D01*
X100268500Y-78840600D01*
X100268163Y-78837350D01*
X100258238Y-78741692D01*
X100258237Y-78741688D01*
X100257526Y-78734834D01*
X100252623Y-78720136D01*
X100203868Y-78574002D01*
X100201550Y-78567054D01*
X100108478Y-78416652D01*
X100021891Y-78330216D01*
X99987812Y-78267934D01*
X99992815Y-78197114D01*
X100021736Y-78152025D01*
X100104134Y-78069483D01*
X100109305Y-78064303D01*
X100149469Y-77999145D01*
X100198275Y-77919968D01*
X100198276Y-77919966D01*
X100202115Y-77913738D01*
X100257797Y-77745861D01*
X100268500Y-77641400D01*
X100268500Y-76980594D01*
X100288502Y-76912473D01*
X100305405Y-76891499D01*
X101825499Y-75371405D01*
X101887811Y-75337379D01*
X101914594Y-75334500D01*
X106330606Y-75334500D01*
X106398727Y-75354502D01*
X106433819Y-75388229D01*
X106515413Y-75504757D01*
X106543802Y-75545300D01*
X106705700Y-75707198D01*
X106710208Y-75710355D01*
X106710211Y-75710357D01*
X106788389Y-75765098D01*
X106893251Y-75838523D01*
X106898233Y-75840846D01*
X106898238Y-75840849D01*
X106932457Y-75856805D01*
X106985742Y-75903722D01*
X107005203Y-75971999D01*
X106984661Y-76039959D01*
X106932457Y-76085195D01*
X106898238Y-76101151D01*
X106898233Y-76101154D01*
X106893251Y-76103477D01*
X106836517Y-76143203D01*
X106710211Y-76231643D01*
X106710208Y-76231645D01*
X106705700Y-76234802D01*
X106543802Y-76396700D01*
X106540645Y-76401208D01*
X106540643Y-76401211D01*
X106433819Y-76553771D01*
X106378362Y-76598099D01*
X106330606Y-76607500D01*
X103598781Y-76607500D01*
X103530660Y-76587498D01*
X103491637Y-76547803D01*
X103414332Y-76422880D01*
X103410478Y-76416652D01*
X103285303Y-76291695D01*
X103253268Y-76271948D01*
X103140968Y-76202725D01*
X103140966Y-76202724D01*
X103134738Y-76198885D01*
X102974254Y-76145655D01*
X102973389Y-76145368D01*
X102973387Y-76145368D01*
X102966861Y-76143203D01*
X102960025Y-76142503D01*
X102960022Y-76142502D01*
X102916969Y-76138091D01*
X102862400Y-76132500D01*
X101861600Y-76132500D01*
X101858354Y-76132837D01*
X101858350Y-76132837D01*
X101762692Y-76142762D01*
X101762688Y-76142763D01*
X101755834Y-76143474D01*
X101749298Y-76145655D01*
X101749296Y-76145655D01*
X101617194Y-76189728D01*
X101588054Y-76199450D01*
X101437652Y-76292522D01*
X101312695Y-76417697D01*
X101308855Y-76423927D01*
X101308854Y-76423928D01*
X101260110Y-76503006D01*
X101219885Y-76568262D01*
X101194025Y-76646229D01*
X101173790Y-76707236D01*
X101164203Y-76736139D01*
X101153500Y-76840600D01*
X101153500Y-77641400D01*
X101153837Y-77644646D01*
X101153837Y-77644650D01*
X101159085Y-77695225D01*
X101164474Y-77747166D01*
X101166655Y-77753702D01*
X101166655Y-77753704D01*
X101184611Y-77807525D01*
X101220450Y-77914946D01*
X101313522Y-78065348D01*
X101318704Y-78070521D01*
X101400109Y-78151784D01*
X101434188Y-78214066D01*
X101429185Y-78284886D01*
X101400264Y-78329975D01*
X101354952Y-78375366D01*
X101312695Y-78417697D01*
X101308855Y-78423927D01*
X101308854Y-78423928D01*
X101253298Y-78514057D01*
X101219885Y-78568262D01*
X101217581Y-78575209D01*
X101168256Y-78723921D01*
X101164203Y-78736139D01*
X101153500Y-78840600D01*
X101153500Y-79501405D01*
X101133498Y-79569526D01*
X101116595Y-79590500D01*
X97397747Y-83309348D01*
X97389461Y-83316888D01*
X97382982Y-83321000D01*
X97377557Y-83326777D01*
X97336357Y-83370651D01*
X97333602Y-83373493D01*
X97313865Y-83393230D01*
X97311385Y-83396427D01*
X97303682Y-83405447D01*
X97273414Y-83437679D01*
X97269595Y-83444625D01*
X97269593Y-83444628D01*
X97263652Y-83455434D01*
X97252801Y-83471953D01*
X97240386Y-83487959D01*
X97237241Y-83495228D01*
X97237238Y-83495232D01*
X97222826Y-83528537D01*
X97217609Y-83539187D01*
X97196305Y-83577940D01*
X97194334Y-83585615D01*
X97194334Y-83585616D01*
X97191267Y-83597562D01*
X97184863Y-83616266D01*
X97176819Y-83634855D01*
X97175580Y-83642678D01*
X97175577Y-83642688D01*
X97169901Y-83678524D01*
X97167495Y-83690144D01*
X97162866Y-83708176D01*
X97156500Y-83732970D01*
X97156500Y-83753224D01*
X97154949Y-83772934D01*
X97151780Y-83792943D01*
X97152526Y-83800835D01*
X97155941Y-83836961D01*
X97156500Y-83848819D01*
X97156500Y-126389500D01*
X97136498Y-126457621D01*
X97082842Y-126504114D01*
X97030500Y-126515500D01*
X96241866Y-126515500D01*
X96179684Y-126522255D01*
X96043295Y-126573385D01*
X95926739Y-126660739D01*
X95839385Y-126777295D01*
X95788255Y-126913684D01*
X95781500Y-126975866D01*
X95781500Y-130072134D01*
X95788255Y-130134316D01*
X95839385Y-130270705D01*
X95926739Y-130387261D01*
X96043295Y-130474615D01*
X96179684Y-130525745D01*
X96241866Y-130532500D01*
X99338134Y-130532500D01*
X99400316Y-130525745D01*
X99536705Y-130474615D01*
X99653261Y-130387261D01*
X99740615Y-130270705D01*
X99791745Y-130134316D01*
X99793990Y-130113654D01*
X101645618Y-130113654D01*
X101652673Y-130123627D01*
X101683679Y-130149551D01*
X101690598Y-130154579D01*
X101915272Y-130295515D01*
X101922807Y-130299556D01*
X102164520Y-130408694D01*
X102172551Y-130411680D01*
X102426832Y-130487002D01*
X102435184Y-130488869D01*
X102697340Y-130528984D01*
X102705874Y-130529700D01*
X102971045Y-130533867D01*
X102979596Y-130533418D01*
X103242883Y-130501557D01*
X103251284Y-130499955D01*
X103507824Y-130432653D01*
X103515926Y-130429926D01*
X103760949Y-130328434D01*
X103768617Y-130324628D01*
X103997598Y-130190822D01*
X104004679Y-130186009D01*
X104084655Y-130123301D01*
X104093125Y-130111442D01*
X104086608Y-130099818D01*
X102882812Y-128896022D01*
X102868868Y-128888408D01*
X102867035Y-128888539D01*
X102860420Y-128892790D01*
X101652910Y-130100300D01*
X101645618Y-130113654D01*
X99793990Y-130113654D01*
X99798500Y-130072134D01*
X99798500Y-128507204D01*
X100857665Y-128507204D01*
X100872932Y-128771969D01*
X100874005Y-128780470D01*
X100925065Y-129040722D01*
X100927276Y-129048974D01*
X101013184Y-129299894D01*
X101016499Y-129307779D01*
X101135664Y-129544713D01*
X101140020Y-129552079D01*
X101269347Y-129740250D01*
X101279601Y-129748594D01*
X101293342Y-129741448D01*
X102497978Y-128536812D01*
X102504356Y-128525132D01*
X103234408Y-128525132D01*
X103234539Y-128526965D01*
X103238790Y-128533580D01*
X104445730Y-129740520D01*
X104457939Y-129747187D01*
X104469439Y-129738497D01*
X104566831Y-129605913D01*
X104571418Y-129598685D01*
X104697962Y-129365621D01*
X104701530Y-129357827D01*
X104795271Y-129109750D01*
X104797748Y-129101544D01*
X104856954Y-128843038D01*
X104858294Y-128834577D01*
X104882031Y-128568616D01*
X104882277Y-128563677D01*
X104882666Y-128526485D01*
X104882523Y-128521519D01*
X104864362Y-128255123D01*
X104863201Y-128246649D01*
X104809419Y-127986944D01*
X104807120Y-127978709D01*
X104718588Y-127728705D01*
X104715191Y-127720854D01*
X104593550Y-127485178D01*
X104589122Y-127477866D01*
X104470031Y-127308417D01*
X104459509Y-127300037D01*
X104446121Y-127307089D01*
X103242022Y-128511188D01*
X103234408Y-128525132D01*
X102504356Y-128525132D01*
X102505592Y-128522868D01*
X102505461Y-128521035D01*
X102501210Y-128514420D01*
X101293814Y-127307024D01*
X101281804Y-127300466D01*
X101270064Y-127309434D01*
X101161935Y-127459911D01*
X101157418Y-127467196D01*
X101033325Y-127701567D01*
X101029839Y-127709395D01*
X100938700Y-127958446D01*
X100936311Y-127966670D01*
X100879812Y-128225795D01*
X100878563Y-128234250D01*
X100857754Y-128498653D01*
X100857665Y-128507204D01*
X99798500Y-128507204D01*
X99798500Y-126975866D01*
X99794224Y-126936500D01*
X101646584Y-126936500D01*
X101652980Y-126947770D01*
X102857188Y-128151978D01*
X102871132Y-128159592D01*
X102872965Y-128159461D01*
X102879580Y-128155210D01*
X104086604Y-126948186D01*
X104093795Y-126935017D01*
X104086473Y-126924780D01*
X104039233Y-126886115D01*
X104032261Y-126881160D01*
X103806122Y-126742582D01*
X103798552Y-126738624D01*
X103555704Y-126632022D01*
X103547644Y-126629120D01*
X103292592Y-126556467D01*
X103284214Y-126554685D01*
X103021656Y-126517318D01*
X103013111Y-126516691D01*
X102747908Y-126515302D01*
X102739374Y-126515839D01*
X102476433Y-126550456D01*
X102468035Y-126552149D01*
X102212238Y-126622127D01*
X102204143Y-126624946D01*
X101960199Y-126728997D01*
X101952577Y-126732881D01*
X101725013Y-126869075D01*
X101717981Y-126873962D01*
X101655053Y-126924377D01*
X101646584Y-126936500D01*
X99794224Y-126936500D01*
X99791745Y-126913684D01*
X99740615Y-126777295D01*
X99653261Y-126660739D01*
X99536705Y-126573385D01*
X99400316Y-126522255D01*
X99338134Y-126515500D01*
X98549500Y-126515500D01*
X98481379Y-126495498D01*
X98434886Y-126441842D01*
X98423500Y-126389500D01*
X98423500Y-112661400D01*
X102677500Y-112661400D01*
X102688474Y-112767166D01*
X102690655Y-112773702D01*
X102690655Y-112773704D01*
X102734728Y-112905806D01*
X102744450Y-112934946D01*
X102837522Y-113085348D01*
X102962697Y-113210305D01*
X102968927Y-113214145D01*
X102968928Y-113214146D01*
X103018874Y-113244933D01*
X103113262Y-113303115D01*
X103166168Y-113320663D01*
X103224527Y-113361094D01*
X103251764Y-113426658D01*
X103252500Y-113440256D01*
X103252500Y-124381233D01*
X103251973Y-124392416D01*
X103250298Y-124399909D01*
X103250547Y-124407835D01*
X103250547Y-124407836D01*
X103252438Y-124467986D01*
X103252500Y-124471945D01*
X103252500Y-124499856D01*
X103252997Y-124503790D01*
X103252997Y-124503791D01*
X103253005Y-124503856D01*
X103253938Y-124515693D01*
X103255327Y-124559889D01*
X103260978Y-124579339D01*
X103264987Y-124598700D01*
X103267526Y-124618797D01*
X103270445Y-124626168D01*
X103270445Y-124626170D01*
X103283804Y-124659912D01*
X103287649Y-124671142D01*
X103297690Y-124705705D01*
X103299982Y-124713593D01*
X103304015Y-124720412D01*
X103304017Y-124720417D01*
X103310293Y-124731028D01*
X103318988Y-124748776D01*
X103326448Y-124767617D01*
X103331110Y-124774033D01*
X103331110Y-124774034D01*
X103352436Y-124803387D01*
X103358952Y-124813307D01*
X103381458Y-124851362D01*
X103395779Y-124865683D01*
X103408619Y-124880716D01*
X103420528Y-124897107D01*
X103426634Y-124902158D01*
X103454605Y-124925298D01*
X103463384Y-124933288D01*
X105904595Y-127374500D01*
X105938621Y-127436812D01*
X105941500Y-127463595D01*
X105941500Y-130072134D01*
X105948255Y-130134316D01*
X105999385Y-130270705D01*
X106086739Y-130387261D01*
X106203295Y-130474615D01*
X106339684Y-130525745D01*
X106401866Y-130532500D01*
X109498134Y-130532500D01*
X109560316Y-130525745D01*
X109696705Y-130474615D01*
X109813261Y-130387261D01*
X109900615Y-130270705D01*
X109951745Y-130134316D01*
X109958500Y-130072134D01*
X109958500Y-129066341D01*
X111537888Y-129066341D01*
X111537983Y-129069971D01*
X111537983Y-129069972D01*
X111540367Y-129161000D01*
X111546970Y-129413171D01*
X111595856Y-129756660D01*
X111683897Y-130092253D01*
X111809927Y-130415503D01*
X111811624Y-130418708D01*
X111945113Y-130670825D01*
X111972275Y-130722126D01*
X111974325Y-130725109D01*
X111974327Y-130725112D01*
X112166733Y-131005064D01*
X112166739Y-131005071D01*
X112168790Y-131008056D01*
X112396866Y-131269505D01*
X112399551Y-131271948D01*
X112609268Y-131462775D01*
X112653481Y-131503006D01*
X112935233Y-131705466D01*
X113238388Y-131874200D01*
X113558928Y-132006972D01*
X113562422Y-132007967D01*
X113562424Y-132007968D01*
X113889103Y-132101025D01*
X113889108Y-132101026D01*
X113892604Y-132102022D01*
X114089304Y-132134233D01*
X114231412Y-132157504D01*
X114231419Y-132157505D01*
X114234993Y-132158090D01*
X114408275Y-132166262D01*
X114577931Y-132174263D01*
X114577932Y-132174263D01*
X114581558Y-132174434D01*
X114590415Y-132173830D01*
X114924073Y-132151084D01*
X114924081Y-132151083D01*
X114927704Y-132150836D01*
X114931279Y-132150173D01*
X114931282Y-132150173D01*
X115265279Y-132088270D01*
X115265283Y-132088269D01*
X115268844Y-132087609D01*
X115600456Y-131985592D01*
X115918145Y-131846136D01*
X116162511Y-131703341D01*
X116214560Y-131672926D01*
X116214562Y-131672925D01*
X116217700Y-131671091D01*
X116220609Y-131668907D01*
X116492244Y-131464958D01*
X116492248Y-131464955D01*
X116495151Y-131462775D01*
X116746819Y-131223950D01*
X116969370Y-130957783D01*
X117159853Y-130667799D01*
X117288446Y-130412121D01*
X117314117Y-130361080D01*
X117314120Y-130361072D01*
X117315744Y-130357844D01*
X117327899Y-130324628D01*
X117433729Y-130035437D01*
X117433730Y-130035433D01*
X117434977Y-130032026D01*
X117435822Y-130028504D01*
X117435825Y-130028496D01*
X117515124Y-129698191D01*
X117515125Y-129698187D01*
X117515971Y-129694662D01*
X117526711Y-129605913D01*
X117557316Y-129353004D01*
X117557316Y-129352997D01*
X117557652Y-129350225D01*
X117563599Y-129161000D01*
X117560171Y-129101544D01*
X117543836Y-128818246D01*
X117543835Y-128818241D01*
X117543627Y-128814626D01*
X117526626Y-128717214D01*
X117484600Y-128476415D01*
X117484598Y-128476408D01*
X117483976Y-128472842D01*
X117385437Y-128140180D01*
X117346263Y-128048337D01*
X117250740Y-127824386D01*
X117250738Y-127824383D01*
X117249316Y-127821048D01*
X117199569Y-127733831D01*
X117079208Y-127522816D01*
X117077417Y-127519676D01*
X117070617Y-127510418D01*
X116917244Y-127301628D01*
X116872018Y-127240060D01*
X116733182Y-127090654D01*
X122865618Y-127090654D01*
X122872673Y-127100627D01*
X122903679Y-127126551D01*
X122910598Y-127131579D01*
X123135272Y-127272515D01*
X123142807Y-127276556D01*
X123384520Y-127385694D01*
X123392551Y-127388680D01*
X123646832Y-127464002D01*
X123655184Y-127465869D01*
X123917340Y-127505984D01*
X123925874Y-127506700D01*
X124191045Y-127510867D01*
X124199596Y-127510418D01*
X124462883Y-127478557D01*
X124471284Y-127476955D01*
X124727824Y-127409653D01*
X124735926Y-127406926D01*
X124980949Y-127305434D01*
X124988617Y-127301628D01*
X125217598Y-127167822D01*
X125224679Y-127163009D01*
X125304655Y-127100301D01*
X125313125Y-127088442D01*
X125306608Y-127076818D01*
X124102812Y-125873022D01*
X124088868Y-125865408D01*
X124087035Y-125865539D01*
X124080420Y-125869790D01*
X122872910Y-127077300D01*
X122865618Y-127090654D01*
X116733182Y-127090654D01*
X116635842Y-126985904D01*
X116372019Y-126760578D01*
X116084047Y-126567069D01*
X115987657Y-126517318D01*
X115778961Y-126409602D01*
X115775741Y-126407940D01*
X115451189Y-126285302D01*
X115447668Y-126284418D01*
X115447663Y-126284416D01*
X115286378Y-126243904D01*
X115114692Y-126200780D01*
X115092476Y-126197855D01*
X114774315Y-126155968D01*
X114774307Y-126155967D01*
X114770711Y-126155494D01*
X114626045Y-126153221D01*
X114427446Y-126150101D01*
X114427442Y-126150101D01*
X114423804Y-126150044D01*
X114420190Y-126150405D01*
X114420184Y-126150405D01*
X114176843Y-126174694D01*
X114078569Y-126184503D01*
X113739583Y-126258414D01*
X113736156Y-126259587D01*
X113736150Y-126259589D01*
X113493634Y-126342621D01*
X113411339Y-126370797D01*
X113098188Y-126520163D01*
X113095109Y-126522094D01*
X113095108Y-126522095D01*
X113026061Y-126565408D01*
X112804279Y-126704532D01*
X112801443Y-126706804D01*
X112801436Y-126706809D01*
X112577626Y-126886115D01*
X112533509Y-126921459D01*
X112483030Y-126972469D01*
X112366077Y-127090654D01*
X112289466Y-127168071D01*
X112287225Y-127170929D01*
X112078747Y-127436812D01*
X112075386Y-127441098D01*
X112073493Y-127444187D01*
X112073491Y-127444190D01*
X112027233Y-127519676D01*
X111894105Y-127736921D01*
X111892580Y-127740206D01*
X111892578Y-127740210D01*
X111853505Y-127824386D01*
X111748027Y-128051620D01*
X111639087Y-128381023D01*
X111638351Y-128384578D01*
X111638350Y-128384581D01*
X111601261Y-128563677D01*
X111568730Y-128720764D01*
X111537888Y-129066341D01*
X109958500Y-129066341D01*
X109958500Y-126975866D01*
X109951745Y-126913684D01*
X109900615Y-126777295D01*
X109813261Y-126660739D01*
X109696705Y-126573385D01*
X109560316Y-126522255D01*
X109498134Y-126515500D01*
X106889594Y-126515500D01*
X106821473Y-126495498D01*
X106800499Y-126478595D01*
X105806108Y-125484204D01*
X122077665Y-125484204D01*
X122092932Y-125748969D01*
X122094005Y-125757470D01*
X122145065Y-126017722D01*
X122147276Y-126025974D01*
X122233184Y-126276894D01*
X122236499Y-126284779D01*
X122355664Y-126521713D01*
X122360020Y-126529079D01*
X122489347Y-126717250D01*
X122499601Y-126725594D01*
X122513342Y-126718448D01*
X123717978Y-125513812D01*
X123724356Y-125502132D01*
X124454408Y-125502132D01*
X124454539Y-125503965D01*
X124458790Y-125510580D01*
X125665730Y-126717520D01*
X125677939Y-126724187D01*
X125689439Y-126715497D01*
X125786831Y-126582913D01*
X125791418Y-126575685D01*
X125917962Y-126342621D01*
X125921530Y-126334827D01*
X126015271Y-126086750D01*
X126017748Y-126078544D01*
X126076954Y-125820038D01*
X126078294Y-125811577D01*
X126102031Y-125545616D01*
X126102277Y-125540677D01*
X126102666Y-125503485D01*
X126102523Y-125498519D01*
X126084362Y-125232123D01*
X126083201Y-125223649D01*
X126029419Y-124963944D01*
X126027120Y-124955709D01*
X125938588Y-124705705D01*
X125935191Y-124697854D01*
X125813550Y-124462178D01*
X125809122Y-124454866D01*
X125690031Y-124285417D01*
X125679509Y-124277037D01*
X125666121Y-124284089D01*
X124462022Y-125488188D01*
X124454408Y-125502132D01*
X123724356Y-125502132D01*
X123725592Y-125499868D01*
X123725461Y-125498035D01*
X123721210Y-125491420D01*
X122513814Y-124284024D01*
X122501804Y-124277466D01*
X122490064Y-124286434D01*
X122381935Y-124436911D01*
X122377418Y-124444196D01*
X122253325Y-124678567D01*
X122249839Y-124686395D01*
X122158700Y-124935446D01*
X122156311Y-124943670D01*
X122099812Y-125202795D01*
X122098563Y-125211250D01*
X122077754Y-125475653D01*
X122077665Y-125484204D01*
X105806108Y-125484204D01*
X104556405Y-124234500D01*
X104522379Y-124172188D01*
X104519500Y-124145405D01*
X104519500Y-123913500D01*
X122866584Y-123913500D01*
X122872980Y-123924770D01*
X124077188Y-125128978D01*
X124091132Y-125136592D01*
X124092965Y-125136461D01*
X124099580Y-125132210D01*
X125306604Y-123925186D01*
X125313795Y-123912017D01*
X125306473Y-123901780D01*
X125259233Y-123863115D01*
X125252261Y-123858160D01*
X125026122Y-123719582D01*
X125018552Y-123715624D01*
X124775704Y-123609022D01*
X124767644Y-123606120D01*
X124512592Y-123533467D01*
X124504214Y-123531685D01*
X124241656Y-123494318D01*
X124233111Y-123493691D01*
X123967908Y-123492302D01*
X123959374Y-123492839D01*
X123696433Y-123527456D01*
X123688035Y-123529149D01*
X123432238Y-123599127D01*
X123424143Y-123601946D01*
X123180199Y-123705997D01*
X123172577Y-123709881D01*
X122945013Y-123846075D01*
X122937981Y-123850962D01*
X122875053Y-123901377D01*
X122866584Y-123913500D01*
X104519500Y-123913500D01*
X104519500Y-113440197D01*
X104539502Y-113372076D01*
X104593158Y-113325583D01*
X104605623Y-113320674D01*
X104653002Y-113304867D01*
X104653004Y-113304866D01*
X104659946Y-113302550D01*
X104810348Y-113209478D01*
X104935305Y-113084303D01*
X105028115Y-112933738D01*
X105083797Y-112765861D01*
X105094500Y-112661400D01*
X105094500Y-111860600D01*
X105094163Y-111857350D01*
X105084238Y-111761692D01*
X105084237Y-111761688D01*
X105083526Y-111754834D01*
X105027550Y-111587054D01*
X104934478Y-111436652D01*
X104847891Y-111350216D01*
X104813812Y-111287934D01*
X104818815Y-111217114D01*
X104847736Y-111172025D01*
X104930134Y-111089483D01*
X104935305Y-111084303D01*
X104989753Y-110995973D01*
X105015389Y-110954384D01*
X105068162Y-110906890D01*
X105122649Y-110894500D01*
X106330606Y-110894500D01*
X106398727Y-110914502D01*
X106433819Y-110948229D01*
X106540643Y-111100789D01*
X106543802Y-111105300D01*
X106705700Y-111267198D01*
X106710208Y-111270355D01*
X106710211Y-111270357D01*
X106735314Y-111287934D01*
X106893251Y-111398523D01*
X106898233Y-111400846D01*
X106898238Y-111400849D01*
X106932457Y-111416805D01*
X106985742Y-111463722D01*
X107005203Y-111531999D01*
X106984661Y-111599959D01*
X106932457Y-111645195D01*
X106898238Y-111661151D01*
X106898233Y-111661154D01*
X106893251Y-111663477D01*
X106788389Y-111736902D01*
X106710211Y-111791643D01*
X106710208Y-111791645D01*
X106705700Y-111794802D01*
X106543802Y-111956700D01*
X106412477Y-112144251D01*
X106410154Y-112149233D01*
X106410151Y-112149238D01*
X106356825Y-112263598D01*
X106315716Y-112351757D01*
X106256457Y-112572913D01*
X106236502Y-112801000D01*
X106256457Y-113029087D01*
X106257881Y-113034400D01*
X106257881Y-113034402D01*
X106305826Y-113213332D01*
X106315716Y-113250243D01*
X106318039Y-113255224D01*
X106318039Y-113255225D01*
X106410151Y-113452762D01*
X106410154Y-113452767D01*
X106412477Y-113457749D01*
X106543802Y-113645300D01*
X106705700Y-113807198D01*
X106710208Y-113810355D01*
X106710211Y-113810357D01*
X106788389Y-113865098D01*
X106893251Y-113938523D01*
X106898233Y-113940846D01*
X106898238Y-113940849D01*
X106932457Y-113956805D01*
X106985742Y-114003722D01*
X107005203Y-114071999D01*
X106984661Y-114139959D01*
X106932457Y-114185195D01*
X106898238Y-114201151D01*
X106898233Y-114201154D01*
X106893251Y-114203477D01*
X106788389Y-114276902D01*
X106710211Y-114331643D01*
X106710208Y-114331645D01*
X106705700Y-114334802D01*
X106543802Y-114496700D01*
X106540645Y-114501208D01*
X106540643Y-114501211D01*
X106509488Y-114545705D01*
X106412477Y-114684251D01*
X106410154Y-114689233D01*
X106410151Y-114689238D01*
X106318039Y-114886775D01*
X106315716Y-114891757D01*
X106314294Y-114897065D01*
X106314293Y-114897067D01*
X106293019Y-114976461D01*
X106256457Y-115112913D01*
X106236502Y-115341000D01*
X106256457Y-115569087D01*
X106257881Y-115574400D01*
X106257881Y-115574402D01*
X106295025Y-115713022D01*
X106315716Y-115790243D01*
X106318039Y-115795224D01*
X106318039Y-115795225D01*
X106410151Y-115992762D01*
X106410154Y-115992767D01*
X106412477Y-115997749D01*
X106415634Y-116002257D01*
X106536469Y-116174827D01*
X106543802Y-116185300D01*
X106705700Y-116347198D01*
X106710208Y-116350355D01*
X106710211Y-116350357D01*
X106736949Y-116369079D01*
X106893251Y-116478523D01*
X106898233Y-116480846D01*
X106898238Y-116480849D01*
X106932457Y-116496805D01*
X106985742Y-116543722D01*
X107005203Y-116611999D01*
X106984661Y-116679959D01*
X106932457Y-116725195D01*
X106898238Y-116741151D01*
X106898233Y-116741154D01*
X106893251Y-116743477D01*
X106788389Y-116816902D01*
X106710211Y-116871643D01*
X106710208Y-116871645D01*
X106705700Y-116874802D01*
X106543802Y-117036700D01*
X106412477Y-117224251D01*
X106410154Y-117229233D01*
X106410151Y-117229238D01*
X106353435Y-117350867D01*
X106315716Y-117431757D01*
X106256457Y-117652913D01*
X106236502Y-117881000D01*
X106256457Y-118109087D01*
X106315716Y-118330243D01*
X106318039Y-118335224D01*
X106318039Y-118335225D01*
X106410151Y-118532762D01*
X106410154Y-118532767D01*
X106412477Y-118537749D01*
X106543802Y-118725300D01*
X106705700Y-118887198D01*
X106710208Y-118890355D01*
X106710211Y-118890357D01*
X106788389Y-118945098D01*
X106893251Y-119018523D01*
X106898233Y-119020846D01*
X106898238Y-119020849D01*
X107095775Y-119112961D01*
X107100757Y-119115284D01*
X107106065Y-119116706D01*
X107106067Y-119116707D01*
X107316598Y-119173119D01*
X107316600Y-119173119D01*
X107321913Y-119174543D01*
X107421480Y-119183254D01*
X107490149Y-119189262D01*
X107490156Y-119189262D01*
X107492873Y-119189500D01*
X108407127Y-119189500D01*
X108409844Y-119189262D01*
X108409851Y-119189262D01*
X108478520Y-119183254D01*
X108578087Y-119174543D01*
X108583400Y-119173119D01*
X108583402Y-119173119D01*
X108793933Y-119116707D01*
X108793935Y-119116706D01*
X108799243Y-119115284D01*
X108804225Y-119112961D01*
X109001762Y-119020849D01*
X109001767Y-119020846D01*
X109006749Y-119018523D01*
X109111611Y-118945098D01*
X109189789Y-118890357D01*
X109189792Y-118890355D01*
X109194300Y-118887198D01*
X109356198Y-118725300D01*
X109487523Y-118537749D01*
X109489846Y-118532767D01*
X109489849Y-118532762D01*
X109581961Y-118335225D01*
X109581961Y-118335224D01*
X109584284Y-118330243D01*
X109643543Y-118109087D01*
X109663498Y-117881000D01*
X109643543Y-117652913D01*
X109584284Y-117431757D01*
X109546565Y-117350867D01*
X109489849Y-117229238D01*
X109489846Y-117229233D01*
X109487523Y-117224251D01*
X109356198Y-117036700D01*
X109194300Y-116874802D01*
X109189792Y-116871645D01*
X109189789Y-116871643D01*
X109111611Y-116816902D01*
X109006749Y-116743477D01*
X109001767Y-116741154D01*
X109001762Y-116741151D01*
X108967543Y-116725195D01*
X108914258Y-116678278D01*
X108894797Y-116610001D01*
X108915339Y-116542041D01*
X108967543Y-116496805D01*
X109001762Y-116480849D01*
X109001767Y-116480846D01*
X109006749Y-116478523D01*
X109163051Y-116369079D01*
X109189789Y-116350357D01*
X109189792Y-116350355D01*
X109194300Y-116347198D01*
X109356198Y-116185300D01*
X109363532Y-116174827D01*
X109484366Y-116002257D01*
X109487523Y-115997749D01*
X109489846Y-115992767D01*
X109489849Y-115992762D01*
X109581961Y-115795225D01*
X109581961Y-115795224D01*
X109584284Y-115790243D01*
X109604976Y-115713022D01*
X109642119Y-115574402D01*
X109642119Y-115574400D01*
X109643543Y-115569087D01*
X109663498Y-115341000D01*
X109643543Y-115112913D01*
X109606981Y-114976461D01*
X109585707Y-114897067D01*
X109585706Y-114897065D01*
X109584284Y-114891757D01*
X109581961Y-114886775D01*
X109489849Y-114689238D01*
X109489846Y-114689233D01*
X109487523Y-114684251D01*
X109390512Y-114545705D01*
X109359357Y-114501211D01*
X109359355Y-114501208D01*
X109356198Y-114496700D01*
X109194300Y-114334802D01*
X109189792Y-114331645D01*
X109189789Y-114331643D01*
X109111611Y-114276902D01*
X109006749Y-114203477D01*
X109001767Y-114201154D01*
X109001762Y-114201151D01*
X108967543Y-114185195D01*
X108914258Y-114138278D01*
X108894797Y-114070001D01*
X108915339Y-114002041D01*
X108967543Y-113956805D01*
X109001762Y-113940849D01*
X109001767Y-113940846D01*
X109006749Y-113938523D01*
X109111611Y-113865098D01*
X109189789Y-113810357D01*
X109189792Y-113810355D01*
X109194300Y-113807198D01*
X109356198Y-113645300D01*
X109487523Y-113457749D01*
X109489846Y-113452767D01*
X109489849Y-113452762D01*
X109581961Y-113255225D01*
X109581961Y-113255224D01*
X109584284Y-113250243D01*
X109594175Y-113213332D01*
X109642119Y-113034402D01*
X109642119Y-113034400D01*
X109643543Y-113029087D01*
X109663498Y-112801000D01*
X109643543Y-112572913D01*
X109584284Y-112351757D01*
X109543175Y-112263598D01*
X109489849Y-112149238D01*
X109489846Y-112149233D01*
X109487523Y-112144251D01*
X109356198Y-111956700D01*
X109194300Y-111794802D01*
X109189792Y-111791645D01*
X109189789Y-111791643D01*
X109111611Y-111736902D01*
X109006749Y-111663477D01*
X109001767Y-111661154D01*
X109001762Y-111661151D01*
X108967543Y-111645195D01*
X108914258Y-111598278D01*
X108894797Y-111530001D01*
X108915339Y-111462041D01*
X108967543Y-111416805D01*
X109001762Y-111400849D01*
X109001767Y-111400846D01*
X109006749Y-111398523D01*
X109164686Y-111287934D01*
X109189789Y-111270357D01*
X109189792Y-111270355D01*
X109194300Y-111267198D01*
X109356198Y-111105300D01*
X109366547Y-111090521D01*
X109463325Y-110952307D01*
X109487523Y-110917749D01*
X109489846Y-110912767D01*
X109489849Y-110912762D01*
X109581961Y-110715225D01*
X109581961Y-110715224D01*
X109584284Y-110710243D01*
X109600759Y-110648760D01*
X109642119Y-110494402D01*
X109642119Y-110494400D01*
X109643543Y-110489087D01*
X109663498Y-110261000D01*
X109643543Y-110032913D01*
X109584284Y-109811757D01*
X109555305Y-109749611D01*
X109489849Y-109609238D01*
X109489846Y-109609233D01*
X109487523Y-109604251D01*
X109414098Y-109499389D01*
X109359357Y-109421211D01*
X109359355Y-109421208D01*
X109356198Y-109416700D01*
X109194300Y-109254802D01*
X109189792Y-109251645D01*
X109189789Y-109251643D01*
X109063483Y-109163203D01*
X109006749Y-109123477D01*
X109001767Y-109121154D01*
X109001762Y-109121151D01*
X108967543Y-109105195D01*
X108914258Y-109058278D01*
X108894797Y-108990001D01*
X108915339Y-108922041D01*
X108967543Y-108876805D01*
X109001762Y-108860849D01*
X109001767Y-108860846D01*
X109006749Y-108858523D01*
X109111611Y-108785098D01*
X109189789Y-108730357D01*
X109189792Y-108730355D01*
X109194300Y-108727198D01*
X109356198Y-108565300D01*
X109359357Y-108560789D01*
X109466181Y-108408229D01*
X109521638Y-108363901D01*
X109569394Y-108354500D01*
X111088803Y-108354500D01*
X111156924Y-108374502D01*
X111203417Y-108428158D01*
X111208326Y-108440623D01*
X111226450Y-108494946D01*
X111230301Y-108501170D01*
X111230302Y-108501171D01*
X111272398Y-108569197D01*
X111319522Y-108645348D01*
X111444697Y-108770305D01*
X111450927Y-108774145D01*
X111450928Y-108774146D01*
X111588090Y-108858694D01*
X111595262Y-108863115D01*
X111671687Y-108888464D01*
X111756611Y-108916632D01*
X111756613Y-108916632D01*
X111763139Y-108918797D01*
X111769975Y-108919497D01*
X111769978Y-108919498D01*
X111811207Y-108923722D01*
X111867600Y-108929500D01*
X112668400Y-108929500D01*
X112671646Y-108929163D01*
X112671650Y-108929163D01*
X112767308Y-108919238D01*
X112767312Y-108919237D01*
X112774166Y-108918526D01*
X112780702Y-108916345D01*
X112780704Y-108916345D01*
X112912806Y-108872272D01*
X112941946Y-108862550D01*
X113092348Y-108769478D01*
X113178784Y-108682891D01*
X113241066Y-108648812D01*
X113311886Y-108653815D01*
X113356975Y-108682736D01*
X113383755Y-108709469D01*
X113444697Y-108770305D01*
X113450927Y-108774145D01*
X113450928Y-108774146D01*
X113574616Y-108850389D01*
X113622110Y-108903162D01*
X113634500Y-108957649D01*
X113634500Y-110520233D01*
X113633973Y-110531416D01*
X113632298Y-110538909D01*
X113632547Y-110546835D01*
X113632547Y-110546836D01*
X113634438Y-110606986D01*
X113634500Y-110610945D01*
X113634500Y-110638856D01*
X113634997Y-110642790D01*
X113634997Y-110642791D01*
X113635005Y-110642856D01*
X113635938Y-110654693D01*
X113637327Y-110698889D01*
X113642073Y-110715225D01*
X113642978Y-110718339D01*
X113646987Y-110737700D01*
X113647222Y-110739556D01*
X113649526Y-110757797D01*
X113652445Y-110765168D01*
X113652445Y-110765170D01*
X113665804Y-110798912D01*
X113669649Y-110810142D01*
X113674886Y-110828168D01*
X113681982Y-110852593D01*
X113686015Y-110859412D01*
X113686017Y-110859417D01*
X113692293Y-110870028D01*
X113700988Y-110887776D01*
X113708448Y-110906617D01*
X113713110Y-110913033D01*
X113713110Y-110913034D01*
X113734436Y-110942387D01*
X113740952Y-110952307D01*
X113763458Y-110990362D01*
X113777779Y-111004683D01*
X113790619Y-111019716D01*
X113802528Y-111036107D01*
X113808634Y-111041158D01*
X113836605Y-111064298D01*
X113845384Y-111072288D01*
X122044595Y-119271499D01*
X122078621Y-119333811D01*
X122081500Y-119360594D01*
X122081500Y-121969134D01*
X122088255Y-122031316D01*
X122139385Y-122167705D01*
X122226739Y-122284261D01*
X122343295Y-122371615D01*
X122479684Y-122422745D01*
X122541866Y-122429500D01*
X125638134Y-122429500D01*
X125700316Y-122422745D01*
X125836705Y-122371615D01*
X125953261Y-122284261D01*
X126040615Y-122167705D01*
X126091745Y-122031316D01*
X126098500Y-121969134D01*
X126098500Y-118872866D01*
X126091745Y-118810684D01*
X126040615Y-118674295D01*
X125953261Y-118557739D01*
X125836705Y-118470385D01*
X125700316Y-118419255D01*
X125638134Y-118412500D01*
X123029594Y-118412500D01*
X122961473Y-118392498D01*
X122940499Y-118375595D01*
X121495558Y-116930654D01*
X122865618Y-116930654D01*
X122872673Y-116940627D01*
X122903679Y-116966551D01*
X122910598Y-116971579D01*
X123135272Y-117112515D01*
X123142807Y-117116556D01*
X123384520Y-117225694D01*
X123392551Y-117228680D01*
X123646832Y-117304002D01*
X123655184Y-117305869D01*
X123917340Y-117345984D01*
X123925874Y-117346700D01*
X124191045Y-117350867D01*
X124199596Y-117350418D01*
X124462883Y-117318557D01*
X124471284Y-117316955D01*
X124727824Y-117249653D01*
X124735926Y-117246926D01*
X124980949Y-117145434D01*
X124988617Y-117141628D01*
X125217598Y-117007822D01*
X125224679Y-117003009D01*
X125304655Y-116940301D01*
X125313125Y-116928442D01*
X125306608Y-116916818D01*
X124102812Y-115713022D01*
X124088868Y-115705408D01*
X124087035Y-115705539D01*
X124080420Y-115709790D01*
X122872910Y-116917300D01*
X122865618Y-116930654D01*
X121495558Y-116930654D01*
X119889108Y-115324204D01*
X122077665Y-115324204D01*
X122092932Y-115588969D01*
X122094005Y-115597470D01*
X122145065Y-115857722D01*
X122147276Y-115865974D01*
X122233184Y-116116894D01*
X122236499Y-116124779D01*
X122355664Y-116361713D01*
X122360020Y-116369079D01*
X122489347Y-116557250D01*
X122499601Y-116565594D01*
X122513342Y-116558448D01*
X123717978Y-115353812D01*
X123724356Y-115342132D01*
X124454408Y-115342132D01*
X124454539Y-115343965D01*
X124458790Y-115350580D01*
X125665730Y-116557520D01*
X125677939Y-116564187D01*
X125689439Y-116555497D01*
X125786831Y-116422913D01*
X125791418Y-116415685D01*
X125917962Y-116182621D01*
X125921530Y-116174827D01*
X126015271Y-115926750D01*
X126017748Y-115918544D01*
X126076954Y-115660038D01*
X126078294Y-115651577D01*
X126102031Y-115385616D01*
X126102277Y-115380677D01*
X126102666Y-115343485D01*
X126102523Y-115338519D01*
X126084362Y-115072123D01*
X126083201Y-115063649D01*
X126029419Y-114803944D01*
X126027120Y-114795709D01*
X125938588Y-114545705D01*
X125935191Y-114537854D01*
X125813550Y-114302178D01*
X125809122Y-114294866D01*
X125690031Y-114125417D01*
X125679509Y-114117037D01*
X125666121Y-114124089D01*
X124462022Y-115328188D01*
X124454408Y-115342132D01*
X123724356Y-115342132D01*
X123725592Y-115339868D01*
X123725461Y-115338035D01*
X123721210Y-115331420D01*
X122513814Y-114124024D01*
X122501804Y-114117466D01*
X122490064Y-114126434D01*
X122381935Y-114276911D01*
X122377418Y-114284196D01*
X122253325Y-114518567D01*
X122249839Y-114526395D01*
X122158700Y-114775446D01*
X122156311Y-114783670D01*
X122099812Y-115042795D01*
X122098563Y-115051250D01*
X122077754Y-115315653D01*
X122077665Y-115324204D01*
X119889108Y-115324204D01*
X118318404Y-113753500D01*
X122866584Y-113753500D01*
X122872980Y-113764770D01*
X124077188Y-114968978D01*
X124091132Y-114976592D01*
X124092965Y-114976461D01*
X124099580Y-114972210D01*
X125306604Y-113765186D01*
X125313795Y-113752017D01*
X125306473Y-113741780D01*
X125259233Y-113703115D01*
X125252261Y-113698160D01*
X125026122Y-113559582D01*
X125018552Y-113555624D01*
X124775704Y-113449022D01*
X124767644Y-113446120D01*
X124512592Y-113373467D01*
X124504214Y-113371685D01*
X124241656Y-113334318D01*
X124233111Y-113333691D01*
X123967908Y-113332302D01*
X123959374Y-113332839D01*
X123696433Y-113367456D01*
X123688035Y-113369149D01*
X123432238Y-113439127D01*
X123424143Y-113441946D01*
X123180199Y-113545997D01*
X123172577Y-113549881D01*
X122945013Y-113686075D01*
X122937981Y-113690962D01*
X122875053Y-113741377D01*
X122866584Y-113753500D01*
X118318404Y-113753500D01*
X114938405Y-110373500D01*
X114904379Y-110311188D01*
X114901500Y-110284405D01*
X114901500Y-108957781D01*
X114921502Y-108889660D01*
X114961197Y-108850637D01*
X115086120Y-108773332D01*
X115092348Y-108769478D01*
X115217305Y-108644303D01*
X115221146Y-108638072D01*
X115306275Y-108499968D01*
X115306276Y-108499966D01*
X115310115Y-108493738D01*
X115365797Y-108325861D01*
X115376500Y-108221400D01*
X115376500Y-107220600D01*
X115373415Y-107190867D01*
X115366238Y-107121692D01*
X115366237Y-107121688D01*
X115365526Y-107114834D01*
X115349734Y-107067498D01*
X115311868Y-106954002D01*
X115309550Y-106947054D01*
X115216478Y-106796652D01*
X115091303Y-106671695D01*
X114957508Y-106589222D01*
X114946968Y-106582725D01*
X114946966Y-106582724D01*
X114940738Y-106578885D01*
X114807123Y-106534567D01*
X114779389Y-106525368D01*
X114779387Y-106525368D01*
X114772861Y-106523203D01*
X114766025Y-106522503D01*
X114766022Y-106522502D01*
X114722099Y-106518002D01*
X114668400Y-106512500D01*
X113867600Y-106512500D01*
X113864354Y-106512837D01*
X113864350Y-106512837D01*
X113768692Y-106522762D01*
X113768688Y-106522763D01*
X113761834Y-106523474D01*
X113755298Y-106525655D01*
X113755296Y-106525655D01*
X113636781Y-106565195D01*
X113594054Y-106579450D01*
X113443652Y-106672522D01*
X113397556Y-106718699D01*
X113357216Y-106759109D01*
X113294934Y-106793188D01*
X113224114Y-106788185D01*
X113179025Y-106759264D01*
X113096483Y-106676866D01*
X113091303Y-106671695D01*
X112957508Y-106589222D01*
X112946968Y-106582725D01*
X112946966Y-106582724D01*
X112940738Y-106578885D01*
X112807123Y-106534567D01*
X112779389Y-106525368D01*
X112779387Y-106525368D01*
X112772861Y-106523203D01*
X112766025Y-106522503D01*
X112766022Y-106522502D01*
X112722099Y-106518002D01*
X112668400Y-106512500D01*
X111867600Y-106512500D01*
X111864354Y-106512837D01*
X111864350Y-106512837D01*
X111768692Y-106522762D01*
X111768688Y-106522763D01*
X111761834Y-106523474D01*
X111755298Y-106525655D01*
X111755296Y-106525655D01*
X111636781Y-106565195D01*
X111594054Y-106579450D01*
X111443652Y-106672522D01*
X111318695Y-106797697D01*
X111314855Y-106803927D01*
X111314854Y-106803928D01*
X111269997Y-106876700D01*
X111225885Y-106948262D01*
X111214818Y-106981628D01*
X111208337Y-107001168D01*
X111167906Y-107059527D01*
X111102342Y-107086764D01*
X111088744Y-107087500D01*
X109569394Y-107087500D01*
X109501273Y-107067498D01*
X109466181Y-107033771D01*
X109359357Y-106881211D01*
X109359355Y-106881208D01*
X109356198Y-106876700D01*
X109194300Y-106714802D01*
X109189792Y-106711645D01*
X109189789Y-106711643D01*
X109111611Y-106656902D01*
X109006749Y-106583477D01*
X109001767Y-106581154D01*
X109001762Y-106581151D01*
X108967543Y-106565195D01*
X108914258Y-106518278D01*
X108894797Y-106450001D01*
X108915339Y-106382041D01*
X108967543Y-106336805D01*
X109001762Y-106320849D01*
X109001767Y-106320846D01*
X109006749Y-106318523D01*
X109163051Y-106209079D01*
X109189789Y-106190357D01*
X109189792Y-106190355D01*
X109194300Y-106187198D01*
X109356198Y-106025300D01*
X109363532Y-106014827D01*
X109484366Y-105842257D01*
X109487523Y-105837749D01*
X109489846Y-105832767D01*
X109489849Y-105832762D01*
X109581961Y-105635225D01*
X109581961Y-105635224D01*
X109584284Y-105630243D01*
X109594150Y-105593425D01*
X109642119Y-105414402D01*
X109642119Y-105414400D01*
X109643543Y-105409087D01*
X109663498Y-105181000D01*
X109643543Y-104952913D01*
X109636600Y-104927000D01*
X109585707Y-104737067D01*
X109585706Y-104737065D01*
X109584284Y-104731757D01*
X109572092Y-104705610D01*
X109489849Y-104529238D01*
X109489846Y-104529233D01*
X109487523Y-104524251D01*
X109390512Y-104385705D01*
X109359357Y-104341211D01*
X109359355Y-104341208D01*
X109356198Y-104336700D01*
X109194300Y-104174802D01*
X109189792Y-104171645D01*
X109189789Y-104171643D01*
X109079957Y-104094738D01*
X109006749Y-104043477D01*
X109001767Y-104041154D01*
X109001762Y-104041151D01*
X108967543Y-104025195D01*
X108914258Y-103978278D01*
X108894797Y-103910001D01*
X108915339Y-103842041D01*
X108967543Y-103796805D01*
X109001762Y-103780849D01*
X109001767Y-103780846D01*
X109006749Y-103778523D01*
X109111611Y-103705098D01*
X109189789Y-103650357D01*
X109189792Y-103650355D01*
X109194300Y-103647198D01*
X109356198Y-103485300D01*
X109418990Y-103395624D01*
X109466181Y-103328229D01*
X109521638Y-103283901D01*
X109569394Y-103274500D01*
X111088803Y-103274500D01*
X111156924Y-103294502D01*
X111203417Y-103348158D01*
X111208326Y-103360623D01*
X111220004Y-103395624D01*
X111226450Y-103414946D01*
X111230301Y-103421170D01*
X111230302Y-103421171D01*
X111272398Y-103489197D01*
X111319522Y-103565348D01*
X111324704Y-103570521D01*
X111362965Y-103608715D01*
X111444697Y-103690305D01*
X111450927Y-103694145D01*
X111450928Y-103694146D01*
X111588090Y-103778694D01*
X111595262Y-103783115D01*
X111675005Y-103809564D01*
X111756611Y-103836632D01*
X111756613Y-103836632D01*
X111763139Y-103838797D01*
X111769975Y-103839497D01*
X111769978Y-103839498D01*
X111811207Y-103843722D01*
X111867600Y-103849500D01*
X112668400Y-103849500D01*
X112671646Y-103849163D01*
X112671650Y-103849163D01*
X112767308Y-103839238D01*
X112767312Y-103839237D01*
X112774166Y-103838526D01*
X112780702Y-103836345D01*
X112780704Y-103836345D01*
X112912806Y-103792272D01*
X112941946Y-103782550D01*
X113092348Y-103689478D01*
X113178784Y-103602891D01*
X113241066Y-103568812D01*
X113311886Y-103573815D01*
X113356975Y-103602736D01*
X113397611Y-103643301D01*
X113444697Y-103690305D01*
X113450927Y-103694145D01*
X113450928Y-103694146D01*
X113588090Y-103778694D01*
X113595262Y-103783115D01*
X113675005Y-103809564D01*
X113756611Y-103836632D01*
X113756613Y-103836632D01*
X113763139Y-103838797D01*
X113769975Y-103839497D01*
X113769978Y-103839498D01*
X113811207Y-103843722D01*
X113867600Y-103849500D01*
X114528406Y-103849500D01*
X114596527Y-103869502D01*
X114617501Y-103886405D01*
X121384343Y-110653247D01*
X121391887Y-110661537D01*
X121396000Y-110668018D01*
X121401777Y-110673443D01*
X121445667Y-110714658D01*
X121448509Y-110717413D01*
X121468230Y-110737134D01*
X121471425Y-110739612D01*
X121480447Y-110747318D01*
X121512679Y-110777586D01*
X121519628Y-110781406D01*
X121530432Y-110787346D01*
X121546956Y-110798199D01*
X121562959Y-110810613D01*
X121603543Y-110828176D01*
X121614173Y-110833383D01*
X121652940Y-110854695D01*
X121660617Y-110856666D01*
X121660622Y-110856668D01*
X121672558Y-110859732D01*
X121691266Y-110866137D01*
X121709855Y-110874181D01*
X121717680Y-110875420D01*
X121717682Y-110875421D01*
X121753519Y-110881097D01*
X121765140Y-110883504D01*
X121800289Y-110892528D01*
X121807970Y-110894500D01*
X121828231Y-110894500D01*
X121847940Y-110896051D01*
X121867943Y-110899219D01*
X121875835Y-110898473D01*
X121881062Y-110897979D01*
X121911954Y-110895059D01*
X121923811Y-110894500D01*
X121955500Y-110894500D01*
X122023621Y-110914502D01*
X122070114Y-110968158D01*
X122081500Y-111020500D01*
X122081500Y-111809134D01*
X122088255Y-111871316D01*
X122139385Y-112007705D01*
X122226739Y-112124261D01*
X122343295Y-112211615D01*
X122479684Y-112262745D01*
X122541866Y-112269500D01*
X125638134Y-112269500D01*
X125700316Y-112262745D01*
X125836705Y-112211615D01*
X125953261Y-112124261D01*
X126040615Y-112007705D01*
X126091745Y-111871316D01*
X126098500Y-111809134D01*
X126098500Y-108712866D01*
X126091745Y-108650684D01*
X126040615Y-108514295D01*
X125953261Y-108397739D01*
X125836705Y-108310385D01*
X125700316Y-108259255D01*
X125638134Y-108252500D01*
X122541866Y-108252500D01*
X122479684Y-108259255D01*
X122343295Y-108310385D01*
X122226739Y-108397739D01*
X122139385Y-108514295D01*
X122088255Y-108650684D01*
X122081500Y-108712866D01*
X122081500Y-109254405D01*
X122061498Y-109322526D01*
X122007842Y-109369019D01*
X121937568Y-109379123D01*
X121872988Y-109349629D01*
X121866405Y-109343500D01*
X119293559Y-106770654D01*
X122865618Y-106770654D01*
X122872673Y-106780627D01*
X122903679Y-106806551D01*
X122910598Y-106811579D01*
X123135272Y-106952515D01*
X123142807Y-106956556D01*
X123384520Y-107065694D01*
X123392551Y-107068680D01*
X123646832Y-107144002D01*
X123655184Y-107145869D01*
X123917340Y-107185984D01*
X123925874Y-107186700D01*
X124191045Y-107190867D01*
X124199596Y-107190418D01*
X124462883Y-107158557D01*
X124471284Y-107156955D01*
X124727824Y-107089653D01*
X124735926Y-107086926D01*
X124980949Y-106985434D01*
X124988617Y-106981628D01*
X125217598Y-106847822D01*
X125224679Y-106843009D01*
X125304655Y-106780301D01*
X125313125Y-106768442D01*
X125306608Y-106756818D01*
X124102812Y-105553022D01*
X124088868Y-105545408D01*
X124087035Y-105545539D01*
X124080420Y-105549790D01*
X122872910Y-106757300D01*
X122865618Y-106770654D01*
X119293559Y-106770654D01*
X117687109Y-105164204D01*
X122077665Y-105164204D01*
X122092932Y-105428969D01*
X122094005Y-105437470D01*
X122145065Y-105697722D01*
X122147276Y-105705974D01*
X122233184Y-105956894D01*
X122236499Y-105964779D01*
X122355664Y-106201713D01*
X122360020Y-106209079D01*
X122489347Y-106397250D01*
X122499601Y-106405594D01*
X122513342Y-106398448D01*
X123717978Y-105193812D01*
X123724356Y-105182132D01*
X124454408Y-105182132D01*
X124454539Y-105183965D01*
X124458790Y-105190580D01*
X125665730Y-106397520D01*
X125677939Y-106404187D01*
X125689439Y-106395497D01*
X125786831Y-106262913D01*
X125791418Y-106255685D01*
X125917962Y-106022621D01*
X125921530Y-106014827D01*
X126015271Y-105766750D01*
X126017748Y-105758544D01*
X126076954Y-105500038D01*
X126078294Y-105491577D01*
X126102031Y-105225616D01*
X126102277Y-105220677D01*
X126102666Y-105183485D01*
X126102523Y-105178519D01*
X126084362Y-104912123D01*
X126083201Y-104903649D01*
X126029419Y-104643944D01*
X126027120Y-104635709D01*
X125938588Y-104385705D01*
X125935191Y-104377854D01*
X125813550Y-104142178D01*
X125809122Y-104134866D01*
X125690031Y-103965417D01*
X125679509Y-103957037D01*
X125666121Y-103964089D01*
X124462022Y-105168188D01*
X124454408Y-105182132D01*
X123724356Y-105182132D01*
X123725592Y-105179868D01*
X123725461Y-105178035D01*
X123721210Y-105171420D01*
X122513814Y-103964024D01*
X122501804Y-103957466D01*
X122490064Y-103966434D01*
X122381935Y-104116911D01*
X122377418Y-104124196D01*
X122253325Y-104358567D01*
X122249839Y-104366395D01*
X122158700Y-104615446D01*
X122156311Y-104623670D01*
X122099812Y-104882795D01*
X122098563Y-104891250D01*
X122077754Y-105155653D01*
X122077665Y-105164204D01*
X117687109Y-105164204D01*
X116116405Y-103593500D01*
X122866584Y-103593500D01*
X122872980Y-103604770D01*
X124077188Y-104808978D01*
X124091132Y-104816592D01*
X124092965Y-104816461D01*
X124099580Y-104812210D01*
X125306604Y-103605186D01*
X125313795Y-103592017D01*
X125306473Y-103581780D01*
X125259233Y-103543115D01*
X125252261Y-103538160D01*
X125026122Y-103399582D01*
X125018552Y-103395624D01*
X124775704Y-103289022D01*
X124767644Y-103286120D01*
X124512592Y-103213467D01*
X124504214Y-103211685D01*
X124241656Y-103174318D01*
X124233111Y-103173691D01*
X123967908Y-103172302D01*
X123959374Y-103172839D01*
X123696433Y-103207456D01*
X123688035Y-103209149D01*
X123432238Y-103279127D01*
X123424143Y-103281946D01*
X123180199Y-103385997D01*
X123172577Y-103389881D01*
X122945013Y-103526075D01*
X122937981Y-103530962D01*
X122875053Y-103581377D01*
X122866584Y-103593500D01*
X116116405Y-103593500D01*
X115413405Y-102890500D01*
X115379379Y-102828188D01*
X115376500Y-102801405D01*
X115376500Y-102140600D01*
X115372661Y-102103598D01*
X115366238Y-102041692D01*
X115366237Y-102041688D01*
X115365526Y-102034834D01*
X115349734Y-101987498D01*
X115311868Y-101874002D01*
X115309550Y-101867054D01*
X115216478Y-101716652D01*
X115091303Y-101591695D01*
X115028047Y-101552703D01*
X114946968Y-101502725D01*
X114946966Y-101502724D01*
X114940738Y-101498885D01*
X114924569Y-101493522D01*
X114915570Y-101490537D01*
X114857209Y-101450107D01*
X114829972Y-101384543D01*
X114842505Y-101314661D01*
X114890829Y-101262649D01*
X114915359Y-101251421D01*
X114934993Y-101244871D01*
X114935003Y-101244867D01*
X114941946Y-101242550D01*
X115092348Y-101149478D01*
X115217305Y-101024303D01*
X115221146Y-101018072D01*
X115306275Y-100879968D01*
X115306276Y-100879966D01*
X115310115Y-100873738D01*
X115327663Y-100820832D01*
X115368094Y-100762473D01*
X115433658Y-100735236D01*
X115447256Y-100734500D01*
X121955500Y-100734500D01*
X122023621Y-100754502D01*
X122070114Y-100808158D01*
X122081500Y-100860500D01*
X122081500Y-101649134D01*
X122088255Y-101711316D01*
X122139385Y-101847705D01*
X122226739Y-101964261D01*
X122343295Y-102051615D01*
X122479684Y-102102745D01*
X122541866Y-102109500D01*
X125638134Y-102109500D01*
X125700316Y-102102745D01*
X125836705Y-102051615D01*
X125953261Y-101964261D01*
X126040615Y-101847705D01*
X126091745Y-101711316D01*
X126098500Y-101649134D01*
X126098500Y-98552866D01*
X126091745Y-98490684D01*
X126040615Y-98354295D01*
X125953261Y-98237739D01*
X125836705Y-98150385D01*
X125700316Y-98099255D01*
X125638134Y-98092500D01*
X122541866Y-98092500D01*
X122479684Y-98099255D01*
X122343295Y-98150385D01*
X122226739Y-98237739D01*
X122139385Y-98354295D01*
X122088255Y-98490684D01*
X122081500Y-98552866D01*
X122081500Y-99341500D01*
X122061498Y-99409621D01*
X122007842Y-99456114D01*
X121955500Y-99467500D01*
X115447197Y-99467500D01*
X115379076Y-99447498D01*
X115332583Y-99393842D01*
X115327674Y-99381377D01*
X115311867Y-99333998D01*
X115311866Y-99333996D01*
X115309550Y-99327054D01*
X115266014Y-99256700D01*
X115220332Y-99182880D01*
X115216478Y-99176652D01*
X115091303Y-99051695D01*
X115058539Y-99031499D01*
X114946968Y-98962725D01*
X114946966Y-98962724D01*
X114940738Y-98958885D01*
X114924569Y-98953522D01*
X114915570Y-98950537D01*
X114857209Y-98910107D01*
X114829972Y-98844543D01*
X114842505Y-98774661D01*
X114890829Y-98722649D01*
X114915359Y-98711421D01*
X114934993Y-98704871D01*
X114935003Y-98704867D01*
X114941946Y-98702550D01*
X115092348Y-98609478D01*
X115217305Y-98484303D01*
X115239415Y-98448434D01*
X115306275Y-98339968D01*
X115306276Y-98339966D01*
X115310115Y-98333738D01*
X115343741Y-98232358D01*
X115363632Y-98172389D01*
X115363632Y-98172387D01*
X115365797Y-98165861D01*
X115376500Y-98061400D01*
X115376500Y-97400594D01*
X115396502Y-97332473D01*
X115413405Y-97311499D01*
X116114250Y-96610654D01*
X122865618Y-96610654D01*
X122872673Y-96620627D01*
X122903679Y-96646551D01*
X122910598Y-96651579D01*
X123135272Y-96792515D01*
X123142807Y-96796556D01*
X123384520Y-96905694D01*
X123392551Y-96908680D01*
X123646832Y-96984002D01*
X123655184Y-96985869D01*
X123917340Y-97025984D01*
X123925874Y-97026700D01*
X124191045Y-97030867D01*
X124199596Y-97030418D01*
X124462883Y-96998557D01*
X124471284Y-96996955D01*
X124727824Y-96929653D01*
X124735926Y-96926926D01*
X124980949Y-96825434D01*
X124988617Y-96821628D01*
X125217598Y-96687822D01*
X125224679Y-96683009D01*
X125304655Y-96620301D01*
X125313125Y-96608442D01*
X125306608Y-96596818D01*
X124102812Y-95393022D01*
X124088868Y-95385408D01*
X124087035Y-95385539D01*
X124080420Y-95389790D01*
X122872910Y-96597300D01*
X122865618Y-96610654D01*
X116114250Y-96610654D01*
X117720700Y-95004204D01*
X122077665Y-95004204D01*
X122092932Y-95268969D01*
X122094005Y-95277470D01*
X122145065Y-95537722D01*
X122147276Y-95545974D01*
X122233184Y-95796894D01*
X122236499Y-95804779D01*
X122355664Y-96041713D01*
X122360020Y-96049079D01*
X122489347Y-96237250D01*
X122499601Y-96245594D01*
X122513342Y-96238448D01*
X123717978Y-95033812D01*
X123724356Y-95022132D01*
X124454408Y-95022132D01*
X124454539Y-95023965D01*
X124458790Y-95030580D01*
X125665730Y-96237520D01*
X125677939Y-96244187D01*
X125689439Y-96235497D01*
X125786831Y-96102913D01*
X125791418Y-96095685D01*
X125917962Y-95862621D01*
X125921530Y-95854827D01*
X126015271Y-95606750D01*
X126017748Y-95598544D01*
X126076954Y-95340038D01*
X126078294Y-95331577D01*
X126102031Y-95065616D01*
X126102277Y-95060677D01*
X126102666Y-95023485D01*
X126102523Y-95018519D01*
X126084362Y-94752123D01*
X126083201Y-94743649D01*
X126029419Y-94483944D01*
X126027120Y-94475709D01*
X125938588Y-94225705D01*
X125935191Y-94217854D01*
X125813550Y-93982178D01*
X125809122Y-93974866D01*
X125690031Y-93805417D01*
X125679509Y-93797037D01*
X125666121Y-93804089D01*
X124462022Y-95008188D01*
X124454408Y-95022132D01*
X123724356Y-95022132D01*
X123725592Y-95019868D01*
X123725461Y-95018035D01*
X123721210Y-95011420D01*
X122513814Y-93804024D01*
X122501804Y-93797466D01*
X122490064Y-93806434D01*
X122381935Y-93956911D01*
X122377418Y-93964196D01*
X122253325Y-94198567D01*
X122249839Y-94206395D01*
X122158700Y-94455446D01*
X122156311Y-94463670D01*
X122099812Y-94722795D01*
X122098563Y-94731250D01*
X122077754Y-94995653D01*
X122077665Y-95004204D01*
X117720700Y-95004204D01*
X119291404Y-93433500D01*
X122866584Y-93433500D01*
X122872980Y-93444770D01*
X124077188Y-94648978D01*
X124091132Y-94656592D01*
X124092965Y-94656461D01*
X124099580Y-94652210D01*
X125306604Y-93445186D01*
X125313795Y-93432017D01*
X125306473Y-93421780D01*
X125259233Y-93383115D01*
X125252261Y-93378160D01*
X125026122Y-93239582D01*
X125018552Y-93235624D01*
X124775704Y-93129022D01*
X124767644Y-93126120D01*
X124512592Y-93053467D01*
X124504214Y-93051685D01*
X124241656Y-93014318D01*
X124233111Y-93013691D01*
X123967908Y-93012302D01*
X123959374Y-93012839D01*
X123696433Y-93047456D01*
X123688035Y-93049149D01*
X123432238Y-93119127D01*
X123424143Y-93121946D01*
X123180199Y-93225997D01*
X123172577Y-93229881D01*
X122945013Y-93366075D01*
X122937981Y-93370962D01*
X122875053Y-93421377D01*
X122866584Y-93433500D01*
X119291404Y-93433500D01*
X121866405Y-90858499D01*
X121928717Y-90824473D01*
X121999532Y-90829538D01*
X122056368Y-90872085D01*
X122081179Y-90938605D01*
X122081500Y-90947594D01*
X122081500Y-91489134D01*
X122088255Y-91551316D01*
X122139385Y-91687705D01*
X122226739Y-91804261D01*
X122343295Y-91891615D01*
X122479684Y-91942745D01*
X122541866Y-91949500D01*
X125638134Y-91949500D01*
X125700316Y-91942745D01*
X125836705Y-91891615D01*
X125953261Y-91804261D01*
X126040615Y-91687705D01*
X126091745Y-91551316D01*
X126098500Y-91489134D01*
X126098500Y-88392866D01*
X126091745Y-88330684D01*
X126040615Y-88194295D01*
X125953261Y-88077739D01*
X125836705Y-87990385D01*
X125700316Y-87939255D01*
X125638134Y-87932500D01*
X122541866Y-87932500D01*
X122479684Y-87939255D01*
X122343295Y-87990385D01*
X122226739Y-88077739D01*
X122139385Y-88194295D01*
X122088255Y-88330684D01*
X122081500Y-88392866D01*
X122081500Y-89180435D01*
X122061498Y-89248556D01*
X122007842Y-89295049D01*
X121948086Y-89305128D01*
X121948091Y-89305299D01*
X121946835Y-89305338D01*
X121946832Y-89305339D01*
X121880033Y-89307438D01*
X121876075Y-89307500D01*
X121848144Y-89307500D01*
X121844229Y-89307995D01*
X121844225Y-89307995D01*
X121844167Y-89308003D01*
X121844138Y-89308006D01*
X121832296Y-89308939D01*
X121788110Y-89310327D01*
X121770744Y-89315372D01*
X121768658Y-89315978D01*
X121749306Y-89319986D01*
X121742235Y-89320880D01*
X121729203Y-89322526D01*
X121721834Y-89325443D01*
X121721832Y-89325444D01*
X121688097Y-89338800D01*
X121676869Y-89342645D01*
X121634407Y-89354982D01*
X121627585Y-89359016D01*
X121627579Y-89359019D01*
X121616968Y-89365294D01*
X121599218Y-89373990D01*
X121587756Y-89378528D01*
X121587751Y-89378531D01*
X121580383Y-89381448D01*
X121573968Y-89386109D01*
X121544625Y-89407427D01*
X121534707Y-89413943D01*
X121516257Y-89424855D01*
X121496637Y-89436458D01*
X121482313Y-89450782D01*
X121467281Y-89463621D01*
X121450893Y-89475528D01*
X121422712Y-89509593D01*
X121414722Y-89518373D01*
X115591595Y-95341500D01*
X115529283Y-95375526D01*
X115458468Y-95370461D01*
X115401632Y-95327914D01*
X115376821Y-95261394D01*
X115376500Y-95252405D01*
X115376500Y-94520600D01*
X115372697Y-94483944D01*
X115366238Y-94421692D01*
X115366237Y-94421688D01*
X115365526Y-94414834D01*
X115349734Y-94367498D01*
X115311868Y-94254002D01*
X115309550Y-94247054D01*
X115216478Y-94096652D01*
X115091303Y-93971695D01*
X115085072Y-93967854D01*
X114961384Y-93891611D01*
X114913890Y-93838838D01*
X114901500Y-93784351D01*
X114901500Y-89917594D01*
X114921502Y-89849473D01*
X114938405Y-89828499D01*
X118316250Y-86450654D01*
X122865618Y-86450654D01*
X122872673Y-86460627D01*
X122903679Y-86486551D01*
X122910598Y-86491579D01*
X123135272Y-86632515D01*
X123142807Y-86636556D01*
X123384520Y-86745694D01*
X123392551Y-86748680D01*
X123646832Y-86824002D01*
X123655184Y-86825869D01*
X123917340Y-86865984D01*
X123925874Y-86866700D01*
X124191045Y-86870867D01*
X124199596Y-86870418D01*
X124462883Y-86838557D01*
X124471284Y-86836955D01*
X124727824Y-86769653D01*
X124735926Y-86766926D01*
X124980949Y-86665434D01*
X124988617Y-86661628D01*
X125217598Y-86527822D01*
X125224679Y-86523009D01*
X125304655Y-86460301D01*
X125313125Y-86448442D01*
X125306608Y-86436818D01*
X124102812Y-85233022D01*
X124088868Y-85225408D01*
X124087035Y-85225539D01*
X124080420Y-85229790D01*
X122872910Y-86437300D01*
X122865618Y-86450654D01*
X118316250Y-86450654D01*
X119922700Y-84844204D01*
X122077665Y-84844204D01*
X122092932Y-85108969D01*
X122094005Y-85117470D01*
X122145065Y-85377722D01*
X122147276Y-85385974D01*
X122233184Y-85636894D01*
X122236499Y-85644779D01*
X122355664Y-85881713D01*
X122360020Y-85889079D01*
X122489347Y-86077250D01*
X122499601Y-86085594D01*
X122513342Y-86078448D01*
X123717978Y-84873812D01*
X123724356Y-84862132D01*
X124454408Y-84862132D01*
X124454539Y-84863965D01*
X124458790Y-84870580D01*
X125665730Y-86077520D01*
X125677939Y-86084187D01*
X125689439Y-86075497D01*
X125786831Y-85942913D01*
X125791418Y-85935685D01*
X125917962Y-85702621D01*
X125921530Y-85694827D01*
X126015271Y-85446750D01*
X126017748Y-85438544D01*
X126076954Y-85180038D01*
X126078294Y-85171577D01*
X126102031Y-84905616D01*
X126102277Y-84900677D01*
X126102666Y-84863485D01*
X126102523Y-84858519D01*
X126084362Y-84592123D01*
X126083201Y-84583649D01*
X126029419Y-84323944D01*
X126027120Y-84315709D01*
X125938588Y-84065705D01*
X125935191Y-84057854D01*
X125813550Y-83822178D01*
X125809122Y-83814866D01*
X125690031Y-83645417D01*
X125679509Y-83637037D01*
X125666121Y-83644089D01*
X124462022Y-84848188D01*
X124454408Y-84862132D01*
X123724356Y-84862132D01*
X123725592Y-84859868D01*
X123725461Y-84858035D01*
X123721210Y-84851420D01*
X122513814Y-83644024D01*
X122501804Y-83637466D01*
X122490064Y-83646434D01*
X122381935Y-83796911D01*
X122377418Y-83804196D01*
X122253325Y-84038567D01*
X122249839Y-84046395D01*
X122158700Y-84295446D01*
X122156311Y-84303670D01*
X122099812Y-84562795D01*
X122098563Y-84571250D01*
X122077754Y-84835653D01*
X122077665Y-84844204D01*
X119922700Y-84844204D01*
X121493404Y-83273500D01*
X122866584Y-83273500D01*
X122872980Y-83284770D01*
X124077188Y-84488978D01*
X124091132Y-84496592D01*
X124092965Y-84496461D01*
X124099580Y-84492210D01*
X125306604Y-83285186D01*
X125313795Y-83272017D01*
X125306473Y-83261780D01*
X125259233Y-83223115D01*
X125252261Y-83218160D01*
X125026122Y-83079582D01*
X125018552Y-83075624D01*
X124775704Y-82969022D01*
X124767644Y-82966120D01*
X124512592Y-82893467D01*
X124504214Y-82891685D01*
X124241656Y-82854318D01*
X124233111Y-82853691D01*
X123967908Y-82852302D01*
X123959374Y-82852839D01*
X123696433Y-82887456D01*
X123688035Y-82889149D01*
X123432238Y-82959127D01*
X123424143Y-82961946D01*
X123180199Y-83065997D01*
X123172577Y-83069881D01*
X122945013Y-83206075D01*
X122937981Y-83210962D01*
X122875053Y-83261377D01*
X122866584Y-83273500D01*
X121493404Y-83273500D01*
X123127382Y-81639522D01*
X123189694Y-81605496D01*
X123260509Y-81610561D01*
X123268328Y-81613780D01*
X123384345Y-81666164D01*
X123384349Y-81666166D01*
X123388257Y-81667930D01*
X123392377Y-81669150D01*
X123392376Y-81669150D01*
X123646723Y-81744491D01*
X123646727Y-81744492D01*
X123650836Y-81745709D01*
X123655070Y-81746357D01*
X123655075Y-81746358D01*
X123917298Y-81786483D01*
X123917300Y-81786483D01*
X123921540Y-81787132D01*
X124060912Y-81789322D01*
X124191071Y-81791367D01*
X124191077Y-81791367D01*
X124195362Y-81791434D01*
X124467235Y-81758534D01*
X124732127Y-81689041D01*
X124736087Y-81687401D01*
X124736092Y-81687399D01*
X124858631Y-81636641D01*
X124985136Y-81584241D01*
X125221582Y-81446073D01*
X125437089Y-81277094D01*
X125627669Y-81080431D01*
X125630202Y-81076983D01*
X125630206Y-81076978D01*
X125787257Y-80863178D01*
X125789795Y-80859723D01*
X125857538Y-80734956D01*
X125918418Y-80622830D01*
X125918419Y-80622828D01*
X125920468Y-80619054D01*
X126017269Y-80362877D01*
X126056100Y-80193332D01*
X126077449Y-80100117D01*
X126077450Y-80100113D01*
X126078407Y-80095933D01*
X126085684Y-80014402D01*
X126102531Y-79825627D01*
X126102531Y-79825625D01*
X126102751Y-79823161D01*
X126103193Y-79781000D01*
X126100331Y-79739022D01*
X126084859Y-79512055D01*
X126084858Y-79512049D01*
X126084567Y-79507778D01*
X126083248Y-79501406D01*
X126029901Y-79243809D01*
X126029032Y-79239612D01*
X125937617Y-78981465D01*
X125866597Y-78843866D01*
X125813978Y-78741919D01*
X125813978Y-78741918D01*
X125812013Y-78738112D01*
X125806039Y-78729611D01*
X125732654Y-78625195D01*
X125654545Y-78514057D01*
X125528599Y-78378523D01*
X125471046Y-78316588D01*
X125471043Y-78316585D01*
X125468125Y-78313445D01*
X125464810Y-78310731D01*
X125464806Y-78310728D01*
X125259523Y-78142706D01*
X125256205Y-78139990D01*
X125022704Y-77996901D01*
X125018768Y-77995173D01*
X124775873Y-77888549D01*
X124775869Y-77888548D01*
X124771945Y-77886825D01*
X124508566Y-77811800D01*
X124504324Y-77811196D01*
X124504318Y-77811195D01*
X124303834Y-77782662D01*
X124237443Y-77773213D01*
X124093589Y-77772460D01*
X123967877Y-77771802D01*
X123967871Y-77771802D01*
X123963591Y-77771780D01*
X123959347Y-77772339D01*
X123959343Y-77772339D01*
X123840302Y-77788011D01*
X123692078Y-77807525D01*
X123687938Y-77808658D01*
X123687936Y-77808658D01*
X123615008Y-77828609D01*
X123427928Y-77879788D01*
X123423980Y-77881472D01*
X123179982Y-77985546D01*
X123179978Y-77985548D01*
X123176030Y-77987232D01*
X123156125Y-77999145D01*
X122944725Y-78125664D01*
X122944721Y-78125667D01*
X122941043Y-78127868D01*
X122727318Y-78299094D01*
X122538808Y-78497742D01*
X122379002Y-78720136D01*
X122250857Y-78962161D01*
X122249385Y-78966184D01*
X122249383Y-78966188D01*
X122191540Y-79124251D01*
X122156743Y-79219337D01*
X122098404Y-79486907D01*
X122090251Y-79590500D01*
X122077510Y-79752389D01*
X122076917Y-79759918D01*
X122092682Y-80033320D01*
X122093507Y-80037525D01*
X122093508Y-80037533D01*
X122104127Y-80091657D01*
X122145405Y-80302053D01*
X122146792Y-80306103D01*
X122146793Y-80306108D01*
X122232723Y-80557088D01*
X122234112Y-80561144D01*
X122236037Y-80564971D01*
X122236041Y-80564981D01*
X122253387Y-80599468D01*
X122266127Y-80669312D01*
X122239083Y-80734956D01*
X122229918Y-80745178D01*
X118050855Y-84924240D01*
X113875747Y-89099348D01*
X113867461Y-89106888D01*
X113860982Y-89111000D01*
X113855557Y-89116777D01*
X113814357Y-89160651D01*
X113811602Y-89163493D01*
X113791865Y-89183230D01*
X113789385Y-89186427D01*
X113781682Y-89195447D01*
X113751414Y-89227679D01*
X113747595Y-89234625D01*
X113747593Y-89234628D01*
X113741652Y-89245434D01*
X113730801Y-89261953D01*
X113718386Y-89277959D01*
X113715241Y-89285228D01*
X113715238Y-89285232D01*
X113700826Y-89318537D01*
X113695609Y-89329187D01*
X113674305Y-89367940D01*
X113672334Y-89375615D01*
X113672334Y-89375616D01*
X113669267Y-89387562D01*
X113662863Y-89406266D01*
X113654819Y-89424855D01*
X113653580Y-89432678D01*
X113653577Y-89432688D01*
X113647901Y-89468524D01*
X113645495Y-89480144D01*
X113637934Y-89509593D01*
X113634500Y-89522970D01*
X113634500Y-89543224D01*
X113632949Y-89562934D01*
X113629780Y-89582943D01*
X113630526Y-89590835D01*
X113633941Y-89626961D01*
X113634500Y-89638819D01*
X113634500Y-93784219D01*
X113614498Y-93852340D01*
X113574803Y-93891363D01*
X113443652Y-93972522D01*
X113397556Y-94018699D01*
X113357216Y-94059109D01*
X113294934Y-94093188D01*
X113224114Y-94088185D01*
X113179025Y-94059264D01*
X113096483Y-93976866D01*
X113091303Y-93971695D01*
X113085072Y-93967854D01*
X112946968Y-93882725D01*
X112946966Y-93882724D01*
X112940738Y-93878885D01*
X112860707Y-93852340D01*
X112779389Y-93825368D01*
X112779387Y-93825368D01*
X112772861Y-93823203D01*
X112766025Y-93822503D01*
X112766022Y-93822502D01*
X112722969Y-93818091D01*
X112668400Y-93812500D01*
X111867600Y-93812500D01*
X111864354Y-93812837D01*
X111864350Y-93812837D01*
X111768692Y-93822762D01*
X111768688Y-93822763D01*
X111761834Y-93823474D01*
X111755298Y-93825655D01*
X111755296Y-93825655D01*
X111713798Y-93839500D01*
X111594054Y-93879450D01*
X111443652Y-93972522D01*
X111318695Y-94097697D01*
X111314855Y-94103927D01*
X111314854Y-94103928D01*
X111256518Y-94198567D01*
X111225885Y-94248262D01*
X111208337Y-94301168D01*
X111167906Y-94359527D01*
X111102342Y-94386764D01*
X111088744Y-94387500D01*
X109569394Y-94387500D01*
X109501273Y-94367498D01*
X109466181Y-94333771D01*
X109359357Y-94181211D01*
X109359355Y-94181208D01*
X109356198Y-94176700D01*
X109194300Y-94014802D01*
X109189792Y-94011645D01*
X109189789Y-94011643D01*
X109020553Y-93893143D01*
X109006749Y-93883477D01*
X109001767Y-93881154D01*
X109001762Y-93881151D01*
X108967543Y-93865195D01*
X108914258Y-93818278D01*
X108894797Y-93750001D01*
X108915339Y-93682041D01*
X108967543Y-93636805D01*
X109001762Y-93620849D01*
X109001767Y-93620846D01*
X109006749Y-93618523D01*
X109111611Y-93545098D01*
X109189789Y-93490357D01*
X109189792Y-93490355D01*
X109194300Y-93487198D01*
X109356198Y-93325300D01*
X109487523Y-93137749D01*
X109489846Y-93132767D01*
X109489849Y-93132762D01*
X109581961Y-92935225D01*
X109581961Y-92935224D01*
X109584284Y-92930243D01*
X109643543Y-92709087D01*
X109663498Y-92481000D01*
X109643543Y-92252913D01*
X109584284Y-92031757D01*
X109543175Y-91943598D01*
X109489849Y-91829238D01*
X109489846Y-91829233D01*
X109487523Y-91824251D01*
X109386025Y-91679297D01*
X109359357Y-91641211D01*
X109359355Y-91641208D01*
X109356198Y-91636700D01*
X109194300Y-91474802D01*
X109189792Y-91471645D01*
X109189789Y-91471643D01*
X109054780Y-91377109D01*
X109006749Y-91343477D01*
X109001767Y-91341154D01*
X109001762Y-91341151D01*
X108967543Y-91325195D01*
X108914258Y-91278278D01*
X108894797Y-91210001D01*
X108915339Y-91142041D01*
X108967543Y-91096805D01*
X109001762Y-91080849D01*
X109001767Y-91080846D01*
X109006749Y-91078523D01*
X109139465Y-90985594D01*
X109189789Y-90950357D01*
X109189792Y-90950355D01*
X109194300Y-90947198D01*
X109356198Y-90785300D01*
X109487523Y-90597749D01*
X109489846Y-90592767D01*
X109489849Y-90592762D01*
X109581961Y-90395225D01*
X109581961Y-90395224D01*
X109584284Y-90390243D01*
X109602539Y-90322117D01*
X109642119Y-90174402D01*
X109642119Y-90174400D01*
X109643543Y-90169087D01*
X109663498Y-89941000D01*
X109643543Y-89712913D01*
X109642119Y-89707598D01*
X109585707Y-89497067D01*
X109585706Y-89497065D01*
X109584284Y-89491757D01*
X109574544Y-89470870D01*
X109489849Y-89289238D01*
X109489846Y-89289233D01*
X109487523Y-89284251D01*
X109385918Y-89139144D01*
X109359357Y-89101211D01*
X109359355Y-89101208D01*
X109356198Y-89096700D01*
X109194300Y-88934802D01*
X109189792Y-88931645D01*
X109189789Y-88931643D01*
X109111611Y-88876902D01*
X109006749Y-88803477D01*
X109001767Y-88801154D01*
X109001762Y-88801151D01*
X108966951Y-88784919D01*
X108913666Y-88738002D01*
X108894205Y-88669725D01*
X108914747Y-88601765D01*
X108966951Y-88556529D01*
X109001511Y-88540414D01*
X109011007Y-88534931D01*
X109189467Y-88409972D01*
X109197875Y-88402916D01*
X109351916Y-88248875D01*
X109358972Y-88240467D01*
X109483931Y-88062007D01*
X109489414Y-88052511D01*
X109581490Y-87855053D01*
X109585236Y-87844761D01*
X109631394Y-87672497D01*
X109631058Y-87658401D01*
X109623116Y-87655000D01*
X106282033Y-87655000D01*
X106268502Y-87658973D01*
X106267273Y-87667522D01*
X106314764Y-87844761D01*
X106318510Y-87855053D01*
X106410586Y-88052511D01*
X106416069Y-88062007D01*
X106541028Y-88240467D01*
X106548084Y-88248875D01*
X106702125Y-88402916D01*
X106710533Y-88409972D01*
X106888993Y-88534931D01*
X106898489Y-88540414D01*
X106933049Y-88556529D01*
X106986334Y-88603446D01*
X107005795Y-88671723D01*
X106985253Y-88739683D01*
X106933049Y-88784919D01*
X106898238Y-88801151D01*
X106898233Y-88801154D01*
X106893251Y-88803477D01*
X106788389Y-88876902D01*
X106710211Y-88931643D01*
X106710208Y-88931645D01*
X106705700Y-88934802D01*
X106543802Y-89096700D01*
X106540645Y-89101208D01*
X106540643Y-89101211D01*
X106514082Y-89139144D01*
X106412477Y-89284251D01*
X106410154Y-89289233D01*
X106410151Y-89289238D01*
X106325456Y-89470870D01*
X106315716Y-89491757D01*
X106314294Y-89497065D01*
X106314293Y-89497067D01*
X106257881Y-89707598D01*
X106256457Y-89712913D01*
X106236502Y-89941000D01*
X106256457Y-90169087D01*
X106257881Y-90174400D01*
X106257881Y-90174402D01*
X106297462Y-90322117D01*
X106315716Y-90390243D01*
X106318039Y-90395224D01*
X106318039Y-90395225D01*
X106410151Y-90592762D01*
X106410154Y-90592767D01*
X106412477Y-90597749D01*
X106543802Y-90785300D01*
X106705700Y-90947198D01*
X106710208Y-90950355D01*
X106710211Y-90950357D01*
X106760535Y-90985594D01*
X106893251Y-91078523D01*
X106898233Y-91080846D01*
X106898238Y-91080849D01*
X106932457Y-91096805D01*
X106985742Y-91143722D01*
X107005203Y-91211999D01*
X106984661Y-91279959D01*
X106932457Y-91325195D01*
X106898238Y-91341151D01*
X106898233Y-91341154D01*
X106893251Y-91343477D01*
X106845220Y-91377109D01*
X106710211Y-91471643D01*
X106710208Y-91471645D01*
X106705700Y-91474802D01*
X106543802Y-91636700D01*
X106540645Y-91641208D01*
X106540643Y-91641211D01*
X106513975Y-91679297D01*
X106412477Y-91824251D01*
X106410154Y-91829233D01*
X106410151Y-91829238D01*
X106356825Y-91943598D01*
X106315716Y-92031757D01*
X106256457Y-92252913D01*
X106236502Y-92481000D01*
X106256457Y-92709087D01*
X106315716Y-92930243D01*
X106318039Y-92935224D01*
X106318039Y-92935225D01*
X106410151Y-93132762D01*
X106410154Y-93132767D01*
X106412477Y-93137749D01*
X106543802Y-93325300D01*
X106705700Y-93487198D01*
X106710208Y-93490355D01*
X106710211Y-93490357D01*
X106788389Y-93545098D01*
X106893251Y-93618523D01*
X106898233Y-93620846D01*
X106898238Y-93620849D01*
X106932457Y-93636805D01*
X106985742Y-93683722D01*
X107005203Y-93751999D01*
X106984661Y-93819959D01*
X106932457Y-93865195D01*
X106898238Y-93881151D01*
X106898233Y-93881154D01*
X106893251Y-93883477D01*
X106879447Y-93893143D01*
X106710211Y-94011643D01*
X106710208Y-94011645D01*
X106705700Y-94014802D01*
X106543802Y-94176700D01*
X106540645Y-94181208D01*
X106540643Y-94181211D01*
X106509488Y-94225705D01*
X106412477Y-94364251D01*
X106410154Y-94369233D01*
X106410151Y-94369238D01*
X106341086Y-94517350D01*
X106315716Y-94571757D01*
X106314294Y-94577065D01*
X106314293Y-94577067D01*
X106262407Y-94770707D01*
X106256457Y-94792913D01*
X106236502Y-95021000D01*
X106256457Y-95249087D01*
X106257881Y-95254400D01*
X106257881Y-95254402D01*
X106305851Y-95433425D01*
X106315716Y-95470243D01*
X106318039Y-95475224D01*
X106318039Y-95475225D01*
X106410151Y-95672762D01*
X106410154Y-95672767D01*
X106412477Y-95677749D01*
X106444216Y-95723077D01*
X106536469Y-95854827D01*
X106543802Y-95865300D01*
X106705700Y-96027198D01*
X106710208Y-96030355D01*
X106710211Y-96030357D01*
X106788389Y-96085098D01*
X106893251Y-96158523D01*
X106898233Y-96160846D01*
X106898238Y-96160849D01*
X106932457Y-96176805D01*
X106985742Y-96223722D01*
X107005203Y-96291999D01*
X106984661Y-96359959D01*
X106932457Y-96405195D01*
X106898238Y-96421151D01*
X106898233Y-96421154D01*
X106893251Y-96423477D01*
X106788389Y-96496902D01*
X106710211Y-96551643D01*
X106710208Y-96551645D01*
X106705700Y-96554802D01*
X106543802Y-96716700D01*
X106412477Y-96904251D01*
X106410154Y-96909233D01*
X106410151Y-96909238D01*
X106328836Y-97083620D01*
X106315716Y-97111757D01*
X106314294Y-97117065D01*
X106314293Y-97117067D01*
X106263400Y-97307000D01*
X106256457Y-97332913D01*
X106236502Y-97561000D01*
X106256457Y-97789087D01*
X106257881Y-97794400D01*
X106257881Y-97794402D01*
X106267143Y-97828966D01*
X106315716Y-98010243D01*
X106318039Y-98015224D01*
X106318039Y-98015225D01*
X106410151Y-98212762D01*
X106410154Y-98212767D01*
X106412477Y-98217749D01*
X106446977Y-98267020D01*
X106535974Y-98394120D01*
X106543802Y-98405300D01*
X106705700Y-98567198D01*
X106710208Y-98570355D01*
X106710211Y-98570357D01*
X106781937Y-98620580D01*
X106893251Y-98698523D01*
X106898233Y-98700846D01*
X106898238Y-98700849D01*
X106932457Y-98716805D01*
X106985742Y-98763722D01*
X107005203Y-98831999D01*
X106984661Y-98899959D01*
X106932457Y-98945195D01*
X106898238Y-98961151D01*
X106898233Y-98961154D01*
X106893251Y-98963477D01*
X106796106Y-99031499D01*
X106710211Y-99091643D01*
X106710208Y-99091645D01*
X106705700Y-99094802D01*
X106543802Y-99256700D01*
X106412477Y-99444251D01*
X106410154Y-99449233D01*
X106410151Y-99449238D01*
X106318039Y-99646775D01*
X106315716Y-99651757D01*
X106256457Y-99872913D01*
X106236502Y-100101000D01*
X106256457Y-100329087D01*
X106315716Y-100550243D01*
X106318039Y-100555224D01*
X106318039Y-100555225D01*
X106410151Y-100752762D01*
X106410154Y-100752767D01*
X106412477Y-100757749D01*
X106461094Y-100827181D01*
X106536661Y-100935101D01*
X106543802Y-100945300D01*
X106705700Y-101107198D01*
X106710208Y-101110355D01*
X106710211Y-101110357D01*
X106788389Y-101165098D01*
X106893251Y-101238523D01*
X106898233Y-101240846D01*
X106898238Y-101240849D01*
X106932457Y-101256805D01*
X106985742Y-101303722D01*
X107005203Y-101371999D01*
X106984661Y-101439959D01*
X106932457Y-101485195D01*
X106898238Y-101501151D01*
X106898233Y-101501154D01*
X106893251Y-101503477D01*
X106845220Y-101537109D01*
X106710211Y-101631643D01*
X106710208Y-101631645D01*
X106705700Y-101634802D01*
X106543802Y-101796700D01*
X106412477Y-101984251D01*
X106410154Y-101989233D01*
X106410151Y-101989238D01*
X106356825Y-102103598D01*
X106315716Y-102191757D01*
X106256457Y-102412913D01*
X106236502Y-102641000D01*
X106256457Y-102869087D01*
X106257881Y-102874400D01*
X106257881Y-102874402D01*
X106262195Y-102890500D01*
X106315716Y-103090243D01*
X106318039Y-103095224D01*
X106318039Y-103095225D01*
X106410151Y-103292762D01*
X106410154Y-103292767D01*
X106412477Y-103297749D01*
X106543802Y-103485300D01*
X106705700Y-103647198D01*
X106710208Y-103650355D01*
X106710211Y-103650357D01*
X106788389Y-103705098D01*
X106893251Y-103778523D01*
X106898233Y-103780846D01*
X106898238Y-103780849D01*
X106932457Y-103796805D01*
X106985742Y-103843722D01*
X107005203Y-103911999D01*
X106984661Y-103979959D01*
X106932457Y-104025195D01*
X106898238Y-104041151D01*
X106898233Y-104041154D01*
X106893251Y-104043477D01*
X106820043Y-104094738D01*
X106710211Y-104171643D01*
X106710208Y-104171645D01*
X106705700Y-104174802D01*
X106543802Y-104336700D01*
X106540645Y-104341208D01*
X106540643Y-104341211D01*
X106509488Y-104385705D01*
X106412477Y-104524251D01*
X106410154Y-104529233D01*
X106410151Y-104529238D01*
X106327908Y-104705610D01*
X106315716Y-104731757D01*
X106314294Y-104737065D01*
X106314293Y-104737067D01*
X106263400Y-104927000D01*
X106256457Y-104952913D01*
X106236502Y-105181000D01*
X106256457Y-105409087D01*
X106257881Y-105414400D01*
X106257881Y-105414402D01*
X106305851Y-105593425D01*
X106315716Y-105630243D01*
X106318039Y-105635224D01*
X106318039Y-105635225D01*
X106410151Y-105832762D01*
X106410154Y-105832767D01*
X106412477Y-105837749D01*
X106415634Y-105842257D01*
X106536469Y-106014827D01*
X106543802Y-106025300D01*
X106705700Y-106187198D01*
X106710208Y-106190355D01*
X106710211Y-106190357D01*
X106736949Y-106209079D01*
X106893251Y-106318523D01*
X106898233Y-106320846D01*
X106898238Y-106320849D01*
X106932457Y-106336805D01*
X106985742Y-106383722D01*
X107005203Y-106451999D01*
X106984661Y-106519959D01*
X106932457Y-106565195D01*
X106898238Y-106581151D01*
X106898233Y-106581154D01*
X106893251Y-106583477D01*
X106788389Y-106656902D01*
X106710211Y-106711643D01*
X106710208Y-106711645D01*
X106705700Y-106714802D01*
X106543802Y-106876700D01*
X106412477Y-107064251D01*
X106410154Y-107069233D01*
X106410151Y-107069238D01*
X106353435Y-107190867D01*
X106315716Y-107271757D01*
X106314294Y-107277065D01*
X106314293Y-107277067D01*
X106263400Y-107467000D01*
X106256457Y-107492913D01*
X106236502Y-107721000D01*
X106256457Y-107949087D01*
X106257881Y-107954400D01*
X106257881Y-107954402D01*
X106267143Y-107988966D01*
X106315716Y-108170243D01*
X106318039Y-108175224D01*
X106318039Y-108175225D01*
X106410151Y-108372762D01*
X106410154Y-108372767D01*
X106412477Y-108377749D01*
X106543802Y-108565300D01*
X106705700Y-108727198D01*
X106710208Y-108730355D01*
X106710211Y-108730357D01*
X106788389Y-108785098D01*
X106893251Y-108858523D01*
X106898233Y-108860846D01*
X106898238Y-108860849D01*
X106932457Y-108876805D01*
X106985742Y-108923722D01*
X107005203Y-108991999D01*
X106984661Y-109059959D01*
X106932457Y-109105195D01*
X106898238Y-109121151D01*
X106898233Y-109121154D01*
X106893251Y-109123477D01*
X106836517Y-109163203D01*
X106710211Y-109251643D01*
X106710208Y-109251645D01*
X106705700Y-109254802D01*
X106543802Y-109416700D01*
X106540645Y-109421208D01*
X106540643Y-109421211D01*
X106433819Y-109573771D01*
X106378362Y-109618099D01*
X106330606Y-109627500D01*
X105122781Y-109627500D01*
X105054660Y-109607498D01*
X105015637Y-109567803D01*
X104938332Y-109442880D01*
X104934478Y-109436652D01*
X104809303Y-109311695D01*
X104711881Y-109251643D01*
X104664968Y-109222725D01*
X104664966Y-109222724D01*
X104658738Y-109218885D01*
X104498254Y-109165655D01*
X104497389Y-109165368D01*
X104497387Y-109165368D01*
X104490861Y-109163203D01*
X104484025Y-109162503D01*
X104484022Y-109162502D01*
X104440969Y-109158091D01*
X104386400Y-109152500D01*
X103385600Y-109152500D01*
X103382354Y-109152837D01*
X103382350Y-109152837D01*
X103286692Y-109162762D01*
X103286688Y-109162763D01*
X103279834Y-109163474D01*
X103273298Y-109165655D01*
X103273296Y-109165655D01*
X103141194Y-109209728D01*
X103112054Y-109219450D01*
X102961652Y-109312522D01*
X102836695Y-109437697D01*
X102743885Y-109588262D01*
X102688203Y-109756139D01*
X102677500Y-109860600D01*
X102677500Y-110661400D01*
X102677837Y-110664646D01*
X102677837Y-110664650D01*
X102687502Y-110757797D01*
X102688474Y-110767166D01*
X102690655Y-110773702D01*
X102690655Y-110773704D01*
X102734728Y-110905806D01*
X102744450Y-110934946D01*
X102837522Y-111085348D01*
X102842704Y-111090521D01*
X102924109Y-111171784D01*
X102958188Y-111234066D01*
X102953185Y-111304886D01*
X102924264Y-111349975D01*
X102878952Y-111395366D01*
X102836695Y-111437697D01*
X102743885Y-111588262D01*
X102688203Y-111756139D01*
X102677500Y-111860600D01*
X102677500Y-112661400D01*
X98423500Y-112661400D01*
X98423500Y-84127594D01*
X98443502Y-84059473D01*
X98460405Y-84038499D01*
X102112499Y-80386405D01*
X102174811Y-80352379D01*
X102201594Y-80349500D01*
X102862400Y-80349500D01*
X102865646Y-80349163D01*
X102865650Y-80349163D01*
X102961308Y-80339238D01*
X102961312Y-80339237D01*
X102968166Y-80338526D01*
X102974702Y-80336345D01*
X102974704Y-80336345D01*
X103128998Y-80284868D01*
X103135946Y-80282550D01*
X103286348Y-80189478D01*
X103411305Y-80064303D01*
X103430403Y-80033320D01*
X103500275Y-79919968D01*
X103500276Y-79919966D01*
X103504115Y-79913738D01*
X103559797Y-79745861D01*
X103570500Y-79641400D01*
X103570500Y-78840600D01*
X103570163Y-78837350D01*
X103560238Y-78741692D01*
X103560237Y-78741688D01*
X103559526Y-78734834D01*
X103554623Y-78720136D01*
X103505868Y-78574002D01*
X103503550Y-78567054D01*
X103410478Y-78416652D01*
X103323891Y-78330216D01*
X103289812Y-78267934D01*
X103294815Y-78197114D01*
X103323736Y-78152025D01*
X103406134Y-78069483D01*
X103411305Y-78064303D01*
X103451469Y-77999145D01*
X103491389Y-77934384D01*
X103544162Y-77886890D01*
X103598649Y-77874500D01*
X106330606Y-77874500D01*
X106398727Y-77894502D01*
X106433819Y-77928229D01*
X106540643Y-78080789D01*
X106543802Y-78085300D01*
X106705700Y-78247198D01*
X106710208Y-78250355D01*
X106710211Y-78250357D01*
X106735314Y-78267934D01*
X106893251Y-78378523D01*
X106898233Y-78380846D01*
X106898238Y-78380849D01*
X106932457Y-78396805D01*
X106985742Y-78443722D01*
X107005203Y-78511999D01*
X106984661Y-78579959D01*
X106932457Y-78625195D01*
X106898238Y-78641151D01*
X106898233Y-78641154D01*
X106893251Y-78643477D01*
X106788739Y-78716657D01*
X106710211Y-78771643D01*
X106710208Y-78771645D01*
X106705700Y-78774802D01*
X106543802Y-78936700D01*
X106540645Y-78941208D01*
X106540643Y-78941211D01*
X106485902Y-79019389D01*
X106412477Y-79124251D01*
X106410154Y-79129233D01*
X106410151Y-79129238D01*
X106318039Y-79326775D01*
X106315716Y-79331757D01*
X106314294Y-79337065D01*
X106314293Y-79337067D01*
X106268551Y-79507778D01*
X106256457Y-79552913D01*
X106236502Y-79781000D01*
X106256457Y-80009087D01*
X106257881Y-80014400D01*
X106257881Y-80014402D01*
X106305826Y-80193332D01*
X106315716Y-80230243D01*
X106318039Y-80235224D01*
X106318039Y-80235225D01*
X106410151Y-80432762D01*
X106410154Y-80432767D01*
X106412477Y-80437749D01*
X106543802Y-80625300D01*
X106705700Y-80787198D01*
X106710208Y-80790355D01*
X106710211Y-80790357D01*
X106788389Y-80845098D01*
X106893251Y-80918523D01*
X106898233Y-80920846D01*
X106898238Y-80920849D01*
X106932457Y-80936805D01*
X106985742Y-80983722D01*
X107005203Y-81051999D01*
X106984661Y-81119959D01*
X106932457Y-81165195D01*
X106898238Y-81181151D01*
X106898233Y-81181154D01*
X106893251Y-81183477D01*
X106845220Y-81217109D01*
X106710211Y-81311643D01*
X106710208Y-81311645D01*
X106705700Y-81314802D01*
X106543802Y-81476700D01*
X106412477Y-81664251D01*
X106410154Y-81669233D01*
X106410151Y-81669238D01*
X106353202Y-81791367D01*
X106315716Y-81871757D01*
X106256457Y-82092913D01*
X106236502Y-82321000D01*
X106256457Y-82549087D01*
X106315716Y-82770243D01*
X106318039Y-82775224D01*
X106318039Y-82775225D01*
X106410151Y-82972762D01*
X106410154Y-82972767D01*
X106412477Y-82977749D01*
X106543802Y-83165300D01*
X106705700Y-83327198D01*
X106710208Y-83330355D01*
X106710211Y-83330357D01*
X106771816Y-83373493D01*
X106893251Y-83458523D01*
X106898233Y-83460846D01*
X106898238Y-83460849D01*
X106932457Y-83476805D01*
X106985742Y-83523722D01*
X107005203Y-83591999D01*
X106984661Y-83659959D01*
X106932457Y-83705195D01*
X106898238Y-83721151D01*
X106898233Y-83721154D01*
X106893251Y-83723477D01*
X106794044Y-83792943D01*
X106710211Y-83851643D01*
X106710208Y-83851645D01*
X106705700Y-83854802D01*
X106543802Y-84016700D01*
X106540645Y-84021208D01*
X106540643Y-84021211D01*
X106513852Y-84059473D01*
X106412477Y-84204251D01*
X106410154Y-84209233D01*
X106410151Y-84209238D01*
X106327908Y-84385610D01*
X106315716Y-84411757D01*
X106314294Y-84417065D01*
X106314293Y-84417067D01*
X106262407Y-84610707D01*
X106256457Y-84632913D01*
X106236502Y-84861000D01*
X106256457Y-85089087D01*
X106257881Y-85094400D01*
X106257881Y-85094402D01*
X106305851Y-85273425D01*
X106315716Y-85310243D01*
X106318039Y-85315224D01*
X106318039Y-85315225D01*
X106410151Y-85512762D01*
X106410154Y-85512767D01*
X106412477Y-85517749D01*
X106415634Y-85522257D01*
X106536469Y-85694827D01*
X106543802Y-85705300D01*
X106705700Y-85867198D01*
X106710208Y-85870355D01*
X106710211Y-85870357D01*
X106736949Y-85889079D01*
X106893251Y-85998523D01*
X106898233Y-86000846D01*
X106898238Y-86000849D01*
X106933049Y-86017081D01*
X106986334Y-86063998D01*
X107005795Y-86132275D01*
X106985253Y-86200235D01*
X106933049Y-86245471D01*
X106898489Y-86261586D01*
X106888993Y-86267069D01*
X106710533Y-86392028D01*
X106702125Y-86399084D01*
X106548084Y-86553125D01*
X106541028Y-86561533D01*
X106416069Y-86739993D01*
X106410586Y-86749489D01*
X106318510Y-86946947D01*
X106314764Y-86957239D01*
X106268606Y-87129503D01*
X106268942Y-87143599D01*
X106276884Y-87147000D01*
X109617967Y-87147000D01*
X109631498Y-87143027D01*
X109632727Y-87134478D01*
X109585236Y-86957239D01*
X109581490Y-86946947D01*
X109489414Y-86749489D01*
X109483931Y-86739993D01*
X109358972Y-86561533D01*
X109351916Y-86553125D01*
X109197875Y-86399084D01*
X109189467Y-86392028D01*
X109011007Y-86267069D01*
X109001511Y-86261586D01*
X108966951Y-86245471D01*
X108913666Y-86198554D01*
X108894205Y-86130277D01*
X108914747Y-86062317D01*
X108966951Y-86017081D01*
X109001762Y-86000849D01*
X109001767Y-86000846D01*
X109006749Y-85998523D01*
X109163051Y-85889079D01*
X109189789Y-85870357D01*
X109189792Y-85870355D01*
X109194300Y-85867198D01*
X109356198Y-85705300D01*
X109363532Y-85694827D01*
X109484366Y-85522257D01*
X109487523Y-85517749D01*
X109489846Y-85512767D01*
X109489849Y-85512762D01*
X109581961Y-85315225D01*
X109581961Y-85315224D01*
X109584284Y-85310243D01*
X109594150Y-85273425D01*
X109642119Y-85094402D01*
X109642119Y-85094400D01*
X109643543Y-85089087D01*
X109663498Y-84861000D01*
X109643543Y-84632913D01*
X109637593Y-84610707D01*
X109585707Y-84417067D01*
X109585706Y-84417065D01*
X109584284Y-84411757D01*
X109572092Y-84385610D01*
X109489849Y-84209238D01*
X109489846Y-84209233D01*
X109487523Y-84204251D01*
X109386148Y-84059473D01*
X109359357Y-84021211D01*
X109359355Y-84021208D01*
X109356198Y-84016700D01*
X109194300Y-83854802D01*
X109189792Y-83851645D01*
X109189789Y-83851643D01*
X109105956Y-83792943D01*
X109006749Y-83723477D01*
X109001767Y-83721154D01*
X109001762Y-83721151D01*
X108967543Y-83705195D01*
X108914258Y-83658278D01*
X108894797Y-83590001D01*
X108915339Y-83522041D01*
X108967543Y-83476805D01*
X109001762Y-83460849D01*
X109001767Y-83460846D01*
X109006749Y-83458523D01*
X109128184Y-83373493D01*
X109189789Y-83330357D01*
X109189792Y-83330355D01*
X109194300Y-83327198D01*
X109356198Y-83165300D01*
X109487523Y-82977749D01*
X109489846Y-82972767D01*
X109489849Y-82972762D01*
X109581961Y-82775225D01*
X109581961Y-82775224D01*
X109584284Y-82770243D01*
X109643543Y-82549087D01*
X109663498Y-82321000D01*
X109643543Y-82092913D01*
X109584284Y-81871757D01*
X109546798Y-81791367D01*
X109489849Y-81669238D01*
X109489846Y-81669233D01*
X109487523Y-81664251D01*
X109356198Y-81476700D01*
X109194300Y-81314802D01*
X109189792Y-81311645D01*
X109189789Y-81311643D01*
X109054780Y-81217109D01*
X109006749Y-81183477D01*
X109001767Y-81181154D01*
X109001762Y-81181151D01*
X108967543Y-81165195D01*
X108914258Y-81118278D01*
X108894797Y-81050001D01*
X108915339Y-80982041D01*
X108967543Y-80936805D01*
X109001762Y-80920849D01*
X109001767Y-80920846D01*
X109006749Y-80918523D01*
X109111611Y-80845098D01*
X109189789Y-80790357D01*
X109189792Y-80790355D01*
X109194300Y-80787198D01*
X109356198Y-80625300D01*
X109487523Y-80437749D01*
X109489846Y-80432767D01*
X109489849Y-80432762D01*
X109581961Y-80235225D01*
X109581961Y-80235224D01*
X109584284Y-80230243D01*
X109594175Y-80193332D01*
X109642119Y-80014402D01*
X109642119Y-80014400D01*
X109643543Y-80009087D01*
X109663498Y-79781000D01*
X109643543Y-79552913D01*
X109631449Y-79507778D01*
X109585707Y-79337067D01*
X109585706Y-79337065D01*
X109584284Y-79331757D01*
X109581961Y-79326775D01*
X109489849Y-79129238D01*
X109489846Y-79129233D01*
X109487523Y-79124251D01*
X109414098Y-79019389D01*
X109359357Y-78941211D01*
X109359355Y-78941208D01*
X109356198Y-78936700D01*
X109194300Y-78774802D01*
X109189792Y-78771645D01*
X109189789Y-78771643D01*
X109111261Y-78716657D01*
X109006749Y-78643477D01*
X109001767Y-78641154D01*
X109001762Y-78641151D01*
X108967543Y-78625195D01*
X108914258Y-78578278D01*
X108894797Y-78510001D01*
X108915339Y-78442041D01*
X108967543Y-78396805D01*
X109001762Y-78380849D01*
X109001767Y-78380846D01*
X109006749Y-78378523D01*
X109164686Y-78267934D01*
X109189789Y-78250357D01*
X109189792Y-78250355D01*
X109194300Y-78247198D01*
X109356198Y-78085300D01*
X109366547Y-78070521D01*
X109461871Y-77934384D01*
X109487523Y-77897749D01*
X109489846Y-77892767D01*
X109489849Y-77892762D01*
X109581961Y-77695225D01*
X109581961Y-77695224D01*
X109584284Y-77690243D01*
X109643543Y-77469087D01*
X109663498Y-77241000D01*
X109643543Y-77012913D01*
X109611010Y-76891499D01*
X109585707Y-76797067D01*
X109585706Y-76797065D01*
X109584284Y-76791757D01*
X109545755Y-76709131D01*
X109489849Y-76589238D01*
X109489846Y-76589233D01*
X109487523Y-76584251D01*
X109386025Y-76439297D01*
X109359357Y-76401211D01*
X109359355Y-76401208D01*
X109356198Y-76396700D01*
X109194300Y-76234802D01*
X109189792Y-76231645D01*
X109189789Y-76231643D01*
X109063483Y-76143203D01*
X109006749Y-76103477D01*
X109001767Y-76101154D01*
X109001762Y-76101151D01*
X108967543Y-76085195D01*
X108914258Y-76038278D01*
X108894797Y-75970001D01*
X108915339Y-75902041D01*
X108967543Y-75856805D01*
X109001762Y-75840849D01*
X109001767Y-75840846D01*
X109006749Y-75838523D01*
X109111611Y-75765098D01*
X109189789Y-75710357D01*
X109189792Y-75710355D01*
X109194300Y-75707198D01*
X109356198Y-75545300D01*
X109487523Y-75357749D01*
X109489846Y-75352767D01*
X109489849Y-75352762D01*
X109581961Y-75155225D01*
X109581961Y-75155224D01*
X109584284Y-75150243D01*
X109599823Y-75092253D01*
X109642119Y-74934402D01*
X109642119Y-74934400D01*
X109643543Y-74929087D01*
X109663498Y-74701000D01*
X109643543Y-74472913D01*
X109635028Y-74441135D01*
X109585707Y-74257067D01*
X109585706Y-74257065D01*
X109584284Y-74251757D01*
X109574544Y-74230870D01*
X109497824Y-74066341D01*
X111537888Y-74066341D01*
X111537983Y-74069971D01*
X111537983Y-74069972D01*
X111542196Y-74230870D01*
X111546970Y-74413171D01*
X111595856Y-74756660D01*
X111683897Y-75092253D01*
X111809927Y-75415503D01*
X111811624Y-75418708D01*
X111966044Y-75710357D01*
X111972275Y-75722126D01*
X111974325Y-75725109D01*
X111974327Y-75725112D01*
X112166733Y-76005064D01*
X112166739Y-76005071D01*
X112168790Y-76008056D01*
X112286301Y-76142762D01*
X112382059Y-76252531D01*
X112396866Y-76269505D01*
X112434182Y-76303460D01*
X112609268Y-76462775D01*
X112653481Y-76503006D01*
X112935233Y-76705466D01*
X113238388Y-76874200D01*
X113558928Y-77006972D01*
X113562422Y-77007967D01*
X113562424Y-77007968D01*
X113889103Y-77101025D01*
X113889108Y-77101026D01*
X113892604Y-77102022D01*
X114089304Y-77134233D01*
X114231412Y-77157504D01*
X114231419Y-77157505D01*
X114234993Y-77158090D01*
X114408275Y-77166262D01*
X114577931Y-77174263D01*
X114577932Y-77174263D01*
X114581558Y-77174434D01*
X114590415Y-77173830D01*
X114924073Y-77151084D01*
X114924081Y-77151083D01*
X114927704Y-77150836D01*
X114931279Y-77150173D01*
X114931282Y-77150173D01*
X115265279Y-77088270D01*
X115265283Y-77088269D01*
X115268844Y-77087609D01*
X115600456Y-76985592D01*
X115918145Y-76846136D01*
X116162511Y-76703341D01*
X116214560Y-76672926D01*
X116214562Y-76672925D01*
X116217700Y-76671091D01*
X116250813Y-76646229D01*
X116492244Y-76464958D01*
X116492248Y-76464955D01*
X116495151Y-76462775D01*
X116720281Y-76249134D01*
X122081500Y-76249134D01*
X122088255Y-76311316D01*
X122139385Y-76447705D01*
X122226739Y-76564261D01*
X122343295Y-76651615D01*
X122479684Y-76702745D01*
X122541866Y-76709500D01*
X125638134Y-76709500D01*
X125700316Y-76702745D01*
X125836705Y-76651615D01*
X125953261Y-76564261D01*
X126040615Y-76447705D01*
X126091745Y-76311316D01*
X126098500Y-76249134D01*
X126098500Y-73152866D01*
X126091745Y-73090684D01*
X126040615Y-72954295D01*
X125953261Y-72837739D01*
X125836705Y-72750385D01*
X125700316Y-72699255D01*
X125638134Y-72692500D01*
X122541866Y-72692500D01*
X122479684Y-72699255D01*
X122343295Y-72750385D01*
X122226739Y-72837739D01*
X122139385Y-72954295D01*
X122088255Y-73090684D01*
X122081500Y-73152866D01*
X122081500Y-76249134D01*
X116720281Y-76249134D01*
X116746819Y-76223950D01*
X116969370Y-75957783D01*
X116984880Y-75934172D01*
X117093442Y-75768901D01*
X117159853Y-75667799D01*
X117308924Y-75371405D01*
X117314117Y-75361080D01*
X117314120Y-75361072D01*
X117315744Y-75357844D01*
X117365037Y-75223146D01*
X117433729Y-75035437D01*
X117433730Y-75035433D01*
X117434977Y-75032026D01*
X117435822Y-75028504D01*
X117435825Y-75028496D01*
X117515124Y-74698191D01*
X117515125Y-74698187D01*
X117515971Y-74694662D01*
X117542142Y-74478393D01*
X117557316Y-74353004D01*
X117557316Y-74352997D01*
X117557652Y-74350225D01*
X117563599Y-74161000D01*
X117563438Y-74158204D01*
X117543836Y-73818246D01*
X117543835Y-73818241D01*
X117543627Y-73814626D01*
X117526626Y-73717214D01*
X117484600Y-73476415D01*
X117484598Y-73476408D01*
X117483976Y-73472842D01*
X117482494Y-73467837D01*
X117407567Y-73214891D01*
X117385437Y-73140180D01*
X117306151Y-72954295D01*
X117250740Y-72824386D01*
X117250738Y-72824383D01*
X117249316Y-72821048D01*
X117199569Y-72733831D01*
X117079208Y-72522816D01*
X117077417Y-72519676D01*
X117013378Y-72432497D01*
X116874161Y-72242978D01*
X116872018Y-72240060D01*
X116635842Y-71985904D01*
X116372019Y-71760578D01*
X116084047Y-71567069D01*
X115775741Y-71407940D01*
X115451189Y-71285302D01*
X115447668Y-71284418D01*
X115447663Y-71284416D01*
X115283912Y-71243285D01*
X115114692Y-71200780D01*
X115092476Y-71197855D01*
X114774315Y-71155968D01*
X114774307Y-71155967D01*
X114770711Y-71155494D01*
X114626045Y-71153221D01*
X114427446Y-71150101D01*
X114427442Y-71150101D01*
X114423804Y-71150044D01*
X114420190Y-71150405D01*
X114420184Y-71150405D01*
X114176843Y-71174694D01*
X114078569Y-71184503D01*
X113739583Y-71258414D01*
X113736156Y-71259587D01*
X113736150Y-71259589D01*
X113579785Y-71313125D01*
X113411339Y-71370797D01*
X113098188Y-71520163D01*
X112804279Y-71704532D01*
X112801443Y-71706804D01*
X112801436Y-71706809D01*
X112573397Y-71889503D01*
X112533509Y-71921459D01*
X112289466Y-72168071D01*
X112287225Y-72170929D01*
X112230732Y-72242978D01*
X112075386Y-72441098D01*
X112073493Y-72444187D01*
X112073491Y-72444190D01*
X112027233Y-72519676D01*
X111894105Y-72736921D01*
X111892580Y-72740206D01*
X111892578Y-72740210D01*
X111853505Y-72824386D01*
X111748027Y-73051620D01*
X111714543Y-73152866D01*
X111656080Y-73329642D01*
X111639087Y-73381023D01*
X111638351Y-73384578D01*
X111638350Y-73384581D01*
X111575493Y-73688108D01*
X111568730Y-73720764D01*
X111552550Y-73902054D01*
X111538624Y-74058099D01*
X111537888Y-74066341D01*
X109497824Y-74066341D01*
X109489849Y-74049238D01*
X109489846Y-74049233D01*
X109487523Y-74044251D01*
X109356198Y-73856700D01*
X109194300Y-73694802D01*
X109189792Y-73691645D01*
X109189789Y-73691643D01*
X109097033Y-73626695D01*
X109006749Y-73563477D01*
X109001767Y-73561154D01*
X109001762Y-73561151D01*
X108966951Y-73544919D01*
X108913666Y-73498002D01*
X108894205Y-73429725D01*
X108914747Y-73361765D01*
X108966951Y-73316529D01*
X109001511Y-73300414D01*
X109011007Y-73294931D01*
X109189467Y-73169972D01*
X109197875Y-73162916D01*
X109351916Y-73008875D01*
X109358972Y-73000467D01*
X109483931Y-72822007D01*
X109489414Y-72812511D01*
X109581490Y-72615053D01*
X109585236Y-72604761D01*
X109631394Y-72432497D01*
X109631058Y-72418401D01*
X109623116Y-72415000D01*
X106282033Y-72415000D01*
X106268502Y-72418973D01*
X106267273Y-72427522D01*
X106314764Y-72604761D01*
X106318510Y-72615053D01*
X106410586Y-72812511D01*
X106416069Y-72822007D01*
X106541028Y-73000467D01*
X106548084Y-73008875D01*
X106702125Y-73162916D01*
X106710533Y-73169972D01*
X106888993Y-73294931D01*
X106898489Y-73300414D01*
X106933049Y-73316529D01*
X106986334Y-73363446D01*
X107005795Y-73431723D01*
X106985253Y-73499683D01*
X106933049Y-73544919D01*
X106898238Y-73561151D01*
X106898233Y-73561154D01*
X106893251Y-73563477D01*
X106802967Y-73626695D01*
X106710211Y-73691643D01*
X106710208Y-73691645D01*
X106705700Y-73694802D01*
X106543802Y-73856700D01*
X106540645Y-73861208D01*
X106540643Y-73861211D01*
X106433819Y-74013771D01*
X106378362Y-74058099D01*
X106330606Y-74067500D01*
X101678763Y-74067500D01*
X101667579Y-74066973D01*
X101660091Y-74065299D01*
X101652168Y-74065548D01*
X101592033Y-74067438D01*
X101588075Y-74067500D01*
X101560144Y-74067500D01*
X101556229Y-74067995D01*
X101556225Y-74067995D01*
X101556167Y-74068003D01*
X101556138Y-74068006D01*
X101544296Y-74068939D01*
X101500110Y-74070327D01*
X101482744Y-74075372D01*
X101480658Y-74075978D01*
X101461306Y-74079986D01*
X101449068Y-74081532D01*
X101449066Y-74081533D01*
X101441203Y-74082526D01*
X101400086Y-74098806D01*
X101388885Y-74102641D01*
X101346406Y-74114982D01*
X101339587Y-74119015D01*
X101339582Y-74119017D01*
X101328971Y-74125293D01*
X101311221Y-74133990D01*
X101292383Y-74141448D01*
X101261623Y-74163797D01*
X101256625Y-74167428D01*
X101246701Y-74173947D01*
X101215460Y-74192422D01*
X101215455Y-74192426D01*
X101208637Y-74196458D01*
X101194313Y-74210782D01*
X101179281Y-74223621D01*
X101162893Y-74235528D01*
X101134712Y-74269593D01*
X101126722Y-74278373D01*
X99309500Y-76095595D01*
X99247188Y-76129621D01*
X99220405Y-76132500D01*
X98559600Y-76132500D01*
X98556354Y-76132837D01*
X98556350Y-76132837D01*
X98460692Y-76142762D01*
X98460688Y-76142763D01*
X98453834Y-76143474D01*
X98447298Y-76145655D01*
X98447296Y-76145655D01*
X98315194Y-76189728D01*
X98286054Y-76199450D01*
X98135652Y-76292522D01*
X98010695Y-76417697D01*
X98006855Y-76423927D01*
X98006854Y-76423928D01*
X97958110Y-76503006D01*
X97917885Y-76568262D01*
X97892025Y-76646229D01*
X97871790Y-76707236D01*
X97862203Y-76736139D01*
X97851500Y-76840600D01*
X97851500Y-77641400D01*
X97851837Y-77644646D01*
X97851837Y-77644650D01*
X97857085Y-77695225D01*
X97862474Y-77747166D01*
X97864655Y-77753702D01*
X97864655Y-77753704D01*
X97882611Y-77807525D01*
X97918450Y-77914946D01*
X98011522Y-78065348D01*
X98016704Y-78070521D01*
X98098109Y-78151784D01*
X98132188Y-78214066D01*
X98127185Y-78284886D01*
X98098264Y-78329975D01*
X98052952Y-78375366D01*
X98010695Y-78417697D01*
X98006855Y-78423927D01*
X98006854Y-78423928D01*
X97951298Y-78514057D01*
X97917885Y-78568262D01*
X97915581Y-78575209D01*
X97866256Y-78723921D01*
X97862203Y-78736139D01*
X97851500Y-78840600D01*
X97851500Y-79501406D01*
X97831498Y-79569527D01*
X97814596Y-79590500D01*
X92504418Y-84900677D01*
X87237747Y-90167348D01*
X87229461Y-90174888D01*
X87222982Y-90179000D01*
X87217557Y-90184777D01*
X87176357Y-90228651D01*
X87173602Y-90231493D01*
X87153865Y-90251230D01*
X87151385Y-90254427D01*
X87143682Y-90263447D01*
X87113414Y-90295679D01*
X87109595Y-90302625D01*
X87109593Y-90302628D01*
X87103652Y-90313434D01*
X87092801Y-90329953D01*
X87080386Y-90345959D01*
X87077241Y-90353228D01*
X87077238Y-90353232D01*
X87062826Y-90386537D01*
X87057609Y-90397187D01*
X87036305Y-90435940D01*
X87034334Y-90443615D01*
X87034334Y-90443616D01*
X87031267Y-90455562D01*
X87024863Y-90474266D01*
X87016819Y-90492855D01*
X87015580Y-90500678D01*
X87015577Y-90500688D01*
X87009901Y-90536524D01*
X87007495Y-90548144D01*
X86996500Y-90590970D01*
X86996500Y-90611224D01*
X86994949Y-90630934D01*
X86991780Y-90650943D01*
X86992526Y-90658835D01*
X86995941Y-90694961D01*
X86996500Y-90706819D01*
X86996500Y-126389500D01*
X86976498Y-126457621D01*
X86922842Y-126504114D01*
X86870500Y-126515500D01*
X86081866Y-126515500D01*
X86019684Y-126522255D01*
X85883295Y-126573385D01*
X85766739Y-126660739D01*
X85679385Y-126777295D01*
X85628255Y-126913684D01*
X85621500Y-126975866D01*
X85621500Y-130072134D01*
X83738924Y-130072134D01*
X82562812Y-128896022D01*
X82548868Y-128888408D01*
X82547035Y-128888539D01*
X82540420Y-128892790D01*
X81332910Y-130100300D01*
X81325618Y-130113654D01*
X79405105Y-130113654D01*
X79433729Y-130035437D01*
X79433730Y-130035433D01*
X79434977Y-130032026D01*
X79435822Y-130028504D01*
X79435825Y-130028496D01*
X79515124Y-129698191D01*
X79515125Y-129698187D01*
X79515971Y-129694662D01*
X79526711Y-129605913D01*
X79557316Y-129353004D01*
X79557316Y-129352997D01*
X79557652Y-129350225D01*
X79563599Y-129161000D01*
X79560171Y-129101544D01*
X79543836Y-128818246D01*
X79543835Y-128818241D01*
X79543627Y-128814626D01*
X79526626Y-128717214D01*
X79489974Y-128507204D01*
X80537665Y-128507204D01*
X80552932Y-128771969D01*
X80554005Y-128780470D01*
X80605065Y-129040722D01*
X80607276Y-129048974D01*
X80693184Y-129299894D01*
X80696499Y-129307779D01*
X80815664Y-129544713D01*
X80820020Y-129552079D01*
X80949347Y-129740250D01*
X80959601Y-129748594D01*
X80973342Y-129741448D01*
X82177978Y-128536812D01*
X82184356Y-128525132D01*
X82914408Y-128525132D01*
X82914539Y-128526965D01*
X82918790Y-128533580D01*
X84125730Y-129740520D01*
X84137939Y-129747187D01*
X84149439Y-129738497D01*
X84246831Y-129605913D01*
X84251418Y-129598685D01*
X84377962Y-129365621D01*
X84381530Y-129357827D01*
X84475271Y-129109750D01*
X84477748Y-129101544D01*
X84536954Y-128843038D01*
X84538294Y-128834577D01*
X84562031Y-128568616D01*
X84562277Y-128563677D01*
X84562666Y-128526485D01*
X84562523Y-128521519D01*
X84544362Y-128255123D01*
X84543201Y-128246649D01*
X84489419Y-127986944D01*
X84487120Y-127978709D01*
X84398588Y-127728705D01*
X84395191Y-127720854D01*
X84273550Y-127485178D01*
X84269122Y-127477866D01*
X84150031Y-127308417D01*
X84139509Y-127300037D01*
X84126121Y-127307089D01*
X82922022Y-128511188D01*
X82914408Y-128525132D01*
X82184356Y-128525132D01*
X82185592Y-128522868D01*
X82185461Y-128521035D01*
X82181210Y-128514420D01*
X80973814Y-127307024D01*
X80961804Y-127300466D01*
X80950064Y-127309434D01*
X80841935Y-127459911D01*
X80837418Y-127467196D01*
X80713325Y-127701567D01*
X80709839Y-127709395D01*
X80618700Y-127958446D01*
X80616311Y-127966670D01*
X80559812Y-128225795D01*
X80558563Y-128234250D01*
X80537754Y-128498653D01*
X80537665Y-128507204D01*
X79489974Y-128507204D01*
X79484600Y-128476415D01*
X79484598Y-128476408D01*
X79483976Y-128472842D01*
X79385437Y-128140180D01*
X79346263Y-128048337D01*
X79250740Y-127824386D01*
X79250738Y-127824383D01*
X79249316Y-127821048D01*
X79199569Y-127733831D01*
X79079208Y-127522816D01*
X79077417Y-127519676D01*
X79070617Y-127510418D01*
X78917244Y-127301628D01*
X78872018Y-127240060D01*
X78635842Y-126985904D01*
X78577997Y-126936500D01*
X81326584Y-126936500D01*
X81332980Y-126947770D01*
X82537188Y-128151978D01*
X82551132Y-128159592D01*
X82552965Y-128159461D01*
X82559580Y-128155210D01*
X83766604Y-126948186D01*
X83773795Y-126935017D01*
X83766473Y-126924780D01*
X83719233Y-126886115D01*
X83712261Y-126881160D01*
X83486122Y-126742582D01*
X83478552Y-126738624D01*
X83235704Y-126632022D01*
X83227644Y-126629120D01*
X82972592Y-126556467D01*
X82964214Y-126554685D01*
X82701656Y-126517318D01*
X82693111Y-126516691D01*
X82427908Y-126515302D01*
X82419374Y-126515839D01*
X82156433Y-126550456D01*
X82148035Y-126552149D01*
X81892238Y-126622127D01*
X81884143Y-126624946D01*
X81640199Y-126728997D01*
X81632577Y-126732881D01*
X81405013Y-126869075D01*
X81397981Y-126873962D01*
X81335053Y-126924377D01*
X81326584Y-126936500D01*
X78577997Y-126936500D01*
X78372019Y-126760578D01*
X78084047Y-126567069D01*
X77987657Y-126517318D01*
X77778961Y-126409602D01*
X77775741Y-126407940D01*
X77451189Y-126285302D01*
X77447668Y-126284418D01*
X77447663Y-126284416D01*
X77286378Y-126243904D01*
X77114692Y-126200780D01*
X77092476Y-126197855D01*
X76774315Y-126155968D01*
X76774307Y-126155967D01*
X76770711Y-126155494D01*
X76626045Y-126153221D01*
X76427446Y-126150101D01*
X76427442Y-126150101D01*
X76423804Y-126150044D01*
X76420190Y-126150405D01*
X76420184Y-126150405D01*
X76176843Y-126174694D01*
X76078569Y-126184503D01*
X75739583Y-126258414D01*
X75736156Y-126259587D01*
X75736150Y-126259589D01*
X75493634Y-126342621D01*
X75411339Y-126370797D01*
X75098188Y-126520163D01*
X75095109Y-126522094D01*
X75095108Y-126522095D01*
X75026061Y-126565408D01*
X74804279Y-126704532D01*
X74801443Y-126706804D01*
X74801436Y-126706809D01*
X74577626Y-126886115D01*
X74533509Y-126921459D01*
X74483030Y-126972469D01*
X74366077Y-127090654D01*
X74289466Y-127168071D01*
X74287225Y-127170929D01*
X74078747Y-127436812D01*
X74075386Y-127441098D01*
X74073493Y-127444187D01*
X74073491Y-127444190D01*
X74027233Y-127519676D01*
X73894105Y-127736921D01*
X73892580Y-127740206D01*
X73892578Y-127740210D01*
X73853505Y-127824386D01*
X73748027Y-128051620D01*
X73639087Y-128381023D01*
X73638351Y-128384578D01*
X73638350Y-128384581D01*
X73601261Y-128563677D01*
X73568730Y-128720764D01*
X73537888Y-129066341D01*
X73058500Y-129066341D01*
X73058500Y-117881000D01*
X80836502Y-117881000D01*
X80856457Y-118109087D01*
X80915716Y-118330243D01*
X80918039Y-118335224D01*
X80918039Y-118335225D01*
X81010151Y-118532762D01*
X81010154Y-118532767D01*
X81012477Y-118537749D01*
X81143802Y-118725300D01*
X81305700Y-118887198D01*
X81310208Y-118890355D01*
X81310211Y-118890357D01*
X81388389Y-118945098D01*
X81493251Y-119018523D01*
X81498233Y-119020846D01*
X81498238Y-119020849D01*
X81695775Y-119112961D01*
X81700757Y-119115284D01*
X81706065Y-119116706D01*
X81706067Y-119116707D01*
X81916598Y-119173119D01*
X81916600Y-119173119D01*
X81921913Y-119174543D01*
X82021480Y-119183254D01*
X82090149Y-119189262D01*
X82090156Y-119189262D01*
X82092873Y-119189500D01*
X83007127Y-119189500D01*
X83009844Y-119189262D01*
X83009851Y-119189262D01*
X83078520Y-119183254D01*
X83178087Y-119174543D01*
X83183400Y-119173119D01*
X83183402Y-119173119D01*
X83393933Y-119116707D01*
X83393935Y-119116706D01*
X83399243Y-119115284D01*
X83404225Y-119112961D01*
X83601762Y-119020849D01*
X83601767Y-119020846D01*
X83606749Y-119018523D01*
X83711611Y-118945098D01*
X83789789Y-118890357D01*
X83789792Y-118890355D01*
X83794300Y-118887198D01*
X83956198Y-118725300D01*
X84087523Y-118537749D01*
X84089846Y-118532767D01*
X84089849Y-118532762D01*
X84181961Y-118335225D01*
X84181961Y-118335224D01*
X84184284Y-118330243D01*
X84243543Y-118109087D01*
X84263498Y-117881000D01*
X84243543Y-117652913D01*
X84184284Y-117431757D01*
X84146565Y-117350867D01*
X84089849Y-117229238D01*
X84089846Y-117229233D01*
X84087523Y-117224251D01*
X83956198Y-117036700D01*
X83794300Y-116874802D01*
X83789792Y-116871645D01*
X83789789Y-116871643D01*
X83711611Y-116816902D01*
X83606749Y-116743477D01*
X83601767Y-116741154D01*
X83601762Y-116741151D01*
X83567543Y-116725195D01*
X83514258Y-116678278D01*
X83494797Y-116610001D01*
X83515339Y-116542041D01*
X83567543Y-116496805D01*
X83601762Y-116480849D01*
X83601767Y-116480846D01*
X83606749Y-116478523D01*
X83763051Y-116369079D01*
X83789789Y-116350357D01*
X83789792Y-116350355D01*
X83794300Y-116347198D01*
X83956198Y-116185300D01*
X83963532Y-116174827D01*
X84084366Y-116002257D01*
X84087523Y-115997749D01*
X84089846Y-115992767D01*
X84089849Y-115992762D01*
X84181961Y-115795225D01*
X84181961Y-115795224D01*
X84184284Y-115790243D01*
X84204976Y-115713022D01*
X84242119Y-115574402D01*
X84242119Y-115574400D01*
X84243543Y-115569087D01*
X84263498Y-115341000D01*
X84243543Y-115112913D01*
X84206981Y-114976461D01*
X84185707Y-114897067D01*
X84185706Y-114897065D01*
X84184284Y-114891757D01*
X84181961Y-114886775D01*
X84089849Y-114689238D01*
X84089846Y-114689233D01*
X84087523Y-114684251D01*
X83990512Y-114545705D01*
X83959357Y-114501211D01*
X83959355Y-114501208D01*
X83956198Y-114496700D01*
X83794300Y-114334802D01*
X83789792Y-114331645D01*
X83789789Y-114331643D01*
X83711611Y-114276902D01*
X83606749Y-114203477D01*
X83601767Y-114201154D01*
X83601762Y-114201151D01*
X83567543Y-114185195D01*
X83514258Y-114138278D01*
X83494797Y-114070001D01*
X83515339Y-114002041D01*
X83567543Y-113956805D01*
X83601762Y-113940849D01*
X83601767Y-113940846D01*
X83606749Y-113938523D01*
X83711611Y-113865098D01*
X83789789Y-113810357D01*
X83789792Y-113810355D01*
X83794300Y-113807198D01*
X83956198Y-113645300D01*
X84087523Y-113457749D01*
X84089846Y-113452767D01*
X84089849Y-113452762D01*
X84181961Y-113255225D01*
X84181961Y-113255224D01*
X84184284Y-113250243D01*
X84194175Y-113213332D01*
X84242119Y-113034402D01*
X84242119Y-113034400D01*
X84243543Y-113029087D01*
X84263498Y-112801000D01*
X84243543Y-112572913D01*
X84184284Y-112351757D01*
X84143175Y-112263598D01*
X84089849Y-112149238D01*
X84089846Y-112149233D01*
X84087523Y-112144251D01*
X83956198Y-111956700D01*
X83794300Y-111794802D01*
X83789792Y-111791645D01*
X83789789Y-111791643D01*
X83711611Y-111736902D01*
X83606749Y-111663477D01*
X83601767Y-111661154D01*
X83601762Y-111661151D01*
X83567543Y-111645195D01*
X83514258Y-111598278D01*
X83494797Y-111530001D01*
X83515339Y-111462041D01*
X83567543Y-111416805D01*
X83601762Y-111400849D01*
X83601767Y-111400846D01*
X83606749Y-111398523D01*
X83764686Y-111287934D01*
X83789789Y-111270357D01*
X83789792Y-111270355D01*
X83794300Y-111267198D01*
X83956198Y-111105300D01*
X83966547Y-111090521D01*
X84063325Y-110952307D01*
X84087523Y-110917749D01*
X84089846Y-110912767D01*
X84089849Y-110912762D01*
X84181961Y-110715225D01*
X84181961Y-110715224D01*
X84184284Y-110710243D01*
X84200759Y-110648760D01*
X84242119Y-110494402D01*
X84242119Y-110494400D01*
X84243543Y-110489087D01*
X84263498Y-110261000D01*
X84243543Y-110032913D01*
X84184284Y-109811757D01*
X84155305Y-109749611D01*
X84089849Y-109609238D01*
X84089846Y-109609233D01*
X84087523Y-109604251D01*
X84014098Y-109499389D01*
X83959357Y-109421211D01*
X83959355Y-109421208D01*
X83956198Y-109416700D01*
X83794300Y-109254802D01*
X83789792Y-109251645D01*
X83789789Y-109251643D01*
X83663483Y-109163203D01*
X83606749Y-109123477D01*
X83601767Y-109121154D01*
X83601762Y-109121151D01*
X83567543Y-109105195D01*
X83514258Y-109058278D01*
X83494797Y-108990001D01*
X83515339Y-108922041D01*
X83567543Y-108876805D01*
X83601762Y-108860849D01*
X83601767Y-108860846D01*
X83606749Y-108858523D01*
X83711611Y-108785098D01*
X83789789Y-108730357D01*
X83789792Y-108730355D01*
X83794300Y-108727198D01*
X83956198Y-108565300D01*
X84087523Y-108377749D01*
X84089846Y-108372767D01*
X84089849Y-108372762D01*
X84181961Y-108175225D01*
X84181961Y-108175224D01*
X84184284Y-108170243D01*
X84232858Y-107988966D01*
X84242119Y-107954402D01*
X84242119Y-107954400D01*
X84243543Y-107949087D01*
X84263498Y-107721000D01*
X84243543Y-107492913D01*
X84236600Y-107467000D01*
X84185707Y-107277067D01*
X84185706Y-107277065D01*
X84184284Y-107271757D01*
X84146565Y-107190867D01*
X84089849Y-107069238D01*
X84089846Y-107069233D01*
X84087523Y-107064251D01*
X83956198Y-106876700D01*
X83794300Y-106714802D01*
X83789792Y-106711645D01*
X83789789Y-106711643D01*
X83711611Y-106656902D01*
X83606749Y-106583477D01*
X83601767Y-106581154D01*
X83601762Y-106581151D01*
X83566951Y-106564919D01*
X83513666Y-106518002D01*
X83494205Y-106449725D01*
X83514747Y-106381765D01*
X83566951Y-106336529D01*
X83601511Y-106320414D01*
X83611007Y-106314931D01*
X83789467Y-106189972D01*
X83797875Y-106182916D01*
X83951916Y-106028875D01*
X83958972Y-106020467D01*
X84083931Y-105842007D01*
X84089414Y-105832511D01*
X84181490Y-105635053D01*
X84185236Y-105624761D01*
X84231394Y-105452497D01*
X84231058Y-105438401D01*
X84223116Y-105435000D01*
X80882033Y-105435000D01*
X80868502Y-105438973D01*
X80867273Y-105447522D01*
X80914764Y-105624761D01*
X80918510Y-105635053D01*
X81010586Y-105832511D01*
X81016069Y-105842007D01*
X81141028Y-106020467D01*
X81148084Y-106028875D01*
X81302125Y-106182916D01*
X81310533Y-106189972D01*
X81488993Y-106314931D01*
X81498489Y-106320414D01*
X81533049Y-106336529D01*
X81586334Y-106383446D01*
X81605795Y-106451723D01*
X81585253Y-106519683D01*
X81533049Y-106564919D01*
X81498238Y-106581151D01*
X81498233Y-106581154D01*
X81493251Y-106583477D01*
X81388389Y-106656902D01*
X81310211Y-106711643D01*
X81310208Y-106711645D01*
X81305700Y-106714802D01*
X81143802Y-106876700D01*
X81012477Y-107064251D01*
X81010154Y-107069233D01*
X81010151Y-107069238D01*
X80953435Y-107190867D01*
X80915716Y-107271757D01*
X80914294Y-107277065D01*
X80914293Y-107277067D01*
X80863400Y-107467000D01*
X80856457Y-107492913D01*
X80836502Y-107721000D01*
X80856457Y-107949087D01*
X80857881Y-107954400D01*
X80857881Y-107954402D01*
X80867143Y-107988966D01*
X80915716Y-108170243D01*
X80918039Y-108175224D01*
X80918039Y-108175225D01*
X81010151Y-108372762D01*
X81010154Y-108372767D01*
X81012477Y-108377749D01*
X81143802Y-108565300D01*
X81305700Y-108727198D01*
X81310208Y-108730355D01*
X81310211Y-108730357D01*
X81388389Y-108785098D01*
X81493251Y-108858523D01*
X81498233Y-108860846D01*
X81498238Y-108860849D01*
X81532457Y-108876805D01*
X81585742Y-108923722D01*
X81605203Y-108991999D01*
X81584661Y-109059959D01*
X81532457Y-109105195D01*
X81498238Y-109121151D01*
X81498233Y-109121154D01*
X81493251Y-109123477D01*
X81436517Y-109163203D01*
X81310211Y-109251643D01*
X81310208Y-109251645D01*
X81305700Y-109254802D01*
X81143802Y-109416700D01*
X81140645Y-109421208D01*
X81140643Y-109421211D01*
X81085902Y-109499389D01*
X81012477Y-109604251D01*
X81010154Y-109609233D01*
X81010151Y-109609238D01*
X80944695Y-109749611D01*
X80915716Y-109811757D01*
X80856457Y-110032913D01*
X80836502Y-110261000D01*
X80856457Y-110489087D01*
X80857881Y-110494400D01*
X80857881Y-110494402D01*
X80899242Y-110648760D01*
X80915716Y-110710243D01*
X80918039Y-110715224D01*
X80918039Y-110715225D01*
X81010151Y-110912762D01*
X81010154Y-110912767D01*
X81012477Y-110917749D01*
X81036675Y-110952307D01*
X81133454Y-111090521D01*
X81143802Y-111105300D01*
X81305700Y-111267198D01*
X81310208Y-111270355D01*
X81310211Y-111270357D01*
X81335314Y-111287934D01*
X81493251Y-111398523D01*
X81498233Y-111400846D01*
X81498238Y-111400849D01*
X81532457Y-111416805D01*
X81585742Y-111463722D01*
X81605203Y-111531999D01*
X81584661Y-111599959D01*
X81532457Y-111645195D01*
X81498238Y-111661151D01*
X81498233Y-111661154D01*
X81493251Y-111663477D01*
X81388389Y-111736902D01*
X81310211Y-111791643D01*
X81310208Y-111791645D01*
X81305700Y-111794802D01*
X81143802Y-111956700D01*
X81012477Y-112144251D01*
X81010154Y-112149233D01*
X81010151Y-112149238D01*
X80956825Y-112263598D01*
X80915716Y-112351757D01*
X80856457Y-112572913D01*
X80836502Y-112801000D01*
X80856457Y-113029087D01*
X80857881Y-113034400D01*
X80857881Y-113034402D01*
X80905826Y-113213332D01*
X80915716Y-113250243D01*
X80918039Y-113255224D01*
X80918039Y-113255225D01*
X81010151Y-113452762D01*
X81010154Y-113452767D01*
X81012477Y-113457749D01*
X81143802Y-113645300D01*
X81305700Y-113807198D01*
X81310208Y-113810355D01*
X81310211Y-113810357D01*
X81388389Y-113865098D01*
X81493251Y-113938523D01*
X81498233Y-113940846D01*
X81498238Y-113940849D01*
X81532457Y-113956805D01*
X81585742Y-114003722D01*
X81605203Y-114071999D01*
X81584661Y-114139959D01*
X81532457Y-114185195D01*
X81498238Y-114201151D01*
X81498233Y-114201154D01*
X81493251Y-114203477D01*
X81388389Y-114276902D01*
X81310211Y-114331643D01*
X81310208Y-114331645D01*
X81305700Y-114334802D01*
X81143802Y-114496700D01*
X81140645Y-114501208D01*
X81140643Y-114501211D01*
X81109488Y-114545705D01*
X81012477Y-114684251D01*
X81010154Y-114689233D01*
X81010151Y-114689238D01*
X80918039Y-114886775D01*
X80915716Y-114891757D01*
X80914294Y-114897065D01*
X80914293Y-114897067D01*
X80893019Y-114976461D01*
X80856457Y-115112913D01*
X80836502Y-115341000D01*
X80856457Y-115569087D01*
X80857881Y-115574400D01*
X80857881Y-115574402D01*
X80895025Y-115713022D01*
X80915716Y-115790243D01*
X80918039Y-115795224D01*
X80918039Y-115795225D01*
X81010151Y-115992762D01*
X81010154Y-115992767D01*
X81012477Y-115997749D01*
X81015634Y-116002257D01*
X81136469Y-116174827D01*
X81143802Y-116185300D01*
X81305700Y-116347198D01*
X81310208Y-116350355D01*
X81310211Y-116350357D01*
X81336949Y-116369079D01*
X81493251Y-116478523D01*
X81498233Y-116480846D01*
X81498238Y-116480849D01*
X81532457Y-116496805D01*
X81585742Y-116543722D01*
X81605203Y-116611999D01*
X81584661Y-116679959D01*
X81532457Y-116725195D01*
X81498238Y-116741151D01*
X81498233Y-116741154D01*
X81493251Y-116743477D01*
X81388389Y-116816902D01*
X81310211Y-116871643D01*
X81310208Y-116871645D01*
X81305700Y-116874802D01*
X81143802Y-117036700D01*
X81012477Y-117224251D01*
X81010154Y-117229233D01*
X81010151Y-117229238D01*
X80953435Y-117350867D01*
X80915716Y-117431757D01*
X80856457Y-117652913D01*
X80836502Y-117881000D01*
X73058500Y-117881000D01*
X73058500Y-107988966D01*
X73598257Y-107988966D01*
X73628565Y-108123446D01*
X73631645Y-108133275D01*
X73711770Y-108330603D01*
X73716413Y-108339794D01*
X73827694Y-108521388D01*
X73833777Y-108529699D01*
X73973213Y-108690667D01*
X73980580Y-108697883D01*
X74144434Y-108833916D01*
X74152881Y-108839831D01*
X74336756Y-108947279D01*
X74346042Y-108951729D01*
X74545001Y-109027703D01*
X74554899Y-109030579D01*
X74658250Y-109051606D01*
X74672299Y-109050410D01*
X74676000Y-109040065D01*
X74676000Y-109039517D01*
X75184000Y-109039517D01*
X75188064Y-109053359D01*
X75201478Y-109055393D01*
X75208184Y-109054534D01*
X75218262Y-109052392D01*
X75422255Y-108991191D01*
X75431842Y-108987433D01*
X75623095Y-108893739D01*
X75631945Y-108888464D01*
X75805328Y-108764792D01*
X75813200Y-108758139D01*
X75964052Y-108607812D01*
X75970730Y-108599965D01*
X76095003Y-108427020D01*
X76100313Y-108418183D01*
X76194670Y-108227267D01*
X76198469Y-108217672D01*
X76260377Y-108013910D01*
X76262555Y-108003837D01*
X76263986Y-107992962D01*
X76261775Y-107978778D01*
X76248617Y-107975000D01*
X75202115Y-107975000D01*
X75186876Y-107979475D01*
X75185671Y-107980865D01*
X75184000Y-107988548D01*
X75184000Y-109039517D01*
X74676000Y-109039517D01*
X74676000Y-107993115D01*
X74671525Y-107977876D01*
X74670135Y-107976671D01*
X74662452Y-107975000D01*
X73613225Y-107975000D01*
X73599694Y-107978973D01*
X73598257Y-107988966D01*
X73058500Y-107988966D01*
X73058500Y-97828966D01*
X73598257Y-97828966D01*
X73628565Y-97963446D01*
X73631645Y-97973275D01*
X73711770Y-98170603D01*
X73716413Y-98179794D01*
X73827694Y-98361388D01*
X73833777Y-98369699D01*
X73973213Y-98530667D01*
X73980580Y-98537883D01*
X74144434Y-98673916D01*
X74152881Y-98679831D01*
X74336756Y-98787279D01*
X74346042Y-98791729D01*
X74545001Y-98867703D01*
X74554899Y-98870579D01*
X74658250Y-98891606D01*
X74672299Y-98890410D01*
X74676000Y-98880065D01*
X74676000Y-98879517D01*
X75184000Y-98879517D01*
X75188064Y-98893359D01*
X75201478Y-98895393D01*
X75208184Y-98894534D01*
X75218262Y-98892392D01*
X75422255Y-98831191D01*
X75431842Y-98827433D01*
X75623095Y-98733739D01*
X75631945Y-98728464D01*
X75805328Y-98604792D01*
X75813200Y-98598139D01*
X75964052Y-98447812D01*
X75970730Y-98439965D01*
X76095003Y-98267020D01*
X76100313Y-98258183D01*
X76194670Y-98067267D01*
X76198469Y-98057672D01*
X76260377Y-97853910D01*
X76262555Y-97843837D01*
X76263986Y-97832962D01*
X76261775Y-97818778D01*
X76248617Y-97815000D01*
X75202115Y-97815000D01*
X75186876Y-97819475D01*
X75185671Y-97820865D01*
X75184000Y-97828548D01*
X75184000Y-98879517D01*
X74676000Y-98879517D01*
X74676000Y-97833115D01*
X74671525Y-97817876D01*
X74670135Y-97816671D01*
X74662452Y-97815000D01*
X73613225Y-97815000D01*
X73599694Y-97818973D01*
X73598257Y-97828966D01*
X73058500Y-97828966D01*
X73058500Y-87668966D01*
X73598257Y-87668966D01*
X73628565Y-87803446D01*
X73631645Y-87813275D01*
X73711770Y-88010603D01*
X73716413Y-88019794D01*
X73827694Y-88201388D01*
X73833777Y-88209699D01*
X73973213Y-88370667D01*
X73980580Y-88377883D01*
X74144434Y-88513916D01*
X74152881Y-88519831D01*
X74336756Y-88627279D01*
X74346042Y-88631729D01*
X74545001Y-88707703D01*
X74554899Y-88710579D01*
X74658250Y-88731606D01*
X74672299Y-88730410D01*
X74676000Y-88720065D01*
X74676000Y-88719517D01*
X75184000Y-88719517D01*
X75188064Y-88733359D01*
X75201478Y-88735393D01*
X75208184Y-88734534D01*
X75218262Y-88732392D01*
X75422255Y-88671191D01*
X75431842Y-88667433D01*
X75623095Y-88573739D01*
X75631945Y-88568464D01*
X75805328Y-88444792D01*
X75813200Y-88438139D01*
X75964052Y-88287812D01*
X75970730Y-88279965D01*
X76095003Y-88107020D01*
X76100313Y-88098183D01*
X76194670Y-87907267D01*
X76198469Y-87897672D01*
X76260377Y-87693910D01*
X76262555Y-87683837D01*
X76263986Y-87672962D01*
X76261775Y-87658778D01*
X76248617Y-87655000D01*
X75202115Y-87655000D01*
X75186876Y-87659475D01*
X75185671Y-87660865D01*
X75184000Y-87668548D01*
X75184000Y-88719517D01*
X74676000Y-88719517D01*
X74676000Y-87673115D01*
X74671525Y-87657876D01*
X74670135Y-87656671D01*
X74662452Y-87655000D01*
X73613225Y-87655000D01*
X73599694Y-87658973D01*
X73598257Y-87668966D01*
X73058500Y-87668966D01*
X73058500Y-74066341D01*
X73537888Y-74066341D01*
X73537983Y-74069971D01*
X73537983Y-74069972D01*
X73542196Y-74230870D01*
X73546970Y-74413171D01*
X73595856Y-74756660D01*
X73683897Y-75092253D01*
X73809927Y-75415503D01*
X73811624Y-75418708D01*
X73966044Y-75710357D01*
X73972275Y-75722126D01*
X73974325Y-75725109D01*
X73974327Y-75725112D01*
X74166733Y-76005064D01*
X74166739Y-76005071D01*
X74168790Y-76008056D01*
X74286301Y-76142762D01*
X74382059Y-76252531D01*
X74396866Y-76269505D01*
X74434182Y-76303460D01*
X74609268Y-76462775D01*
X74653481Y-76503006D01*
X74935233Y-76705466D01*
X75238388Y-76874200D01*
X75558928Y-77006972D01*
X75562422Y-77007967D01*
X75562424Y-77007968D01*
X75889103Y-77101025D01*
X75889108Y-77101026D01*
X75892604Y-77102022D01*
X76089304Y-77134233D01*
X76231412Y-77157504D01*
X76231419Y-77157505D01*
X76234993Y-77158090D01*
X76408275Y-77166262D01*
X76577931Y-77174263D01*
X76577932Y-77174263D01*
X76581558Y-77174434D01*
X76590415Y-77173830D01*
X76924073Y-77151084D01*
X76924081Y-77151083D01*
X76927704Y-77150836D01*
X76931279Y-77150173D01*
X76931282Y-77150173D01*
X77265279Y-77088270D01*
X77265283Y-77088269D01*
X77268844Y-77087609D01*
X77600456Y-76985592D01*
X77918145Y-76846136D01*
X78162511Y-76703341D01*
X78214560Y-76672926D01*
X78214562Y-76672925D01*
X78217700Y-76671091D01*
X78250813Y-76646229D01*
X78492244Y-76464958D01*
X78492248Y-76464955D01*
X78495151Y-76462775D01*
X78746819Y-76223950D01*
X78969370Y-75957783D01*
X78984880Y-75934172D01*
X79093442Y-75768901D01*
X79159853Y-75667799D01*
X79308924Y-75371405D01*
X79314117Y-75361080D01*
X79314120Y-75361072D01*
X79315744Y-75357844D01*
X79365037Y-75223146D01*
X79433729Y-75035437D01*
X79433730Y-75035433D01*
X79434977Y-75032026D01*
X79435822Y-75028504D01*
X79435825Y-75028496D01*
X79515124Y-74698191D01*
X79515125Y-74698187D01*
X79515971Y-74694662D01*
X79542142Y-74478393D01*
X79557316Y-74353004D01*
X79557316Y-74352997D01*
X79557652Y-74350225D01*
X79563599Y-74161000D01*
X79563438Y-74158204D01*
X79543836Y-73818246D01*
X79543835Y-73818241D01*
X79543627Y-73814626D01*
X79526626Y-73717214D01*
X79484600Y-73476415D01*
X79484598Y-73476408D01*
X79483976Y-73472842D01*
X79482494Y-73467837D01*
X79407567Y-73214891D01*
X79385437Y-73140180D01*
X79306151Y-72954295D01*
X79250740Y-72824386D01*
X79250738Y-72824383D01*
X79249316Y-72821048D01*
X79199569Y-72733831D01*
X79079208Y-72522816D01*
X79077417Y-72519676D01*
X79013378Y-72432497D01*
X78874161Y-72242978D01*
X78872018Y-72240060D01*
X78635842Y-71985904D01*
X78372019Y-71760578D01*
X78084047Y-71567069D01*
X77775741Y-71407940D01*
X77451189Y-71285302D01*
X77447668Y-71284418D01*
X77447663Y-71284416D01*
X77283912Y-71243285D01*
X77114692Y-71200780D01*
X77092476Y-71197855D01*
X76774315Y-71155968D01*
X76774307Y-71155967D01*
X76770711Y-71155494D01*
X76626045Y-71153221D01*
X76427446Y-71150101D01*
X76427442Y-71150101D01*
X76423804Y-71150044D01*
X76420190Y-71150405D01*
X76420184Y-71150405D01*
X76176843Y-71174694D01*
X76078569Y-71184503D01*
X75739583Y-71258414D01*
X75736156Y-71259587D01*
X75736150Y-71259589D01*
X75579785Y-71313125D01*
X75411339Y-71370797D01*
X75098188Y-71520163D01*
X74804279Y-71704532D01*
X74801443Y-71706804D01*
X74801436Y-71706809D01*
X74573397Y-71889503D01*
X74533509Y-71921459D01*
X74289466Y-72168071D01*
X74287225Y-72170929D01*
X74230732Y-72242978D01*
X74075386Y-72441098D01*
X74073493Y-72444187D01*
X74073491Y-72444190D01*
X74027233Y-72519676D01*
X73894105Y-72736921D01*
X73892580Y-72740206D01*
X73892578Y-72740210D01*
X73853505Y-72824386D01*
X73748027Y-73051620D01*
X73714543Y-73152866D01*
X73656080Y-73329642D01*
X73639087Y-73381023D01*
X73638351Y-73384578D01*
X73638350Y-73384581D01*
X73575493Y-73688108D01*
X73568730Y-73720764D01*
X73552550Y-73902054D01*
X73538624Y-74058099D01*
X73537888Y-74066341D01*
X73058500Y-74066341D01*
X73058500Y-70795500D01*
X73078502Y-70727379D01*
X73132158Y-70680886D01*
X73184500Y-70669500D01*
X81053408Y-70669500D01*
X81121529Y-70689502D01*
G37*
%TD.AperFunction*%
%TD*%
M02*
