%TF.GenerationSoftware,KiCad,Pcbnew,6.0.4+dfsg-1+b1*%
%TF.CreationDate,2022-05-29T14:40:34+05:00*%
%TF.ProjectId,evlamp,65766c61-6d70-42e6-9b69-6361645f7063,rev?*%
%TF.SameCoordinates,Original*%
%TF.FileFunction,Copper,L2,Bot*%
%TF.FilePolarity,Positive*%
%FSLAX46Y46*%
G04 Gerber Fmt 4.6, Leading zero omitted, Abs format (unit mm)*
G04 Created by KiCad (PCBNEW 6.0.4+dfsg-1+b1) date 2022-05-29 14:40:34*
%MOMM*%
%LPD*%
G01*
G04 APERTURE LIST*
%TA.AperFunction,ComponentPad*%
%ADD10C,0.800000*%
%TD*%
%TA.AperFunction,ComponentPad*%
%ADD11C,5.000000*%
%TD*%
%TA.AperFunction,ComponentPad*%
%ADD12O,2.400000X1.600000*%
%TD*%
%TA.AperFunction,ComponentPad*%
%ADD13R,2.400000X1.600000*%
%TD*%
%TA.AperFunction,ComponentPad*%
%ADD14R,3.000000X3.000000*%
%TD*%
%TA.AperFunction,ComponentPad*%
%ADD15C,3.000000*%
%TD*%
%TA.AperFunction,ComponentPad*%
%ADD16O,1.700000X1.700000*%
%TD*%
%TA.AperFunction,ComponentPad*%
%ADD17R,1.700000X1.700000*%
%TD*%
%TA.AperFunction,Conductor*%
%ADD18C,0.800000*%
%TD*%
G04 APERTURE END LIST*
D10*
%TO.P,REF\u002A\u002A,1*%
%TO.N,N/C*%
X77875825Y-124835175D03*
X75224175Y-127486825D03*
X78425000Y-126161000D03*
X77875825Y-127486825D03*
X76550000Y-124286000D03*
X74675000Y-126161000D03*
X76550000Y-128036000D03*
X75224175Y-124835175D03*
D11*
X76550000Y-126161000D03*
%TD*%
D12*
%TO.P,DD1,38,GND*%
%TO.N,GND*%
X107950000Y-72161000D03*
%TO.P,DD1,37,IO23*%
%TO.N,DOUT7*%
X107950000Y-74701000D03*
%TO.P,DD1,36,IO22*%
%TO.N,DOUT6*%
X107950000Y-77241000D03*
%TO.P,DD1,35,IO1/TXD0*%
%TO.N,unconnected-(DD1-Pad35)*%
X107950000Y-79781000D03*
%TO.P,DD1,34,IO3/RXD0*%
%TO.N,unconnected-(DD1-Pad34)*%
X107950000Y-82321000D03*
%TO.P,DD1,33,IO21*%
%TO.N,unconnected-(DD1-Pad33)*%
X107950000Y-84861000D03*
%TO.P,DD1,32,GND*%
%TO.N,GND*%
X107950000Y-87401000D03*
%TO.P,DD1,31,IO19*%
%TO.N,unconnected-(DD1-Pad31)*%
X107950000Y-89941000D03*
%TO.P,DD1,30,IO18*%
%TO.N,unconnected-(DD1-Pad30)*%
X107950000Y-92481000D03*
%TO.P,DD1,29,IO5*%
%TO.N,DOUT0*%
X107950000Y-95021000D03*
%TO.P,DD1,28,IO17*%
%TO.N,DOUT1*%
X107950000Y-97561000D03*
%TO.P,DD1,27,IO16*%
%TO.N,DOUT2*%
X107950000Y-100101000D03*
%TO.P,DD1,26,IO4*%
%TO.N,DOUT3*%
X107950000Y-102641000D03*
%TO.P,DD1,25,IO0*%
%TO.N,BTN_RESET*%
X107950000Y-105181000D03*
%TO.P,DD1,24,IO2*%
%TO.N,DOUT4*%
X107950000Y-107721000D03*
%TO.P,DD1,23,IO15/MTDO*%
%TO.N,DOUT5*%
X107950000Y-110261000D03*
%TO.P,DD1,22,IO8/SDI/SD1*%
%TO.N,unconnected-(DD1-Pad22)*%
X107950000Y-112801000D03*
%TO.P,DD1,21,IO7/SDO/SD0*%
%TO.N,unconnected-(DD1-Pad21)*%
X107950000Y-115341000D03*
%TO.P,DD1,20,IO6/SCK/CLK*%
%TO.N,unconnected-(DD1-Pad20)*%
X107950000Y-117881000D03*
%TO.P,DD1,19,+5V*%
%TO.N,+5V*%
X82550000Y-117881000D03*
%TO.P,DD1,18,IO11/SCS/CMD*%
%TO.N,unconnected-(DD1-Pad18)*%
X82550000Y-115341000D03*
%TO.P,DD1,17,IO10/SWP/SD3*%
%TO.N,unconnected-(DD1-Pad17)*%
X82550000Y-112801000D03*
%TO.P,DD1,16,IO9/SHD/SD2*%
%TO.N,unconnected-(DD1-Pad16)*%
X82550000Y-110261000D03*
%TO.P,DD1,15,IO13*%
%TO.N,unconnected-(DD1-Pad15)*%
X82550000Y-107721000D03*
%TO.P,DD1,14,GND*%
%TO.N,GND*%
X82550000Y-105181000D03*
%TO.P,DD1,13,IO12/MTDI*%
%TO.N,unconnected-(DD1-Pad13)*%
X82550000Y-102641000D03*
%TO.P,DD1,12,IO14*%
%TO.N,unconnected-(DD1-Pad12)*%
X82550000Y-100101000D03*
%TO.P,DD1,11,IO27*%
%TO.N,BTN_DOWN*%
X82550000Y-97561000D03*
%TO.P,DD1,10,IO26*%
%TO.N,BTN_UP*%
X82550000Y-95021000D03*
%TO.P,DD1,9,IO25*%
%TO.N,BTN_MAIN*%
X82550000Y-92481000D03*
%TO.P,DD1,8,IO33*%
%TO.N,unconnected-(DD1-Pad8)*%
X82550000Y-89941000D03*
%TO.P,DD1,7,IO32*%
%TO.N,unconnected-(DD1-Pad7)*%
X82550000Y-87401000D03*
%TO.P,DD1,6,IO35*%
%TO.N,unconnected-(DD1-Pad6)*%
X82550000Y-84861000D03*
%TO.P,DD1,5,IO34*%
%TO.N,unconnected-(DD1-Pad5)*%
X82550000Y-82321000D03*
%TO.P,DD1,4,IO39/S_VN*%
%TO.N,unconnected-(DD1-Pad4)*%
X82550000Y-79781000D03*
%TO.P,DD1,3,IO36/S_VP*%
%TO.N,unconnected-(DD1-Pad3)*%
X82550000Y-77241000D03*
%TO.P,DD1,2,EN*%
%TO.N,Net-(C1-Pad2)*%
X82550000Y-74701000D03*
D13*
%TO.P,DD1,1,+3V3_OUT*%
%TO.N,+3V3*%
X82550000Y-72161000D03*
%TD*%
D14*
%TO.P,X2,1*%
%TO.N,Net-(R2-Pad2)*%
X123550000Y-89941000D03*
D15*
%TO.P,X2,2*%
%TO.N,GND*%
X123550000Y-95021000D03*
%TD*%
D14*
%TO.P,X3,1*%
%TO.N,Net-(R3-Pad2)*%
X123550000Y-100101000D03*
D15*
%TO.P,X3,2*%
%TO.N,GND*%
X123550000Y-105181000D03*
%TD*%
D14*
%TO.P,X8,1*%
%TO.N,Net-(R8-Pad2)*%
X87630000Y-126161000D03*
D15*
%TO.P,X8,2*%
%TO.N,GND*%
X82550000Y-126161000D03*
%TD*%
D10*
%TO.P,REF\u002A\u002A,1*%
%TO.N,N/C*%
X112675000Y-126161000D03*
X115875825Y-127486825D03*
X115875825Y-124835175D03*
X114550000Y-124286000D03*
X116425000Y-126161000D03*
X113224175Y-124835175D03*
D11*
X114550000Y-126161000D03*
D10*
X113224175Y-127486825D03*
X114550000Y-128036000D03*
%TD*%
D16*
%TO.P,X9,3*%
%TO.N,GND*%
X74930000Y-97561000D03*
%TO.P,X9,2*%
%TO.N,BTN_UP*%
X74930000Y-95021000D03*
D17*
%TO.P,X9,1*%
%TO.N,+3V3*%
X74930000Y-92481000D03*
%TD*%
D10*
%TO.P,REF\u002A\u002A,1*%
%TO.N,N/C*%
X77875825Y-75486825D03*
X76550000Y-76036000D03*
X75224175Y-75486825D03*
X75224175Y-72835175D03*
D11*
X76550000Y-74161000D03*
D10*
X77875825Y-72835175D03*
X74675000Y-74161000D03*
X78425000Y-74161000D03*
X76550000Y-72286000D03*
%TD*%
D14*
%TO.P,X5,1*%
%TO.N,Net-(R5-Pad2)*%
X123550000Y-120421000D03*
D15*
%TO.P,X5,2*%
%TO.N,GND*%
X123550000Y-125501000D03*
%TD*%
D14*
%TO.P,X1,1*%
%TO.N,+5V*%
X123550000Y-74701000D03*
D15*
%TO.P,X1,2*%
%TO.N,Net-(R1-Pad2)*%
X123550000Y-79781000D03*
%TO.P,X1,3*%
%TO.N,GND*%
X123550000Y-84861000D03*
%TD*%
D17*
%TO.P,X11,1*%
%TO.N,+3V3*%
X74930000Y-82321000D03*
D16*
%TO.P,X11,2*%
%TO.N,BTN_MAIN*%
X74930000Y-84861000D03*
%TO.P,X11,3*%
%TO.N,GND*%
X74930000Y-87401000D03*
%TD*%
D10*
%TO.P,REF\u002A\u002A,1*%
%TO.N,N/C*%
X113224175Y-72835175D03*
X112675000Y-74161000D03*
X114550000Y-76036000D03*
X115875825Y-72835175D03*
X114550000Y-72286000D03*
X113224175Y-75486825D03*
X116425000Y-74161000D03*
X115875825Y-75486825D03*
D11*
X114550000Y-74161000D03*
%TD*%
D17*
%TO.P,X10,1*%
%TO.N,+3V3*%
X74930000Y-102641000D03*
D16*
%TO.P,X10,2*%
%TO.N,BTN_DOWN*%
X74930000Y-105181000D03*
%TO.P,X10,3*%
%TO.N,GND*%
X74930000Y-107721000D03*
%TD*%
D14*
%TO.P,X7,1*%
%TO.N,Net-(R7-Pad2)*%
X97790000Y-126161000D03*
D15*
%TO.P,X7,2*%
%TO.N,GND*%
X92710000Y-126161000D03*
%TD*%
D14*
%TO.P,X4,1*%
%TO.N,Net-(R4-Pad2)*%
X123550000Y-110261000D03*
D15*
%TO.P,X4,2*%
%TO.N,GND*%
X123550000Y-115341000D03*
%TD*%
D14*
%TO.P,X6,1*%
%TO.N,Net-(R6-Pad2)*%
X107950000Y-126161000D03*
D15*
%TO.P,X6,2*%
%TO.N,GND*%
X102870000Y-126161000D03*
%TD*%
D18*
%TO.N,+5V*%
X84836000Y-117881000D02*
X82550000Y-117881000D01*
X123550000Y-75241000D02*
X116078000Y-82713000D01*
X116078000Y-115849000D02*
X112268000Y-119659000D01*
X123550000Y-74701000D02*
X123550000Y-75241000D01*
X116078000Y-82713000D02*
X116078000Y-115849000D01*
X112268000Y-119659000D02*
X86614000Y-119659000D01*
X86614000Y-119659000D02*
X84836000Y-117881000D01*
%TO.N,+3V3*%
X74930000Y-82321000D02*
X76379511Y-83770511D01*
X80010000Y-77241000D02*
X80010000Y-72923000D01*
X76379511Y-93930511D02*
X76379511Y-101191489D01*
X76379511Y-83770511D02*
X76379511Y-91031489D01*
X76379511Y-101191489D02*
X74930000Y-102641000D01*
X74930000Y-82321000D02*
X80010000Y-77241000D01*
X80772000Y-72161000D02*
X82550000Y-72161000D01*
X76379511Y-91031489D02*
X74930000Y-92481000D01*
X74930000Y-92481000D02*
X76379511Y-93930511D01*
X80010000Y-72923000D02*
X80772000Y-72161000D01*
%TD*%
%TA.AperFunction,Conductor*%
%TO.N,GND*%
G36*
X86048121Y-70481502D02*
G01*
X86094614Y-70535158D01*
X86106000Y-70587500D01*
X86106000Y-75717000D01*
X104394000Y-75717000D01*
X104394000Y-72427522D01*
X106267273Y-72427522D01*
X106314764Y-72604761D01*
X106318510Y-72615053D01*
X106410586Y-72812511D01*
X106416069Y-72822007D01*
X106541028Y-73000467D01*
X106548084Y-73008875D01*
X106702125Y-73162916D01*
X106710533Y-73169972D01*
X106888993Y-73294931D01*
X106898489Y-73300414D01*
X107095947Y-73392490D01*
X107106239Y-73396236D01*
X107185713Y-73417531D01*
X107246336Y-73454483D01*
X107277357Y-73518344D01*
X107268929Y-73588838D01*
X107223726Y-73643585D01*
X107188572Y-73660143D01*
X107139451Y-73674553D01*
X107056505Y-73717273D01*
X106958092Y-73767959D01*
X106958089Y-73767961D01*
X106952761Y-73770705D01*
X106948046Y-73774409D01*
X106792338Y-73896718D01*
X106792333Y-73896722D01*
X106787621Y-73900424D01*
X106783690Y-73904954D01*
X106783689Y-73904955D01*
X106653921Y-74054498D01*
X106653917Y-74054503D01*
X106649990Y-74059029D01*
X106544834Y-74240799D01*
X106542866Y-74246467D01*
X106492290Y-74392112D01*
X106475947Y-74439174D01*
X106475086Y-74445109D01*
X106475086Y-74445111D01*
X106459701Y-74551223D01*
X106445814Y-74646996D01*
X106455523Y-74856767D01*
X106456927Y-74862592D01*
X106456927Y-74862593D01*
X106484070Y-74975216D01*
X106504724Y-75060918D01*
X106507206Y-75066376D01*
X106507207Y-75066380D01*
X106550320Y-75161201D01*
X106591640Y-75252081D01*
X106713137Y-75423360D01*
X106864831Y-75568575D01*
X106869866Y-75571826D01*
X107036209Y-75679233D01*
X107036212Y-75679234D01*
X107041246Y-75682485D01*
X107046809Y-75684727D01*
X107230455Y-75758739D01*
X107230458Y-75758740D01*
X107236019Y-75760981D01*
X107241900Y-75762129D01*
X107241905Y-75762131D01*
X107437676Y-75800362D01*
X107437679Y-75800362D01*
X107442122Y-75801230D01*
X107447643Y-75801500D01*
X108402469Y-75801500D01*
X108559046Y-75786561D01*
X108564802Y-75784872D01*
X108564804Y-75784872D01*
X108653883Y-75758739D01*
X108760549Y-75727447D01*
X108860947Y-75675739D01*
X108941908Y-75634041D01*
X108941911Y-75634039D01*
X108947239Y-75631295D01*
X109022947Y-75571826D01*
X109107662Y-75505282D01*
X109107667Y-75505278D01*
X109112379Y-75501576D01*
X109116311Y-75497045D01*
X109246079Y-75347502D01*
X109246083Y-75347497D01*
X109250010Y-75342971D01*
X109355166Y-75161201D01*
X109402683Y-75024366D01*
X109422086Y-74968491D01*
X109422086Y-74968489D01*
X109424053Y-74962826D01*
X109439431Y-74856767D01*
X109453325Y-74760944D01*
X109453325Y-74760941D01*
X109454186Y-74755004D01*
X109444477Y-74545233D01*
X109412718Y-74413453D01*
X109396682Y-74346915D01*
X109396681Y-74346913D01*
X109395276Y-74341082D01*
X109352258Y-74246467D01*
X109310840Y-74155374D01*
X109308360Y-74149919D01*
X109253716Y-74072885D01*
X111746138Y-74072885D01*
X111746233Y-74076515D01*
X111746233Y-74076516D01*
X111754497Y-74392112D01*
X111754592Y-74395737D01*
X111800098Y-74715477D01*
X111882053Y-75027869D01*
X111999369Y-75328770D01*
X112006888Y-75342971D01*
X112125320Y-75566649D01*
X112150493Y-75614193D01*
X112152545Y-75617178D01*
X112152550Y-75617187D01*
X112331364Y-75877363D01*
X112331370Y-75877370D01*
X112333421Y-75880355D01*
X112335809Y-75883092D01*
X112514342Y-76087749D01*
X112545728Y-76123728D01*
X112784601Y-76341086D01*
X113046874Y-76529548D01*
X113329070Y-76686616D01*
X113627448Y-76810208D01*
X113630942Y-76811203D01*
X113630944Y-76811204D01*
X113934554Y-76897690D01*
X113934559Y-76897691D01*
X113938055Y-76898687D01*
X114157264Y-76934584D01*
X114253192Y-76950293D01*
X114253196Y-76950293D01*
X114256772Y-76950879D01*
X114260398Y-76951050D01*
X114575749Y-76965921D01*
X114575750Y-76965921D01*
X114579376Y-76966092D01*
X114591707Y-76965251D01*
X114897960Y-76944374D01*
X114897968Y-76944373D01*
X114901591Y-76944126D01*
X114905167Y-76943463D01*
X114905169Y-76943463D01*
X115215580Y-76885932D01*
X115215584Y-76885931D01*
X115219145Y-76885271D01*
X115527830Y-76790307D01*
X115760884Y-76688003D01*
X115820232Y-76661951D01*
X115820236Y-76661949D01*
X115823555Y-76660492D01*
X115928737Y-76599029D01*
X116099259Y-76499384D01*
X116099261Y-76499383D01*
X116102399Y-76497549D01*
X116106401Y-76494544D01*
X116357761Y-76305819D01*
X116357765Y-76305816D01*
X116360668Y-76303636D01*
X116594936Y-76081323D01*
X116802101Y-75833557D01*
X116804089Y-75830531D01*
X116977427Y-75566649D01*
X116977432Y-75566640D01*
X116979414Y-75563623D01*
X117052416Y-75418474D01*
X117122900Y-75278334D01*
X117122903Y-75278326D01*
X117124527Y-75275098D01*
X117213765Y-75031246D01*
X117234269Y-74975216D01*
X117234270Y-74975212D01*
X117235517Y-74971805D01*
X117236362Y-74968283D01*
X117236365Y-74968275D01*
X117310064Y-74661295D01*
X117310065Y-74661291D01*
X117310911Y-74657766D01*
X117342185Y-74399328D01*
X117349374Y-74339922D01*
X117349374Y-74339916D01*
X117349710Y-74337143D01*
X117355246Y-74161000D01*
X117354607Y-74149919D01*
X117336864Y-73842193D01*
X117336863Y-73842188D01*
X117336655Y-73838573D01*
X117320786Y-73747651D01*
X117281752Y-73523993D01*
X117281750Y-73523986D01*
X117281128Y-73520420D01*
X117267890Y-73475727D01*
X117228247Y-73341896D01*
X117189402Y-73210757D01*
X117159258Y-73140084D01*
X117064114Y-72917023D01*
X117062692Y-72913689D01*
X116902677Y-72633154D01*
X116889381Y-72615053D01*
X116713622Y-72375786D01*
X116713620Y-72375783D01*
X116711479Y-72372869D01*
X116491632Y-72136285D01*
X116424415Y-72078876D01*
X116248805Y-71928892D01*
X116246049Y-71926538D01*
X115977986Y-71746407D01*
X115890363Y-71701181D01*
X115694216Y-71599942D01*
X115690996Y-71598280D01*
X115388883Y-71484121D01*
X115385362Y-71483237D01*
X115385357Y-71483235D01*
X115235433Y-71445577D01*
X115075651Y-71405443D01*
X115054216Y-71402621D01*
X114759055Y-71363762D01*
X114759047Y-71363761D01*
X114755451Y-71363288D01*
X114621081Y-71361177D01*
X114436170Y-71358272D01*
X114436166Y-71358272D01*
X114432528Y-71358215D01*
X114428913Y-71358576D01*
X114428908Y-71358576D01*
X114201132Y-71381311D01*
X114111163Y-71390291D01*
X113795614Y-71459092D01*
X113792187Y-71460265D01*
X113792181Y-71460267D01*
X113493495Y-71562530D01*
X113493490Y-71562532D01*
X113490064Y-71563705D01*
X113486796Y-71565264D01*
X113486788Y-71565267D01*
X113414091Y-71599942D01*
X113198562Y-71702744D01*
X112924974Y-71874366D01*
X112922140Y-71876636D01*
X112922135Y-71876640D01*
X112856914Y-71928892D01*
X112672924Y-72076296D01*
X112445754Y-72305858D01*
X112246474Y-72560008D01*
X112244581Y-72563097D01*
X112244579Y-72563100D01*
X112157587Y-72705059D01*
X112077727Y-72835379D01*
X111941748Y-73128320D01*
X111940608Y-73131767D01*
X111886647Y-73294931D01*
X111840340Y-73434949D01*
X111839604Y-73438504D01*
X111839603Y-73438507D01*
X111788975Y-73682983D01*
X111774848Y-73751201D01*
X111772777Y-73774409D01*
X111747375Y-74059029D01*
X111746138Y-74072885D01*
X109253716Y-74072885D01*
X109186863Y-73978640D01*
X109035169Y-73833425D01*
X108938033Y-73770705D01*
X108863791Y-73722767D01*
X108863788Y-73722766D01*
X108858754Y-73719515D01*
X108753998Y-73677297D01*
X108700767Y-73655844D01*
X108645061Y-73611829D01*
X108621995Y-73544683D01*
X108638892Y-73475727D01*
X108690388Y-73426852D01*
X108715255Y-73417271D01*
X108793761Y-73396236D01*
X108804053Y-73392490D01*
X109001511Y-73300414D01*
X109011007Y-73294931D01*
X109189467Y-73169972D01*
X109197875Y-73162916D01*
X109351916Y-73008875D01*
X109358972Y-73000467D01*
X109483931Y-72822007D01*
X109489414Y-72812511D01*
X109581490Y-72615053D01*
X109585236Y-72604761D01*
X109631394Y-72432497D01*
X109631058Y-72418401D01*
X109623116Y-72415000D01*
X106282033Y-72415000D01*
X106268502Y-72418973D01*
X106267273Y-72427522D01*
X104394000Y-72427522D01*
X104394000Y-71889503D01*
X106268606Y-71889503D01*
X106268942Y-71903599D01*
X106276884Y-71907000D01*
X107677885Y-71907000D01*
X107693124Y-71902525D01*
X107694329Y-71901135D01*
X107696000Y-71893452D01*
X107696000Y-71888885D01*
X108204000Y-71888885D01*
X108208475Y-71904124D01*
X108209865Y-71905329D01*
X108217548Y-71907000D01*
X109617967Y-71907000D01*
X109631498Y-71903027D01*
X109632727Y-71894478D01*
X109585236Y-71717239D01*
X109581490Y-71706947D01*
X109489414Y-71509489D01*
X109483931Y-71499993D01*
X109358972Y-71321533D01*
X109351916Y-71313125D01*
X109197875Y-71159084D01*
X109189467Y-71152028D01*
X109011007Y-71027069D01*
X109001511Y-71021586D01*
X108804053Y-70929510D01*
X108793761Y-70925764D01*
X108583312Y-70869375D01*
X108572519Y-70867472D01*
X108409830Y-70853238D01*
X108404365Y-70853000D01*
X108222115Y-70853000D01*
X108206876Y-70857475D01*
X108205671Y-70858865D01*
X108204000Y-70866548D01*
X108204000Y-71888885D01*
X107696000Y-71888885D01*
X107696000Y-70871115D01*
X107691525Y-70855876D01*
X107690135Y-70854671D01*
X107682452Y-70853000D01*
X107495635Y-70853000D01*
X107490170Y-70853238D01*
X107327481Y-70867472D01*
X107316688Y-70869375D01*
X107106239Y-70925764D01*
X107095947Y-70929510D01*
X106898489Y-71021586D01*
X106888993Y-71027069D01*
X106710533Y-71152028D01*
X106702125Y-71159084D01*
X106548084Y-71313125D01*
X106541028Y-71321533D01*
X106416069Y-71499993D01*
X106410586Y-71509489D01*
X106318510Y-71706947D01*
X106314764Y-71717239D01*
X106268606Y-71889503D01*
X104394000Y-71889503D01*
X104394000Y-70587500D01*
X104414002Y-70519379D01*
X104467658Y-70472886D01*
X104520000Y-70461500D01*
X127123500Y-70461500D01*
X127191621Y-70481502D01*
X127238114Y-70535158D01*
X127249500Y-70587500D01*
X127249500Y-129734500D01*
X127229498Y-129802621D01*
X127175842Y-129849114D01*
X127123500Y-129860500D01*
X72976500Y-129860500D01*
X72908379Y-129840498D01*
X72861886Y-129786842D01*
X72850500Y-129734500D01*
X72850500Y-126072885D01*
X73746138Y-126072885D01*
X73746233Y-126076515D01*
X73746233Y-126076516D01*
X73752985Y-126334352D01*
X73754592Y-126395737D01*
X73800098Y-126715477D01*
X73882053Y-127027869D01*
X73999369Y-127328770D01*
X74001073Y-127331988D01*
X74125320Y-127566649D01*
X74150493Y-127614193D01*
X74152545Y-127617178D01*
X74152550Y-127617187D01*
X74331364Y-127877363D01*
X74331370Y-127877370D01*
X74333421Y-127880355D01*
X74402553Y-127959603D01*
X74498556Y-128069653D01*
X74545728Y-128123728D01*
X74784601Y-128341086D01*
X75046874Y-128529548D01*
X75329070Y-128686616D01*
X75627448Y-128810208D01*
X75630942Y-128811203D01*
X75630944Y-128811204D01*
X75934554Y-128897690D01*
X75934559Y-128897691D01*
X75938055Y-128898687D01*
X76157264Y-128934584D01*
X76253192Y-128950293D01*
X76253196Y-128950293D01*
X76256772Y-128950879D01*
X76260398Y-128951050D01*
X76575749Y-128965921D01*
X76575750Y-128965921D01*
X76579376Y-128966092D01*
X76591707Y-128965251D01*
X76897960Y-128944374D01*
X76897968Y-128944373D01*
X76901591Y-128944126D01*
X76905167Y-128943463D01*
X76905169Y-128943463D01*
X77215580Y-128885932D01*
X77215584Y-128885931D01*
X77219145Y-128885271D01*
X77527830Y-128790307D01*
X77760884Y-128688003D01*
X77820232Y-128661951D01*
X77820236Y-128661949D01*
X77823555Y-128660492D01*
X78102399Y-128497549D01*
X78105308Y-128495365D01*
X78357761Y-128305819D01*
X78357765Y-128305816D01*
X78360668Y-128303636D01*
X78594936Y-128081323D01*
X78802101Y-127833557D01*
X78805868Y-127827822D01*
X78856558Y-127750654D01*
X81325618Y-127750654D01*
X81332673Y-127760627D01*
X81363679Y-127786551D01*
X81370598Y-127791579D01*
X81595272Y-127932515D01*
X81602807Y-127936556D01*
X81844520Y-128045694D01*
X81852551Y-128048680D01*
X82106832Y-128124002D01*
X82115184Y-128125869D01*
X82377340Y-128165984D01*
X82385874Y-128166700D01*
X82651045Y-128170867D01*
X82659596Y-128170418D01*
X82922883Y-128138557D01*
X82931284Y-128136955D01*
X83187824Y-128069653D01*
X83195926Y-128066926D01*
X83440949Y-127965434D01*
X83448617Y-127961628D01*
X83677598Y-127827822D01*
X83684679Y-127823009D01*
X83764655Y-127760301D01*
X83773125Y-127748442D01*
X83766608Y-127736818D01*
X83735436Y-127705646D01*
X85829500Y-127705646D01*
X85832618Y-127731846D01*
X85836456Y-127740486D01*
X85836456Y-127740487D01*
X85840972Y-127750654D01*
X85878061Y-127834153D01*
X85957287Y-127913241D01*
X85967924Y-127917944D01*
X85967926Y-127917945D01*
X86027462Y-127944265D01*
X86059673Y-127958506D01*
X86085354Y-127961500D01*
X89174646Y-127961500D01*
X89178350Y-127961059D01*
X89178353Y-127961059D01*
X89185746Y-127960179D01*
X89200846Y-127958382D01*
X89249984Y-127936556D01*
X89292518Y-127917663D01*
X89303153Y-127912939D01*
X89382241Y-127833713D01*
X89386974Y-127823009D01*
X89414697Y-127760301D01*
X89418962Y-127750654D01*
X91485618Y-127750654D01*
X91492673Y-127760627D01*
X91523679Y-127786551D01*
X91530598Y-127791579D01*
X91755272Y-127932515D01*
X91762807Y-127936556D01*
X92004520Y-128045694D01*
X92012551Y-128048680D01*
X92266832Y-128124002D01*
X92275184Y-128125869D01*
X92537340Y-128165984D01*
X92545874Y-128166700D01*
X92811045Y-128170867D01*
X92819596Y-128170418D01*
X93082883Y-128138557D01*
X93091284Y-128136955D01*
X93347824Y-128069653D01*
X93355926Y-128066926D01*
X93600949Y-127965434D01*
X93608617Y-127961628D01*
X93837598Y-127827822D01*
X93844679Y-127823009D01*
X93924655Y-127760301D01*
X93933125Y-127748442D01*
X93926608Y-127736818D01*
X93895436Y-127705646D01*
X95989500Y-127705646D01*
X95992618Y-127731846D01*
X95996456Y-127740486D01*
X95996456Y-127740487D01*
X96000972Y-127750654D01*
X96038061Y-127834153D01*
X96117287Y-127913241D01*
X96127924Y-127917944D01*
X96127926Y-127917945D01*
X96187462Y-127944265D01*
X96219673Y-127958506D01*
X96245354Y-127961500D01*
X99334646Y-127961500D01*
X99338350Y-127961059D01*
X99338353Y-127961059D01*
X99345746Y-127960179D01*
X99360846Y-127958382D01*
X99409984Y-127936556D01*
X99452518Y-127917663D01*
X99463153Y-127912939D01*
X99542241Y-127833713D01*
X99546974Y-127823009D01*
X99574697Y-127760301D01*
X99578962Y-127750654D01*
X101645618Y-127750654D01*
X101652673Y-127760627D01*
X101683679Y-127786551D01*
X101690598Y-127791579D01*
X101915272Y-127932515D01*
X101922807Y-127936556D01*
X102164520Y-128045694D01*
X102172551Y-128048680D01*
X102426832Y-128124002D01*
X102435184Y-128125869D01*
X102697340Y-128165984D01*
X102705874Y-128166700D01*
X102971045Y-128170867D01*
X102979596Y-128170418D01*
X103242883Y-128138557D01*
X103251284Y-128136955D01*
X103507824Y-128069653D01*
X103515926Y-128066926D01*
X103760949Y-127965434D01*
X103768617Y-127961628D01*
X103997598Y-127827822D01*
X104004679Y-127823009D01*
X104084655Y-127760301D01*
X104093125Y-127748442D01*
X104086608Y-127736818D01*
X104055436Y-127705646D01*
X106149500Y-127705646D01*
X106152618Y-127731846D01*
X106156456Y-127740486D01*
X106156456Y-127740487D01*
X106160972Y-127750654D01*
X106198061Y-127834153D01*
X106277287Y-127913241D01*
X106287924Y-127917944D01*
X106287926Y-127917945D01*
X106347462Y-127944265D01*
X106379673Y-127958506D01*
X106405354Y-127961500D01*
X109494646Y-127961500D01*
X109498350Y-127961059D01*
X109498353Y-127961059D01*
X109505746Y-127960179D01*
X109520846Y-127958382D01*
X109569984Y-127936556D01*
X109612518Y-127917663D01*
X109623153Y-127912939D01*
X109702241Y-127833713D01*
X109706974Y-127823009D01*
X109734697Y-127760301D01*
X109747506Y-127731327D01*
X109750500Y-127705646D01*
X109750500Y-126072885D01*
X111746138Y-126072885D01*
X111746233Y-126076515D01*
X111746233Y-126076516D01*
X111752985Y-126334352D01*
X111754592Y-126395737D01*
X111800098Y-126715477D01*
X111882053Y-127027869D01*
X111999369Y-127328770D01*
X112001073Y-127331988D01*
X112125320Y-127566649D01*
X112150493Y-127614193D01*
X112152545Y-127617178D01*
X112152550Y-127617187D01*
X112331364Y-127877363D01*
X112331370Y-127877370D01*
X112333421Y-127880355D01*
X112402553Y-127959603D01*
X112498556Y-128069653D01*
X112545728Y-128123728D01*
X112784601Y-128341086D01*
X113046874Y-128529548D01*
X113329070Y-128686616D01*
X113627448Y-128810208D01*
X113630942Y-128811203D01*
X113630944Y-128811204D01*
X113934554Y-128897690D01*
X113934559Y-128897691D01*
X113938055Y-128898687D01*
X114157264Y-128934584D01*
X114253192Y-128950293D01*
X114253196Y-128950293D01*
X114256772Y-128950879D01*
X114260398Y-128951050D01*
X114575749Y-128965921D01*
X114575750Y-128965921D01*
X114579376Y-128966092D01*
X114591707Y-128965251D01*
X114897960Y-128944374D01*
X114897968Y-128944373D01*
X114901591Y-128944126D01*
X114905167Y-128943463D01*
X114905169Y-128943463D01*
X115215580Y-128885932D01*
X115215584Y-128885931D01*
X115219145Y-128885271D01*
X115527830Y-128790307D01*
X115760884Y-128688003D01*
X115820232Y-128661951D01*
X115820236Y-128661949D01*
X115823555Y-128660492D01*
X116102399Y-128497549D01*
X116105308Y-128495365D01*
X116357761Y-128305819D01*
X116357765Y-128305816D01*
X116360668Y-128303636D01*
X116594936Y-128081323D01*
X116802101Y-127833557D01*
X116805868Y-127827822D01*
X116977427Y-127566649D01*
X116977432Y-127566640D01*
X116979414Y-127563623D01*
X117069661Y-127384187D01*
X117122900Y-127278334D01*
X117122903Y-127278326D01*
X117124527Y-127275098D01*
X117192025Y-127090654D01*
X122325618Y-127090654D01*
X122332673Y-127100627D01*
X122363679Y-127126551D01*
X122370598Y-127131579D01*
X122595272Y-127272515D01*
X122602807Y-127276556D01*
X122844520Y-127385694D01*
X122852551Y-127388680D01*
X123106832Y-127464002D01*
X123115184Y-127465869D01*
X123377340Y-127505984D01*
X123385874Y-127506700D01*
X123651045Y-127510867D01*
X123659596Y-127510418D01*
X123922883Y-127478557D01*
X123931284Y-127476955D01*
X124187824Y-127409653D01*
X124195926Y-127406926D01*
X124440949Y-127305434D01*
X124448617Y-127301628D01*
X124677598Y-127167822D01*
X124684679Y-127163009D01*
X124764655Y-127100301D01*
X124773125Y-127088442D01*
X124766608Y-127076818D01*
X123562812Y-125873022D01*
X123548868Y-125865408D01*
X123547035Y-125865539D01*
X123540420Y-125869790D01*
X122332910Y-127077300D01*
X122325618Y-127090654D01*
X117192025Y-127090654D01*
X117213765Y-127031246D01*
X117234269Y-126975216D01*
X117234270Y-126975212D01*
X117235517Y-126971805D01*
X117236362Y-126968283D01*
X117236365Y-126968275D01*
X117310064Y-126661295D01*
X117310065Y-126661291D01*
X117310911Y-126657766D01*
X117320844Y-126575685D01*
X117349374Y-126339922D01*
X117349374Y-126339916D01*
X117349710Y-126337143D01*
X117355246Y-126161000D01*
X117350375Y-126076516D01*
X117336864Y-125842193D01*
X117336863Y-125842188D01*
X117336655Y-125838573D01*
X117321406Y-125751201D01*
X117281752Y-125523993D01*
X117281750Y-125523986D01*
X117281128Y-125520420D01*
X117278214Y-125510580D01*
X117270401Y-125484204D01*
X121537665Y-125484204D01*
X121552932Y-125748969D01*
X121554005Y-125757470D01*
X121605065Y-126017722D01*
X121607276Y-126025974D01*
X121693184Y-126276894D01*
X121696499Y-126284779D01*
X121815664Y-126521713D01*
X121820020Y-126529079D01*
X121949347Y-126717250D01*
X121959601Y-126725594D01*
X121973342Y-126718448D01*
X123177978Y-125513812D01*
X123184356Y-125502132D01*
X123914408Y-125502132D01*
X123914539Y-125503965D01*
X123918790Y-125510580D01*
X125125730Y-126717520D01*
X125137939Y-126724187D01*
X125149439Y-126715497D01*
X125246831Y-126582913D01*
X125251418Y-126575685D01*
X125377962Y-126342621D01*
X125381530Y-126334827D01*
X125475271Y-126086750D01*
X125477748Y-126078544D01*
X125536954Y-125820038D01*
X125538294Y-125811577D01*
X125562031Y-125545616D01*
X125562277Y-125540677D01*
X125562666Y-125503485D01*
X125562523Y-125498519D01*
X125544362Y-125232123D01*
X125543201Y-125223649D01*
X125489419Y-124963944D01*
X125487120Y-124955709D01*
X125398588Y-124705705D01*
X125395191Y-124697854D01*
X125273550Y-124462178D01*
X125269122Y-124454866D01*
X125150031Y-124285417D01*
X125139509Y-124277037D01*
X125126121Y-124284089D01*
X123922022Y-125488188D01*
X123914408Y-125502132D01*
X123184356Y-125502132D01*
X123185592Y-125499868D01*
X123185461Y-125498035D01*
X123181210Y-125491420D01*
X121973814Y-124284024D01*
X121961804Y-124277466D01*
X121950064Y-124286434D01*
X121841935Y-124436911D01*
X121837418Y-124444196D01*
X121713325Y-124678567D01*
X121709839Y-124686395D01*
X121618700Y-124935446D01*
X121616311Y-124943670D01*
X121559812Y-125202795D01*
X121558563Y-125211250D01*
X121537754Y-125475653D01*
X121537665Y-125484204D01*
X117270401Y-125484204D01*
X117195731Y-125232123D01*
X117189402Y-125210757D01*
X117062692Y-124913689D01*
X116902677Y-124633154D01*
X116871472Y-124590673D01*
X116713622Y-124375786D01*
X116713620Y-124375783D01*
X116711479Y-124372869D01*
X116708703Y-124369881D01*
X116508389Y-124154318D01*
X116491632Y-124136285D01*
X116424415Y-124078876D01*
X116248805Y-123928892D01*
X116246049Y-123926538D01*
X116226647Y-123913500D01*
X122326584Y-123913500D01*
X122332980Y-123924770D01*
X123537188Y-125128978D01*
X123551132Y-125136592D01*
X123552965Y-125136461D01*
X123559580Y-125132210D01*
X124766604Y-123925186D01*
X124773795Y-123912017D01*
X124766473Y-123901780D01*
X124719233Y-123863115D01*
X124712261Y-123858160D01*
X124486122Y-123719582D01*
X124478552Y-123715624D01*
X124235704Y-123609022D01*
X124227644Y-123606120D01*
X123972592Y-123533467D01*
X123964214Y-123531685D01*
X123701656Y-123494318D01*
X123693111Y-123493691D01*
X123427908Y-123492302D01*
X123419374Y-123492839D01*
X123156433Y-123527456D01*
X123148035Y-123529149D01*
X122892238Y-123599127D01*
X122884143Y-123601946D01*
X122640199Y-123705997D01*
X122632577Y-123709881D01*
X122405013Y-123846075D01*
X122397981Y-123850962D01*
X122335053Y-123901377D01*
X122326584Y-123913500D01*
X116226647Y-123913500D01*
X116224440Y-123912017D01*
X116133580Y-123850962D01*
X115977986Y-123746407D01*
X115890363Y-123701181D01*
X115694216Y-123599942D01*
X115690996Y-123598280D01*
X115388883Y-123484121D01*
X115385362Y-123483237D01*
X115385357Y-123483235D01*
X115235433Y-123445577D01*
X115075651Y-123405443D01*
X115055805Y-123402830D01*
X114759055Y-123363762D01*
X114759047Y-123363761D01*
X114755451Y-123363288D01*
X114621081Y-123361177D01*
X114436170Y-123358272D01*
X114436166Y-123358272D01*
X114432528Y-123358215D01*
X114428913Y-123358576D01*
X114428908Y-123358576D01*
X114201132Y-123381311D01*
X114111163Y-123390291D01*
X113795614Y-123459092D01*
X113792187Y-123460265D01*
X113792181Y-123460267D01*
X113493495Y-123562530D01*
X113493490Y-123562532D01*
X113490064Y-123563705D01*
X113486796Y-123565264D01*
X113486788Y-123565267D01*
X113338297Y-123636094D01*
X113198562Y-123702744D01*
X113195483Y-123704675D01*
X113195482Y-123704676D01*
X113171720Y-123719582D01*
X112924974Y-123874366D01*
X112922140Y-123876636D01*
X112922135Y-123876640D01*
X112856914Y-123928892D01*
X112672924Y-124076296D01*
X112445754Y-124305858D01*
X112246474Y-124560008D01*
X112244581Y-124563097D01*
X112244579Y-124563100D01*
X112209658Y-124620086D01*
X112077727Y-124835379D01*
X111941748Y-125128320D01*
X111940608Y-125131767D01*
X111914485Y-125210757D01*
X111840340Y-125434949D01*
X111839604Y-125438504D01*
X111839603Y-125438507D01*
X111824678Y-125510580D01*
X111774848Y-125751201D01*
X111746138Y-126072885D01*
X109750500Y-126072885D01*
X109750500Y-124616354D01*
X109747382Y-124590154D01*
X109732725Y-124557155D01*
X109706663Y-124498482D01*
X109701939Y-124487847D01*
X109668901Y-124454866D01*
X109630945Y-124416977D01*
X109622713Y-124408759D01*
X109612076Y-124404056D01*
X109612074Y-124404055D01*
X109552538Y-124377735D01*
X109520327Y-124363494D01*
X109494646Y-124360500D01*
X106405354Y-124360500D01*
X106401650Y-124360941D01*
X106401647Y-124360941D01*
X106394254Y-124361821D01*
X106379154Y-124363618D01*
X106370514Y-124367456D01*
X106370513Y-124367456D01*
X106288117Y-124404055D01*
X106276847Y-124409061D01*
X106268628Y-124417294D01*
X106268627Y-124417295D01*
X106241773Y-124444196D01*
X106197759Y-124488287D01*
X106193056Y-124498924D01*
X106193055Y-124498926D01*
X106187734Y-124510962D01*
X106152494Y-124590673D01*
X106149500Y-124616354D01*
X106149500Y-127705646D01*
X104055436Y-127705646D01*
X102882812Y-126533022D01*
X102868868Y-126525408D01*
X102867035Y-126525539D01*
X102860420Y-126529790D01*
X101652910Y-127737300D01*
X101645618Y-127750654D01*
X99578962Y-127750654D01*
X99587506Y-127731327D01*
X99590500Y-127705646D01*
X99590500Y-126144204D01*
X100857665Y-126144204D01*
X100872932Y-126408969D01*
X100874005Y-126417470D01*
X100925065Y-126677722D01*
X100927276Y-126685974D01*
X101013184Y-126936894D01*
X101016499Y-126944779D01*
X101135664Y-127181713D01*
X101140020Y-127189079D01*
X101269347Y-127377250D01*
X101279601Y-127385594D01*
X101293342Y-127378448D01*
X102497978Y-126173812D01*
X102504356Y-126162132D01*
X103234408Y-126162132D01*
X103234539Y-126163965D01*
X103238790Y-126170580D01*
X104445730Y-127377520D01*
X104457939Y-127384187D01*
X104469439Y-127375497D01*
X104566831Y-127242913D01*
X104571418Y-127235685D01*
X104697962Y-127002621D01*
X104701530Y-126994827D01*
X104795271Y-126746750D01*
X104797748Y-126738544D01*
X104856954Y-126480038D01*
X104858294Y-126471577D01*
X104882031Y-126205616D01*
X104882277Y-126200677D01*
X104882666Y-126163485D01*
X104882523Y-126158519D01*
X104864362Y-125892123D01*
X104863201Y-125883649D01*
X104809419Y-125623944D01*
X104807120Y-125615709D01*
X104718588Y-125365705D01*
X104715191Y-125357854D01*
X104593550Y-125122178D01*
X104589122Y-125114866D01*
X104470031Y-124945417D01*
X104459509Y-124937037D01*
X104446121Y-124944089D01*
X103242022Y-126148188D01*
X103234408Y-126162132D01*
X102504356Y-126162132D01*
X102505592Y-126159868D01*
X102505461Y-126158035D01*
X102501210Y-126151420D01*
X101293814Y-124944024D01*
X101281804Y-124937466D01*
X101270064Y-124946434D01*
X101161935Y-125096911D01*
X101157418Y-125104196D01*
X101033325Y-125338567D01*
X101029839Y-125346395D01*
X100938700Y-125595446D01*
X100936311Y-125603670D01*
X100879812Y-125862795D01*
X100878563Y-125871250D01*
X100857754Y-126135653D01*
X100857665Y-126144204D01*
X99590500Y-126144204D01*
X99590500Y-124616354D01*
X99587382Y-124590154D01*
X99579985Y-124573500D01*
X101646584Y-124573500D01*
X101652980Y-124584770D01*
X102857188Y-125788978D01*
X102871132Y-125796592D01*
X102872965Y-125796461D01*
X102879580Y-125792210D01*
X104086604Y-124585186D01*
X104093795Y-124572017D01*
X104086473Y-124561780D01*
X104039233Y-124523115D01*
X104032261Y-124518160D01*
X103806122Y-124379582D01*
X103798552Y-124375624D01*
X103555704Y-124269022D01*
X103547644Y-124266120D01*
X103292592Y-124193467D01*
X103284214Y-124191685D01*
X103021656Y-124154318D01*
X103013111Y-124153691D01*
X102747908Y-124152302D01*
X102739374Y-124152839D01*
X102476433Y-124187456D01*
X102468035Y-124189149D01*
X102212238Y-124259127D01*
X102204143Y-124261946D01*
X101960199Y-124365997D01*
X101952577Y-124369881D01*
X101725013Y-124506075D01*
X101717981Y-124510962D01*
X101655053Y-124561377D01*
X101646584Y-124573500D01*
X99579985Y-124573500D01*
X99572725Y-124557155D01*
X99546663Y-124498482D01*
X99541939Y-124487847D01*
X99508901Y-124454866D01*
X99470945Y-124416977D01*
X99462713Y-124408759D01*
X99452076Y-124404056D01*
X99452074Y-124404055D01*
X99392538Y-124377735D01*
X99360327Y-124363494D01*
X99334646Y-124360500D01*
X96245354Y-124360500D01*
X96241650Y-124360941D01*
X96241647Y-124360941D01*
X96234254Y-124361821D01*
X96219154Y-124363618D01*
X96210514Y-124367456D01*
X96210513Y-124367456D01*
X96128117Y-124404055D01*
X96116847Y-124409061D01*
X96108628Y-124417294D01*
X96108627Y-124417295D01*
X96081773Y-124444196D01*
X96037759Y-124488287D01*
X96033056Y-124498924D01*
X96033055Y-124498926D01*
X96027734Y-124510962D01*
X95992494Y-124590673D01*
X95989500Y-124616354D01*
X95989500Y-127705646D01*
X93895436Y-127705646D01*
X92722812Y-126533022D01*
X92708868Y-126525408D01*
X92707035Y-126525539D01*
X92700420Y-126529790D01*
X91492910Y-127737300D01*
X91485618Y-127750654D01*
X89418962Y-127750654D01*
X89427506Y-127731327D01*
X89430500Y-127705646D01*
X89430500Y-126144204D01*
X90697665Y-126144204D01*
X90712932Y-126408969D01*
X90714005Y-126417470D01*
X90765065Y-126677722D01*
X90767276Y-126685974D01*
X90853184Y-126936894D01*
X90856499Y-126944779D01*
X90975664Y-127181713D01*
X90980020Y-127189079D01*
X91109347Y-127377250D01*
X91119601Y-127385594D01*
X91133342Y-127378448D01*
X92337978Y-126173812D01*
X92344356Y-126162132D01*
X93074408Y-126162132D01*
X93074539Y-126163965D01*
X93078790Y-126170580D01*
X94285730Y-127377520D01*
X94297939Y-127384187D01*
X94309439Y-127375497D01*
X94406831Y-127242913D01*
X94411418Y-127235685D01*
X94537962Y-127002621D01*
X94541530Y-126994827D01*
X94635271Y-126746750D01*
X94637748Y-126738544D01*
X94696954Y-126480038D01*
X94698294Y-126471577D01*
X94722031Y-126205616D01*
X94722277Y-126200677D01*
X94722666Y-126163485D01*
X94722523Y-126158519D01*
X94704362Y-125892123D01*
X94703201Y-125883649D01*
X94649419Y-125623944D01*
X94647120Y-125615709D01*
X94558588Y-125365705D01*
X94555191Y-125357854D01*
X94433550Y-125122178D01*
X94429122Y-125114866D01*
X94310031Y-124945417D01*
X94299509Y-124937037D01*
X94286121Y-124944089D01*
X93082022Y-126148188D01*
X93074408Y-126162132D01*
X92344356Y-126162132D01*
X92345592Y-126159868D01*
X92345461Y-126158035D01*
X92341210Y-126151420D01*
X91133814Y-124944024D01*
X91121804Y-124937466D01*
X91110064Y-124946434D01*
X91001935Y-125096911D01*
X90997418Y-125104196D01*
X90873325Y-125338567D01*
X90869839Y-125346395D01*
X90778700Y-125595446D01*
X90776311Y-125603670D01*
X90719812Y-125862795D01*
X90718563Y-125871250D01*
X90697754Y-126135653D01*
X90697665Y-126144204D01*
X89430500Y-126144204D01*
X89430500Y-124616354D01*
X89427382Y-124590154D01*
X89419985Y-124573500D01*
X91486584Y-124573500D01*
X91492980Y-124584770D01*
X92697188Y-125788978D01*
X92711132Y-125796592D01*
X92712965Y-125796461D01*
X92719580Y-125792210D01*
X93926604Y-124585186D01*
X93933795Y-124572017D01*
X93926473Y-124561780D01*
X93879233Y-124523115D01*
X93872261Y-124518160D01*
X93646122Y-124379582D01*
X93638552Y-124375624D01*
X93395704Y-124269022D01*
X93387644Y-124266120D01*
X93132592Y-124193467D01*
X93124214Y-124191685D01*
X92861656Y-124154318D01*
X92853111Y-124153691D01*
X92587908Y-124152302D01*
X92579374Y-124152839D01*
X92316433Y-124187456D01*
X92308035Y-124189149D01*
X92052238Y-124259127D01*
X92044143Y-124261946D01*
X91800199Y-124365997D01*
X91792577Y-124369881D01*
X91565013Y-124506075D01*
X91557981Y-124510962D01*
X91495053Y-124561377D01*
X91486584Y-124573500D01*
X89419985Y-124573500D01*
X89412725Y-124557155D01*
X89386663Y-124498482D01*
X89381939Y-124487847D01*
X89348901Y-124454866D01*
X89310945Y-124416977D01*
X89302713Y-124408759D01*
X89292076Y-124404056D01*
X89292074Y-124404055D01*
X89232538Y-124377735D01*
X89200327Y-124363494D01*
X89174646Y-124360500D01*
X86085354Y-124360500D01*
X86081650Y-124360941D01*
X86081647Y-124360941D01*
X86074254Y-124361821D01*
X86059154Y-124363618D01*
X86050514Y-124367456D01*
X86050513Y-124367456D01*
X85968117Y-124404055D01*
X85956847Y-124409061D01*
X85948628Y-124417294D01*
X85948627Y-124417295D01*
X85921773Y-124444196D01*
X85877759Y-124488287D01*
X85873056Y-124498924D01*
X85873055Y-124498926D01*
X85867734Y-124510962D01*
X85832494Y-124590673D01*
X85829500Y-124616354D01*
X85829500Y-127705646D01*
X83735436Y-127705646D01*
X82562812Y-126533022D01*
X82548868Y-126525408D01*
X82547035Y-126525539D01*
X82540420Y-126529790D01*
X81332910Y-127737300D01*
X81325618Y-127750654D01*
X78856558Y-127750654D01*
X78977427Y-127566649D01*
X78977432Y-127566640D01*
X78979414Y-127563623D01*
X79069661Y-127384187D01*
X79122900Y-127278334D01*
X79122903Y-127278326D01*
X79124527Y-127275098D01*
X79213765Y-127031246D01*
X79234269Y-126975216D01*
X79234270Y-126975212D01*
X79235517Y-126971805D01*
X79236362Y-126968283D01*
X79236365Y-126968275D01*
X79310064Y-126661295D01*
X79310065Y-126661291D01*
X79310911Y-126657766D01*
X79320844Y-126575685D01*
X79349374Y-126339922D01*
X79349374Y-126339916D01*
X79349710Y-126337143D01*
X79355246Y-126161000D01*
X79354278Y-126144204D01*
X80537665Y-126144204D01*
X80552932Y-126408969D01*
X80554005Y-126417470D01*
X80605065Y-126677722D01*
X80607276Y-126685974D01*
X80693184Y-126936894D01*
X80696499Y-126944779D01*
X80815664Y-127181713D01*
X80820020Y-127189079D01*
X80949347Y-127377250D01*
X80959601Y-127385594D01*
X80973342Y-127378448D01*
X82177978Y-126173812D01*
X82184356Y-126162132D01*
X82914408Y-126162132D01*
X82914539Y-126163965D01*
X82918790Y-126170580D01*
X84125730Y-127377520D01*
X84137939Y-127384187D01*
X84149439Y-127375497D01*
X84246831Y-127242913D01*
X84251418Y-127235685D01*
X84377962Y-127002621D01*
X84381530Y-126994827D01*
X84475271Y-126746750D01*
X84477748Y-126738544D01*
X84536954Y-126480038D01*
X84538294Y-126471577D01*
X84562031Y-126205616D01*
X84562277Y-126200677D01*
X84562666Y-126163485D01*
X84562523Y-126158519D01*
X84544362Y-125892123D01*
X84543201Y-125883649D01*
X84489419Y-125623944D01*
X84487120Y-125615709D01*
X84398588Y-125365705D01*
X84395191Y-125357854D01*
X84273550Y-125122178D01*
X84269122Y-125114866D01*
X84150031Y-124945417D01*
X84139509Y-124937037D01*
X84126121Y-124944089D01*
X82922022Y-126148188D01*
X82914408Y-126162132D01*
X82184356Y-126162132D01*
X82185592Y-126159868D01*
X82185461Y-126158035D01*
X82181210Y-126151420D01*
X80973814Y-124944024D01*
X80961804Y-124937466D01*
X80950064Y-124946434D01*
X80841935Y-125096911D01*
X80837418Y-125104196D01*
X80713325Y-125338567D01*
X80709839Y-125346395D01*
X80618700Y-125595446D01*
X80616311Y-125603670D01*
X80559812Y-125862795D01*
X80558563Y-125871250D01*
X80537754Y-126135653D01*
X80537665Y-126144204D01*
X79354278Y-126144204D01*
X79350375Y-126076516D01*
X79336864Y-125842193D01*
X79336863Y-125842188D01*
X79336655Y-125838573D01*
X79321406Y-125751201D01*
X79281752Y-125523993D01*
X79281750Y-125523986D01*
X79281128Y-125520420D01*
X79278214Y-125510580D01*
X79195731Y-125232123D01*
X79189402Y-125210757D01*
X79062692Y-124913689D01*
X78902677Y-124633154D01*
X78871472Y-124590673D01*
X78858857Y-124573500D01*
X81326584Y-124573500D01*
X81332980Y-124584770D01*
X82537188Y-125788978D01*
X82551132Y-125796592D01*
X82552965Y-125796461D01*
X82559580Y-125792210D01*
X83766604Y-124585186D01*
X83773795Y-124572017D01*
X83766473Y-124561780D01*
X83719233Y-124523115D01*
X83712261Y-124518160D01*
X83486122Y-124379582D01*
X83478552Y-124375624D01*
X83235704Y-124269022D01*
X83227644Y-124266120D01*
X82972592Y-124193467D01*
X82964214Y-124191685D01*
X82701656Y-124154318D01*
X82693111Y-124153691D01*
X82427908Y-124152302D01*
X82419374Y-124152839D01*
X82156433Y-124187456D01*
X82148035Y-124189149D01*
X81892238Y-124259127D01*
X81884143Y-124261946D01*
X81640199Y-124365997D01*
X81632577Y-124369881D01*
X81405013Y-124506075D01*
X81397981Y-124510962D01*
X81335053Y-124561377D01*
X81326584Y-124573500D01*
X78858857Y-124573500D01*
X78713622Y-124375786D01*
X78713620Y-124375783D01*
X78711479Y-124372869D01*
X78708703Y-124369881D01*
X78508389Y-124154318D01*
X78491632Y-124136285D01*
X78424415Y-124078876D01*
X78248805Y-123928892D01*
X78246049Y-123926538D01*
X78224440Y-123912017D01*
X78133580Y-123850962D01*
X77977986Y-123746407D01*
X77890363Y-123701181D01*
X77694216Y-123599942D01*
X77690996Y-123598280D01*
X77388883Y-123484121D01*
X77385362Y-123483237D01*
X77385357Y-123483235D01*
X77235433Y-123445577D01*
X77075651Y-123405443D01*
X77055805Y-123402830D01*
X76759055Y-123363762D01*
X76759047Y-123363761D01*
X76755451Y-123363288D01*
X76621081Y-123361177D01*
X76436170Y-123358272D01*
X76436166Y-123358272D01*
X76432528Y-123358215D01*
X76428913Y-123358576D01*
X76428908Y-123358576D01*
X76201132Y-123381311D01*
X76111163Y-123390291D01*
X75795614Y-123459092D01*
X75792187Y-123460265D01*
X75792181Y-123460267D01*
X75493495Y-123562530D01*
X75493490Y-123562532D01*
X75490064Y-123563705D01*
X75486796Y-123565264D01*
X75486788Y-123565267D01*
X75338297Y-123636094D01*
X75198562Y-123702744D01*
X75195483Y-123704675D01*
X75195482Y-123704676D01*
X75171720Y-123719582D01*
X74924974Y-123874366D01*
X74922140Y-123876636D01*
X74922135Y-123876640D01*
X74856914Y-123928892D01*
X74672924Y-124076296D01*
X74445754Y-124305858D01*
X74246474Y-124560008D01*
X74244581Y-124563097D01*
X74244579Y-124563100D01*
X74209658Y-124620086D01*
X74077727Y-124835379D01*
X73941748Y-125128320D01*
X73940608Y-125131767D01*
X73914485Y-125210757D01*
X73840340Y-125434949D01*
X73839604Y-125438504D01*
X73839603Y-125438507D01*
X73824678Y-125510580D01*
X73774848Y-125751201D01*
X73746138Y-126072885D01*
X72850500Y-126072885D01*
X72850500Y-121965646D01*
X121749500Y-121965646D01*
X121752618Y-121991846D01*
X121798061Y-122094153D01*
X121877287Y-122173241D01*
X121887924Y-122177944D01*
X121887926Y-122177945D01*
X121947462Y-122204265D01*
X121979673Y-122218506D01*
X122005354Y-122221500D01*
X125094646Y-122221500D01*
X125098350Y-122221059D01*
X125098353Y-122221059D01*
X125105746Y-122220179D01*
X125120846Y-122218382D01*
X125223153Y-122172939D01*
X125302241Y-122093713D01*
X125347506Y-121991327D01*
X125350500Y-121965646D01*
X125350500Y-118876354D01*
X125347382Y-118850154D01*
X125326454Y-118803037D01*
X125306663Y-118758482D01*
X125301939Y-118747847D01*
X125222713Y-118668759D01*
X125212076Y-118664056D01*
X125212074Y-118664055D01*
X125152538Y-118637735D01*
X125120327Y-118623494D01*
X125094646Y-118620500D01*
X122005354Y-118620500D01*
X122001650Y-118620941D01*
X122001647Y-118620941D01*
X121994254Y-118621821D01*
X121979154Y-118623618D01*
X121876847Y-118669061D01*
X121797759Y-118748287D01*
X121752494Y-118850673D01*
X121749500Y-118876354D01*
X121749500Y-121965646D01*
X72850500Y-121965646D01*
X72850500Y-117826996D01*
X81045814Y-117826996D01*
X81055523Y-118036767D01*
X81056927Y-118042592D01*
X81056927Y-118042593D01*
X81081084Y-118142826D01*
X81104724Y-118240918D01*
X81107206Y-118246376D01*
X81107207Y-118246380D01*
X81150320Y-118341201D01*
X81191640Y-118432081D01*
X81313137Y-118603360D01*
X81333132Y-118622501D01*
X81457422Y-118741482D01*
X81464831Y-118748575D01*
X81469866Y-118751826D01*
X81636209Y-118859233D01*
X81636212Y-118859234D01*
X81641246Y-118862485D01*
X81646809Y-118864727D01*
X81830455Y-118938739D01*
X81830458Y-118938740D01*
X81836019Y-118940981D01*
X81841900Y-118942129D01*
X81841905Y-118942131D01*
X82037676Y-118980362D01*
X82037679Y-118980362D01*
X82042122Y-118981230D01*
X82047643Y-118981500D01*
X83002469Y-118981500D01*
X83159046Y-118966561D01*
X83164802Y-118964872D01*
X83164804Y-118964872D01*
X83254705Y-118938498D01*
X83360549Y-118907447D01*
X83487606Y-118842008D01*
X83541908Y-118814041D01*
X83541911Y-118814039D01*
X83547239Y-118811295D01*
X83622947Y-118751826D01*
X83707662Y-118685282D01*
X83707667Y-118685278D01*
X83712379Y-118681576D01*
X83723501Y-118668759D01*
X83761544Y-118624919D01*
X83821298Y-118586578D01*
X83856709Y-118581500D01*
X84493654Y-118581500D01*
X84561775Y-118601502D01*
X84582749Y-118618405D01*
X86098417Y-120134074D01*
X86104270Y-120140339D01*
X86141831Y-120183396D01*
X86193473Y-120219690D01*
X86198758Y-120223616D01*
X86242476Y-120257895D01*
X86242480Y-120257897D01*
X86248457Y-120262584D01*
X86255380Y-120265710D01*
X86258328Y-120267495D01*
X86271288Y-120274887D01*
X86274334Y-120276520D01*
X86280547Y-120280887D01*
X86296303Y-120287030D01*
X86339366Y-120303820D01*
X86345445Y-120306375D01*
X86402984Y-120332355D01*
X86410455Y-120333740D01*
X86413723Y-120334764D01*
X86428164Y-120338877D01*
X86431437Y-120339717D01*
X86438513Y-120342476D01*
X86483183Y-120348356D01*
X86501106Y-120350716D01*
X86507623Y-120351748D01*
X86513418Y-120352822D01*
X86569692Y-120363252D01*
X86577272Y-120362815D01*
X86577273Y-120362815D01*
X86631144Y-120359709D01*
X86638396Y-120359500D01*
X112239359Y-120359500D01*
X112247929Y-120359792D01*
X112297354Y-120363162D01*
X112297358Y-120363162D01*
X112304930Y-120363678D01*
X112312406Y-120362373D01*
X112312409Y-120362373D01*
X112367132Y-120352822D01*
X112373658Y-120351859D01*
X112414096Y-120346965D01*
X112436320Y-120344276D01*
X112443427Y-120341591D01*
X112446720Y-120340782D01*
X112461191Y-120336823D01*
X112464467Y-120335834D01*
X112471954Y-120334527D01*
X112484026Y-120329228D01*
X112529760Y-120309153D01*
X112535866Y-120306661D01*
X112587818Y-120287030D01*
X112587820Y-120287029D01*
X112594923Y-120284345D01*
X112601178Y-120280046D01*
X112604203Y-120278465D01*
X112617299Y-120271175D01*
X112620243Y-120269434D01*
X112627202Y-120266379D01*
X112638259Y-120257895D01*
X112677273Y-120227958D01*
X112682609Y-120224081D01*
X112728386Y-120192619D01*
X112728392Y-120192614D01*
X112734651Y-120188312D01*
X112775609Y-120142342D01*
X112780589Y-120137067D01*
X115987003Y-116930654D01*
X122325618Y-116930654D01*
X122332673Y-116940627D01*
X122363679Y-116966551D01*
X122370598Y-116971579D01*
X122595272Y-117112515D01*
X122602807Y-117116556D01*
X122844520Y-117225694D01*
X122852551Y-117228680D01*
X123106832Y-117304002D01*
X123115184Y-117305869D01*
X123377340Y-117345984D01*
X123385874Y-117346700D01*
X123651045Y-117350867D01*
X123659596Y-117350418D01*
X123922883Y-117318557D01*
X123931284Y-117316955D01*
X124187824Y-117249653D01*
X124195926Y-117246926D01*
X124440949Y-117145434D01*
X124448617Y-117141628D01*
X124677598Y-117007822D01*
X124684679Y-117003009D01*
X124764655Y-116940301D01*
X124773125Y-116928442D01*
X124766608Y-116916818D01*
X123562812Y-115713022D01*
X123548868Y-115705408D01*
X123547035Y-115705539D01*
X123540420Y-115709790D01*
X122332910Y-116917300D01*
X122325618Y-116930654D01*
X115987003Y-116930654D01*
X116553075Y-116364582D01*
X116559341Y-116358728D01*
X116596669Y-116326165D01*
X116602396Y-116321169D01*
X116638690Y-116269527D01*
X116642616Y-116264242D01*
X116676895Y-116220524D01*
X116676897Y-116220520D01*
X116681584Y-116214543D01*
X116684710Y-116207620D01*
X116686495Y-116204672D01*
X116693887Y-116191712D01*
X116695520Y-116188666D01*
X116699887Y-116182453D01*
X116722820Y-116123633D01*
X116725376Y-116117554D01*
X116748228Y-116066941D01*
X116751355Y-116060016D01*
X116752740Y-116052545D01*
X116753764Y-116049277D01*
X116757877Y-116034836D01*
X116758717Y-116031563D01*
X116761476Y-116024487D01*
X116769716Y-115961894D01*
X116770748Y-115955377D01*
X116780868Y-115900775D01*
X116782252Y-115893308D01*
X116778709Y-115831856D01*
X116778500Y-115824604D01*
X116778500Y-115324204D01*
X121537665Y-115324204D01*
X121552932Y-115588969D01*
X121554005Y-115597470D01*
X121605065Y-115857722D01*
X121607276Y-115865974D01*
X121693184Y-116116894D01*
X121696499Y-116124779D01*
X121815664Y-116361713D01*
X121820020Y-116369079D01*
X121949347Y-116557250D01*
X121959601Y-116565594D01*
X121973342Y-116558448D01*
X123177978Y-115353812D01*
X123184356Y-115342132D01*
X123914408Y-115342132D01*
X123914539Y-115343965D01*
X123918790Y-115350580D01*
X125125730Y-116557520D01*
X125137939Y-116564187D01*
X125149439Y-116555497D01*
X125246831Y-116422913D01*
X125251418Y-116415685D01*
X125377962Y-116182621D01*
X125381530Y-116174827D01*
X125475271Y-115926750D01*
X125477748Y-115918544D01*
X125536954Y-115660038D01*
X125538294Y-115651577D01*
X125562031Y-115385616D01*
X125562277Y-115380677D01*
X125562666Y-115343485D01*
X125562523Y-115338519D01*
X125544362Y-115072123D01*
X125543201Y-115063649D01*
X125489419Y-114803944D01*
X125487120Y-114795709D01*
X125398588Y-114545705D01*
X125395191Y-114537854D01*
X125273550Y-114302178D01*
X125269122Y-114294866D01*
X125150031Y-114125417D01*
X125139509Y-114117037D01*
X125126121Y-114124089D01*
X123922022Y-115328188D01*
X123914408Y-115342132D01*
X123184356Y-115342132D01*
X123185592Y-115339868D01*
X123185461Y-115338035D01*
X123181210Y-115331420D01*
X121973814Y-114124024D01*
X121961804Y-114117466D01*
X121950064Y-114126434D01*
X121841935Y-114276911D01*
X121837418Y-114284196D01*
X121713325Y-114518567D01*
X121709839Y-114526395D01*
X121618700Y-114775446D01*
X121616311Y-114783670D01*
X121559812Y-115042795D01*
X121558563Y-115051250D01*
X121537754Y-115315653D01*
X121537665Y-115324204D01*
X116778500Y-115324204D01*
X116778500Y-113753500D01*
X122326584Y-113753500D01*
X122332980Y-113764770D01*
X123537188Y-114968978D01*
X123551132Y-114976592D01*
X123552965Y-114976461D01*
X123559580Y-114972210D01*
X124766604Y-113765186D01*
X124773795Y-113752017D01*
X124766473Y-113741780D01*
X124719233Y-113703115D01*
X124712261Y-113698160D01*
X124486122Y-113559582D01*
X124478552Y-113555624D01*
X124235704Y-113449022D01*
X124227644Y-113446120D01*
X123972592Y-113373467D01*
X123964214Y-113371685D01*
X123701656Y-113334318D01*
X123693111Y-113333691D01*
X123427908Y-113332302D01*
X123419374Y-113332839D01*
X123156433Y-113367456D01*
X123148035Y-113369149D01*
X122892238Y-113439127D01*
X122884143Y-113441946D01*
X122640199Y-113545997D01*
X122632577Y-113549881D01*
X122405013Y-113686075D01*
X122397981Y-113690962D01*
X122335053Y-113741377D01*
X122326584Y-113753500D01*
X116778500Y-113753500D01*
X116778500Y-111805646D01*
X121749500Y-111805646D01*
X121752618Y-111831846D01*
X121798061Y-111934153D01*
X121877287Y-112013241D01*
X121887924Y-112017944D01*
X121887926Y-112017945D01*
X121947462Y-112044265D01*
X121979673Y-112058506D01*
X122005354Y-112061500D01*
X125094646Y-112061500D01*
X125098350Y-112061059D01*
X125098353Y-112061059D01*
X125105746Y-112060179D01*
X125120846Y-112058382D01*
X125223153Y-112012939D01*
X125302241Y-111933713D01*
X125347506Y-111831327D01*
X125350500Y-111805646D01*
X125350500Y-108716354D01*
X125347382Y-108690154D01*
X125301939Y-108587847D01*
X125222713Y-108508759D01*
X125212076Y-108504056D01*
X125212074Y-108504055D01*
X125152538Y-108477735D01*
X125120327Y-108463494D01*
X125094646Y-108460500D01*
X122005354Y-108460500D01*
X122001650Y-108460941D01*
X122001647Y-108460941D01*
X121994254Y-108461821D01*
X121979154Y-108463618D01*
X121876847Y-108509061D01*
X121797759Y-108588287D01*
X121752494Y-108690673D01*
X121749500Y-108716354D01*
X121749500Y-111805646D01*
X116778500Y-111805646D01*
X116778500Y-106770654D01*
X122325618Y-106770654D01*
X122332673Y-106780627D01*
X122363679Y-106806551D01*
X122370598Y-106811579D01*
X122595272Y-106952515D01*
X122602807Y-106956556D01*
X122844520Y-107065694D01*
X122852551Y-107068680D01*
X123106832Y-107144002D01*
X123115184Y-107145869D01*
X123377340Y-107185984D01*
X123385874Y-107186700D01*
X123651045Y-107190867D01*
X123659596Y-107190418D01*
X123922883Y-107158557D01*
X123931284Y-107156955D01*
X124187824Y-107089653D01*
X124195926Y-107086926D01*
X124440949Y-106985434D01*
X124448617Y-106981628D01*
X124677598Y-106847822D01*
X124684679Y-106843009D01*
X124764655Y-106780301D01*
X124773125Y-106768442D01*
X124766608Y-106756818D01*
X123562812Y-105553022D01*
X123548868Y-105545408D01*
X123547035Y-105545539D01*
X123540420Y-105549790D01*
X122332910Y-106757300D01*
X122325618Y-106770654D01*
X116778500Y-106770654D01*
X116778500Y-105164204D01*
X121537665Y-105164204D01*
X121552932Y-105428969D01*
X121554005Y-105437470D01*
X121605065Y-105697722D01*
X121607276Y-105705974D01*
X121693184Y-105956894D01*
X121696499Y-105964779D01*
X121815664Y-106201713D01*
X121820020Y-106209079D01*
X121949347Y-106397250D01*
X121959601Y-106405594D01*
X121973342Y-106398448D01*
X123177978Y-105193812D01*
X123184356Y-105182132D01*
X123914408Y-105182132D01*
X123914539Y-105183965D01*
X123918790Y-105190580D01*
X125125730Y-106397520D01*
X125137939Y-106404187D01*
X125149439Y-106395497D01*
X125246831Y-106262913D01*
X125251418Y-106255685D01*
X125377962Y-106022621D01*
X125381530Y-106014827D01*
X125475271Y-105766750D01*
X125477748Y-105758544D01*
X125536954Y-105500038D01*
X125538294Y-105491577D01*
X125562031Y-105225616D01*
X125562277Y-105220677D01*
X125562666Y-105183485D01*
X125562523Y-105178519D01*
X125544362Y-104912123D01*
X125543201Y-104903649D01*
X125489419Y-104643944D01*
X125487120Y-104635709D01*
X125398588Y-104385705D01*
X125395191Y-104377854D01*
X125273550Y-104142178D01*
X125269122Y-104134866D01*
X125150031Y-103965417D01*
X125139509Y-103957037D01*
X125126121Y-103964089D01*
X123922022Y-105168188D01*
X123914408Y-105182132D01*
X123184356Y-105182132D01*
X123185592Y-105179868D01*
X123185461Y-105178035D01*
X123181210Y-105171420D01*
X121973814Y-103964024D01*
X121961804Y-103957466D01*
X121950064Y-103966434D01*
X121841935Y-104116911D01*
X121837418Y-104124196D01*
X121713325Y-104358567D01*
X121709839Y-104366395D01*
X121618700Y-104615446D01*
X121616311Y-104623670D01*
X121559812Y-104882795D01*
X121558563Y-104891250D01*
X121537754Y-105155653D01*
X121537665Y-105164204D01*
X116778500Y-105164204D01*
X116778500Y-103593500D01*
X122326584Y-103593500D01*
X122332980Y-103604770D01*
X123537188Y-104808978D01*
X123551132Y-104816592D01*
X123552965Y-104816461D01*
X123559580Y-104812210D01*
X124766604Y-103605186D01*
X124773795Y-103592017D01*
X124766473Y-103581780D01*
X124719233Y-103543115D01*
X124712261Y-103538160D01*
X124486122Y-103399582D01*
X124478552Y-103395624D01*
X124235704Y-103289022D01*
X124227644Y-103286120D01*
X123972592Y-103213467D01*
X123964214Y-103211685D01*
X123701656Y-103174318D01*
X123693111Y-103173691D01*
X123427908Y-103172302D01*
X123419374Y-103172839D01*
X123156433Y-103207456D01*
X123148035Y-103209149D01*
X122892238Y-103279127D01*
X122884143Y-103281946D01*
X122640199Y-103385997D01*
X122632577Y-103389881D01*
X122405013Y-103526075D01*
X122397981Y-103530962D01*
X122335053Y-103581377D01*
X122326584Y-103593500D01*
X116778500Y-103593500D01*
X116778500Y-101645646D01*
X121749500Y-101645646D01*
X121752618Y-101671846D01*
X121798061Y-101774153D01*
X121877287Y-101853241D01*
X121887924Y-101857944D01*
X121887926Y-101857945D01*
X121947462Y-101884265D01*
X121979673Y-101898506D01*
X122005354Y-101901500D01*
X125094646Y-101901500D01*
X125098350Y-101901059D01*
X125098353Y-101901059D01*
X125105746Y-101900179D01*
X125120846Y-101898382D01*
X125223153Y-101852939D01*
X125302241Y-101773713D01*
X125314337Y-101746354D01*
X125343675Y-101679992D01*
X125347506Y-101671327D01*
X125350500Y-101645646D01*
X125350500Y-98556354D01*
X125347382Y-98530154D01*
X125301939Y-98427847D01*
X125222713Y-98348759D01*
X125212076Y-98344056D01*
X125212074Y-98344055D01*
X125152538Y-98317735D01*
X125120327Y-98303494D01*
X125094646Y-98300500D01*
X122005354Y-98300500D01*
X122001650Y-98300941D01*
X122001647Y-98300941D01*
X121994254Y-98301821D01*
X121979154Y-98303618D01*
X121876847Y-98349061D01*
X121797759Y-98428287D01*
X121752494Y-98530673D01*
X121749500Y-98556354D01*
X121749500Y-101645646D01*
X116778500Y-101645646D01*
X116778500Y-96610654D01*
X122325618Y-96610654D01*
X122332673Y-96620627D01*
X122363679Y-96646551D01*
X122370598Y-96651579D01*
X122595272Y-96792515D01*
X122602807Y-96796556D01*
X122844520Y-96905694D01*
X122852551Y-96908680D01*
X123106832Y-96984002D01*
X123115184Y-96985869D01*
X123377340Y-97025984D01*
X123385874Y-97026700D01*
X123651045Y-97030867D01*
X123659596Y-97030418D01*
X123922883Y-96998557D01*
X123931284Y-96996955D01*
X124187824Y-96929653D01*
X124195926Y-96926926D01*
X124440949Y-96825434D01*
X124448617Y-96821628D01*
X124677598Y-96687822D01*
X124684679Y-96683009D01*
X124764655Y-96620301D01*
X124773125Y-96608442D01*
X124766608Y-96596818D01*
X123562812Y-95393022D01*
X123548868Y-95385408D01*
X123547035Y-95385539D01*
X123540420Y-95389790D01*
X122332910Y-96597300D01*
X122325618Y-96610654D01*
X116778500Y-96610654D01*
X116778500Y-95004204D01*
X121537665Y-95004204D01*
X121552932Y-95268969D01*
X121554005Y-95277470D01*
X121605065Y-95537722D01*
X121607276Y-95545974D01*
X121693184Y-95796894D01*
X121696499Y-95804779D01*
X121815664Y-96041713D01*
X121820020Y-96049079D01*
X121949347Y-96237250D01*
X121959601Y-96245594D01*
X121973342Y-96238448D01*
X123177978Y-95033812D01*
X123184356Y-95022132D01*
X123914408Y-95022132D01*
X123914539Y-95023965D01*
X123918790Y-95030580D01*
X125125730Y-96237520D01*
X125137939Y-96244187D01*
X125149439Y-96235497D01*
X125246831Y-96102913D01*
X125251418Y-96095685D01*
X125377962Y-95862621D01*
X125381530Y-95854827D01*
X125475271Y-95606750D01*
X125477748Y-95598544D01*
X125536954Y-95340038D01*
X125538294Y-95331577D01*
X125562031Y-95065616D01*
X125562277Y-95060677D01*
X125562666Y-95023485D01*
X125562523Y-95018519D01*
X125544362Y-94752123D01*
X125543201Y-94743649D01*
X125489419Y-94483944D01*
X125487120Y-94475709D01*
X125398588Y-94225705D01*
X125395191Y-94217854D01*
X125273550Y-93982178D01*
X125269122Y-93974866D01*
X125150031Y-93805417D01*
X125139509Y-93797037D01*
X125126121Y-93804089D01*
X123922022Y-95008188D01*
X123914408Y-95022132D01*
X123184356Y-95022132D01*
X123185592Y-95019868D01*
X123185461Y-95018035D01*
X123181210Y-95011420D01*
X121973814Y-93804024D01*
X121961804Y-93797466D01*
X121950064Y-93806434D01*
X121841935Y-93956911D01*
X121837418Y-93964196D01*
X121713325Y-94198567D01*
X121709839Y-94206395D01*
X121618700Y-94455446D01*
X121616311Y-94463670D01*
X121559812Y-94722795D01*
X121558563Y-94731250D01*
X121537754Y-94995653D01*
X121537665Y-95004204D01*
X116778500Y-95004204D01*
X116778500Y-93433500D01*
X122326584Y-93433500D01*
X122332980Y-93444770D01*
X123537188Y-94648978D01*
X123551132Y-94656592D01*
X123552965Y-94656461D01*
X123559580Y-94652210D01*
X124766604Y-93445186D01*
X124773795Y-93432017D01*
X124766473Y-93421780D01*
X124719233Y-93383115D01*
X124712261Y-93378160D01*
X124486122Y-93239582D01*
X124478552Y-93235624D01*
X124235704Y-93129022D01*
X124227644Y-93126120D01*
X123972592Y-93053467D01*
X123964214Y-93051685D01*
X123701656Y-93014318D01*
X123693111Y-93013691D01*
X123427908Y-93012302D01*
X123419374Y-93012839D01*
X123156433Y-93047456D01*
X123148035Y-93049149D01*
X122892238Y-93119127D01*
X122884143Y-93121946D01*
X122640199Y-93225997D01*
X122632577Y-93229881D01*
X122405013Y-93366075D01*
X122397981Y-93370962D01*
X122335053Y-93421377D01*
X122326584Y-93433500D01*
X116778500Y-93433500D01*
X116778500Y-91485646D01*
X121749500Y-91485646D01*
X121752618Y-91511846D01*
X121798061Y-91614153D01*
X121877287Y-91693241D01*
X121887924Y-91697944D01*
X121887926Y-91697945D01*
X121947462Y-91724265D01*
X121979673Y-91738506D01*
X122005354Y-91741500D01*
X125094646Y-91741500D01*
X125098350Y-91741059D01*
X125098353Y-91741059D01*
X125105746Y-91740179D01*
X125120846Y-91738382D01*
X125223153Y-91692939D01*
X125302241Y-91613713D01*
X125314337Y-91586354D01*
X125343675Y-91519992D01*
X125347506Y-91511327D01*
X125350500Y-91485646D01*
X125350500Y-88396354D01*
X125347382Y-88370154D01*
X125301939Y-88267847D01*
X125222713Y-88188759D01*
X125212076Y-88184056D01*
X125212074Y-88184055D01*
X125152538Y-88157735D01*
X125120327Y-88143494D01*
X125094646Y-88140500D01*
X122005354Y-88140500D01*
X122001650Y-88140941D01*
X122001647Y-88140941D01*
X121994254Y-88141821D01*
X121979154Y-88143618D01*
X121876847Y-88189061D01*
X121797759Y-88268287D01*
X121752494Y-88370673D01*
X121749500Y-88396354D01*
X121749500Y-91485646D01*
X116778500Y-91485646D01*
X116778500Y-86450654D01*
X122325618Y-86450654D01*
X122332673Y-86460627D01*
X122363679Y-86486551D01*
X122370598Y-86491579D01*
X122595272Y-86632515D01*
X122602807Y-86636556D01*
X122844520Y-86745694D01*
X122852551Y-86748680D01*
X123106832Y-86824002D01*
X123115184Y-86825869D01*
X123377340Y-86865984D01*
X123385874Y-86866700D01*
X123651045Y-86870867D01*
X123659596Y-86870418D01*
X123922883Y-86838557D01*
X123931284Y-86836955D01*
X124187824Y-86769653D01*
X124195926Y-86766926D01*
X124440949Y-86665434D01*
X124448617Y-86661628D01*
X124677598Y-86527822D01*
X124684679Y-86523009D01*
X124764655Y-86460301D01*
X124773125Y-86448442D01*
X124766608Y-86436818D01*
X123562812Y-85233022D01*
X123548868Y-85225408D01*
X123547035Y-85225539D01*
X123540420Y-85229790D01*
X122332910Y-86437300D01*
X122325618Y-86450654D01*
X116778500Y-86450654D01*
X116778500Y-84844204D01*
X121537665Y-84844204D01*
X121552932Y-85108969D01*
X121554005Y-85117470D01*
X121605065Y-85377722D01*
X121607276Y-85385974D01*
X121693184Y-85636894D01*
X121696499Y-85644779D01*
X121815664Y-85881713D01*
X121820020Y-85889079D01*
X121949347Y-86077250D01*
X121959601Y-86085594D01*
X121973342Y-86078448D01*
X123177978Y-84873812D01*
X123184356Y-84862132D01*
X123914408Y-84862132D01*
X123914539Y-84863965D01*
X123918790Y-84870580D01*
X125125730Y-86077520D01*
X125137939Y-86084187D01*
X125149439Y-86075497D01*
X125246831Y-85942913D01*
X125251418Y-85935685D01*
X125377962Y-85702621D01*
X125381530Y-85694827D01*
X125475271Y-85446750D01*
X125477748Y-85438544D01*
X125536954Y-85180038D01*
X125538294Y-85171577D01*
X125562031Y-84905616D01*
X125562277Y-84900677D01*
X125562666Y-84863485D01*
X125562523Y-84858519D01*
X125544362Y-84592123D01*
X125543201Y-84583649D01*
X125489419Y-84323944D01*
X125487120Y-84315709D01*
X125398588Y-84065705D01*
X125395191Y-84057854D01*
X125273550Y-83822178D01*
X125269122Y-83814866D01*
X125150031Y-83645417D01*
X125139509Y-83637037D01*
X125126121Y-83644089D01*
X123922022Y-84848188D01*
X123914408Y-84862132D01*
X123184356Y-84862132D01*
X123185592Y-84859868D01*
X123185461Y-84858035D01*
X123181210Y-84851420D01*
X121973814Y-83644024D01*
X121961804Y-83637466D01*
X121950064Y-83646434D01*
X121841935Y-83796911D01*
X121837418Y-83804196D01*
X121713325Y-84038567D01*
X121709839Y-84046395D01*
X121618700Y-84295446D01*
X121616311Y-84303670D01*
X121559812Y-84562795D01*
X121558563Y-84571250D01*
X121537754Y-84835653D01*
X121537665Y-84844204D01*
X116778500Y-84844204D01*
X116778500Y-83273500D01*
X122326584Y-83273500D01*
X122332980Y-83284770D01*
X123537188Y-84488978D01*
X123551132Y-84496592D01*
X123552965Y-84496461D01*
X123559580Y-84492210D01*
X124766604Y-83285186D01*
X124773795Y-83272017D01*
X124766473Y-83261780D01*
X124719233Y-83223115D01*
X124712261Y-83218160D01*
X124486122Y-83079582D01*
X124478552Y-83075624D01*
X124235704Y-82969022D01*
X124227644Y-82966120D01*
X123972592Y-82893467D01*
X123964214Y-82891685D01*
X123701656Y-82854318D01*
X123693111Y-82853691D01*
X123427908Y-82852302D01*
X123419374Y-82852839D01*
X123156433Y-82887456D01*
X123148035Y-82889149D01*
X122892238Y-82959127D01*
X122884143Y-82961946D01*
X122640199Y-83065997D01*
X122632577Y-83069881D01*
X122405013Y-83206075D01*
X122397981Y-83210962D01*
X122335053Y-83261377D01*
X122326584Y-83273500D01*
X116778500Y-83273500D01*
X116778500Y-83055346D01*
X116798502Y-82987225D01*
X116815405Y-82966251D01*
X120047921Y-79733736D01*
X121745070Y-79733736D01*
X121757909Y-80001041D01*
X121810118Y-80263512D01*
X121900549Y-80515383D01*
X121902765Y-80519507D01*
X122003826Y-80707591D01*
X122027215Y-80751121D01*
X122030010Y-80754864D01*
X122030012Y-80754867D01*
X122124574Y-80881500D01*
X122187335Y-80965547D01*
X122190642Y-80968825D01*
X122190647Y-80968831D01*
X122374074Y-81150663D01*
X122377390Y-81153950D01*
X122381156Y-81156712D01*
X122381158Y-81156713D01*
X122492977Y-81238702D01*
X122593205Y-81312192D01*
X122597340Y-81314368D01*
X122597344Y-81314370D01*
X122726918Y-81382542D01*
X122830039Y-81436797D01*
X122834458Y-81438340D01*
X123078273Y-81523484D01*
X123078279Y-81523486D01*
X123082690Y-81525026D01*
X123345606Y-81574943D01*
X123472616Y-81579933D01*
X123608345Y-81585266D01*
X123608350Y-81585266D01*
X123613013Y-81585449D01*
X123708943Y-81574943D01*
X123874382Y-81556825D01*
X123874387Y-81556824D01*
X123879035Y-81556315D01*
X123994567Y-81525898D01*
X124133309Y-81489370D01*
X124137829Y-81488180D01*
X124356089Y-81394409D01*
X124379407Y-81384391D01*
X124379410Y-81384389D01*
X124383710Y-81382542D01*
X124387690Y-81380079D01*
X124387694Y-81380077D01*
X124607302Y-81244179D01*
X124607306Y-81244176D01*
X124611275Y-81241720D01*
X124687187Y-81177456D01*
X124811960Y-81071828D01*
X124811961Y-81071827D01*
X124815526Y-81068809D01*
X124909365Y-80961807D01*
X124988894Y-80871122D01*
X124988898Y-80871117D01*
X124991976Y-80867607D01*
X125008363Y-80842131D01*
X125134219Y-80646465D01*
X125134222Y-80646460D01*
X125136747Y-80642534D01*
X125246661Y-80398534D01*
X125247931Y-80394031D01*
X125318032Y-80145473D01*
X125318033Y-80145470D01*
X125319302Y-80140969D01*
X125337103Y-80001041D01*
X125352677Y-79878625D01*
X125352677Y-79878621D01*
X125353075Y-79875495D01*
X125355549Y-79781000D01*
X125351536Y-79726996D01*
X125336064Y-79518788D01*
X125336063Y-79518784D01*
X125335717Y-79514123D01*
X125325161Y-79467470D01*
X125277686Y-79257666D01*
X125276655Y-79253109D01*
X125267637Y-79229919D01*
X125181355Y-79008044D01*
X125181354Y-79008042D01*
X125179662Y-79003691D01*
X125168954Y-78984955D01*
X125064824Y-78802767D01*
X125046868Y-78771350D01*
X124881190Y-78561189D01*
X124686269Y-78377825D01*
X124466385Y-78225286D01*
X124462194Y-78223219D01*
X124230559Y-78108989D01*
X124230556Y-78108988D01*
X124226371Y-78106924D01*
X123971497Y-78025338D01*
X123826134Y-78001665D01*
X123711976Y-77983073D01*
X123711975Y-77983073D01*
X123707364Y-77982322D01*
X123573569Y-77980570D01*
X123444451Y-77978880D01*
X123444448Y-77978880D01*
X123439774Y-77978819D01*
X123174605Y-78014907D01*
X123170118Y-78016215D01*
X123170117Y-78016215D01*
X123138817Y-78025338D01*
X122917683Y-78089792D01*
X122913430Y-78091752D01*
X122913429Y-78091753D01*
X122869888Y-78111826D01*
X122674652Y-78201831D01*
X122670743Y-78204394D01*
X122454764Y-78345996D01*
X122454759Y-78346000D01*
X122450851Y-78348562D01*
X122251197Y-78526760D01*
X122248204Y-78530359D01*
X122109504Y-78697128D01*
X122080075Y-78732512D01*
X122077652Y-78736505D01*
X122008354Y-78850705D01*
X121941244Y-78961298D01*
X121939437Y-78965606D01*
X121939437Y-78965607D01*
X121864538Y-79144222D01*
X121837755Y-79208091D01*
X121836604Y-79212623D01*
X121836603Y-79212626D01*
X121773033Y-79462933D01*
X121771881Y-79467470D01*
X121745070Y-79733736D01*
X120047921Y-79733736D01*
X123243252Y-76538405D01*
X123305564Y-76504379D01*
X123332347Y-76501500D01*
X125094646Y-76501500D01*
X125098350Y-76501059D01*
X125098353Y-76501059D01*
X125105746Y-76500179D01*
X125120846Y-76498382D01*
X125223153Y-76452939D01*
X125302241Y-76373713D01*
X125316666Y-76341086D01*
X125343675Y-76279992D01*
X125347506Y-76271327D01*
X125350500Y-76245646D01*
X125350500Y-73156354D01*
X125347382Y-73130154D01*
X125317927Y-73063840D01*
X125306663Y-73038482D01*
X125301939Y-73027847D01*
X125222713Y-72948759D01*
X125212076Y-72944056D01*
X125212074Y-72944055D01*
X125136253Y-72910535D01*
X125120327Y-72903494D01*
X125094646Y-72900500D01*
X122005354Y-72900500D01*
X122001650Y-72900941D01*
X122001647Y-72900941D01*
X121994254Y-72901821D01*
X121979154Y-72903618D01*
X121970514Y-72907456D01*
X121970513Y-72907456D01*
X121956481Y-72913689D01*
X121876847Y-72949061D01*
X121868628Y-72957294D01*
X121868627Y-72957295D01*
X121838463Y-72987512D01*
X121797759Y-73028287D01*
X121793056Y-73038924D01*
X121793055Y-73038926D01*
X121782041Y-73063840D01*
X121752494Y-73130673D01*
X121749500Y-73156354D01*
X121749500Y-75998654D01*
X121729498Y-76066775D01*
X121712595Y-76087749D01*
X118656121Y-79144222D01*
X115602925Y-82197418D01*
X115596660Y-82203271D01*
X115553604Y-82240831D01*
X115517317Y-82292463D01*
X115513384Y-82297758D01*
X115479105Y-82341476D01*
X115479103Y-82341480D01*
X115474416Y-82347457D01*
X115471290Y-82354380D01*
X115469505Y-82357328D01*
X115462113Y-82370288D01*
X115460480Y-82373334D01*
X115456113Y-82379547D01*
X115453354Y-82386624D01*
X115433180Y-82438366D01*
X115430625Y-82444445D01*
X115404645Y-82501984D01*
X115403260Y-82509455D01*
X115402236Y-82512723D01*
X115398123Y-82527164D01*
X115397283Y-82530437D01*
X115394524Y-82537513D01*
X115393533Y-82545043D01*
X115386284Y-82600106D01*
X115385252Y-82606623D01*
X115373748Y-82668692D01*
X115374185Y-82676272D01*
X115374185Y-82676273D01*
X115377291Y-82730144D01*
X115377500Y-82737396D01*
X115377500Y-115506654D01*
X115357498Y-115574775D01*
X115340595Y-115595749D01*
X112014748Y-118921595D01*
X111952436Y-118955621D01*
X111925653Y-118958500D01*
X109124219Y-118958500D01*
X109056098Y-118938498D01*
X109009605Y-118884842D01*
X108999501Y-118814568D01*
X109028995Y-118749988D01*
X109046386Y-118733414D01*
X109107662Y-118685282D01*
X109107667Y-118685278D01*
X109112379Y-118681576D01*
X109123501Y-118668759D01*
X109246079Y-118527502D01*
X109246083Y-118527497D01*
X109250010Y-118522971D01*
X109355166Y-118341201D01*
X109424053Y-118142826D01*
X109439431Y-118036767D01*
X109453325Y-117940944D01*
X109453325Y-117940941D01*
X109454186Y-117935004D01*
X109444477Y-117725233D01*
X109395276Y-117521082D01*
X109352258Y-117426467D01*
X109310840Y-117335374D01*
X109308360Y-117329919D01*
X109186863Y-117158640D01*
X109035169Y-117013425D01*
X108938033Y-116950705D01*
X108863791Y-116902767D01*
X108863788Y-116902766D01*
X108858754Y-116899515D01*
X108853191Y-116897273D01*
X108669545Y-116823261D01*
X108669542Y-116823260D01*
X108663981Y-116821019D01*
X108658100Y-116819871D01*
X108658095Y-116819869D01*
X108462324Y-116781638D01*
X108462321Y-116781638D01*
X108457878Y-116780770D01*
X108452357Y-116780500D01*
X107497531Y-116780500D01*
X107340954Y-116795439D01*
X107335198Y-116797128D01*
X107335196Y-116797128D01*
X107257679Y-116819869D01*
X107139451Y-116854553D01*
X107056505Y-116897273D01*
X106958092Y-116947959D01*
X106958089Y-116947961D01*
X106952761Y-116950705D01*
X106948046Y-116954409D01*
X106792338Y-117076718D01*
X106792333Y-117076722D01*
X106787621Y-117080424D01*
X106783690Y-117084954D01*
X106783689Y-117084955D01*
X106653921Y-117234498D01*
X106653917Y-117234503D01*
X106649990Y-117239029D01*
X106544834Y-117420799D01*
X106475947Y-117619174D01*
X106475086Y-117625109D01*
X106475086Y-117625111D01*
X106459701Y-117731223D01*
X106445814Y-117826996D01*
X106455523Y-118036767D01*
X106456927Y-118042592D01*
X106456927Y-118042593D01*
X106481084Y-118142826D01*
X106504724Y-118240918D01*
X106507206Y-118246376D01*
X106507207Y-118246380D01*
X106550320Y-118341201D01*
X106591640Y-118432081D01*
X106713137Y-118603360D01*
X106717464Y-118607502D01*
X106717469Y-118607508D01*
X106857421Y-118741482D01*
X106892798Y-118803037D01*
X106889279Y-118873946D01*
X106847983Y-118931697D01*
X106782020Y-118957953D01*
X106770291Y-118958500D01*
X86956346Y-118958500D01*
X86888225Y-118938498D01*
X86867251Y-118921595D01*
X85351583Y-117405926D01*
X85345729Y-117399660D01*
X85313165Y-117362331D01*
X85308169Y-117356604D01*
X85256527Y-117320310D01*
X85251242Y-117316384D01*
X85207524Y-117282105D01*
X85207520Y-117282103D01*
X85201543Y-117277416D01*
X85194620Y-117274290D01*
X85191672Y-117272505D01*
X85178712Y-117265113D01*
X85175666Y-117263480D01*
X85169453Y-117259113D01*
X85110633Y-117236180D01*
X85104554Y-117233624D01*
X85086991Y-117225694D01*
X85047016Y-117207645D01*
X85039545Y-117206260D01*
X85036277Y-117205236D01*
X85021836Y-117201123D01*
X85018563Y-117200283D01*
X85011487Y-117197524D01*
X84966817Y-117191644D01*
X84948894Y-117189284D01*
X84942377Y-117188252D01*
X84887775Y-117178132D01*
X84880308Y-117176748D01*
X84872728Y-117177185D01*
X84872727Y-117177185D01*
X84818856Y-117180291D01*
X84811604Y-117180500D01*
X83860287Y-117180500D01*
X83792166Y-117160498D01*
X83773157Y-117145518D01*
X83639505Y-117017574D01*
X83639494Y-117017565D01*
X83635169Y-117013425D01*
X83538033Y-116950705D01*
X83463791Y-116902767D01*
X83463788Y-116902766D01*
X83458754Y-116899515D01*
X83453191Y-116897273D01*
X83269545Y-116823261D01*
X83269542Y-116823260D01*
X83263981Y-116821019D01*
X83258100Y-116819871D01*
X83258095Y-116819869D01*
X83062324Y-116781638D01*
X83062321Y-116781638D01*
X83057878Y-116780770D01*
X83052357Y-116780500D01*
X82097531Y-116780500D01*
X81940954Y-116795439D01*
X81935198Y-116797128D01*
X81935196Y-116797128D01*
X81857679Y-116819869D01*
X81739451Y-116854553D01*
X81656505Y-116897273D01*
X81558092Y-116947959D01*
X81558089Y-116947961D01*
X81552761Y-116950705D01*
X81548046Y-116954409D01*
X81392338Y-117076718D01*
X81392333Y-117076722D01*
X81387621Y-117080424D01*
X81383690Y-117084954D01*
X81383689Y-117084955D01*
X81253921Y-117234498D01*
X81253917Y-117234503D01*
X81249990Y-117239029D01*
X81144834Y-117420799D01*
X81075947Y-117619174D01*
X81075086Y-117625109D01*
X81075086Y-117625111D01*
X81059701Y-117731223D01*
X81045814Y-117826996D01*
X72850500Y-117826996D01*
X72850500Y-115286996D01*
X81045814Y-115286996D01*
X81055523Y-115496767D01*
X81056927Y-115502592D01*
X81056927Y-115502593D01*
X81092833Y-115651577D01*
X81104724Y-115700918D01*
X81107206Y-115706376D01*
X81107207Y-115706380D01*
X81150320Y-115801201D01*
X81191640Y-115892081D01*
X81313137Y-116063360D01*
X81464831Y-116208575D01*
X81469866Y-116211826D01*
X81636209Y-116319233D01*
X81636212Y-116319234D01*
X81641246Y-116322485D01*
X81646809Y-116324727D01*
X81830455Y-116398739D01*
X81830458Y-116398740D01*
X81836019Y-116400981D01*
X81841900Y-116402129D01*
X81841905Y-116402131D01*
X82037676Y-116440362D01*
X82037679Y-116440362D01*
X82042122Y-116441230D01*
X82047643Y-116441500D01*
X83002469Y-116441500D01*
X83159046Y-116426561D01*
X83164802Y-116424872D01*
X83164804Y-116424872D01*
X83253883Y-116398739D01*
X83360549Y-116367447D01*
X83462470Y-116314954D01*
X83541908Y-116274041D01*
X83541911Y-116274039D01*
X83547239Y-116271295D01*
X83622947Y-116211826D01*
X83707662Y-116145282D01*
X83707667Y-116145278D01*
X83712379Y-116141576D01*
X83726955Y-116124779D01*
X83846079Y-115987502D01*
X83846083Y-115987497D01*
X83850010Y-115982971D01*
X83955166Y-115801201D01*
X84024053Y-115602826D01*
X84030430Y-115558844D01*
X84053325Y-115400944D01*
X84053325Y-115400941D01*
X84054186Y-115395004D01*
X84049187Y-115286996D01*
X106445814Y-115286996D01*
X106455523Y-115496767D01*
X106456927Y-115502592D01*
X106456927Y-115502593D01*
X106492833Y-115651577D01*
X106504724Y-115700918D01*
X106507206Y-115706376D01*
X106507207Y-115706380D01*
X106550320Y-115801201D01*
X106591640Y-115892081D01*
X106713137Y-116063360D01*
X106864831Y-116208575D01*
X106869866Y-116211826D01*
X107036209Y-116319233D01*
X107036212Y-116319234D01*
X107041246Y-116322485D01*
X107046809Y-116324727D01*
X107230455Y-116398739D01*
X107230458Y-116398740D01*
X107236019Y-116400981D01*
X107241900Y-116402129D01*
X107241905Y-116402131D01*
X107437676Y-116440362D01*
X107437679Y-116440362D01*
X107442122Y-116441230D01*
X107447643Y-116441500D01*
X108402469Y-116441500D01*
X108559046Y-116426561D01*
X108564802Y-116424872D01*
X108564804Y-116424872D01*
X108653883Y-116398739D01*
X108760549Y-116367447D01*
X108862470Y-116314954D01*
X108941908Y-116274041D01*
X108941911Y-116274039D01*
X108947239Y-116271295D01*
X109022947Y-116211826D01*
X109107662Y-116145282D01*
X109107667Y-116145278D01*
X109112379Y-116141576D01*
X109126955Y-116124779D01*
X109246079Y-115987502D01*
X109246083Y-115987497D01*
X109250010Y-115982971D01*
X109355166Y-115801201D01*
X109424053Y-115602826D01*
X109430430Y-115558844D01*
X109453325Y-115400944D01*
X109453325Y-115400941D01*
X109454186Y-115395004D01*
X109444477Y-115185233D01*
X109395276Y-114981082D01*
X109391243Y-114972210D01*
X109314737Y-114803944D01*
X109308360Y-114789919D01*
X109186863Y-114618640D01*
X109035169Y-114473425D01*
X108938033Y-114410705D01*
X108863791Y-114362767D01*
X108863788Y-114362766D01*
X108858754Y-114359515D01*
X108853191Y-114357273D01*
X108669545Y-114283261D01*
X108669542Y-114283260D01*
X108663981Y-114281019D01*
X108658100Y-114279871D01*
X108658095Y-114279869D01*
X108462324Y-114241638D01*
X108462321Y-114241638D01*
X108457878Y-114240770D01*
X108452357Y-114240500D01*
X107497531Y-114240500D01*
X107340954Y-114255439D01*
X107335198Y-114257128D01*
X107335196Y-114257128D01*
X107267762Y-114276911D01*
X107139451Y-114314553D01*
X107056505Y-114357273D01*
X106958092Y-114407959D01*
X106958089Y-114407961D01*
X106952761Y-114410705D01*
X106948046Y-114414409D01*
X106792338Y-114536718D01*
X106792333Y-114536722D01*
X106787621Y-114540424D01*
X106783690Y-114544954D01*
X106783689Y-114544955D01*
X106653921Y-114694498D01*
X106653917Y-114694503D01*
X106649990Y-114699029D01*
X106544834Y-114880799D01*
X106542866Y-114886467D01*
X106478396Y-115072123D01*
X106475947Y-115079174D01*
X106475086Y-115085109D01*
X106475086Y-115085111D01*
X106459701Y-115191223D01*
X106445814Y-115286996D01*
X84049187Y-115286996D01*
X84044477Y-115185233D01*
X83995276Y-114981082D01*
X83991243Y-114972210D01*
X83914737Y-114803944D01*
X83908360Y-114789919D01*
X83786863Y-114618640D01*
X83635169Y-114473425D01*
X83538033Y-114410705D01*
X83463791Y-114362767D01*
X83463788Y-114362766D01*
X83458754Y-114359515D01*
X83453191Y-114357273D01*
X83269545Y-114283261D01*
X83269542Y-114283260D01*
X83263981Y-114281019D01*
X83258100Y-114279871D01*
X83258095Y-114279869D01*
X83062324Y-114241638D01*
X83062321Y-114241638D01*
X83057878Y-114240770D01*
X83052357Y-114240500D01*
X82097531Y-114240500D01*
X81940954Y-114255439D01*
X81935198Y-114257128D01*
X81935196Y-114257128D01*
X81867762Y-114276911D01*
X81739451Y-114314553D01*
X81656505Y-114357273D01*
X81558092Y-114407959D01*
X81558089Y-114407961D01*
X81552761Y-114410705D01*
X81548046Y-114414409D01*
X81392338Y-114536718D01*
X81392333Y-114536722D01*
X81387621Y-114540424D01*
X81383690Y-114544954D01*
X81383689Y-114544955D01*
X81253921Y-114694498D01*
X81253917Y-114694503D01*
X81249990Y-114699029D01*
X81144834Y-114880799D01*
X81142866Y-114886467D01*
X81078396Y-115072123D01*
X81075947Y-115079174D01*
X81075086Y-115085109D01*
X81075086Y-115085111D01*
X81059701Y-115191223D01*
X81045814Y-115286996D01*
X72850500Y-115286996D01*
X72850500Y-112746996D01*
X81045814Y-112746996D01*
X81055523Y-112956767D01*
X81056927Y-112962592D01*
X81056927Y-112962593D01*
X81081084Y-113062826D01*
X81104724Y-113160918D01*
X81107206Y-113166376D01*
X81107207Y-113166380D01*
X81150320Y-113261201D01*
X81191640Y-113352081D01*
X81313137Y-113523360D01*
X81464831Y-113668575D01*
X81469866Y-113671826D01*
X81636209Y-113779233D01*
X81636212Y-113779234D01*
X81641246Y-113782485D01*
X81646809Y-113784727D01*
X81830455Y-113858739D01*
X81830458Y-113858740D01*
X81836019Y-113860981D01*
X81841900Y-113862129D01*
X81841905Y-113862131D01*
X82037676Y-113900362D01*
X82037679Y-113900362D01*
X82042122Y-113901230D01*
X82047643Y-113901500D01*
X83002469Y-113901500D01*
X83159046Y-113886561D01*
X83164802Y-113884872D01*
X83164804Y-113884872D01*
X83253883Y-113858739D01*
X83360549Y-113827447D01*
X83481436Y-113765186D01*
X83541908Y-113734041D01*
X83541911Y-113734039D01*
X83547239Y-113731295D01*
X83622947Y-113671826D01*
X83707662Y-113605282D01*
X83707667Y-113605278D01*
X83712379Y-113601576D01*
X83748820Y-113559582D01*
X83846079Y-113447502D01*
X83846083Y-113447497D01*
X83850010Y-113442971D01*
X83955166Y-113261201D01*
X84024053Y-113062826D01*
X84039431Y-112956767D01*
X84053325Y-112860944D01*
X84053325Y-112860941D01*
X84054186Y-112855004D01*
X84049187Y-112746996D01*
X106445814Y-112746996D01*
X106455523Y-112956767D01*
X106456927Y-112962592D01*
X106456927Y-112962593D01*
X106481084Y-113062826D01*
X106504724Y-113160918D01*
X106507206Y-113166376D01*
X106507207Y-113166380D01*
X106550320Y-113261201D01*
X106591640Y-113352081D01*
X106713137Y-113523360D01*
X106864831Y-113668575D01*
X106869866Y-113671826D01*
X107036209Y-113779233D01*
X107036212Y-113779234D01*
X107041246Y-113782485D01*
X107046809Y-113784727D01*
X107230455Y-113858739D01*
X107230458Y-113858740D01*
X107236019Y-113860981D01*
X107241900Y-113862129D01*
X107241905Y-113862131D01*
X107437676Y-113900362D01*
X107437679Y-113900362D01*
X107442122Y-113901230D01*
X107447643Y-113901500D01*
X108402469Y-113901500D01*
X108559046Y-113886561D01*
X108564802Y-113884872D01*
X108564804Y-113884872D01*
X108653883Y-113858739D01*
X108760549Y-113827447D01*
X108881436Y-113765186D01*
X108941908Y-113734041D01*
X108941911Y-113734039D01*
X108947239Y-113731295D01*
X109022947Y-113671826D01*
X109107662Y-113605282D01*
X109107667Y-113605278D01*
X109112379Y-113601576D01*
X109148820Y-113559582D01*
X109246079Y-113447502D01*
X109246083Y-113447497D01*
X109250010Y-113442971D01*
X109355166Y-113261201D01*
X109424053Y-113062826D01*
X109439431Y-112956767D01*
X109453325Y-112860944D01*
X109453325Y-112860941D01*
X109454186Y-112855004D01*
X109444477Y-112645233D01*
X109395276Y-112441082D01*
X109352258Y-112346467D01*
X109310840Y-112255374D01*
X109308360Y-112249919D01*
X109186863Y-112078640D01*
X109035169Y-111933425D01*
X108938033Y-111870705D01*
X108863791Y-111822767D01*
X108863788Y-111822766D01*
X108858754Y-111819515D01*
X108815252Y-111801983D01*
X108669545Y-111743261D01*
X108669542Y-111743260D01*
X108663981Y-111741019D01*
X108658100Y-111739871D01*
X108658095Y-111739869D01*
X108462324Y-111701638D01*
X108462321Y-111701638D01*
X108457878Y-111700770D01*
X108452357Y-111700500D01*
X107497531Y-111700500D01*
X107340954Y-111715439D01*
X107335198Y-111717128D01*
X107335196Y-111717128D01*
X107257679Y-111739869D01*
X107139451Y-111774553D01*
X107072011Y-111809287D01*
X106958092Y-111867959D01*
X106958089Y-111867961D01*
X106952761Y-111870705D01*
X106948046Y-111874409D01*
X106792338Y-111996718D01*
X106792333Y-111996722D01*
X106787621Y-112000424D01*
X106783690Y-112004954D01*
X106783689Y-112004955D01*
X106653921Y-112154498D01*
X106653917Y-112154503D01*
X106649990Y-112159029D01*
X106544834Y-112340799D01*
X106475947Y-112539174D01*
X106475086Y-112545109D01*
X106475086Y-112545111D01*
X106459701Y-112651223D01*
X106445814Y-112746996D01*
X84049187Y-112746996D01*
X84044477Y-112645233D01*
X83995276Y-112441082D01*
X83952258Y-112346467D01*
X83910840Y-112255374D01*
X83908360Y-112249919D01*
X83786863Y-112078640D01*
X83635169Y-111933425D01*
X83538033Y-111870705D01*
X83463791Y-111822767D01*
X83463788Y-111822766D01*
X83458754Y-111819515D01*
X83415252Y-111801983D01*
X83269545Y-111743261D01*
X83269542Y-111743260D01*
X83263981Y-111741019D01*
X83258100Y-111739871D01*
X83258095Y-111739869D01*
X83062324Y-111701638D01*
X83062321Y-111701638D01*
X83057878Y-111700770D01*
X83052357Y-111700500D01*
X82097531Y-111700500D01*
X81940954Y-111715439D01*
X81935198Y-111717128D01*
X81935196Y-111717128D01*
X81857679Y-111739869D01*
X81739451Y-111774553D01*
X81672011Y-111809287D01*
X81558092Y-111867959D01*
X81558089Y-111867961D01*
X81552761Y-111870705D01*
X81548046Y-111874409D01*
X81392338Y-111996718D01*
X81392333Y-111996722D01*
X81387621Y-112000424D01*
X81383690Y-112004954D01*
X81383689Y-112004955D01*
X81253921Y-112154498D01*
X81253917Y-112154503D01*
X81249990Y-112159029D01*
X81144834Y-112340799D01*
X81075947Y-112539174D01*
X81075086Y-112545109D01*
X81075086Y-112545111D01*
X81059701Y-112651223D01*
X81045814Y-112746996D01*
X72850500Y-112746996D01*
X72850500Y-110206996D01*
X81045814Y-110206996D01*
X81055523Y-110416767D01*
X81056927Y-110422592D01*
X81056927Y-110422593D01*
X81081084Y-110522826D01*
X81104724Y-110620918D01*
X81107206Y-110626376D01*
X81107207Y-110626380D01*
X81150320Y-110721201D01*
X81191640Y-110812081D01*
X81313137Y-110983360D01*
X81464831Y-111128575D01*
X81469866Y-111131826D01*
X81636209Y-111239233D01*
X81636212Y-111239234D01*
X81641246Y-111242485D01*
X81646809Y-111244727D01*
X81830455Y-111318739D01*
X81830458Y-111318740D01*
X81836019Y-111320981D01*
X81841900Y-111322129D01*
X81841905Y-111322131D01*
X82037676Y-111360362D01*
X82037679Y-111360362D01*
X82042122Y-111361230D01*
X82047643Y-111361500D01*
X83002469Y-111361500D01*
X83159046Y-111346561D01*
X83164802Y-111344872D01*
X83164804Y-111344872D01*
X83253883Y-111318739D01*
X83360549Y-111287447D01*
X83460947Y-111235739D01*
X83541908Y-111194041D01*
X83541911Y-111194039D01*
X83547239Y-111191295D01*
X83622947Y-111131826D01*
X83707662Y-111065282D01*
X83707667Y-111065278D01*
X83712379Y-111061576D01*
X83716311Y-111057045D01*
X83846079Y-110907502D01*
X83846083Y-110907497D01*
X83850010Y-110902971D01*
X83955166Y-110721201D01*
X84024053Y-110522826D01*
X84039431Y-110416767D01*
X84053325Y-110320944D01*
X84053325Y-110320941D01*
X84054186Y-110315004D01*
X84049187Y-110206996D01*
X106445814Y-110206996D01*
X106455523Y-110416767D01*
X106456927Y-110422592D01*
X106456927Y-110422593D01*
X106481084Y-110522826D01*
X106504724Y-110620918D01*
X106507206Y-110626376D01*
X106507207Y-110626380D01*
X106550320Y-110721201D01*
X106591640Y-110812081D01*
X106713137Y-110983360D01*
X106864831Y-111128575D01*
X106869866Y-111131826D01*
X107036209Y-111239233D01*
X107036212Y-111239234D01*
X107041246Y-111242485D01*
X107046809Y-111244727D01*
X107230455Y-111318739D01*
X107230458Y-111318740D01*
X107236019Y-111320981D01*
X107241900Y-111322129D01*
X107241905Y-111322131D01*
X107437676Y-111360362D01*
X107437679Y-111360362D01*
X107442122Y-111361230D01*
X107447643Y-111361500D01*
X108402469Y-111361500D01*
X108559046Y-111346561D01*
X108564802Y-111344872D01*
X108564804Y-111344872D01*
X108653883Y-111318739D01*
X108760549Y-111287447D01*
X108860947Y-111235739D01*
X108941908Y-111194041D01*
X108941911Y-111194039D01*
X108947239Y-111191295D01*
X109022947Y-111131826D01*
X109107662Y-111065282D01*
X109107667Y-111065278D01*
X109112379Y-111061576D01*
X109116311Y-111057045D01*
X109246079Y-110907502D01*
X109246083Y-110907497D01*
X109250010Y-110902971D01*
X109355166Y-110721201D01*
X109424053Y-110522826D01*
X109439431Y-110416767D01*
X109453325Y-110320944D01*
X109453325Y-110320941D01*
X109454186Y-110315004D01*
X109444477Y-110105233D01*
X109395276Y-109901082D01*
X109352258Y-109806467D01*
X109310840Y-109715374D01*
X109308360Y-109709919D01*
X109186863Y-109538640D01*
X109035169Y-109393425D01*
X108938033Y-109330705D01*
X108863791Y-109282767D01*
X108863788Y-109282766D01*
X108858754Y-109279515D01*
X108853191Y-109277273D01*
X108669545Y-109203261D01*
X108669542Y-109203260D01*
X108663981Y-109201019D01*
X108658100Y-109199871D01*
X108658095Y-109199869D01*
X108462324Y-109161638D01*
X108462321Y-109161638D01*
X108457878Y-109160770D01*
X108452357Y-109160500D01*
X107497531Y-109160500D01*
X107340954Y-109175439D01*
X107335198Y-109177128D01*
X107335196Y-109177128D01*
X107257679Y-109199869D01*
X107139451Y-109234553D01*
X107056505Y-109277273D01*
X106958092Y-109327959D01*
X106958089Y-109327961D01*
X106952761Y-109330705D01*
X106948046Y-109334409D01*
X106792338Y-109456718D01*
X106792333Y-109456722D01*
X106787621Y-109460424D01*
X106783690Y-109464954D01*
X106783689Y-109464955D01*
X106653921Y-109614498D01*
X106653917Y-109614503D01*
X106649990Y-109619029D01*
X106544834Y-109800799D01*
X106475947Y-109999174D01*
X106475086Y-110005109D01*
X106475086Y-110005111D01*
X106459701Y-110111223D01*
X106445814Y-110206996D01*
X84049187Y-110206996D01*
X84044477Y-110105233D01*
X83995276Y-109901082D01*
X83952258Y-109806467D01*
X83910840Y-109715374D01*
X83908360Y-109709919D01*
X83786863Y-109538640D01*
X83635169Y-109393425D01*
X83538033Y-109330705D01*
X83463791Y-109282767D01*
X83463788Y-109282766D01*
X83458754Y-109279515D01*
X83453191Y-109277273D01*
X83269545Y-109203261D01*
X83269542Y-109203260D01*
X83263981Y-109201019D01*
X83258100Y-109199871D01*
X83258095Y-109199869D01*
X83062324Y-109161638D01*
X83062321Y-109161638D01*
X83057878Y-109160770D01*
X83052357Y-109160500D01*
X82097531Y-109160500D01*
X81940954Y-109175439D01*
X81935198Y-109177128D01*
X81935196Y-109177128D01*
X81857679Y-109199869D01*
X81739451Y-109234553D01*
X81656505Y-109277273D01*
X81558092Y-109327959D01*
X81558089Y-109327961D01*
X81552761Y-109330705D01*
X81548046Y-109334409D01*
X81392338Y-109456718D01*
X81392333Y-109456722D01*
X81387621Y-109460424D01*
X81383690Y-109464954D01*
X81383689Y-109464955D01*
X81253921Y-109614498D01*
X81253917Y-109614503D01*
X81249990Y-109619029D01*
X81144834Y-109800799D01*
X81075947Y-109999174D01*
X81075086Y-110005109D01*
X81075086Y-110005111D01*
X81059701Y-110111223D01*
X81045814Y-110206996D01*
X72850500Y-110206996D01*
X72850500Y-107988966D01*
X73598257Y-107988966D01*
X73628565Y-108123446D01*
X73631645Y-108133275D01*
X73711770Y-108330603D01*
X73716413Y-108339794D01*
X73827694Y-108521388D01*
X73833777Y-108529699D01*
X73973213Y-108690667D01*
X73980580Y-108697883D01*
X74144434Y-108833916D01*
X74152881Y-108839831D01*
X74336756Y-108947279D01*
X74346042Y-108951729D01*
X74545001Y-109027703D01*
X74554899Y-109030579D01*
X74658250Y-109051606D01*
X74672299Y-109050410D01*
X74676000Y-109040065D01*
X74676000Y-109039517D01*
X75184000Y-109039517D01*
X75188064Y-109053359D01*
X75201478Y-109055393D01*
X75208184Y-109054534D01*
X75218262Y-109052392D01*
X75422255Y-108991191D01*
X75431842Y-108987433D01*
X75623095Y-108893739D01*
X75631945Y-108888464D01*
X75805328Y-108764792D01*
X75813200Y-108758139D01*
X75964052Y-108607812D01*
X75970730Y-108599965D01*
X76095003Y-108427020D01*
X76100313Y-108418183D01*
X76194670Y-108227267D01*
X76198469Y-108217672D01*
X76260377Y-108013910D01*
X76262555Y-108003837D01*
X76263986Y-107992962D01*
X76261775Y-107978778D01*
X76248617Y-107975000D01*
X75202115Y-107975000D01*
X75186876Y-107979475D01*
X75185671Y-107980865D01*
X75184000Y-107988548D01*
X75184000Y-109039517D01*
X74676000Y-109039517D01*
X74676000Y-107993115D01*
X74671525Y-107977876D01*
X74670135Y-107976671D01*
X74662452Y-107975000D01*
X73613225Y-107975000D01*
X73599694Y-107978973D01*
X73598257Y-107988966D01*
X72850500Y-107988966D01*
X72850500Y-107455183D01*
X73594389Y-107455183D01*
X73595912Y-107463607D01*
X73608292Y-107467000D01*
X76248344Y-107467000D01*
X76261875Y-107463027D01*
X76263180Y-107453947D01*
X76221214Y-107286875D01*
X76217894Y-107277124D01*
X76132972Y-107081814D01*
X76128105Y-107072739D01*
X76012426Y-106893926D01*
X76006136Y-106885757D01*
X75862806Y-106728240D01*
X75855273Y-106721215D01*
X75688139Y-106589222D01*
X75679552Y-106583517D01*
X75493117Y-106480599D01*
X75483705Y-106476369D01*
X75432178Y-106458122D01*
X75374642Y-106416528D01*
X75348726Y-106350430D01*
X75362660Y-106280814D01*
X75412672Y-106229415D01*
X75448888Y-106209133D01*
X75584442Y-106133219D01*
X75747012Y-105998012D01*
X75882219Y-105835442D01*
X75885043Y-105830399D01*
X75885046Y-105830395D01*
X75982713Y-105655998D01*
X75982714Y-105655996D01*
X75985537Y-105650955D01*
X75987393Y-105645488D01*
X75987395Y-105645483D01*
X76051647Y-105456200D01*
X76053504Y-105450730D01*
X76053969Y-105447522D01*
X80867273Y-105447522D01*
X80914764Y-105624761D01*
X80918510Y-105635053D01*
X81010586Y-105832511D01*
X81016069Y-105842007D01*
X81141028Y-106020467D01*
X81148084Y-106028875D01*
X81302125Y-106182916D01*
X81310533Y-106189972D01*
X81488993Y-106314931D01*
X81498489Y-106320414D01*
X81695947Y-106412490D01*
X81706239Y-106416236D01*
X81785713Y-106437531D01*
X81846336Y-106474483D01*
X81877357Y-106538344D01*
X81868929Y-106608838D01*
X81823726Y-106663585D01*
X81788572Y-106680143D01*
X81739451Y-106694553D01*
X81717715Y-106705748D01*
X81558092Y-106787959D01*
X81558089Y-106787961D01*
X81552761Y-106790705D01*
X81548046Y-106794409D01*
X81392338Y-106916718D01*
X81392333Y-106916722D01*
X81387621Y-106920424D01*
X81383690Y-106924954D01*
X81383689Y-106924955D01*
X81253921Y-107074498D01*
X81253917Y-107074503D01*
X81249990Y-107079029D01*
X81144834Y-107260799D01*
X81075947Y-107459174D01*
X81075086Y-107465109D01*
X81075086Y-107465111D01*
X81059701Y-107571223D01*
X81045814Y-107666996D01*
X81055523Y-107876767D01*
X81056927Y-107882592D01*
X81056927Y-107882593D01*
X81082463Y-107988548D01*
X81104724Y-108080918D01*
X81107206Y-108086376D01*
X81107207Y-108086380D01*
X81150320Y-108181201D01*
X81191640Y-108272081D01*
X81313137Y-108443360D01*
X81464831Y-108588575D01*
X81469866Y-108591826D01*
X81636209Y-108699233D01*
X81636212Y-108699234D01*
X81641246Y-108702485D01*
X81646809Y-108704727D01*
X81830455Y-108778739D01*
X81830458Y-108778740D01*
X81836019Y-108780981D01*
X81841900Y-108782129D01*
X81841905Y-108782131D01*
X82037676Y-108820362D01*
X82037679Y-108820362D01*
X82042122Y-108821230D01*
X82047643Y-108821500D01*
X83002469Y-108821500D01*
X83159046Y-108806561D01*
X83164802Y-108804872D01*
X83164804Y-108804872D01*
X83253883Y-108778739D01*
X83360549Y-108747447D01*
X83487606Y-108682008D01*
X83541908Y-108654041D01*
X83541911Y-108654039D01*
X83547239Y-108651295D01*
X83622947Y-108591826D01*
X83707662Y-108525282D01*
X83707667Y-108525278D01*
X83712379Y-108521576D01*
X83723501Y-108508759D01*
X83846079Y-108367502D01*
X83846083Y-108367497D01*
X83850010Y-108362971D01*
X83955166Y-108181201D01*
X84024053Y-107982826D01*
X84024914Y-107976889D01*
X84053325Y-107780944D01*
X84053325Y-107780941D01*
X84054186Y-107775004D01*
X84049187Y-107666996D01*
X106445814Y-107666996D01*
X106455523Y-107876767D01*
X106456927Y-107882592D01*
X106456927Y-107882593D01*
X106482463Y-107988548D01*
X106504724Y-108080918D01*
X106507206Y-108086376D01*
X106507207Y-108086380D01*
X106550320Y-108181201D01*
X106591640Y-108272081D01*
X106713137Y-108443360D01*
X106864831Y-108588575D01*
X106869866Y-108591826D01*
X107036209Y-108699233D01*
X107036212Y-108699234D01*
X107041246Y-108702485D01*
X107046809Y-108704727D01*
X107230455Y-108778739D01*
X107230458Y-108778740D01*
X107236019Y-108780981D01*
X107241900Y-108782129D01*
X107241905Y-108782131D01*
X107437676Y-108820362D01*
X107437679Y-108820362D01*
X107442122Y-108821230D01*
X107447643Y-108821500D01*
X108402469Y-108821500D01*
X108559046Y-108806561D01*
X108564802Y-108804872D01*
X108564804Y-108804872D01*
X108653883Y-108778739D01*
X108760549Y-108747447D01*
X108887606Y-108682008D01*
X108941908Y-108654041D01*
X108941911Y-108654039D01*
X108947239Y-108651295D01*
X109022947Y-108591826D01*
X109107662Y-108525282D01*
X109107667Y-108525278D01*
X109112379Y-108521576D01*
X109123501Y-108508759D01*
X109246079Y-108367502D01*
X109246083Y-108367497D01*
X109250010Y-108362971D01*
X109355166Y-108181201D01*
X109424053Y-107982826D01*
X109424914Y-107976889D01*
X109453325Y-107780944D01*
X109453325Y-107780941D01*
X109454186Y-107775004D01*
X109444477Y-107565233D01*
X109395276Y-107361082D01*
X109361537Y-107286875D01*
X109310840Y-107175374D01*
X109308360Y-107169919D01*
X109186863Y-106998640D01*
X109035169Y-106853425D01*
X108938033Y-106790705D01*
X108863791Y-106742767D01*
X108863788Y-106742766D01*
X108858754Y-106739515D01*
X108757988Y-106698905D01*
X108669545Y-106663261D01*
X108669542Y-106663260D01*
X108663981Y-106661019D01*
X108658100Y-106659871D01*
X108658095Y-106659869D01*
X108462324Y-106621638D01*
X108462321Y-106621638D01*
X108457878Y-106620770D01*
X108452357Y-106620500D01*
X107497531Y-106620500D01*
X107340954Y-106635439D01*
X107335198Y-106637128D01*
X107335196Y-106637128D01*
X107257679Y-106659869D01*
X107139451Y-106694553D01*
X107117715Y-106705748D01*
X106958092Y-106787959D01*
X106958089Y-106787961D01*
X106952761Y-106790705D01*
X106948046Y-106794409D01*
X106792338Y-106916718D01*
X106792333Y-106916722D01*
X106787621Y-106920424D01*
X106783690Y-106924954D01*
X106783689Y-106924955D01*
X106653921Y-107074498D01*
X106653917Y-107074503D01*
X106649990Y-107079029D01*
X106544834Y-107260799D01*
X106475947Y-107459174D01*
X106475086Y-107465109D01*
X106475086Y-107465111D01*
X106459701Y-107571223D01*
X106445814Y-107666996D01*
X84049187Y-107666996D01*
X84044477Y-107565233D01*
X83995276Y-107361082D01*
X83961537Y-107286875D01*
X83910840Y-107175374D01*
X83908360Y-107169919D01*
X83786863Y-106998640D01*
X83635169Y-106853425D01*
X83538033Y-106790705D01*
X83463791Y-106742767D01*
X83463788Y-106742766D01*
X83458754Y-106739515D01*
X83353998Y-106697297D01*
X83300767Y-106675844D01*
X83245061Y-106631829D01*
X83221995Y-106564683D01*
X83238892Y-106495727D01*
X83290388Y-106446852D01*
X83315255Y-106437271D01*
X83393761Y-106416236D01*
X83404053Y-106412490D01*
X83601511Y-106320414D01*
X83611007Y-106314931D01*
X83789467Y-106189972D01*
X83797875Y-106182916D01*
X83951916Y-106028875D01*
X83958972Y-106020467D01*
X84083931Y-105842007D01*
X84089414Y-105832511D01*
X84181490Y-105635053D01*
X84185236Y-105624761D01*
X84231394Y-105452497D01*
X84231058Y-105438401D01*
X84223116Y-105435000D01*
X80882033Y-105435000D01*
X80868502Y-105438973D01*
X80867273Y-105447522D01*
X76053969Y-105447522D01*
X76056660Y-105428969D01*
X76083314Y-105245140D01*
X76083314Y-105245138D01*
X76083846Y-105241470D01*
X76085429Y-105181000D01*
X76080467Y-105126996D01*
X106445814Y-105126996D01*
X106455523Y-105336767D01*
X106456927Y-105342592D01*
X106456927Y-105342593D01*
X106492833Y-105491577D01*
X106504724Y-105540918D01*
X106507206Y-105546376D01*
X106507207Y-105546380D01*
X106552682Y-105646397D01*
X106591640Y-105732081D01*
X106713137Y-105903360D01*
X106864831Y-106048575D01*
X106869866Y-106051826D01*
X107036209Y-106159233D01*
X107036212Y-106159234D01*
X107041246Y-106162485D01*
X107046809Y-106164727D01*
X107230455Y-106238739D01*
X107230458Y-106238740D01*
X107236019Y-106240981D01*
X107241900Y-106242129D01*
X107241905Y-106242131D01*
X107437676Y-106280362D01*
X107437679Y-106280362D01*
X107442122Y-106281230D01*
X107447643Y-106281500D01*
X108402469Y-106281500D01*
X108559046Y-106266561D01*
X108564802Y-106264872D01*
X108564804Y-106264872D01*
X108713096Y-106221368D01*
X108760549Y-106207447D01*
X108904671Y-106133219D01*
X108941908Y-106114041D01*
X108941911Y-106114039D01*
X108947239Y-106111295D01*
X109022947Y-106051826D01*
X109107662Y-105985282D01*
X109107667Y-105985278D01*
X109112379Y-105981576D01*
X109160019Y-105926676D01*
X109246079Y-105827502D01*
X109246083Y-105827497D01*
X109250010Y-105822971D01*
X109355166Y-105641201D01*
X109424053Y-105442826D01*
X109439431Y-105336767D01*
X109453325Y-105240944D01*
X109453325Y-105240941D01*
X109454186Y-105235004D01*
X109444477Y-105025233D01*
X109395276Y-104821082D01*
X109391243Y-104812210D01*
X109314737Y-104643944D01*
X109308360Y-104629919D01*
X109186863Y-104458640D01*
X109035169Y-104313425D01*
X108937016Y-104250048D01*
X108863791Y-104202767D01*
X108863788Y-104202766D01*
X108858754Y-104199515D01*
X108853191Y-104197273D01*
X108669545Y-104123261D01*
X108669542Y-104123260D01*
X108663981Y-104121019D01*
X108658100Y-104119871D01*
X108658095Y-104119869D01*
X108462324Y-104081638D01*
X108462321Y-104081638D01*
X108457878Y-104080770D01*
X108452357Y-104080500D01*
X107497531Y-104080500D01*
X107340954Y-104095439D01*
X107335198Y-104097128D01*
X107335196Y-104097128D01*
X107267762Y-104116911D01*
X107139451Y-104154553D01*
X107056505Y-104197273D01*
X106958092Y-104247959D01*
X106958089Y-104247961D01*
X106952761Y-104250705D01*
X106901213Y-104291196D01*
X106792338Y-104376718D01*
X106792333Y-104376722D01*
X106787621Y-104380424D01*
X106783690Y-104384954D01*
X106783689Y-104384955D01*
X106653921Y-104534498D01*
X106653917Y-104534503D01*
X106649990Y-104539029D01*
X106544834Y-104720799D01*
X106526882Y-104772496D01*
X106478396Y-104912123D01*
X106475947Y-104919174D01*
X106475086Y-104925109D01*
X106475086Y-104925111D01*
X106459701Y-105031223D01*
X106445814Y-105126996D01*
X76080467Y-105126996D01*
X76066081Y-104970440D01*
X76048895Y-104909503D01*
X80868606Y-104909503D01*
X80868942Y-104923599D01*
X80876884Y-104927000D01*
X84217967Y-104927000D01*
X84231498Y-104923027D01*
X84232727Y-104914478D01*
X84185236Y-104737239D01*
X84181490Y-104726947D01*
X84089414Y-104529489D01*
X84083931Y-104519993D01*
X83958972Y-104341533D01*
X83951916Y-104333125D01*
X83797875Y-104179084D01*
X83789467Y-104172028D01*
X83611007Y-104047069D01*
X83601511Y-104041586D01*
X83404053Y-103949510D01*
X83393761Y-103945764D01*
X83314287Y-103924469D01*
X83253664Y-103887517D01*
X83222643Y-103823656D01*
X83231071Y-103753162D01*
X83276274Y-103698415D01*
X83311429Y-103681857D01*
X83360549Y-103667447D01*
X83481436Y-103605186D01*
X83541908Y-103574041D01*
X83541911Y-103574039D01*
X83547239Y-103571295D01*
X83622947Y-103511826D01*
X83707662Y-103445282D01*
X83707667Y-103445278D01*
X83712379Y-103441576D01*
X83748820Y-103399582D01*
X83846079Y-103287502D01*
X83846083Y-103287497D01*
X83850010Y-103282971D01*
X83955166Y-103101201D01*
X84024053Y-102902826D01*
X84039431Y-102796767D01*
X84053325Y-102700944D01*
X84053325Y-102700941D01*
X84054186Y-102695004D01*
X84049187Y-102586996D01*
X106445814Y-102586996D01*
X106455523Y-102796767D01*
X106456927Y-102802592D01*
X106456927Y-102802593D01*
X106481084Y-102902826D01*
X106504724Y-103000918D01*
X106507206Y-103006376D01*
X106507207Y-103006380D01*
X106550320Y-103101201D01*
X106591640Y-103192081D01*
X106713137Y-103363360D01*
X106864831Y-103508575D01*
X106869866Y-103511826D01*
X107036209Y-103619233D01*
X107036212Y-103619234D01*
X107041246Y-103622485D01*
X107046809Y-103624727D01*
X107230455Y-103698739D01*
X107230458Y-103698740D01*
X107236019Y-103700981D01*
X107241900Y-103702129D01*
X107241905Y-103702131D01*
X107437676Y-103740362D01*
X107437679Y-103740362D01*
X107442122Y-103741230D01*
X107447643Y-103741500D01*
X108402469Y-103741500D01*
X108559046Y-103726561D01*
X108564802Y-103724872D01*
X108564804Y-103724872D01*
X108711429Y-103681857D01*
X108760549Y-103667447D01*
X108881436Y-103605186D01*
X108941908Y-103574041D01*
X108941911Y-103574039D01*
X108947239Y-103571295D01*
X109022947Y-103511826D01*
X109107662Y-103445282D01*
X109107667Y-103445278D01*
X109112379Y-103441576D01*
X109148820Y-103399582D01*
X109246079Y-103287502D01*
X109246083Y-103287497D01*
X109250010Y-103282971D01*
X109355166Y-103101201D01*
X109424053Y-102902826D01*
X109439431Y-102796767D01*
X109453325Y-102700944D01*
X109453325Y-102700941D01*
X109454186Y-102695004D01*
X109444477Y-102485233D01*
X109395276Y-102281082D01*
X109352258Y-102186467D01*
X109310840Y-102095374D01*
X109308360Y-102089919D01*
X109186863Y-101918640D01*
X109035169Y-101773425D01*
X109004140Y-101753390D01*
X108863791Y-101662767D01*
X108863788Y-101662766D01*
X108858754Y-101659515D01*
X108815252Y-101641983D01*
X108669545Y-101583261D01*
X108669542Y-101583260D01*
X108663981Y-101581019D01*
X108658100Y-101579871D01*
X108658095Y-101579869D01*
X108462324Y-101541638D01*
X108462321Y-101541638D01*
X108457878Y-101540770D01*
X108452357Y-101540500D01*
X107497531Y-101540500D01*
X107340954Y-101555439D01*
X107335198Y-101557128D01*
X107335196Y-101557128D01*
X107315136Y-101563013D01*
X107139451Y-101614553D01*
X107072011Y-101649287D01*
X106958092Y-101707959D01*
X106958089Y-101707961D01*
X106952761Y-101710705D01*
X106912013Y-101742713D01*
X106792338Y-101836718D01*
X106792333Y-101836722D01*
X106787621Y-101840424D01*
X106783690Y-101844954D01*
X106783689Y-101844955D01*
X106653921Y-101994498D01*
X106653917Y-101994503D01*
X106649990Y-101999029D01*
X106544834Y-102180799D01*
X106475947Y-102379174D01*
X106475086Y-102385109D01*
X106475086Y-102385111D01*
X106459701Y-102491223D01*
X106445814Y-102586996D01*
X84049187Y-102586996D01*
X84044477Y-102485233D01*
X83995276Y-102281082D01*
X83952258Y-102186467D01*
X83910840Y-102095374D01*
X83908360Y-102089919D01*
X83786863Y-101918640D01*
X83635169Y-101773425D01*
X83604140Y-101753390D01*
X83463791Y-101662767D01*
X83463788Y-101662766D01*
X83458754Y-101659515D01*
X83415252Y-101641983D01*
X83269545Y-101583261D01*
X83269542Y-101583260D01*
X83263981Y-101581019D01*
X83258100Y-101579871D01*
X83258095Y-101579869D01*
X83062324Y-101541638D01*
X83062321Y-101541638D01*
X83057878Y-101540770D01*
X83052357Y-101540500D01*
X82097531Y-101540500D01*
X81940954Y-101555439D01*
X81935198Y-101557128D01*
X81935196Y-101557128D01*
X81915136Y-101563013D01*
X81739451Y-101614553D01*
X81672011Y-101649287D01*
X81558092Y-101707959D01*
X81558089Y-101707961D01*
X81552761Y-101710705D01*
X81512013Y-101742713D01*
X81392338Y-101836718D01*
X81392333Y-101836722D01*
X81387621Y-101840424D01*
X81383690Y-101844954D01*
X81383689Y-101844955D01*
X81253921Y-101994498D01*
X81253917Y-101994503D01*
X81249990Y-101999029D01*
X81144834Y-102180799D01*
X81075947Y-102379174D01*
X81075086Y-102385109D01*
X81075086Y-102385111D01*
X81059701Y-102491223D01*
X81045814Y-102586996D01*
X81055523Y-102796767D01*
X81056927Y-102802592D01*
X81056927Y-102802593D01*
X81081084Y-102902826D01*
X81104724Y-103000918D01*
X81107206Y-103006376D01*
X81107207Y-103006380D01*
X81150320Y-103101201D01*
X81191640Y-103192081D01*
X81313137Y-103363360D01*
X81464831Y-103508575D01*
X81469866Y-103511826D01*
X81636209Y-103619233D01*
X81636212Y-103619234D01*
X81641246Y-103622485D01*
X81646809Y-103624727D01*
X81799233Y-103686156D01*
X81854939Y-103730171D01*
X81878005Y-103797317D01*
X81861108Y-103866273D01*
X81809612Y-103915148D01*
X81784745Y-103924729D01*
X81706239Y-103945764D01*
X81695947Y-103949510D01*
X81498489Y-104041586D01*
X81488993Y-104047069D01*
X81310533Y-104172028D01*
X81302125Y-104179084D01*
X81148084Y-104333125D01*
X81141028Y-104341533D01*
X81016069Y-104519993D01*
X81010586Y-104529489D01*
X80918510Y-104726947D01*
X80914764Y-104737239D01*
X80868606Y-104909503D01*
X76048895Y-104909503D01*
X76008686Y-104766931D01*
X75997553Y-104744354D01*
X75917719Y-104582469D01*
X75915165Y-104577290D01*
X75848228Y-104487651D01*
X75792104Y-104412491D01*
X75792103Y-104412490D01*
X75788651Y-104407867D01*
X75633381Y-104264337D01*
X75454554Y-104151505D01*
X75258160Y-104073152D01*
X75252503Y-104072027D01*
X75252497Y-104072025D01*
X75096916Y-104041079D01*
X75034006Y-104008172D01*
X74998874Y-103946477D01*
X75002674Y-103875582D01*
X75044199Y-103817996D01*
X75110266Y-103792002D01*
X75121497Y-103791500D01*
X75824646Y-103791500D01*
X75828350Y-103791059D01*
X75828353Y-103791059D01*
X75835746Y-103790179D01*
X75850846Y-103788382D01*
X75953153Y-103742939D01*
X75968934Y-103727131D01*
X76009837Y-103686156D01*
X76032241Y-103663713D01*
X76077506Y-103561327D01*
X76080500Y-103535646D01*
X76080500Y-102533347D01*
X76100502Y-102465226D01*
X76117405Y-102444251D01*
X76471738Y-102089919D01*
X76854592Y-101707065D01*
X76860858Y-101701212D01*
X76898180Y-101668654D01*
X76903907Y-101663658D01*
X76940213Y-101611999D01*
X76944138Y-101606715D01*
X76964286Y-101581019D01*
X76983094Y-101557032D01*
X76986222Y-101550105D01*
X76987997Y-101547174D01*
X76995414Y-101534171D01*
X76997030Y-101531157D01*
X77001398Y-101524942D01*
X77004157Y-101517866D01*
X77004159Y-101517862D01*
X77024330Y-101466125D01*
X77026886Y-101460044D01*
X77049742Y-101409424D01*
X77049742Y-101409423D01*
X77052866Y-101402505D01*
X77054250Y-101395039D01*
X77055268Y-101391790D01*
X77059388Y-101377325D01*
X77060228Y-101374052D01*
X77062987Y-101366976D01*
X77071227Y-101304383D01*
X77072259Y-101297866D01*
X77082379Y-101243264D01*
X77083763Y-101235797D01*
X77080220Y-101174345D01*
X77080011Y-101167093D01*
X77080011Y-100046996D01*
X81045814Y-100046996D01*
X81055523Y-100256767D01*
X81056927Y-100262592D01*
X81056927Y-100262593D01*
X81081084Y-100362826D01*
X81104724Y-100460918D01*
X81107206Y-100466376D01*
X81107207Y-100466380D01*
X81150320Y-100561201D01*
X81191640Y-100652081D01*
X81313137Y-100823360D01*
X81464831Y-100968575D01*
X81469866Y-100971826D01*
X81636209Y-101079233D01*
X81636212Y-101079234D01*
X81641246Y-101082485D01*
X81646809Y-101084727D01*
X81830455Y-101158739D01*
X81830458Y-101158740D01*
X81836019Y-101160981D01*
X81841900Y-101162129D01*
X81841905Y-101162131D01*
X82037676Y-101200362D01*
X82037679Y-101200362D01*
X82042122Y-101201230D01*
X82047643Y-101201500D01*
X83002469Y-101201500D01*
X83159046Y-101186561D01*
X83164802Y-101184872D01*
X83164804Y-101184872D01*
X83253883Y-101158739D01*
X83360549Y-101127447D01*
X83460947Y-101075739D01*
X83541908Y-101034041D01*
X83541911Y-101034039D01*
X83547239Y-101031295D01*
X83622947Y-100971826D01*
X83707662Y-100905282D01*
X83707667Y-100905278D01*
X83712379Y-100901576D01*
X83757879Y-100849142D01*
X83846079Y-100747502D01*
X83846083Y-100747497D01*
X83850010Y-100742971D01*
X83955166Y-100561201D01*
X84024053Y-100362826D01*
X84039431Y-100256767D01*
X84053325Y-100160944D01*
X84053325Y-100160941D01*
X84054186Y-100155004D01*
X84049187Y-100046996D01*
X106445814Y-100046996D01*
X106455523Y-100256767D01*
X106456927Y-100262592D01*
X106456927Y-100262593D01*
X106481084Y-100362826D01*
X106504724Y-100460918D01*
X106507206Y-100466376D01*
X106507207Y-100466380D01*
X106550320Y-100561201D01*
X106591640Y-100652081D01*
X106713137Y-100823360D01*
X106864831Y-100968575D01*
X106869866Y-100971826D01*
X107036209Y-101079233D01*
X107036212Y-101079234D01*
X107041246Y-101082485D01*
X107046809Y-101084727D01*
X107230455Y-101158739D01*
X107230458Y-101158740D01*
X107236019Y-101160981D01*
X107241900Y-101162129D01*
X107241905Y-101162131D01*
X107437676Y-101200362D01*
X107437679Y-101200362D01*
X107442122Y-101201230D01*
X107447643Y-101201500D01*
X108402469Y-101201500D01*
X108559046Y-101186561D01*
X108564802Y-101184872D01*
X108564804Y-101184872D01*
X108653883Y-101158739D01*
X108760549Y-101127447D01*
X108860947Y-101075739D01*
X108941908Y-101034041D01*
X108941911Y-101034039D01*
X108947239Y-101031295D01*
X109022947Y-100971826D01*
X109107662Y-100905282D01*
X109107667Y-100905278D01*
X109112379Y-100901576D01*
X109157879Y-100849142D01*
X109246079Y-100747502D01*
X109246083Y-100747497D01*
X109250010Y-100742971D01*
X109355166Y-100561201D01*
X109424053Y-100362826D01*
X109439431Y-100256767D01*
X109453325Y-100160944D01*
X109453325Y-100160941D01*
X109454186Y-100155004D01*
X109444477Y-99945233D01*
X109395276Y-99741082D01*
X109352258Y-99646467D01*
X109310840Y-99555374D01*
X109308360Y-99549919D01*
X109186863Y-99378640D01*
X109035169Y-99233425D01*
X108938033Y-99170705D01*
X108863791Y-99122767D01*
X108863788Y-99122766D01*
X108858754Y-99119515D01*
X108853191Y-99117273D01*
X108669545Y-99043261D01*
X108669542Y-99043260D01*
X108663981Y-99041019D01*
X108658100Y-99039871D01*
X108658095Y-99039869D01*
X108462324Y-99001638D01*
X108462321Y-99001638D01*
X108457878Y-99000770D01*
X108452357Y-99000500D01*
X107497531Y-99000500D01*
X107340954Y-99015439D01*
X107335198Y-99017128D01*
X107335196Y-99017128D01*
X107257679Y-99039869D01*
X107139451Y-99074553D01*
X107056505Y-99117273D01*
X106958092Y-99167959D01*
X106958089Y-99167961D01*
X106952761Y-99170705D01*
X106948046Y-99174409D01*
X106792338Y-99296718D01*
X106792333Y-99296722D01*
X106787621Y-99300424D01*
X106783690Y-99304954D01*
X106783689Y-99304955D01*
X106653921Y-99454498D01*
X106653917Y-99454503D01*
X106649990Y-99459029D01*
X106544834Y-99640799D01*
X106475947Y-99839174D01*
X106475086Y-99845109D01*
X106475086Y-99845111D01*
X106459701Y-99951223D01*
X106445814Y-100046996D01*
X84049187Y-100046996D01*
X84044477Y-99945233D01*
X83995276Y-99741082D01*
X83952258Y-99646467D01*
X83910840Y-99555374D01*
X83908360Y-99549919D01*
X83786863Y-99378640D01*
X83635169Y-99233425D01*
X83538033Y-99170705D01*
X83463791Y-99122767D01*
X83463788Y-99122766D01*
X83458754Y-99119515D01*
X83453191Y-99117273D01*
X83269545Y-99043261D01*
X83269542Y-99043260D01*
X83263981Y-99041019D01*
X83258100Y-99039871D01*
X83258095Y-99039869D01*
X83062324Y-99001638D01*
X83062321Y-99001638D01*
X83057878Y-99000770D01*
X83052357Y-99000500D01*
X82097531Y-99000500D01*
X81940954Y-99015439D01*
X81935198Y-99017128D01*
X81935196Y-99017128D01*
X81857679Y-99039869D01*
X81739451Y-99074553D01*
X81656505Y-99117273D01*
X81558092Y-99167959D01*
X81558089Y-99167961D01*
X81552761Y-99170705D01*
X81548046Y-99174409D01*
X81392338Y-99296718D01*
X81392333Y-99296722D01*
X81387621Y-99300424D01*
X81383690Y-99304954D01*
X81383689Y-99304955D01*
X81253921Y-99454498D01*
X81253917Y-99454503D01*
X81249990Y-99459029D01*
X81144834Y-99640799D01*
X81075947Y-99839174D01*
X81075086Y-99845109D01*
X81075086Y-99845111D01*
X81059701Y-99951223D01*
X81045814Y-100046996D01*
X77080011Y-100046996D01*
X77080011Y-97506996D01*
X81045814Y-97506996D01*
X81055523Y-97716767D01*
X81056927Y-97722592D01*
X81056927Y-97722593D01*
X81081084Y-97822826D01*
X81104724Y-97920918D01*
X81107206Y-97926376D01*
X81107207Y-97926380D01*
X81150320Y-98021201D01*
X81191640Y-98112081D01*
X81313137Y-98283360D01*
X81464831Y-98428575D01*
X81469866Y-98431826D01*
X81636209Y-98539233D01*
X81636212Y-98539234D01*
X81641246Y-98542485D01*
X81646809Y-98544727D01*
X81830455Y-98618739D01*
X81830458Y-98618740D01*
X81836019Y-98620981D01*
X81841900Y-98622129D01*
X81841905Y-98622131D01*
X82037676Y-98660362D01*
X82037679Y-98660362D01*
X82042122Y-98661230D01*
X82047643Y-98661500D01*
X83002469Y-98661500D01*
X83159046Y-98646561D01*
X83164802Y-98644872D01*
X83164804Y-98644872D01*
X83253883Y-98618739D01*
X83360549Y-98587447D01*
X83487606Y-98522008D01*
X83541908Y-98494041D01*
X83541911Y-98494039D01*
X83547239Y-98491295D01*
X83622947Y-98431826D01*
X83707662Y-98365282D01*
X83707667Y-98365278D01*
X83712379Y-98361576D01*
X83723501Y-98348759D01*
X83846079Y-98207502D01*
X83846083Y-98207497D01*
X83850010Y-98202971D01*
X83955166Y-98021201D01*
X84024053Y-97822826D01*
X84024914Y-97816889D01*
X84053325Y-97620944D01*
X84053325Y-97620941D01*
X84054186Y-97615004D01*
X84049187Y-97506996D01*
X106445814Y-97506996D01*
X106455523Y-97716767D01*
X106456927Y-97722592D01*
X106456927Y-97722593D01*
X106481084Y-97822826D01*
X106504724Y-97920918D01*
X106507206Y-97926376D01*
X106507207Y-97926380D01*
X106550320Y-98021201D01*
X106591640Y-98112081D01*
X106713137Y-98283360D01*
X106864831Y-98428575D01*
X106869866Y-98431826D01*
X107036209Y-98539233D01*
X107036212Y-98539234D01*
X107041246Y-98542485D01*
X107046809Y-98544727D01*
X107230455Y-98618739D01*
X107230458Y-98618740D01*
X107236019Y-98620981D01*
X107241900Y-98622129D01*
X107241905Y-98622131D01*
X107437676Y-98660362D01*
X107437679Y-98660362D01*
X107442122Y-98661230D01*
X107447643Y-98661500D01*
X108402469Y-98661500D01*
X108559046Y-98646561D01*
X108564802Y-98644872D01*
X108564804Y-98644872D01*
X108653883Y-98618739D01*
X108760549Y-98587447D01*
X108887606Y-98522008D01*
X108941908Y-98494041D01*
X108941911Y-98494039D01*
X108947239Y-98491295D01*
X109022947Y-98431826D01*
X109107662Y-98365282D01*
X109107667Y-98365278D01*
X109112379Y-98361576D01*
X109123501Y-98348759D01*
X109246079Y-98207502D01*
X109246083Y-98207497D01*
X109250010Y-98202971D01*
X109355166Y-98021201D01*
X109424053Y-97822826D01*
X109424914Y-97816889D01*
X109453325Y-97620944D01*
X109453325Y-97620941D01*
X109454186Y-97615004D01*
X109444477Y-97405233D01*
X109395276Y-97201082D01*
X109352258Y-97106467D01*
X109310840Y-97015374D01*
X109308360Y-97009919D01*
X109186863Y-96838640D01*
X109035169Y-96693425D01*
X108938033Y-96630705D01*
X108863791Y-96582767D01*
X108863788Y-96582766D01*
X108858754Y-96579515D01*
X108757988Y-96538905D01*
X108669545Y-96503261D01*
X108669542Y-96503260D01*
X108663981Y-96501019D01*
X108658100Y-96499871D01*
X108658095Y-96499869D01*
X108462324Y-96461638D01*
X108462321Y-96461638D01*
X108457878Y-96460770D01*
X108452357Y-96460500D01*
X107497531Y-96460500D01*
X107340954Y-96475439D01*
X107335198Y-96477128D01*
X107335196Y-96477128D01*
X107257679Y-96499869D01*
X107139451Y-96534553D01*
X107117715Y-96545748D01*
X106958092Y-96627959D01*
X106958089Y-96627961D01*
X106952761Y-96630705D01*
X106948046Y-96634409D01*
X106792338Y-96756718D01*
X106792333Y-96756722D01*
X106787621Y-96760424D01*
X106783690Y-96764954D01*
X106783689Y-96764955D01*
X106653921Y-96914498D01*
X106653917Y-96914503D01*
X106649990Y-96919029D01*
X106544834Y-97100799D01*
X106475947Y-97299174D01*
X106475086Y-97305109D01*
X106475086Y-97305111D01*
X106459701Y-97411223D01*
X106445814Y-97506996D01*
X84049187Y-97506996D01*
X84044477Y-97405233D01*
X83995276Y-97201082D01*
X83952258Y-97106467D01*
X83910840Y-97015374D01*
X83908360Y-97009919D01*
X83786863Y-96838640D01*
X83635169Y-96693425D01*
X83538033Y-96630705D01*
X83463791Y-96582767D01*
X83463788Y-96582766D01*
X83458754Y-96579515D01*
X83357988Y-96538905D01*
X83269545Y-96503261D01*
X83269542Y-96503260D01*
X83263981Y-96501019D01*
X83258100Y-96499871D01*
X83258095Y-96499869D01*
X83062324Y-96461638D01*
X83062321Y-96461638D01*
X83057878Y-96460770D01*
X83052357Y-96460500D01*
X82097531Y-96460500D01*
X81940954Y-96475439D01*
X81935198Y-96477128D01*
X81935196Y-96477128D01*
X81857679Y-96499869D01*
X81739451Y-96534553D01*
X81717715Y-96545748D01*
X81558092Y-96627959D01*
X81558089Y-96627961D01*
X81552761Y-96630705D01*
X81548046Y-96634409D01*
X81392338Y-96756718D01*
X81392333Y-96756722D01*
X81387621Y-96760424D01*
X81383690Y-96764954D01*
X81383689Y-96764955D01*
X81253921Y-96914498D01*
X81253917Y-96914503D01*
X81249990Y-96919029D01*
X81144834Y-97100799D01*
X81075947Y-97299174D01*
X81075086Y-97305109D01*
X81075086Y-97305111D01*
X81059701Y-97411223D01*
X81045814Y-97506996D01*
X77080011Y-97506996D01*
X77080011Y-94966996D01*
X81045814Y-94966996D01*
X81055523Y-95176767D01*
X81056927Y-95182592D01*
X81056927Y-95182593D01*
X81092833Y-95331577D01*
X81104724Y-95380918D01*
X81107206Y-95386376D01*
X81107207Y-95386380D01*
X81150320Y-95481201D01*
X81191640Y-95572081D01*
X81313137Y-95743360D01*
X81464831Y-95888575D01*
X81469866Y-95891826D01*
X81636209Y-95999233D01*
X81636212Y-95999234D01*
X81641246Y-96002485D01*
X81646809Y-96004727D01*
X81830455Y-96078739D01*
X81830458Y-96078740D01*
X81836019Y-96080981D01*
X81841900Y-96082129D01*
X81841905Y-96082131D01*
X82037676Y-96120362D01*
X82037679Y-96120362D01*
X82042122Y-96121230D01*
X82047643Y-96121500D01*
X83002469Y-96121500D01*
X83159046Y-96106561D01*
X83164802Y-96104872D01*
X83164804Y-96104872D01*
X83313096Y-96061368D01*
X83360549Y-96047447D01*
X83504671Y-95973219D01*
X83541908Y-95954041D01*
X83541911Y-95954039D01*
X83547239Y-95951295D01*
X83622947Y-95891826D01*
X83707662Y-95825282D01*
X83707667Y-95825278D01*
X83712379Y-95821576D01*
X83760019Y-95766676D01*
X83846079Y-95667502D01*
X83846083Y-95667497D01*
X83850010Y-95662971D01*
X83955166Y-95481201D01*
X84024053Y-95282826D01*
X84039431Y-95176767D01*
X84053325Y-95080944D01*
X84053325Y-95080941D01*
X84054186Y-95075004D01*
X84049187Y-94966996D01*
X106445814Y-94966996D01*
X106455523Y-95176767D01*
X106456927Y-95182592D01*
X106456927Y-95182593D01*
X106492833Y-95331577D01*
X106504724Y-95380918D01*
X106507206Y-95386376D01*
X106507207Y-95386380D01*
X106550320Y-95481201D01*
X106591640Y-95572081D01*
X106713137Y-95743360D01*
X106864831Y-95888575D01*
X106869866Y-95891826D01*
X107036209Y-95999233D01*
X107036212Y-95999234D01*
X107041246Y-96002485D01*
X107046809Y-96004727D01*
X107230455Y-96078739D01*
X107230458Y-96078740D01*
X107236019Y-96080981D01*
X107241900Y-96082129D01*
X107241905Y-96082131D01*
X107437676Y-96120362D01*
X107437679Y-96120362D01*
X107442122Y-96121230D01*
X107447643Y-96121500D01*
X108402469Y-96121500D01*
X108559046Y-96106561D01*
X108564802Y-96104872D01*
X108564804Y-96104872D01*
X108713096Y-96061368D01*
X108760549Y-96047447D01*
X108904671Y-95973219D01*
X108941908Y-95954041D01*
X108941911Y-95954039D01*
X108947239Y-95951295D01*
X109022947Y-95891826D01*
X109107662Y-95825282D01*
X109107667Y-95825278D01*
X109112379Y-95821576D01*
X109160019Y-95766676D01*
X109246079Y-95667502D01*
X109246083Y-95667497D01*
X109250010Y-95662971D01*
X109355166Y-95481201D01*
X109424053Y-95282826D01*
X109439431Y-95176767D01*
X109453325Y-95080944D01*
X109453325Y-95080941D01*
X109454186Y-95075004D01*
X109444477Y-94865233D01*
X109395276Y-94661082D01*
X109391243Y-94652210D01*
X109314737Y-94483944D01*
X109308360Y-94469919D01*
X109186863Y-94298640D01*
X109035169Y-94153425D01*
X108937016Y-94090048D01*
X108863791Y-94042767D01*
X108863788Y-94042766D01*
X108858754Y-94039515D01*
X108853191Y-94037273D01*
X108669545Y-93963261D01*
X108669542Y-93963260D01*
X108663981Y-93961019D01*
X108658100Y-93959871D01*
X108658095Y-93959869D01*
X108462324Y-93921638D01*
X108462321Y-93921638D01*
X108457878Y-93920770D01*
X108452357Y-93920500D01*
X107497531Y-93920500D01*
X107340954Y-93935439D01*
X107335198Y-93937128D01*
X107335196Y-93937128D01*
X107274736Y-93954865D01*
X107139451Y-93994553D01*
X107056505Y-94037273D01*
X106958092Y-94087959D01*
X106958089Y-94087961D01*
X106952761Y-94090705D01*
X106948046Y-94094409D01*
X106792338Y-94216718D01*
X106792333Y-94216722D01*
X106787621Y-94220424D01*
X106783690Y-94224954D01*
X106783689Y-94224955D01*
X106653921Y-94374498D01*
X106653917Y-94374503D01*
X106649990Y-94379029D01*
X106544834Y-94560799D01*
X106514213Y-94648978D01*
X106478396Y-94752123D01*
X106475947Y-94759174D01*
X106475086Y-94765109D01*
X106475086Y-94765111D01*
X106459701Y-94871223D01*
X106445814Y-94966996D01*
X84049187Y-94966996D01*
X84044477Y-94865233D01*
X83995276Y-94661082D01*
X83991243Y-94652210D01*
X83914737Y-94483944D01*
X83908360Y-94469919D01*
X83786863Y-94298640D01*
X83635169Y-94153425D01*
X83537016Y-94090048D01*
X83463791Y-94042767D01*
X83463788Y-94042766D01*
X83458754Y-94039515D01*
X83453191Y-94037273D01*
X83269545Y-93963261D01*
X83269542Y-93963260D01*
X83263981Y-93961019D01*
X83258100Y-93959871D01*
X83258095Y-93959869D01*
X83062324Y-93921638D01*
X83062321Y-93921638D01*
X83057878Y-93920770D01*
X83052357Y-93920500D01*
X82097531Y-93920500D01*
X81940954Y-93935439D01*
X81935198Y-93937128D01*
X81935196Y-93937128D01*
X81874736Y-93954865D01*
X81739451Y-93994553D01*
X81656505Y-94037273D01*
X81558092Y-94087959D01*
X81558089Y-94087961D01*
X81552761Y-94090705D01*
X81548046Y-94094409D01*
X81392338Y-94216718D01*
X81392333Y-94216722D01*
X81387621Y-94220424D01*
X81383690Y-94224954D01*
X81383689Y-94224955D01*
X81253921Y-94374498D01*
X81253917Y-94374503D01*
X81249990Y-94379029D01*
X81144834Y-94560799D01*
X81114213Y-94648978D01*
X81078396Y-94752123D01*
X81075947Y-94759174D01*
X81075086Y-94765109D01*
X81075086Y-94765111D01*
X81059701Y-94871223D01*
X81045814Y-94966996D01*
X77080011Y-94966996D01*
X77080011Y-93959152D01*
X77080303Y-93950582D01*
X77083673Y-93901157D01*
X77083673Y-93901153D01*
X77084189Y-93893581D01*
X77079922Y-93869133D01*
X77073333Y-93831379D01*
X77072370Y-93824853D01*
X77065700Y-93769737D01*
X77064787Y-93762191D01*
X77062102Y-93755084D01*
X77061293Y-93751791D01*
X77057334Y-93737320D01*
X77056345Y-93734044D01*
X77055038Y-93726557D01*
X77045645Y-93705158D01*
X77029665Y-93668753D01*
X77027173Y-93662648D01*
X77014686Y-93629603D01*
X77004856Y-93603588D01*
X77000558Y-93597335D01*
X76998974Y-93594304D01*
X76991689Y-93581217D01*
X76989942Y-93578263D01*
X76986889Y-93571308D01*
X76982263Y-93565279D01*
X76948457Y-93521222D01*
X76944579Y-93515885D01*
X76913125Y-93470119D01*
X76913124Y-93470117D01*
X76908823Y-93463860D01*
X76862863Y-93422911D01*
X76857586Y-93417930D01*
X76117404Y-92677747D01*
X76083379Y-92615435D01*
X76080500Y-92588652D01*
X76080500Y-92426996D01*
X81045814Y-92426996D01*
X81055523Y-92636767D01*
X81056927Y-92642592D01*
X81056927Y-92642593D01*
X81081084Y-92742826D01*
X81104724Y-92840918D01*
X81107206Y-92846376D01*
X81107207Y-92846380D01*
X81150320Y-92941201D01*
X81191640Y-93032081D01*
X81313137Y-93203360D01*
X81464831Y-93348575D01*
X81469866Y-93351826D01*
X81636209Y-93459233D01*
X81636212Y-93459234D01*
X81641246Y-93462485D01*
X81646809Y-93464727D01*
X81830455Y-93538739D01*
X81830458Y-93538740D01*
X81836019Y-93540981D01*
X81841900Y-93542129D01*
X81841905Y-93542131D01*
X82037676Y-93580362D01*
X82037679Y-93580362D01*
X82042122Y-93581230D01*
X82047643Y-93581500D01*
X83002469Y-93581500D01*
X83159046Y-93566561D01*
X83164802Y-93564872D01*
X83164804Y-93564872D01*
X83253883Y-93538739D01*
X83360549Y-93507447D01*
X83481436Y-93445186D01*
X83541908Y-93414041D01*
X83541911Y-93414039D01*
X83547239Y-93411295D01*
X83622947Y-93351826D01*
X83707662Y-93285282D01*
X83707667Y-93285278D01*
X83712379Y-93281576D01*
X83748820Y-93239582D01*
X83846079Y-93127502D01*
X83846083Y-93127497D01*
X83850010Y-93122971D01*
X83955166Y-92941201D01*
X84024053Y-92742826D01*
X84039431Y-92636767D01*
X84053325Y-92540944D01*
X84053325Y-92540941D01*
X84054186Y-92535004D01*
X84049187Y-92426996D01*
X106445814Y-92426996D01*
X106455523Y-92636767D01*
X106456927Y-92642592D01*
X106456927Y-92642593D01*
X106481084Y-92742826D01*
X106504724Y-92840918D01*
X106507206Y-92846376D01*
X106507207Y-92846380D01*
X106550320Y-92941201D01*
X106591640Y-93032081D01*
X106713137Y-93203360D01*
X106864831Y-93348575D01*
X106869866Y-93351826D01*
X107036209Y-93459233D01*
X107036212Y-93459234D01*
X107041246Y-93462485D01*
X107046809Y-93464727D01*
X107230455Y-93538739D01*
X107230458Y-93538740D01*
X107236019Y-93540981D01*
X107241900Y-93542129D01*
X107241905Y-93542131D01*
X107437676Y-93580362D01*
X107437679Y-93580362D01*
X107442122Y-93581230D01*
X107447643Y-93581500D01*
X108402469Y-93581500D01*
X108559046Y-93566561D01*
X108564802Y-93564872D01*
X108564804Y-93564872D01*
X108653883Y-93538739D01*
X108760549Y-93507447D01*
X108881436Y-93445186D01*
X108941908Y-93414041D01*
X108941911Y-93414039D01*
X108947239Y-93411295D01*
X109022947Y-93351826D01*
X109107662Y-93285282D01*
X109107667Y-93285278D01*
X109112379Y-93281576D01*
X109148820Y-93239582D01*
X109246079Y-93127502D01*
X109246083Y-93127497D01*
X109250010Y-93122971D01*
X109355166Y-92941201D01*
X109424053Y-92742826D01*
X109439431Y-92636767D01*
X109453325Y-92540944D01*
X109453325Y-92540941D01*
X109454186Y-92535004D01*
X109444477Y-92325233D01*
X109395276Y-92121082D01*
X109352258Y-92026467D01*
X109310840Y-91935374D01*
X109308360Y-91929919D01*
X109186863Y-91758640D01*
X109035169Y-91613425D01*
X109004140Y-91593390D01*
X108863791Y-91502767D01*
X108863788Y-91502766D01*
X108858754Y-91499515D01*
X108815252Y-91481983D01*
X108669545Y-91423261D01*
X108669542Y-91423260D01*
X108663981Y-91421019D01*
X108658100Y-91419871D01*
X108658095Y-91419869D01*
X108462324Y-91381638D01*
X108462321Y-91381638D01*
X108457878Y-91380770D01*
X108452357Y-91380500D01*
X107497531Y-91380500D01*
X107340954Y-91395439D01*
X107335198Y-91397128D01*
X107335196Y-91397128D01*
X107315136Y-91403013D01*
X107139451Y-91454553D01*
X107072011Y-91489287D01*
X106958092Y-91547959D01*
X106958089Y-91547961D01*
X106952761Y-91550705D01*
X106912013Y-91582713D01*
X106792338Y-91676718D01*
X106792333Y-91676722D01*
X106787621Y-91680424D01*
X106783690Y-91684954D01*
X106783689Y-91684955D01*
X106653921Y-91834498D01*
X106653917Y-91834503D01*
X106649990Y-91839029D01*
X106544834Y-92020799D01*
X106475947Y-92219174D01*
X106475086Y-92225109D01*
X106475086Y-92225111D01*
X106459701Y-92331223D01*
X106445814Y-92426996D01*
X84049187Y-92426996D01*
X84044477Y-92325233D01*
X83995276Y-92121082D01*
X83952258Y-92026467D01*
X83910840Y-91935374D01*
X83908360Y-91929919D01*
X83786863Y-91758640D01*
X83635169Y-91613425D01*
X83604140Y-91593390D01*
X83463791Y-91502767D01*
X83463788Y-91502766D01*
X83458754Y-91499515D01*
X83415252Y-91481983D01*
X83269545Y-91423261D01*
X83269542Y-91423260D01*
X83263981Y-91421019D01*
X83258100Y-91419871D01*
X83258095Y-91419869D01*
X83062324Y-91381638D01*
X83062321Y-91381638D01*
X83057878Y-91380770D01*
X83052357Y-91380500D01*
X82097531Y-91380500D01*
X81940954Y-91395439D01*
X81935198Y-91397128D01*
X81935196Y-91397128D01*
X81915136Y-91403013D01*
X81739451Y-91454553D01*
X81672011Y-91489287D01*
X81558092Y-91547959D01*
X81558089Y-91547961D01*
X81552761Y-91550705D01*
X81512013Y-91582713D01*
X81392338Y-91676718D01*
X81392333Y-91676722D01*
X81387621Y-91680424D01*
X81383690Y-91684954D01*
X81383689Y-91684955D01*
X81253921Y-91834498D01*
X81253917Y-91834503D01*
X81249990Y-91839029D01*
X81144834Y-92020799D01*
X81075947Y-92219174D01*
X81075086Y-92225109D01*
X81075086Y-92225111D01*
X81059701Y-92331223D01*
X81045814Y-92426996D01*
X76080500Y-92426996D01*
X76080500Y-92373347D01*
X76100502Y-92305226D01*
X76117405Y-92284251D01*
X76471738Y-91929919D01*
X76854592Y-91547065D01*
X76860858Y-91541212D01*
X76898180Y-91508654D01*
X76903907Y-91503658D01*
X76940213Y-91451999D01*
X76944138Y-91446715D01*
X76964286Y-91421019D01*
X76983094Y-91397032D01*
X76986222Y-91390105D01*
X76987997Y-91387174D01*
X76995414Y-91374171D01*
X76997030Y-91371157D01*
X77001398Y-91364942D01*
X77004157Y-91357866D01*
X77004159Y-91357862D01*
X77024330Y-91306125D01*
X77026886Y-91300044D01*
X77049742Y-91249424D01*
X77049742Y-91249423D01*
X77052866Y-91242505D01*
X77054250Y-91235039D01*
X77055268Y-91231790D01*
X77059388Y-91217325D01*
X77060228Y-91214052D01*
X77062987Y-91206976D01*
X77071227Y-91144383D01*
X77072259Y-91137866D01*
X77082379Y-91083264D01*
X77083763Y-91075797D01*
X77080220Y-91014345D01*
X77080011Y-91007093D01*
X77080011Y-89886996D01*
X81045814Y-89886996D01*
X81055523Y-90096767D01*
X81056927Y-90102592D01*
X81056927Y-90102593D01*
X81081084Y-90202826D01*
X81104724Y-90300918D01*
X81107206Y-90306376D01*
X81107207Y-90306380D01*
X81150320Y-90401201D01*
X81191640Y-90492081D01*
X81313137Y-90663360D01*
X81464831Y-90808575D01*
X81469866Y-90811826D01*
X81636209Y-90919233D01*
X81636212Y-90919234D01*
X81641246Y-90922485D01*
X81646809Y-90924727D01*
X81830455Y-90998739D01*
X81830458Y-90998740D01*
X81836019Y-91000981D01*
X81841900Y-91002129D01*
X81841905Y-91002131D01*
X82037676Y-91040362D01*
X82037679Y-91040362D01*
X82042122Y-91041230D01*
X82047643Y-91041500D01*
X83002469Y-91041500D01*
X83159046Y-91026561D01*
X83164802Y-91024872D01*
X83164804Y-91024872D01*
X83253883Y-90998739D01*
X83360549Y-90967447D01*
X83460947Y-90915739D01*
X83541908Y-90874041D01*
X83541911Y-90874039D01*
X83547239Y-90871295D01*
X83622947Y-90811826D01*
X83707662Y-90745282D01*
X83707667Y-90745278D01*
X83712379Y-90741576D01*
X83757879Y-90689142D01*
X83846079Y-90587502D01*
X83846083Y-90587497D01*
X83850010Y-90582971D01*
X83955166Y-90401201D01*
X84024053Y-90202826D01*
X84039431Y-90096767D01*
X84053325Y-90000944D01*
X84053325Y-90000941D01*
X84054186Y-89995004D01*
X84044477Y-89785233D01*
X83995276Y-89581082D01*
X83952258Y-89486467D01*
X83910840Y-89395374D01*
X83908360Y-89389919D01*
X83786863Y-89218640D01*
X83635169Y-89073425D01*
X83538033Y-89010705D01*
X83463791Y-88962767D01*
X83463788Y-88962766D01*
X83458754Y-88959515D01*
X83453191Y-88957273D01*
X83269545Y-88883261D01*
X83269542Y-88883260D01*
X83263981Y-88881019D01*
X83258100Y-88879871D01*
X83258095Y-88879869D01*
X83062324Y-88841638D01*
X83062321Y-88841638D01*
X83057878Y-88840770D01*
X83052357Y-88840500D01*
X82097531Y-88840500D01*
X81940954Y-88855439D01*
X81935198Y-88857128D01*
X81935196Y-88857128D01*
X81857679Y-88879869D01*
X81739451Y-88914553D01*
X81656505Y-88957273D01*
X81558092Y-89007959D01*
X81558089Y-89007961D01*
X81552761Y-89010705D01*
X81548046Y-89014409D01*
X81392338Y-89136718D01*
X81392333Y-89136722D01*
X81387621Y-89140424D01*
X81383690Y-89144954D01*
X81383689Y-89144955D01*
X81253921Y-89294498D01*
X81253917Y-89294503D01*
X81249990Y-89299029D01*
X81144834Y-89480799D01*
X81075947Y-89679174D01*
X81075086Y-89685109D01*
X81075086Y-89685111D01*
X81059701Y-89791223D01*
X81045814Y-89886996D01*
X77080011Y-89886996D01*
X77080011Y-87346996D01*
X81045814Y-87346996D01*
X81055523Y-87556767D01*
X81056927Y-87562592D01*
X81056927Y-87562593D01*
X81081084Y-87662826D01*
X81104724Y-87760918D01*
X81107206Y-87766376D01*
X81107207Y-87766380D01*
X81150320Y-87861201D01*
X81191640Y-87952081D01*
X81313137Y-88123360D01*
X81464831Y-88268575D01*
X81469866Y-88271826D01*
X81636209Y-88379233D01*
X81636212Y-88379234D01*
X81641246Y-88382485D01*
X81646809Y-88384727D01*
X81830455Y-88458739D01*
X81830458Y-88458740D01*
X81836019Y-88460981D01*
X81841900Y-88462129D01*
X81841905Y-88462131D01*
X82037676Y-88500362D01*
X82037679Y-88500362D01*
X82042122Y-88501230D01*
X82047643Y-88501500D01*
X83002469Y-88501500D01*
X83159046Y-88486561D01*
X83164802Y-88484872D01*
X83164804Y-88484872D01*
X83253883Y-88458739D01*
X83360549Y-88427447D01*
X83487606Y-88362008D01*
X83541908Y-88334041D01*
X83541911Y-88334039D01*
X83547239Y-88331295D01*
X83622947Y-88271826D01*
X83707662Y-88205282D01*
X83707667Y-88205278D01*
X83712379Y-88201576D01*
X83723501Y-88188759D01*
X83846079Y-88047502D01*
X83846083Y-88047497D01*
X83850010Y-88042971D01*
X83955166Y-87861201D01*
X84022422Y-87667522D01*
X106267273Y-87667522D01*
X106314764Y-87844761D01*
X106318510Y-87855053D01*
X106410586Y-88052511D01*
X106416069Y-88062007D01*
X106541028Y-88240467D01*
X106548084Y-88248875D01*
X106702125Y-88402916D01*
X106710533Y-88409972D01*
X106888993Y-88534931D01*
X106898489Y-88540414D01*
X107095947Y-88632490D01*
X107106239Y-88636236D01*
X107185713Y-88657531D01*
X107246336Y-88694483D01*
X107277357Y-88758344D01*
X107268929Y-88828838D01*
X107223726Y-88883585D01*
X107188572Y-88900143D01*
X107139451Y-88914553D01*
X107056505Y-88957273D01*
X106958092Y-89007959D01*
X106958089Y-89007961D01*
X106952761Y-89010705D01*
X106948046Y-89014409D01*
X106792338Y-89136718D01*
X106792333Y-89136722D01*
X106787621Y-89140424D01*
X106783690Y-89144954D01*
X106783689Y-89144955D01*
X106653921Y-89294498D01*
X106653917Y-89294503D01*
X106649990Y-89299029D01*
X106544834Y-89480799D01*
X106475947Y-89679174D01*
X106475086Y-89685109D01*
X106475086Y-89685111D01*
X106459701Y-89791223D01*
X106445814Y-89886996D01*
X106455523Y-90096767D01*
X106456927Y-90102592D01*
X106456927Y-90102593D01*
X106481084Y-90202826D01*
X106504724Y-90300918D01*
X106507206Y-90306376D01*
X106507207Y-90306380D01*
X106550320Y-90401201D01*
X106591640Y-90492081D01*
X106713137Y-90663360D01*
X106864831Y-90808575D01*
X106869866Y-90811826D01*
X107036209Y-90919233D01*
X107036212Y-90919234D01*
X107041246Y-90922485D01*
X107046809Y-90924727D01*
X107230455Y-90998739D01*
X107230458Y-90998740D01*
X107236019Y-91000981D01*
X107241900Y-91002129D01*
X107241905Y-91002131D01*
X107437676Y-91040362D01*
X107437679Y-91040362D01*
X107442122Y-91041230D01*
X107447643Y-91041500D01*
X108402469Y-91041500D01*
X108559046Y-91026561D01*
X108564802Y-91024872D01*
X108564804Y-91024872D01*
X108653883Y-90998739D01*
X108760549Y-90967447D01*
X108860947Y-90915739D01*
X108941908Y-90874041D01*
X108941911Y-90874039D01*
X108947239Y-90871295D01*
X109022947Y-90811826D01*
X109107662Y-90745282D01*
X109107667Y-90745278D01*
X109112379Y-90741576D01*
X109157879Y-90689142D01*
X109246079Y-90587502D01*
X109246083Y-90587497D01*
X109250010Y-90582971D01*
X109355166Y-90401201D01*
X109424053Y-90202826D01*
X109439431Y-90096767D01*
X109453325Y-90000944D01*
X109453325Y-90000941D01*
X109454186Y-89995004D01*
X109444477Y-89785233D01*
X109395276Y-89581082D01*
X109352258Y-89486467D01*
X109310840Y-89395374D01*
X109308360Y-89389919D01*
X109186863Y-89218640D01*
X109035169Y-89073425D01*
X108938033Y-89010705D01*
X108863791Y-88962767D01*
X108863788Y-88962766D01*
X108858754Y-88959515D01*
X108753998Y-88917297D01*
X108700767Y-88895844D01*
X108645061Y-88851829D01*
X108621995Y-88784683D01*
X108638892Y-88715727D01*
X108690388Y-88666852D01*
X108715255Y-88657271D01*
X108793761Y-88636236D01*
X108804053Y-88632490D01*
X109001511Y-88540414D01*
X109011007Y-88534931D01*
X109189467Y-88409972D01*
X109197875Y-88402916D01*
X109351916Y-88248875D01*
X109358972Y-88240467D01*
X109483931Y-88062007D01*
X109489414Y-88052511D01*
X109581490Y-87855053D01*
X109585236Y-87844761D01*
X109631394Y-87672497D01*
X109631058Y-87658401D01*
X109623116Y-87655000D01*
X106282033Y-87655000D01*
X106268502Y-87658973D01*
X106267273Y-87667522D01*
X84022422Y-87667522D01*
X84024053Y-87662826D01*
X84024914Y-87656889D01*
X84053325Y-87460944D01*
X84053325Y-87460941D01*
X84054186Y-87455004D01*
X84044477Y-87245233D01*
X84016586Y-87129503D01*
X106268606Y-87129503D01*
X106268942Y-87143599D01*
X106276884Y-87147000D01*
X109617967Y-87147000D01*
X109631498Y-87143027D01*
X109632727Y-87134478D01*
X109585236Y-86957239D01*
X109581490Y-86946947D01*
X109489414Y-86749489D01*
X109483931Y-86739993D01*
X109358972Y-86561533D01*
X109351916Y-86553125D01*
X109197875Y-86399084D01*
X109189467Y-86392028D01*
X109011007Y-86267069D01*
X109001511Y-86261586D01*
X108804053Y-86169510D01*
X108793761Y-86165764D01*
X108714287Y-86144469D01*
X108653664Y-86107517D01*
X108622643Y-86043656D01*
X108631071Y-85973162D01*
X108676274Y-85918415D01*
X108711429Y-85901857D01*
X108713096Y-85901368D01*
X108760549Y-85887447D01*
X108904671Y-85813219D01*
X108941908Y-85794041D01*
X108941911Y-85794039D01*
X108947239Y-85791295D01*
X109022947Y-85731826D01*
X109107662Y-85665282D01*
X109107667Y-85665278D01*
X109112379Y-85661576D01*
X109160019Y-85606676D01*
X109246079Y-85507502D01*
X109246083Y-85507497D01*
X109250010Y-85502971D01*
X109355166Y-85321201D01*
X109424053Y-85122826D01*
X109439431Y-85016767D01*
X109453325Y-84920944D01*
X109453325Y-84920941D01*
X109454186Y-84915004D01*
X109444477Y-84705233D01*
X109395276Y-84501082D01*
X109391243Y-84492210D01*
X109314737Y-84323944D01*
X109308360Y-84309919D01*
X109186863Y-84138640D01*
X109035169Y-83993425D01*
X108937016Y-83930048D01*
X108863791Y-83882767D01*
X108863788Y-83882766D01*
X108858754Y-83879515D01*
X108853191Y-83877273D01*
X108669545Y-83803261D01*
X108669542Y-83803260D01*
X108663981Y-83801019D01*
X108658100Y-83799871D01*
X108658095Y-83799869D01*
X108462324Y-83761638D01*
X108462321Y-83761638D01*
X108457878Y-83760770D01*
X108452357Y-83760500D01*
X107497531Y-83760500D01*
X107340954Y-83775439D01*
X107335198Y-83777128D01*
X107335196Y-83777128D01*
X107274736Y-83794865D01*
X107139451Y-83834553D01*
X107056505Y-83877273D01*
X106958092Y-83927959D01*
X106958089Y-83927961D01*
X106952761Y-83930705D01*
X106948046Y-83934409D01*
X106792338Y-84056718D01*
X106792333Y-84056722D01*
X106787621Y-84060424D01*
X106783690Y-84064954D01*
X106783689Y-84064955D01*
X106653921Y-84214498D01*
X106653917Y-84214503D01*
X106649990Y-84219029D01*
X106544834Y-84400799D01*
X106514213Y-84488978D01*
X106478396Y-84592123D01*
X106475947Y-84599174D01*
X106475086Y-84605109D01*
X106475086Y-84605111D01*
X106459701Y-84711223D01*
X106445814Y-84806996D01*
X106455523Y-85016767D01*
X106456927Y-85022592D01*
X106456927Y-85022593D01*
X106492833Y-85171577D01*
X106504724Y-85220918D01*
X106507206Y-85226376D01*
X106507207Y-85226380D01*
X106550320Y-85321201D01*
X106591640Y-85412081D01*
X106713137Y-85583360D01*
X106864831Y-85728575D01*
X106869866Y-85731826D01*
X107036209Y-85839233D01*
X107036212Y-85839234D01*
X107041246Y-85842485D01*
X107046809Y-85844727D01*
X107199233Y-85906156D01*
X107254939Y-85950171D01*
X107278005Y-86017317D01*
X107261108Y-86086273D01*
X107209612Y-86135148D01*
X107184745Y-86144729D01*
X107106239Y-86165764D01*
X107095947Y-86169510D01*
X106898489Y-86261586D01*
X106888993Y-86267069D01*
X106710533Y-86392028D01*
X106702125Y-86399084D01*
X106548084Y-86553125D01*
X106541028Y-86561533D01*
X106416069Y-86739993D01*
X106410586Y-86749489D01*
X106318510Y-86946947D01*
X106314764Y-86957239D01*
X106268606Y-87129503D01*
X84016586Y-87129503D01*
X83995276Y-87041082D01*
X83952258Y-86946467D01*
X83910840Y-86855374D01*
X83908360Y-86849919D01*
X83786863Y-86678640D01*
X83635169Y-86533425D01*
X83538033Y-86470705D01*
X83463791Y-86422767D01*
X83463788Y-86422766D01*
X83458754Y-86419515D01*
X83453191Y-86417273D01*
X83269545Y-86343261D01*
X83269542Y-86343260D01*
X83263981Y-86341019D01*
X83258100Y-86339871D01*
X83258095Y-86339869D01*
X83062324Y-86301638D01*
X83062321Y-86301638D01*
X83057878Y-86300770D01*
X83052357Y-86300500D01*
X82097531Y-86300500D01*
X81940954Y-86315439D01*
X81935198Y-86317128D01*
X81935196Y-86317128D01*
X81857679Y-86339869D01*
X81739451Y-86374553D01*
X81656505Y-86417273D01*
X81558092Y-86467959D01*
X81558089Y-86467961D01*
X81552761Y-86470705D01*
X81548046Y-86474409D01*
X81392338Y-86596718D01*
X81392333Y-86596722D01*
X81387621Y-86600424D01*
X81383690Y-86604954D01*
X81383689Y-86604955D01*
X81253921Y-86754498D01*
X81253917Y-86754503D01*
X81249990Y-86759029D01*
X81144834Y-86940799D01*
X81075947Y-87139174D01*
X81075086Y-87145109D01*
X81075086Y-87145111D01*
X81059701Y-87251223D01*
X81045814Y-87346996D01*
X77080011Y-87346996D01*
X77080011Y-84806996D01*
X81045814Y-84806996D01*
X81055523Y-85016767D01*
X81056927Y-85022592D01*
X81056927Y-85022593D01*
X81092833Y-85171577D01*
X81104724Y-85220918D01*
X81107206Y-85226376D01*
X81107207Y-85226380D01*
X81150320Y-85321201D01*
X81191640Y-85412081D01*
X81313137Y-85583360D01*
X81464831Y-85728575D01*
X81469866Y-85731826D01*
X81636209Y-85839233D01*
X81636212Y-85839234D01*
X81641246Y-85842485D01*
X81646809Y-85844727D01*
X81830455Y-85918739D01*
X81830458Y-85918740D01*
X81836019Y-85920981D01*
X81841900Y-85922129D01*
X81841905Y-85922131D01*
X82037676Y-85960362D01*
X82037679Y-85960362D01*
X82042122Y-85961230D01*
X82047643Y-85961500D01*
X83002469Y-85961500D01*
X83159046Y-85946561D01*
X83164802Y-85944872D01*
X83164804Y-85944872D01*
X83313096Y-85901368D01*
X83360549Y-85887447D01*
X83504671Y-85813219D01*
X83541908Y-85794041D01*
X83541911Y-85794039D01*
X83547239Y-85791295D01*
X83622947Y-85731826D01*
X83707662Y-85665282D01*
X83707667Y-85665278D01*
X83712379Y-85661576D01*
X83760019Y-85606676D01*
X83846079Y-85507502D01*
X83846083Y-85507497D01*
X83850010Y-85502971D01*
X83955166Y-85321201D01*
X84024053Y-85122826D01*
X84039431Y-85016767D01*
X84053325Y-84920944D01*
X84053325Y-84920941D01*
X84054186Y-84915004D01*
X84044477Y-84705233D01*
X83995276Y-84501082D01*
X83991243Y-84492210D01*
X83914737Y-84323944D01*
X83908360Y-84309919D01*
X83786863Y-84138640D01*
X83635169Y-83993425D01*
X83537016Y-83930048D01*
X83463791Y-83882767D01*
X83463788Y-83882766D01*
X83458754Y-83879515D01*
X83453191Y-83877273D01*
X83269545Y-83803261D01*
X83269542Y-83803260D01*
X83263981Y-83801019D01*
X83258100Y-83799871D01*
X83258095Y-83799869D01*
X83062324Y-83761638D01*
X83062321Y-83761638D01*
X83057878Y-83760770D01*
X83052357Y-83760500D01*
X82097531Y-83760500D01*
X81940954Y-83775439D01*
X81935198Y-83777128D01*
X81935196Y-83777128D01*
X81874736Y-83794865D01*
X81739451Y-83834553D01*
X81656505Y-83877273D01*
X81558092Y-83927959D01*
X81558089Y-83927961D01*
X81552761Y-83930705D01*
X81548046Y-83934409D01*
X81392338Y-84056718D01*
X81392333Y-84056722D01*
X81387621Y-84060424D01*
X81383690Y-84064954D01*
X81383689Y-84064955D01*
X81253921Y-84214498D01*
X81253917Y-84214503D01*
X81249990Y-84219029D01*
X81144834Y-84400799D01*
X81114213Y-84488978D01*
X81078396Y-84592123D01*
X81075947Y-84599174D01*
X81075086Y-84605109D01*
X81075086Y-84605111D01*
X81059701Y-84711223D01*
X81045814Y-84806996D01*
X77080011Y-84806996D01*
X77080011Y-83799152D01*
X77080303Y-83790582D01*
X77083673Y-83741157D01*
X77083673Y-83741153D01*
X77084189Y-83733581D01*
X77079922Y-83709133D01*
X77073333Y-83671379D01*
X77072370Y-83664853D01*
X77065700Y-83609737D01*
X77064787Y-83602191D01*
X77062102Y-83595084D01*
X77061293Y-83591791D01*
X77057334Y-83577320D01*
X77056345Y-83574044D01*
X77055038Y-83566557D01*
X77045645Y-83545158D01*
X77029665Y-83508753D01*
X77027173Y-83502648D01*
X77014686Y-83469603D01*
X77004856Y-83443588D01*
X77000558Y-83437335D01*
X76998974Y-83434304D01*
X76991689Y-83421217D01*
X76989942Y-83418263D01*
X76986889Y-83411308D01*
X76982263Y-83405279D01*
X76948457Y-83361222D01*
X76944579Y-83355885D01*
X76913125Y-83310119D01*
X76913124Y-83310117D01*
X76908823Y-83303860D01*
X76862863Y-83262911D01*
X76857586Y-83257930D01*
X76117404Y-82517747D01*
X76083379Y-82455435D01*
X76080500Y-82428652D01*
X76080500Y-82266996D01*
X81045814Y-82266996D01*
X81055523Y-82476767D01*
X81056927Y-82482592D01*
X81056927Y-82482593D01*
X81081084Y-82582826D01*
X81104724Y-82680918D01*
X81107206Y-82686376D01*
X81107207Y-82686380D01*
X81150320Y-82781201D01*
X81191640Y-82872081D01*
X81313137Y-83043360D01*
X81464831Y-83188575D01*
X81469866Y-83191826D01*
X81636209Y-83299233D01*
X81636212Y-83299234D01*
X81641246Y-83302485D01*
X81646809Y-83304727D01*
X81830455Y-83378739D01*
X81830458Y-83378740D01*
X81836019Y-83380981D01*
X81841900Y-83382129D01*
X81841905Y-83382131D01*
X82037676Y-83420362D01*
X82037679Y-83420362D01*
X82042122Y-83421230D01*
X82047643Y-83421500D01*
X83002469Y-83421500D01*
X83159046Y-83406561D01*
X83164802Y-83404872D01*
X83164804Y-83404872D01*
X83253883Y-83378739D01*
X83360549Y-83347447D01*
X83481436Y-83285186D01*
X83541908Y-83254041D01*
X83541911Y-83254039D01*
X83547239Y-83251295D01*
X83622947Y-83191826D01*
X83707662Y-83125282D01*
X83707667Y-83125278D01*
X83712379Y-83121576D01*
X83748820Y-83079582D01*
X83846079Y-82967502D01*
X83846083Y-82967497D01*
X83850010Y-82962971D01*
X83955166Y-82781201D01*
X83996828Y-82661225D01*
X84022086Y-82588491D01*
X84022086Y-82588489D01*
X84024053Y-82582826D01*
X84024914Y-82576889D01*
X84053325Y-82380944D01*
X84053325Y-82380941D01*
X84054186Y-82375004D01*
X84049187Y-82266996D01*
X106445814Y-82266996D01*
X106455523Y-82476767D01*
X106456927Y-82482592D01*
X106456927Y-82482593D01*
X106481084Y-82582826D01*
X106504724Y-82680918D01*
X106507206Y-82686376D01*
X106507207Y-82686380D01*
X106550320Y-82781201D01*
X106591640Y-82872081D01*
X106713137Y-83043360D01*
X106864831Y-83188575D01*
X106869866Y-83191826D01*
X107036209Y-83299233D01*
X107036212Y-83299234D01*
X107041246Y-83302485D01*
X107046809Y-83304727D01*
X107230455Y-83378739D01*
X107230458Y-83378740D01*
X107236019Y-83380981D01*
X107241900Y-83382129D01*
X107241905Y-83382131D01*
X107437676Y-83420362D01*
X107437679Y-83420362D01*
X107442122Y-83421230D01*
X107447643Y-83421500D01*
X108402469Y-83421500D01*
X108559046Y-83406561D01*
X108564802Y-83404872D01*
X108564804Y-83404872D01*
X108653883Y-83378739D01*
X108760549Y-83347447D01*
X108881436Y-83285186D01*
X108941908Y-83254041D01*
X108941911Y-83254039D01*
X108947239Y-83251295D01*
X109022947Y-83191826D01*
X109107662Y-83125282D01*
X109107667Y-83125278D01*
X109112379Y-83121576D01*
X109148820Y-83079582D01*
X109246079Y-82967502D01*
X109246083Y-82967497D01*
X109250010Y-82962971D01*
X109355166Y-82781201D01*
X109396828Y-82661225D01*
X109422086Y-82588491D01*
X109422086Y-82588489D01*
X109424053Y-82582826D01*
X109424914Y-82576889D01*
X109453325Y-82380944D01*
X109453325Y-82380941D01*
X109454186Y-82375004D01*
X109444477Y-82165233D01*
X109395276Y-81961082D01*
X109352258Y-81866467D01*
X109310840Y-81775374D01*
X109308360Y-81769919D01*
X109186863Y-81598640D01*
X109035169Y-81453425D01*
X109004140Y-81433390D01*
X108863791Y-81342767D01*
X108863788Y-81342766D01*
X108858754Y-81339515D01*
X108853191Y-81337273D01*
X108669545Y-81263261D01*
X108669542Y-81263260D01*
X108663981Y-81261019D01*
X108658100Y-81259871D01*
X108658095Y-81259869D01*
X108462324Y-81221638D01*
X108462321Y-81221638D01*
X108457878Y-81220770D01*
X108452357Y-81220500D01*
X107497531Y-81220500D01*
X107340954Y-81235439D01*
X107335198Y-81237128D01*
X107335196Y-81237128D01*
X107257679Y-81259869D01*
X107139451Y-81294553D01*
X107056505Y-81337273D01*
X106958092Y-81387959D01*
X106958089Y-81387961D01*
X106952761Y-81390705D01*
X106912013Y-81422713D01*
X106792338Y-81516718D01*
X106792333Y-81516722D01*
X106787621Y-81520424D01*
X106783690Y-81524954D01*
X106783689Y-81524955D01*
X106653921Y-81674498D01*
X106653917Y-81674503D01*
X106649990Y-81679029D01*
X106544834Y-81860799D01*
X106475947Y-82059174D01*
X106475086Y-82065109D01*
X106475086Y-82065111D01*
X106448707Y-82247046D01*
X106445814Y-82266996D01*
X84049187Y-82266996D01*
X84044477Y-82165233D01*
X83995276Y-81961082D01*
X83952258Y-81866467D01*
X83910840Y-81775374D01*
X83908360Y-81769919D01*
X83786863Y-81598640D01*
X83635169Y-81453425D01*
X83604140Y-81433390D01*
X83463791Y-81342767D01*
X83463788Y-81342766D01*
X83458754Y-81339515D01*
X83453191Y-81337273D01*
X83269545Y-81263261D01*
X83269542Y-81263260D01*
X83263981Y-81261019D01*
X83258100Y-81259871D01*
X83258095Y-81259869D01*
X83062324Y-81221638D01*
X83062321Y-81221638D01*
X83057878Y-81220770D01*
X83052357Y-81220500D01*
X82097531Y-81220500D01*
X81940954Y-81235439D01*
X81935198Y-81237128D01*
X81935196Y-81237128D01*
X81857679Y-81259869D01*
X81739451Y-81294553D01*
X81656505Y-81337273D01*
X81558092Y-81387959D01*
X81558089Y-81387961D01*
X81552761Y-81390705D01*
X81512013Y-81422713D01*
X81392338Y-81516718D01*
X81392333Y-81516722D01*
X81387621Y-81520424D01*
X81383690Y-81524954D01*
X81383689Y-81524955D01*
X81253921Y-81674498D01*
X81253917Y-81674503D01*
X81249990Y-81679029D01*
X81144834Y-81860799D01*
X81075947Y-82059174D01*
X81075086Y-82065109D01*
X81075086Y-82065111D01*
X81048707Y-82247046D01*
X81045814Y-82266996D01*
X76080500Y-82266996D01*
X76080500Y-82213346D01*
X76100502Y-82145225D01*
X76117405Y-82124251D01*
X78299064Y-79942593D01*
X78514661Y-79726996D01*
X81045814Y-79726996D01*
X81055523Y-79936767D01*
X81056927Y-79942592D01*
X81056927Y-79942593D01*
X81081084Y-80042826D01*
X81104724Y-80140918D01*
X81107206Y-80146376D01*
X81107207Y-80146380D01*
X81150320Y-80241201D01*
X81191640Y-80332081D01*
X81313137Y-80503360D01*
X81464831Y-80648575D01*
X81469866Y-80651826D01*
X81636209Y-80759233D01*
X81636212Y-80759234D01*
X81641246Y-80762485D01*
X81646809Y-80764727D01*
X81830455Y-80838739D01*
X81830458Y-80838740D01*
X81836019Y-80840981D01*
X81841900Y-80842129D01*
X81841905Y-80842131D01*
X82037676Y-80880362D01*
X82037679Y-80880362D01*
X82042122Y-80881230D01*
X82047643Y-80881500D01*
X83002469Y-80881500D01*
X83159046Y-80866561D01*
X83164802Y-80864872D01*
X83164804Y-80864872D01*
X83253883Y-80838739D01*
X83360549Y-80807447D01*
X83477912Y-80747001D01*
X83541908Y-80714041D01*
X83541911Y-80714039D01*
X83547239Y-80711295D01*
X83622947Y-80651826D01*
X83707662Y-80585282D01*
X83707667Y-80585278D01*
X83712379Y-80581576D01*
X83769819Y-80515383D01*
X83846079Y-80427502D01*
X83846083Y-80427497D01*
X83850010Y-80422971D01*
X83955166Y-80241201D01*
X84024053Y-80042826D01*
X84039431Y-79936767D01*
X84053325Y-79840944D01*
X84053325Y-79840941D01*
X84054186Y-79835004D01*
X84049187Y-79726996D01*
X106445814Y-79726996D01*
X106455523Y-79936767D01*
X106456927Y-79942592D01*
X106456927Y-79942593D01*
X106481084Y-80042826D01*
X106504724Y-80140918D01*
X106507206Y-80146376D01*
X106507207Y-80146380D01*
X106550320Y-80241201D01*
X106591640Y-80332081D01*
X106713137Y-80503360D01*
X106864831Y-80648575D01*
X106869866Y-80651826D01*
X107036209Y-80759233D01*
X107036212Y-80759234D01*
X107041246Y-80762485D01*
X107046809Y-80764727D01*
X107230455Y-80838739D01*
X107230458Y-80838740D01*
X107236019Y-80840981D01*
X107241900Y-80842129D01*
X107241905Y-80842131D01*
X107437676Y-80880362D01*
X107437679Y-80880362D01*
X107442122Y-80881230D01*
X107447643Y-80881500D01*
X108402469Y-80881500D01*
X108559046Y-80866561D01*
X108564802Y-80864872D01*
X108564804Y-80864872D01*
X108653883Y-80838739D01*
X108760549Y-80807447D01*
X108877912Y-80747001D01*
X108941908Y-80714041D01*
X108941911Y-80714039D01*
X108947239Y-80711295D01*
X109022947Y-80651826D01*
X109107662Y-80585282D01*
X109107667Y-80585278D01*
X109112379Y-80581576D01*
X109169819Y-80515383D01*
X109246079Y-80427502D01*
X109246083Y-80427497D01*
X109250010Y-80422971D01*
X109355166Y-80241201D01*
X109424053Y-80042826D01*
X109439431Y-79936767D01*
X109453325Y-79840944D01*
X109453325Y-79840941D01*
X109454186Y-79835004D01*
X109444477Y-79625233D01*
X109395276Y-79421082D01*
X109352258Y-79326467D01*
X109310840Y-79235374D01*
X109308360Y-79229919D01*
X109186863Y-79058640D01*
X109035169Y-78913425D01*
X108938033Y-78850705D01*
X108863791Y-78802767D01*
X108863788Y-78802766D01*
X108858754Y-78799515D01*
X108788868Y-78771350D01*
X108669545Y-78723261D01*
X108669542Y-78723260D01*
X108663981Y-78721019D01*
X108658100Y-78719871D01*
X108658095Y-78719869D01*
X108462324Y-78681638D01*
X108462321Y-78681638D01*
X108457878Y-78680770D01*
X108452357Y-78680500D01*
X107497531Y-78680500D01*
X107340954Y-78695439D01*
X107335198Y-78697128D01*
X107335196Y-78697128D01*
X107257679Y-78719869D01*
X107139451Y-78754553D01*
X107113960Y-78767682D01*
X106958092Y-78847959D01*
X106958089Y-78847961D01*
X106952761Y-78850705D01*
X106948046Y-78854409D01*
X106792338Y-78976718D01*
X106792333Y-78976722D01*
X106787621Y-78980424D01*
X106783690Y-78984954D01*
X106783689Y-78984955D01*
X106653921Y-79134498D01*
X106653917Y-79134503D01*
X106649990Y-79139029D01*
X106544834Y-79320799D01*
X106542866Y-79326467D01*
X106479287Y-79509557D01*
X106475947Y-79519174D01*
X106475086Y-79525109D01*
X106475086Y-79525111D01*
X106459701Y-79631223D01*
X106445814Y-79726996D01*
X84049187Y-79726996D01*
X84044477Y-79625233D01*
X83995276Y-79421082D01*
X83952258Y-79326467D01*
X83910840Y-79235374D01*
X83908360Y-79229919D01*
X83786863Y-79058640D01*
X83635169Y-78913425D01*
X83538033Y-78850705D01*
X83463791Y-78802767D01*
X83463788Y-78802766D01*
X83458754Y-78799515D01*
X83388868Y-78771350D01*
X83269545Y-78723261D01*
X83269542Y-78723260D01*
X83263981Y-78721019D01*
X83258100Y-78719871D01*
X83258095Y-78719869D01*
X83062324Y-78681638D01*
X83062321Y-78681638D01*
X83057878Y-78680770D01*
X83052357Y-78680500D01*
X82097531Y-78680500D01*
X81940954Y-78695439D01*
X81935198Y-78697128D01*
X81935196Y-78697128D01*
X81857679Y-78719869D01*
X81739451Y-78754553D01*
X81713960Y-78767682D01*
X81558092Y-78847959D01*
X81558089Y-78847961D01*
X81552761Y-78850705D01*
X81548046Y-78854409D01*
X81392338Y-78976718D01*
X81392333Y-78976722D01*
X81387621Y-78980424D01*
X81383690Y-78984954D01*
X81383689Y-78984955D01*
X81253921Y-79134498D01*
X81253917Y-79134503D01*
X81249990Y-79139029D01*
X81144834Y-79320799D01*
X81142866Y-79326467D01*
X81079287Y-79509557D01*
X81075947Y-79519174D01*
X81075086Y-79525109D01*
X81075086Y-79525111D01*
X81059701Y-79631223D01*
X81045814Y-79726996D01*
X78514661Y-79726996D01*
X80485075Y-77756582D01*
X80491341Y-77750728D01*
X80528669Y-77718165D01*
X80534396Y-77713169D01*
X80570690Y-77661527D01*
X80574616Y-77656242D01*
X80608895Y-77612524D01*
X80608897Y-77612520D01*
X80613584Y-77606543D01*
X80616710Y-77599620D01*
X80618495Y-77596672D01*
X80625887Y-77583712D01*
X80627520Y-77580666D01*
X80631887Y-77574453D01*
X80654820Y-77515633D01*
X80657376Y-77509554D01*
X80680228Y-77458941D01*
X80683355Y-77452016D01*
X80684740Y-77444545D01*
X80685764Y-77441277D01*
X80689877Y-77426836D01*
X80690717Y-77423563D01*
X80693476Y-77416487D01*
X80701716Y-77353894D01*
X80702748Y-77347377D01*
X80712868Y-77292775D01*
X80714252Y-77285308D01*
X80710709Y-77223856D01*
X80710500Y-77216604D01*
X80710500Y-77186996D01*
X81045814Y-77186996D01*
X81055523Y-77396767D01*
X81056927Y-77402592D01*
X81056927Y-77402593D01*
X81102004Y-77589630D01*
X81104724Y-77600918D01*
X81107206Y-77606376D01*
X81107207Y-77606380D01*
X81150320Y-77701201D01*
X81191640Y-77792081D01*
X81313137Y-77963360D01*
X81464831Y-78108575D01*
X81469866Y-78111826D01*
X81636209Y-78219233D01*
X81636212Y-78219234D01*
X81641246Y-78222485D01*
X81646809Y-78224727D01*
X81830455Y-78298739D01*
X81830458Y-78298740D01*
X81836019Y-78300981D01*
X81841900Y-78302129D01*
X81841905Y-78302131D01*
X82037676Y-78340362D01*
X82037679Y-78340362D01*
X82042122Y-78341230D01*
X82047643Y-78341500D01*
X83002469Y-78341500D01*
X83159046Y-78326561D01*
X83164802Y-78324872D01*
X83164804Y-78324872D01*
X83253883Y-78298739D01*
X83360549Y-78267447D01*
X83491750Y-78199874D01*
X83541908Y-78174041D01*
X83541911Y-78174039D01*
X83547239Y-78171295D01*
X83626558Y-78108989D01*
X83707662Y-78045282D01*
X83707667Y-78045278D01*
X83712379Y-78041576D01*
X83726470Y-78025338D01*
X83846079Y-77887502D01*
X83846083Y-77887497D01*
X83850010Y-77882971D01*
X83955166Y-77701201D01*
X84001638Y-77567376D01*
X84022086Y-77508491D01*
X84022086Y-77508489D01*
X84024053Y-77502826D01*
X84036572Y-77416487D01*
X84053325Y-77300944D01*
X84053325Y-77300941D01*
X84054186Y-77295004D01*
X84049187Y-77186996D01*
X106445814Y-77186996D01*
X106455523Y-77396767D01*
X106456927Y-77402592D01*
X106456927Y-77402593D01*
X106502004Y-77589630D01*
X106504724Y-77600918D01*
X106507206Y-77606376D01*
X106507207Y-77606380D01*
X106550320Y-77701201D01*
X106591640Y-77792081D01*
X106713137Y-77963360D01*
X106864831Y-78108575D01*
X106869866Y-78111826D01*
X107036209Y-78219233D01*
X107036212Y-78219234D01*
X107041246Y-78222485D01*
X107046809Y-78224727D01*
X107230455Y-78298739D01*
X107230458Y-78298740D01*
X107236019Y-78300981D01*
X107241900Y-78302129D01*
X107241905Y-78302131D01*
X107437676Y-78340362D01*
X107437679Y-78340362D01*
X107442122Y-78341230D01*
X107447643Y-78341500D01*
X108402469Y-78341500D01*
X108559046Y-78326561D01*
X108564802Y-78324872D01*
X108564804Y-78324872D01*
X108653883Y-78298739D01*
X108760549Y-78267447D01*
X108891750Y-78199874D01*
X108941908Y-78174041D01*
X108941911Y-78174039D01*
X108947239Y-78171295D01*
X109026558Y-78108989D01*
X109107662Y-78045282D01*
X109107667Y-78045278D01*
X109112379Y-78041576D01*
X109126470Y-78025338D01*
X109246079Y-77887502D01*
X109246083Y-77887497D01*
X109250010Y-77882971D01*
X109355166Y-77701201D01*
X109401638Y-77567376D01*
X109422086Y-77508491D01*
X109422086Y-77508489D01*
X109424053Y-77502826D01*
X109436572Y-77416487D01*
X109453325Y-77300944D01*
X109453325Y-77300941D01*
X109454186Y-77295004D01*
X109444477Y-77085233D01*
X109412718Y-76953453D01*
X109396682Y-76886915D01*
X109396681Y-76886913D01*
X109395276Y-76881082D01*
X109352258Y-76786467D01*
X109310840Y-76695374D01*
X109308360Y-76689919D01*
X109186863Y-76518640D01*
X109035169Y-76373425D01*
X108985085Y-76341086D01*
X108863791Y-76262767D01*
X108863788Y-76262766D01*
X108858754Y-76259515D01*
X108815252Y-76241983D01*
X108669545Y-76183261D01*
X108669542Y-76183260D01*
X108663981Y-76181019D01*
X108658100Y-76179871D01*
X108658095Y-76179869D01*
X108462324Y-76141638D01*
X108462321Y-76141638D01*
X108457878Y-76140770D01*
X108452357Y-76140500D01*
X107497531Y-76140500D01*
X107340954Y-76155439D01*
X107335198Y-76157128D01*
X107335196Y-76157128D01*
X107257679Y-76179869D01*
X107139451Y-76214553D01*
X107072011Y-76249287D01*
X106958092Y-76307959D01*
X106958089Y-76307961D01*
X106952761Y-76310705D01*
X106948046Y-76314409D01*
X106792338Y-76436718D01*
X106792333Y-76436722D01*
X106787621Y-76440424D01*
X106783690Y-76444954D01*
X106783689Y-76444955D01*
X106653921Y-76594498D01*
X106653917Y-76594503D01*
X106649990Y-76599029D01*
X106544834Y-76780799D01*
X106541161Y-76791377D01*
X106480253Y-76966775D01*
X106475947Y-76979174D01*
X106475086Y-76985109D01*
X106475086Y-76985111D01*
X106459701Y-77091223D01*
X106445814Y-77186996D01*
X84049187Y-77186996D01*
X84044477Y-77085233D01*
X84012718Y-76953453D01*
X83996682Y-76886915D01*
X83996681Y-76886913D01*
X83995276Y-76881082D01*
X83952258Y-76786467D01*
X83910840Y-76695374D01*
X83908360Y-76689919D01*
X83786863Y-76518640D01*
X83635169Y-76373425D01*
X83585085Y-76341086D01*
X83463791Y-76262767D01*
X83463788Y-76262766D01*
X83458754Y-76259515D01*
X83415252Y-76241983D01*
X83269545Y-76183261D01*
X83269542Y-76183260D01*
X83263981Y-76181019D01*
X83258100Y-76179871D01*
X83258095Y-76179869D01*
X83062324Y-76141638D01*
X83062321Y-76141638D01*
X83057878Y-76140770D01*
X83052357Y-76140500D01*
X82097531Y-76140500D01*
X81940954Y-76155439D01*
X81935198Y-76157128D01*
X81935196Y-76157128D01*
X81857679Y-76179869D01*
X81739451Y-76214553D01*
X81672011Y-76249287D01*
X81558092Y-76307959D01*
X81558089Y-76307961D01*
X81552761Y-76310705D01*
X81548046Y-76314409D01*
X81392338Y-76436718D01*
X81392333Y-76436722D01*
X81387621Y-76440424D01*
X81383690Y-76444954D01*
X81383689Y-76444955D01*
X81253921Y-76594498D01*
X81253917Y-76594503D01*
X81249990Y-76599029D01*
X81144834Y-76780799D01*
X81141161Y-76791377D01*
X81080253Y-76966775D01*
X81075947Y-76979174D01*
X81075086Y-76985109D01*
X81075086Y-76985111D01*
X81059701Y-77091223D01*
X81045814Y-77186996D01*
X80710500Y-77186996D01*
X80710500Y-74646996D01*
X81045814Y-74646996D01*
X81055523Y-74856767D01*
X81056927Y-74862592D01*
X81056927Y-74862593D01*
X81084070Y-74975216D01*
X81104724Y-75060918D01*
X81107206Y-75066376D01*
X81107207Y-75066380D01*
X81150320Y-75161201D01*
X81191640Y-75252081D01*
X81313137Y-75423360D01*
X81464831Y-75568575D01*
X81469866Y-75571826D01*
X81636209Y-75679233D01*
X81636212Y-75679234D01*
X81641246Y-75682485D01*
X81646809Y-75684727D01*
X81830455Y-75758739D01*
X81830458Y-75758740D01*
X81836019Y-75760981D01*
X81841900Y-75762129D01*
X81841905Y-75762131D01*
X82037676Y-75800362D01*
X82037679Y-75800362D01*
X82042122Y-75801230D01*
X82047643Y-75801500D01*
X83002469Y-75801500D01*
X83159046Y-75786561D01*
X83164802Y-75784872D01*
X83164804Y-75784872D01*
X83253883Y-75758739D01*
X83360549Y-75727447D01*
X83460947Y-75675739D01*
X83541908Y-75634041D01*
X83541911Y-75634039D01*
X83547239Y-75631295D01*
X83622947Y-75571826D01*
X83707662Y-75505282D01*
X83707667Y-75505278D01*
X83712379Y-75501576D01*
X83716311Y-75497045D01*
X83846079Y-75347502D01*
X83846083Y-75347497D01*
X83850010Y-75342971D01*
X83955166Y-75161201D01*
X84002683Y-75024366D01*
X84022086Y-74968491D01*
X84022086Y-74968489D01*
X84024053Y-74962826D01*
X84039431Y-74856767D01*
X84053325Y-74760944D01*
X84053325Y-74760941D01*
X84054186Y-74755004D01*
X84044477Y-74545233D01*
X84012718Y-74413453D01*
X83996682Y-74346915D01*
X83996681Y-74346913D01*
X83995276Y-74341082D01*
X83952258Y-74246467D01*
X83910840Y-74155374D01*
X83908360Y-74149919D01*
X83786863Y-73978640D01*
X83635169Y-73833425D01*
X83538033Y-73770705D01*
X83463791Y-73722767D01*
X83463788Y-73722766D01*
X83458754Y-73719515D01*
X83368107Y-73682983D01*
X83269545Y-73643261D01*
X83269542Y-73643260D01*
X83263981Y-73641019D01*
X83258100Y-73639871D01*
X83258095Y-73639869D01*
X83062324Y-73601638D01*
X83062321Y-73601638D01*
X83057878Y-73600770D01*
X83052357Y-73600500D01*
X82097531Y-73600500D01*
X81940954Y-73615439D01*
X81935198Y-73617128D01*
X81935196Y-73617128D01*
X81857679Y-73639869D01*
X81739451Y-73674553D01*
X81656505Y-73717273D01*
X81558092Y-73767959D01*
X81558089Y-73767961D01*
X81552761Y-73770705D01*
X81548046Y-73774409D01*
X81392338Y-73896718D01*
X81392333Y-73896722D01*
X81387621Y-73900424D01*
X81383690Y-73904954D01*
X81383689Y-73904955D01*
X81253921Y-74054498D01*
X81253917Y-74054503D01*
X81249990Y-74059029D01*
X81144834Y-74240799D01*
X81142866Y-74246467D01*
X81092290Y-74392112D01*
X81075947Y-74439174D01*
X81075086Y-74445109D01*
X81075086Y-74445111D01*
X81059701Y-74551223D01*
X81045814Y-74646996D01*
X80710500Y-74646996D01*
X80710500Y-73265347D01*
X80730502Y-73197226D01*
X80747405Y-73176251D01*
X80873404Y-73050253D01*
X80935716Y-73016228D01*
X81006532Y-73021294D01*
X81063367Y-73063840D01*
X81077647Y-73088193D01*
X81098061Y-73134153D01*
X81106294Y-73142372D01*
X81106295Y-73142373D01*
X81137835Y-73173858D01*
X81177287Y-73213241D01*
X81187924Y-73217944D01*
X81187926Y-73217945D01*
X81247462Y-73244265D01*
X81279673Y-73258506D01*
X81305354Y-73261500D01*
X83794646Y-73261500D01*
X83798350Y-73261059D01*
X83798353Y-73261059D01*
X83805746Y-73260179D01*
X83820846Y-73258382D01*
X83923153Y-73212939D01*
X84002241Y-73133713D01*
X84047506Y-73031327D01*
X84050500Y-73005646D01*
X84050500Y-71316354D01*
X84047382Y-71290154D01*
X84001939Y-71187847D01*
X83966058Y-71152028D01*
X83930945Y-71116977D01*
X83922713Y-71108759D01*
X83912076Y-71104056D01*
X83912074Y-71104055D01*
X83852538Y-71077735D01*
X83820327Y-71063494D01*
X83794646Y-71060500D01*
X81305354Y-71060500D01*
X81301650Y-71060941D01*
X81301647Y-71060941D01*
X81294254Y-71061821D01*
X81279154Y-71063618D01*
X81176847Y-71109061D01*
X81097759Y-71188287D01*
X81052494Y-71290673D01*
X81049500Y-71316354D01*
X81049500Y-71334500D01*
X81029498Y-71402621D01*
X80975842Y-71449114D01*
X80923500Y-71460500D01*
X80800641Y-71460500D01*
X80792071Y-71460208D01*
X80791211Y-71460149D01*
X80735070Y-71456322D01*
X80727593Y-71457627D01*
X80727590Y-71457627D01*
X80672870Y-71467177D01*
X80666346Y-71468140D01*
X80611221Y-71474811D01*
X80611218Y-71474812D01*
X80603680Y-71475724D01*
X80596578Y-71478408D01*
X80593242Y-71479227D01*
X80578785Y-71483183D01*
X80575528Y-71484166D01*
X80568047Y-71485472D01*
X80561095Y-71488524D01*
X80561094Y-71488524D01*
X80510233Y-71510849D01*
X80504128Y-71513340D01*
X80452189Y-71532967D01*
X80452185Y-71532969D01*
X80445077Y-71535655D01*
X80438813Y-71539960D01*
X80435774Y-71541549D01*
X80422701Y-71548824D01*
X80419750Y-71550569D01*
X80412798Y-71553621D01*
X80406770Y-71558246D01*
X80406769Y-71558247D01*
X80362727Y-71592042D01*
X80357391Y-71595919D01*
X80311614Y-71627381D01*
X80311608Y-71627386D01*
X80305349Y-71631688D01*
X80300294Y-71637362D01*
X80264400Y-71677648D01*
X80259419Y-71682925D01*
X79534919Y-72407424D01*
X79528653Y-72413277D01*
X79485604Y-72450831D01*
X79449317Y-72502463D01*
X79445384Y-72507758D01*
X79411105Y-72551476D01*
X79411103Y-72551480D01*
X79406416Y-72557457D01*
X79403290Y-72564380D01*
X79401505Y-72567328D01*
X79394113Y-72580288D01*
X79392480Y-72583334D01*
X79388113Y-72589547D01*
X79365180Y-72648366D01*
X79362625Y-72654445D01*
X79336645Y-72711984D01*
X79335260Y-72719455D01*
X79334236Y-72722723D01*
X79330123Y-72737164D01*
X79329283Y-72740437D01*
X79326524Y-72747513D01*
X79325533Y-72755043D01*
X79318284Y-72810106D01*
X79317252Y-72816623D01*
X79305748Y-72878692D01*
X79305834Y-72880192D01*
X79282479Y-72944482D01*
X79226008Y-72987512D01*
X79155238Y-72993181D01*
X79092638Y-72959688D01*
X79065758Y-72920272D01*
X79065733Y-72920284D01*
X79065645Y-72920106D01*
X79065069Y-72919262D01*
X79064115Y-72917025D01*
X79064114Y-72917023D01*
X79062692Y-72913689D01*
X78902677Y-72633154D01*
X78889381Y-72615053D01*
X78713622Y-72375786D01*
X78713620Y-72375783D01*
X78711479Y-72372869D01*
X78491632Y-72136285D01*
X78424415Y-72078876D01*
X78248805Y-71928892D01*
X78246049Y-71926538D01*
X77977986Y-71746407D01*
X77890363Y-71701181D01*
X77694216Y-71599942D01*
X77690996Y-71598280D01*
X77388883Y-71484121D01*
X77385362Y-71483237D01*
X77385357Y-71483235D01*
X77235433Y-71445577D01*
X77075651Y-71405443D01*
X77054216Y-71402621D01*
X76759055Y-71363762D01*
X76759047Y-71363761D01*
X76755451Y-71363288D01*
X76621081Y-71361177D01*
X76436170Y-71358272D01*
X76436166Y-71358272D01*
X76432528Y-71358215D01*
X76428913Y-71358576D01*
X76428908Y-71358576D01*
X76201132Y-71381311D01*
X76111163Y-71390291D01*
X75795614Y-71459092D01*
X75792187Y-71460265D01*
X75792181Y-71460267D01*
X75493495Y-71562530D01*
X75493490Y-71562532D01*
X75490064Y-71563705D01*
X75486796Y-71565264D01*
X75486788Y-71565267D01*
X75414091Y-71599942D01*
X75198562Y-71702744D01*
X74924974Y-71874366D01*
X74922140Y-71876636D01*
X74922135Y-71876640D01*
X74856914Y-71928892D01*
X74672924Y-72076296D01*
X74445754Y-72305858D01*
X74246474Y-72560008D01*
X74244581Y-72563097D01*
X74244579Y-72563100D01*
X74157587Y-72705059D01*
X74077727Y-72835379D01*
X73941748Y-73128320D01*
X73940608Y-73131767D01*
X73886647Y-73294931D01*
X73840340Y-73434949D01*
X73839604Y-73438504D01*
X73839603Y-73438507D01*
X73788975Y-73682983D01*
X73774848Y-73751201D01*
X73772777Y-73774409D01*
X73747375Y-74059029D01*
X73746138Y-74072885D01*
X73746233Y-74076515D01*
X73746233Y-74076516D01*
X73754497Y-74392112D01*
X73754592Y-74395737D01*
X73800098Y-74715477D01*
X73882053Y-75027869D01*
X73999369Y-75328770D01*
X74006888Y-75342971D01*
X74125320Y-75566649D01*
X74150493Y-75614193D01*
X74152545Y-75617178D01*
X74152550Y-75617187D01*
X74331364Y-75877363D01*
X74331370Y-75877370D01*
X74333421Y-75880355D01*
X74335809Y-75883092D01*
X74514342Y-76087749D01*
X74545728Y-76123728D01*
X74784601Y-76341086D01*
X75046874Y-76529548D01*
X75329070Y-76686616D01*
X75627448Y-76810208D01*
X75630942Y-76811203D01*
X75630944Y-76811204D01*
X75934554Y-76897690D01*
X75934559Y-76897691D01*
X75938055Y-76898687D01*
X76157264Y-76934584D01*
X76253192Y-76950293D01*
X76253196Y-76950293D01*
X76256772Y-76950879D01*
X76260398Y-76951050D01*
X76575749Y-76965921D01*
X76575750Y-76965921D01*
X76579376Y-76966092D01*
X76591707Y-76965251D01*
X76897960Y-76944374D01*
X76897968Y-76944373D01*
X76901591Y-76944126D01*
X76905167Y-76943463D01*
X76905169Y-76943463D01*
X77215580Y-76885932D01*
X77215584Y-76885931D01*
X77219145Y-76885271D01*
X77527830Y-76790307D01*
X77760884Y-76688003D01*
X77820232Y-76661951D01*
X77820236Y-76661949D01*
X77823555Y-76660492D01*
X77928737Y-76599029D01*
X78099259Y-76499384D01*
X78099261Y-76499383D01*
X78102399Y-76497549D01*
X78106401Y-76494544D01*
X78357761Y-76305819D01*
X78357765Y-76305816D01*
X78360668Y-76303636D01*
X78594936Y-76081323D01*
X78802101Y-75833557D01*
X78804089Y-75830531D01*
X78977427Y-75566649D01*
X78977432Y-75566640D01*
X78979414Y-75563623D01*
X79056793Y-75409771D01*
X79070935Y-75381654D01*
X79119412Y-75329784D01*
X79188237Y-75312357D01*
X79255558Y-75334906D01*
X79300000Y-75390272D01*
X79309500Y-75438268D01*
X79309500Y-76898654D01*
X79289498Y-76966775D01*
X79272595Y-76987749D01*
X75126748Y-81133595D01*
X75064436Y-81167621D01*
X75037653Y-81170500D01*
X74035354Y-81170500D01*
X74031650Y-81170941D01*
X74031647Y-81170941D01*
X74024254Y-81171821D01*
X74009154Y-81173618D01*
X73906847Y-81219061D01*
X73898628Y-81227294D01*
X73898627Y-81227295D01*
X73888811Y-81237128D01*
X73827759Y-81298287D01*
X73823056Y-81308924D01*
X73823055Y-81308926D01*
X73810523Y-81337273D01*
X73782494Y-81400673D01*
X73779500Y-81426354D01*
X73779500Y-83215646D01*
X73782618Y-83241846D01*
X73786456Y-83250486D01*
X73786456Y-83250487D01*
X73810549Y-83304727D01*
X73828061Y-83344153D01*
X73907287Y-83423241D01*
X73917924Y-83427944D01*
X73917926Y-83427945D01*
X73953310Y-83443588D01*
X74009673Y-83468506D01*
X74035354Y-83471500D01*
X74744988Y-83471500D01*
X74813109Y-83491502D01*
X74859602Y-83545158D01*
X74869706Y-83615432D01*
X74840212Y-83680012D01*
X74780486Y-83718396D01*
X74766326Y-83721680D01*
X74636650Y-83743962D01*
X74636649Y-83743962D01*
X74630953Y-83744941D01*
X74432575Y-83818127D01*
X74427614Y-83821079D01*
X74427613Y-83821079D01*
X74329391Y-83879515D01*
X74250856Y-83926238D01*
X74091881Y-84065655D01*
X73960976Y-84231708D01*
X73862523Y-84418836D01*
X73799820Y-84620773D01*
X73774967Y-84830754D01*
X73788796Y-85041749D01*
X73790217Y-85047345D01*
X73790218Y-85047350D01*
X73823917Y-85180038D01*
X73840845Y-85246690D01*
X73929369Y-85438714D01*
X74051405Y-85611391D01*
X74055539Y-85615418D01*
X74177849Y-85734567D01*
X74202865Y-85758937D01*
X74207661Y-85762142D01*
X74207664Y-85762144D01*
X74323036Y-85839233D01*
X74378677Y-85876411D01*
X74383980Y-85878690D01*
X74383985Y-85878692D01*
X74408288Y-85889133D01*
X74436768Y-85901369D01*
X74491460Y-85946636D01*
X74512998Y-86014287D01*
X74494541Y-86082842D01*
X74441951Y-86130537D01*
X74426175Y-86136901D01*
X74406868Y-86143212D01*
X74397359Y-86147209D01*
X74208463Y-86245542D01*
X74199738Y-86251036D01*
X74029433Y-86378905D01*
X74021726Y-86385748D01*
X73874590Y-86539717D01*
X73868104Y-86547727D01*
X73748098Y-86723649D01*
X73743000Y-86732623D01*
X73653338Y-86925783D01*
X73649775Y-86935470D01*
X73594389Y-87135183D01*
X73595912Y-87143607D01*
X73608292Y-87147000D01*
X75058000Y-87147000D01*
X75126121Y-87167002D01*
X75172614Y-87220658D01*
X75184000Y-87273000D01*
X75184000Y-88719517D01*
X75188064Y-88733359D01*
X75201478Y-88735393D01*
X75208184Y-88734534D01*
X75218262Y-88732392D01*
X75422255Y-88671191D01*
X75431837Y-88667435D01*
X75497579Y-88635229D01*
X75567553Y-88623223D01*
X75632910Y-88650953D01*
X75672900Y-88709616D01*
X75679011Y-88748381D01*
X75679011Y-90689142D01*
X75659009Y-90757263D01*
X75642106Y-90778238D01*
X75126747Y-91293596D01*
X75064435Y-91327621D01*
X75037652Y-91330500D01*
X74035354Y-91330500D01*
X74031650Y-91330941D01*
X74031647Y-91330941D01*
X74024254Y-91331821D01*
X74009154Y-91333618D01*
X73906847Y-91379061D01*
X73898628Y-91387294D01*
X73898627Y-91387295D01*
X73888907Y-91397032D01*
X73827759Y-91458287D01*
X73823056Y-91468924D01*
X73823055Y-91468926D01*
X73808230Y-91502459D01*
X73782494Y-91560673D01*
X73779500Y-91586354D01*
X73779500Y-93375646D01*
X73782618Y-93401846D01*
X73786456Y-93410486D01*
X73786456Y-93410487D01*
X73810549Y-93464727D01*
X73828061Y-93504153D01*
X73907287Y-93583241D01*
X73917924Y-93587944D01*
X73917926Y-93587945D01*
X73953310Y-93603588D01*
X74009673Y-93628506D01*
X74035354Y-93631500D01*
X74744988Y-93631500D01*
X74813109Y-93651502D01*
X74859602Y-93705158D01*
X74869706Y-93775432D01*
X74840212Y-93840012D01*
X74780486Y-93878396D01*
X74766326Y-93881680D01*
X74636650Y-93903962D01*
X74636649Y-93903962D01*
X74630953Y-93904941D01*
X74432575Y-93978127D01*
X74427614Y-93981079D01*
X74427613Y-93981079D01*
X74329391Y-94039515D01*
X74250856Y-94086238D01*
X74091881Y-94225655D01*
X73960976Y-94391708D01*
X73862523Y-94578836D01*
X73799820Y-94780773D01*
X73774967Y-94990754D01*
X73788796Y-95201749D01*
X73790217Y-95207345D01*
X73790218Y-95207350D01*
X73823917Y-95340038D01*
X73840845Y-95406690D01*
X73929369Y-95598714D01*
X74051405Y-95771391D01*
X74055539Y-95775418D01*
X74177849Y-95894567D01*
X74202865Y-95918937D01*
X74207661Y-95922142D01*
X74207664Y-95922144D01*
X74323036Y-95999233D01*
X74378677Y-96036411D01*
X74383980Y-96038690D01*
X74383985Y-96038692D01*
X74408288Y-96049133D01*
X74436768Y-96061369D01*
X74491460Y-96106636D01*
X74512998Y-96174287D01*
X74494541Y-96242842D01*
X74441951Y-96290537D01*
X74426175Y-96296901D01*
X74406868Y-96303212D01*
X74397359Y-96307209D01*
X74208463Y-96405542D01*
X74199738Y-96411036D01*
X74029433Y-96538905D01*
X74021726Y-96545748D01*
X73874590Y-96699717D01*
X73868104Y-96707727D01*
X73748098Y-96883649D01*
X73743000Y-96892623D01*
X73653338Y-97085783D01*
X73649775Y-97095470D01*
X73594389Y-97295183D01*
X73595912Y-97303607D01*
X73608292Y-97307000D01*
X75058000Y-97307000D01*
X75126121Y-97327002D01*
X75172614Y-97380658D01*
X75184000Y-97433000D01*
X75184000Y-98879517D01*
X75188064Y-98893359D01*
X75201478Y-98895393D01*
X75208184Y-98894534D01*
X75218262Y-98892392D01*
X75422255Y-98831191D01*
X75431837Y-98827435D01*
X75497579Y-98795229D01*
X75567553Y-98783223D01*
X75632910Y-98810953D01*
X75672900Y-98869616D01*
X75679011Y-98908381D01*
X75679011Y-100849142D01*
X75659009Y-100917263D01*
X75642106Y-100938238D01*
X75126747Y-101453596D01*
X75064435Y-101487621D01*
X75037652Y-101490500D01*
X74035354Y-101490500D01*
X74031650Y-101490941D01*
X74031647Y-101490941D01*
X74024254Y-101491821D01*
X74009154Y-101493618D01*
X73906847Y-101539061D01*
X73898628Y-101547294D01*
X73898627Y-101547295D01*
X73888907Y-101557032D01*
X73827759Y-101618287D01*
X73823056Y-101628924D01*
X73823055Y-101628926D01*
X73808230Y-101662459D01*
X73782494Y-101720673D01*
X73779500Y-101746354D01*
X73779500Y-103535646D01*
X73782618Y-103561846D01*
X73828061Y-103664153D01*
X73907287Y-103743241D01*
X73917924Y-103747944D01*
X73917926Y-103747945D01*
X73977462Y-103774265D01*
X74009673Y-103788506D01*
X74035354Y-103791500D01*
X74744988Y-103791500D01*
X74813109Y-103811502D01*
X74859602Y-103865158D01*
X74869706Y-103935432D01*
X74840212Y-104000012D01*
X74780486Y-104038396D01*
X74766326Y-104041680D01*
X74636650Y-104063962D01*
X74636649Y-104063962D01*
X74630953Y-104064941D01*
X74432575Y-104138127D01*
X74427614Y-104141079D01*
X74427613Y-104141079D01*
X74329391Y-104199515D01*
X74250856Y-104246238D01*
X74091881Y-104385655D01*
X73960976Y-104551708D01*
X73958287Y-104556819D01*
X73958285Y-104556822D01*
X73944792Y-104582469D01*
X73862523Y-104738836D01*
X73799820Y-104940773D01*
X73774967Y-105150754D01*
X73788796Y-105361749D01*
X73790217Y-105367345D01*
X73790218Y-105367350D01*
X73823917Y-105500038D01*
X73840845Y-105566690D01*
X73929369Y-105758714D01*
X74051405Y-105931391D01*
X74055539Y-105935418D01*
X74171698Y-106048575D01*
X74202865Y-106078937D01*
X74207661Y-106082142D01*
X74207664Y-106082144D01*
X74288333Y-106136045D01*
X74378677Y-106196411D01*
X74383980Y-106198690D01*
X74383985Y-106198692D01*
X74408288Y-106209133D01*
X74436768Y-106221369D01*
X74491460Y-106266636D01*
X74512998Y-106334287D01*
X74494541Y-106402842D01*
X74441951Y-106450537D01*
X74426175Y-106456901D01*
X74406868Y-106463212D01*
X74397359Y-106467209D01*
X74208463Y-106565542D01*
X74199738Y-106571036D01*
X74029433Y-106698905D01*
X74021726Y-106705748D01*
X73874590Y-106859717D01*
X73868104Y-106867727D01*
X73748098Y-107043649D01*
X73743000Y-107052623D01*
X73653338Y-107245783D01*
X73649775Y-107255470D01*
X73594389Y-107455183D01*
X72850500Y-107455183D01*
X72850500Y-97828966D01*
X73598257Y-97828966D01*
X73628565Y-97963446D01*
X73631645Y-97973275D01*
X73711770Y-98170603D01*
X73716413Y-98179794D01*
X73827694Y-98361388D01*
X73833777Y-98369699D01*
X73973213Y-98530667D01*
X73980580Y-98537883D01*
X74144434Y-98673916D01*
X74152881Y-98679831D01*
X74336756Y-98787279D01*
X74346042Y-98791729D01*
X74545001Y-98867703D01*
X74554899Y-98870579D01*
X74658250Y-98891606D01*
X74672299Y-98890410D01*
X74676000Y-98880065D01*
X74676000Y-97833115D01*
X74671525Y-97817876D01*
X74670135Y-97816671D01*
X74662452Y-97815000D01*
X73613225Y-97815000D01*
X73599694Y-97818973D01*
X73598257Y-97828966D01*
X72850500Y-97828966D01*
X72850500Y-87668966D01*
X73598257Y-87668966D01*
X73628565Y-87803446D01*
X73631645Y-87813275D01*
X73711770Y-88010603D01*
X73716413Y-88019794D01*
X73827694Y-88201388D01*
X73833777Y-88209699D01*
X73973213Y-88370667D01*
X73980580Y-88377883D01*
X74144434Y-88513916D01*
X74152881Y-88519831D01*
X74336756Y-88627279D01*
X74346042Y-88631729D01*
X74545001Y-88707703D01*
X74554899Y-88710579D01*
X74658250Y-88731606D01*
X74672299Y-88730410D01*
X74676000Y-88720065D01*
X74676000Y-87673115D01*
X74671525Y-87657876D01*
X74670135Y-87656671D01*
X74662452Y-87655000D01*
X73613225Y-87655000D01*
X73599694Y-87658973D01*
X73598257Y-87668966D01*
X72850500Y-87668966D01*
X72850500Y-70587500D01*
X72870502Y-70519379D01*
X72924158Y-70472886D01*
X72976500Y-70461500D01*
X85980000Y-70461500D01*
X86048121Y-70481502D01*
G37*
%TD.AperFunction*%
%TD*%
M02*
