%TF.GenerationSoftware,KiCad,Pcbnew,6.0.4+dfsg-1+b1*%
%TF.CreationDate,2022-05-29T14:40:34+05:00*%
%TF.ProjectId,evlamp,65766c61-6d70-42e6-9b69-6361645f7063,rev?*%
%TF.SameCoordinates,Original*%
%TF.FileFunction,Soldermask,Top*%
%TF.FilePolarity,Negative*%
%FSLAX46Y46*%
G04 Gerber Fmt 4.6, Leading zero omitted, Abs format (unit mm)*
G04 Created by KiCad (PCBNEW 6.0.4+dfsg-1+b1) date 2022-05-29 14:40:34*
%MOMM*%
%LPD*%
G01*
G04 APERTURE LIST*
G04 Aperture macros list*
%AMRoundRect*
0 Rectangle with rounded corners*
0 $1 Rounding radius*
0 $2 $3 $4 $5 $6 $7 $8 $9 X,Y pos of 4 corners*
0 Add a 4 corners polygon primitive as box body*
4,1,4,$2,$3,$4,$5,$6,$7,$8,$9,$2,$3,0*
0 Add four circle primitives for the rounded corners*
1,1,$1+$1,$2,$3*
1,1,$1+$1,$4,$5*
1,1,$1+$1,$6,$7*
1,1,$1+$1,$8,$9*
0 Add four rect primitives between the rounded corners*
20,1,$1+$1,$2,$3,$4,$5,0*
20,1,$1+$1,$4,$5,$6,$7,0*
20,1,$1+$1,$6,$7,$8,$9,0*
20,1,$1+$1,$8,$9,$2,$3,0*%
G04 Aperture macros list end*
%ADD10RoundRect,0.250000X1.025000X-0.875000X1.025000X0.875000X-1.025000X0.875000X-1.025000X-0.875000X0*%
%ADD11C,0.800000*%
%ADD12C,5.000000*%
%ADD13O,2.400000X1.600000*%
%ADD14R,2.400000X1.600000*%
%ADD15RoundRect,0.250000X0.475000X-0.337500X0.475000X0.337500X-0.475000X0.337500X-0.475000X-0.337500X0*%
%ADD16R,3.000000X3.000000*%
%ADD17C,3.000000*%
%ADD18RoundRect,0.250000X-0.350000X-0.450000X0.350000X-0.450000X0.350000X0.450000X-0.350000X0.450000X0*%
%ADD19RoundRect,0.250000X-0.450000X0.350000X-0.450000X-0.350000X0.450000X-0.350000X0.450000X0.350000X0*%
%ADD20O,1.700000X1.700000*%
%ADD21R,1.700000X1.700000*%
G04 APERTURE END LIST*
D10*
%TO.C,C2*%
X76454000Y-118033000D03*
X76454000Y-111633000D03*
%TD*%
D11*
%TO.C,REF\u002A\u002A*%
X77875825Y-124835175D03*
X75224175Y-127486825D03*
X78425000Y-126161000D03*
X77875825Y-127486825D03*
X76550000Y-124286000D03*
X74675000Y-126161000D03*
X76550000Y-128036000D03*
X75224175Y-124835175D03*
D12*
X76550000Y-126161000D03*
%TD*%
D13*
%TO.C,DD1*%
X107950000Y-72161000D03*
X107950000Y-74701000D03*
X107950000Y-77241000D03*
X107950000Y-79781000D03*
X107950000Y-82321000D03*
X107950000Y-84861000D03*
X107950000Y-87401000D03*
X107950000Y-89941000D03*
X107950000Y-92481000D03*
X107950000Y-95021000D03*
X107950000Y-97561000D03*
X107950000Y-100101000D03*
X107950000Y-102641000D03*
X107950000Y-105181000D03*
X107950000Y-107721000D03*
X107950000Y-110261000D03*
X107950000Y-112801000D03*
X107950000Y-115341000D03*
X107950000Y-117881000D03*
X82550000Y-117881000D03*
X82550000Y-115341000D03*
X82550000Y-112801000D03*
X82550000Y-110261000D03*
X82550000Y-107721000D03*
X82550000Y-105181000D03*
X82550000Y-102641000D03*
X82550000Y-100101000D03*
X82550000Y-97561000D03*
X82550000Y-95021000D03*
X82550000Y-92481000D03*
X82550000Y-89941000D03*
X82550000Y-87401000D03*
X82550000Y-84861000D03*
X82550000Y-82321000D03*
X82550000Y-79781000D03*
X82550000Y-77241000D03*
X82550000Y-74701000D03*
D14*
X82550000Y-72161000D03*
%TD*%
D15*
%TO.C,C1*%
X87630000Y-79316000D03*
X87630000Y-77241000D03*
%TD*%
D16*
%TO.C,X2*%
X123550000Y-89941000D03*
D17*
X123550000Y-95021000D03*
%TD*%
D16*
%TO.C,X3*%
X123550000Y-100101000D03*
D17*
X123550000Y-105181000D03*
%TD*%
D16*
%TO.C,X8*%
X87630000Y-126161000D03*
D17*
X82550000Y-126161000D03*
%TD*%
D18*
%TO.C,R5*%
X112268000Y-107721000D03*
X114268000Y-107721000D03*
%TD*%
D11*
%TO.C,REF\u002A\u002A*%
X112675000Y-126161000D03*
X115875825Y-127486825D03*
X115875825Y-124835175D03*
X114550000Y-124286000D03*
X116425000Y-126161000D03*
X113224175Y-124835175D03*
D12*
X114550000Y-126161000D03*
D11*
X113224175Y-127486825D03*
X114550000Y-128036000D03*
%TD*%
D19*
%TO.C,R6*%
X103886000Y-110261000D03*
X103886000Y-112261000D03*
%TD*%
D20*
%TO.C,X9*%
X74930000Y-97561000D03*
X74930000Y-95021000D03*
D21*
X74930000Y-92481000D03*
%TD*%
D11*
%TO.C,REF\u002A\u002A*%
X77875825Y-75486825D03*
X76550000Y-76036000D03*
X75224175Y-75486825D03*
X75224175Y-72835175D03*
D12*
X76550000Y-74161000D03*
D11*
X77875825Y-72835175D03*
X74675000Y-74161000D03*
X78425000Y-74161000D03*
X76550000Y-72286000D03*
%TD*%
D16*
%TO.C,X5*%
X123550000Y-120421000D03*
D17*
X123550000Y-125501000D03*
%TD*%
D16*
%TO.C,X1*%
X123550000Y-74701000D03*
D17*
X123550000Y-79781000D03*
X123550000Y-84861000D03*
%TD*%
D19*
%TO.C,R7*%
X102362000Y-77241000D03*
X102362000Y-79241000D03*
%TD*%
D18*
%TO.C,R4*%
X112268000Y-102641000D03*
X114268000Y-102641000D03*
%TD*%
%TO.C,R3*%
X112268000Y-100101000D03*
X114268000Y-100101000D03*
%TD*%
%TO.C,R1*%
X112268000Y-95021000D03*
X114268000Y-95021000D03*
%TD*%
D21*
%TO.C,X11*%
X74930000Y-82321000D03*
D20*
X74930000Y-84861000D03*
X74930000Y-87401000D03*
%TD*%
D18*
%TO.C,R2*%
X112268000Y-97561000D03*
X114268000Y-97561000D03*
%TD*%
D11*
%TO.C,REF\u002A\u002A*%
X113224175Y-72835175D03*
X112675000Y-74161000D03*
X114550000Y-76036000D03*
X115875825Y-72835175D03*
X114550000Y-72286000D03*
X113224175Y-75486825D03*
X116425000Y-74161000D03*
X115875825Y-75486825D03*
D12*
X114550000Y-74161000D03*
%TD*%
D21*
%TO.C,X10*%
X74930000Y-102641000D03*
D20*
X74930000Y-105181000D03*
X74930000Y-107721000D03*
%TD*%
D16*
%TO.C,X7*%
X97790000Y-126161000D03*
D17*
X92710000Y-126161000D03*
%TD*%
D16*
%TO.C,X4*%
X123550000Y-110261000D03*
D17*
X123550000Y-115341000D03*
%TD*%
D16*
%TO.C,X6*%
X107950000Y-126161000D03*
D17*
X102870000Y-126161000D03*
%TD*%
D19*
%TO.C,R8*%
X99060000Y-77241000D03*
X99060000Y-79241000D03*
%TD*%
M02*
