%FSLAX45Y45*%
G04 Gerber Fmt 4.5, Leading zero omitted, Abs format (unit mm)*
G04 Created by KiCad (PCBNEW 6.0.4+dfsg-1+b1) date 2022-05-29 14:40:29*
%MOMM*%
%LPD*%
G01*
G04 APERTURE LIST*
%TA.AperFunction,Profile*%
%ADD10C,0.100000*%
%TD*%
%ADD11C,0.200000*%
G04 APERTURE END LIST*
D10*
X7255000Y-7016100D02*
X12755000Y-7016100D01*
X12755000Y-7016100D02*
X12755000Y-13016100D01*
X12755000Y-13016100D02*
X7255000Y-13016100D01*
X7255000Y-13016100D02*
X7255000Y-7016100D01*
D11*
X7507619Y-13331576D02*
X7507619Y-13131576D01*
X7555238Y-13131576D01*
X7583809Y-13141100D01*
X7602857Y-13160148D01*
X7612381Y-13179195D01*
X7621905Y-13217290D01*
X7621905Y-13245862D01*
X7612381Y-13283957D01*
X7602857Y-13303005D01*
X7583809Y-13322052D01*
X7555238Y-13331576D01*
X7507619Y-13331576D01*
X7707619Y-13331576D02*
X7707619Y-13198243D01*
X7707619Y-13236338D02*
X7717143Y-13217290D01*
X7726667Y-13207767D01*
X7745714Y-13198243D01*
X7764762Y-13198243D01*
X7831428Y-13331576D02*
X7831428Y-13198243D01*
X7831428Y-13131576D02*
X7821905Y-13141100D01*
X7831428Y-13150624D01*
X7840952Y-13141100D01*
X7831428Y-13131576D01*
X7831428Y-13150624D01*
X7955238Y-13331576D02*
X7936190Y-13322052D01*
X7926667Y-13303005D01*
X7926667Y-13131576D01*
X8060000Y-13331576D02*
X8040952Y-13322052D01*
X8031428Y-13303005D01*
X8031428Y-13131576D01*
X8288571Y-13331576D02*
X8288571Y-13131576D01*
X8355238Y-13274433D01*
X8421905Y-13131576D01*
X8421905Y-13331576D01*
X8602857Y-13331576D02*
X8602857Y-13226814D01*
X8593333Y-13207767D01*
X8574286Y-13198243D01*
X8536190Y-13198243D01*
X8517143Y-13207767D01*
X8602857Y-13322052D02*
X8583810Y-13331576D01*
X8536190Y-13331576D01*
X8517143Y-13322052D01*
X8507619Y-13303005D01*
X8507619Y-13283957D01*
X8517143Y-13264909D01*
X8536190Y-13255386D01*
X8583810Y-13255386D01*
X8602857Y-13245862D01*
X8698095Y-13198243D02*
X8698095Y-13398243D01*
X8698095Y-13207767D02*
X8717143Y-13198243D01*
X8755238Y-13198243D01*
X8774286Y-13207767D01*
X8783810Y-13217290D01*
X8793333Y-13236338D01*
X8793333Y-13293481D01*
X8783810Y-13312528D01*
X8774286Y-13322052D01*
X8755238Y-13331576D01*
X8717143Y-13331576D01*
X8698095Y-13322052D01*
X8879048Y-13312528D02*
X8888571Y-13322052D01*
X8879048Y-13331576D01*
X8869524Y-13322052D01*
X8879048Y-13312528D01*
X8879048Y-13331576D01*
X8879048Y-13207767D02*
X8888571Y-13217290D01*
X8879048Y-13226814D01*
X8869524Y-13217290D01*
X8879048Y-13207767D01*
X8879048Y-13226814D01*
M02*
