M48
; DRILL file {KiCad 6.0.4+dfsg-1+b1} date Вс 29 мая 2022 14:40:30
; FORMAT={-:-/ absolute / metric / decimal}
; #@! TF.CreationDate,2022-05-29T14:40:30+05:00
; #@! TF.GenerationSoftware,Kicad,Pcbnew,6.0.4+dfsg-1+b1
; #@! TF.FileFunction,Plated,1,2,PTH
FMAT,2
METRIC
; #@! TA.AperFunction,Plated,PTH,ComponentDrill
T1C0.500
; #@! TA.AperFunction,Plated,PTH,ComponentDrill
T2C0.800
; #@! TA.AperFunction,Plated,PTH,ComponentDrill
T3C1.000
; #@! TA.AperFunction,Plated,PTH,ComponentDrill
T4C1.520
; #@! TA.AperFunction,Plated,PTH,ComponentDrill
T5C2.500
%
G90
G05
T1
X74.675Y-74.161
X74.675Y-126.161
X75.224Y-72.835
X75.224Y-75.487
X75.224Y-124.835
X75.224Y-127.487
X76.55Y-72.286
X76.55Y-76.036
X76.55Y-124.286
X76.55Y-128.036
X77.876Y-72.835
X77.876Y-75.487
X77.876Y-124.835
X77.876Y-127.487
X78.425Y-74.161
X78.425Y-126.161
X112.675Y-74.161
X112.675Y-126.161
X113.224Y-72.835
X113.224Y-75.487
X113.224Y-124.835
X113.224Y-127.487
X114.55Y-72.286
X114.55Y-76.036
X114.55Y-124.286
X114.55Y-128.036
X115.876Y-72.835
X115.876Y-75.487
X115.876Y-124.835
X115.876Y-127.487
X116.425Y-74.161
X116.425Y-126.161
T2
X82.55Y-72.161
X82.55Y-74.701
X82.55Y-77.241
X82.55Y-79.781
X82.55Y-82.321
X82.55Y-84.861
X82.55Y-87.401
X82.55Y-89.941
X82.55Y-92.481
X82.55Y-95.021
X82.55Y-97.561
X82.55Y-100.101
X82.55Y-102.641
X82.55Y-105.181
X82.55Y-107.721
X82.55Y-110.261
X82.55Y-112.801
X82.55Y-115.341
X82.55Y-117.881
X107.95Y-72.161
X107.95Y-74.701
X107.95Y-77.241
X107.95Y-79.781
X107.95Y-82.321
X107.95Y-84.861
X107.95Y-87.401
X107.95Y-89.941
X107.95Y-92.481
X107.95Y-95.021
X107.95Y-97.561
X107.95Y-100.101
X107.95Y-102.641
X107.95Y-105.181
X107.95Y-107.721
X107.95Y-110.261
X107.95Y-112.801
X107.95Y-115.341
X107.95Y-117.881
T3
X74.93Y-82.321
X74.93Y-84.861
X74.93Y-87.401
X74.93Y-92.481
X74.93Y-95.021
X74.93Y-97.561
X74.93Y-102.641
X74.93Y-105.181
X74.93Y-107.721
T4
X82.55Y-126.161
X87.63Y-126.161
X92.71Y-126.161
X97.79Y-126.161
X102.87Y-126.161
X107.95Y-126.161
X123.55Y-74.701
X123.55Y-79.781
X123.55Y-84.861
X123.55Y-89.941
X123.55Y-95.021
X123.55Y-100.101
X123.55Y-105.181
X123.55Y-110.261
X123.55Y-115.341
X123.55Y-120.421
X123.55Y-125.501
T5
X76.55Y-74.161
X76.55Y-126.161
X114.55Y-74.161
X114.55Y-126.161
T0
M30
